<?xml version="1.0" encoding="utf-8"?>
<!-- Generator: Adobe Illustrator 25.0.0, SVG Export Plug-In . SVG Version: 6.00 Build 0)  -->
<svg version="1.1" id="Layer_1" xmlns="http://www.w3.org/2000/svg" xmlns:xlink="http://www.w3.org/1999/xlink" x="0px" y="0px"
	 width="453.5px" height="283.5px" viewBox="0 0 453.5 283.5" style="enable-background:new 0 0 453.5 283.5;" xml:space="preserve"
	>
<style type="text/css">
	.st0{fill:#DBDBDB;}
	.st1{fill:#263238;}
	.st2{fill:#6074CB;}
	.st3{fill:#C7C7C7;}
	.st4{fill:#FFFFFF;}
	.st5{fill:#D8DDEF;}
	.st6{fill:#EBEBEB;}
	.st7{fill:#A6A6A6;}
	.st8{fill:#FFC107;}
	.st9{fill:#FF3D00;}
	.st10{fill:none;stroke:#F4C416;stroke-width:4;stroke-linecap:round;stroke-miterlimit:10;}
	.st11{fill:none;stroke:#F6CD2F;stroke-width:4;stroke-linecap:round;stroke-miterlimit:10;}
</style>
<g id="Layer_1_1_">
	<g id="gdpr_direct-background-simple--inject-2_1_">
		<path class="st0" d="M42.3,221.8l-2.1,1c-0.2-0.5,0-1.1,0.5-1.3C41.3,221.1,42,221.3,42.3,221.8z M43.2,211.6
			c-0.6,0.4-0.8,1-0.4,1.6c0.4,0.6,1,0.8,1.6,0.4c0.6-0.4,0.8-1,0.4-1.6C44.5,211.5,43.8,211.2,43.2,211.6L43.2,211.6z M42,216.5
			c-0.6,0.4-0.8,1-0.4,1.6c0.4,0.6,1,0.8,1.6,0.4c0.6-0.4,0.8-1,0.4-1.6l0,0C43.3,216.4,42.6,216.2,42,216.5L42,216.5z M39.9,210.8
			c-0.2-0.3-0.5-0.5-0.8-0.6l0.1,2.3c0.1-0.1,0.2,0,0.4-0.1C40.1,212,40.3,211.4,39.9,210.8L39.9,210.8z M39.5,205.4
			c-0.6,0.4-0.8,1-0.4,1.6s1,0.8,1.6,0.4c0.6-0.4,0.8-1,0.4-1.6l0,0C40.8,205.3,40.1,205,39.5,205.4L39.5,205.4z M45.6,201.7
			c-0.5,0.4-0.6,1.1-0.3,1.7c0.4,0.5,0.9,0.6,1.5,0.4c0.7-0.3,0.8-1,0.5-1.6c-0.3-0.7-1-0.8-1.6-0.5
			C45.7,201.6,45.7,201.6,45.6,201.7z M44.4,206.6c-0.6,0.4-0.8,1-0.4,1.6s1,0.8,1.6,0.4c0.6-0.4,0.8-1,0.4-1.6
			C45.8,206.5,45,206.3,44.4,206.6L44.4,206.6z M42,195.6c-0.6,0.4-0.8,1-0.4,1.6c0.4,0.6,1,0.8,1.6,0.4c0.6-0.4,0.8-1,0.4-1.6
			C43.3,195.4,42.6,195.2,42,195.6L42,195.6z M40.8,200.5c-0.5,0.4-0.6,1.1-0.3,1.7c0.4,0.5,0.9,0.6,1.5,0.4c0.7-0.3,0.8-1,0.5-1.6
			c-0.3-0.7-1-0.8-1.6-0.5C40.9,200.4,40.8,200.4,40.8,200.5z M38.7,194.8c-0.1-0.1-0.1-0.2-0.2-0.2l0.1,1.7
			C38.9,195.7,38.9,195.2,38.7,194.8L38.7,194.8z M39.5,191.5c0.7-0.3,0.8-1,0.5-1.6c-0.3-0.7-1-0.8-1.6-0.5
			c-0.1,0.1-0.1,0.1-0.2,0.1l0,0l0.1,2.1C38.7,191.7,39.2,191.7,39.5,191.5L39.5,191.5z M44.4,185.7c-0.7,0.3-0.8,1-0.5,1.6
			c0.3,0.7,1,0.8,1.6,0.5c0.1-0.1,0.1-0.1,0.2-0.1c0.5-0.4,0.6-1.1,0.3-1.7C45.5,185.6,44.9,185.4,44.4,185.7z M43.2,190.7
			c-0.6,0.4-0.8,1-0.4,1.6c0.4,0.6,1,0.8,1.6,0.4s0.8-1,0.4-1.6l0,0C44.5,190.5,43.8,190.3,43.2,190.7L43.2,190.7z M40.7,179.6
			c-0.6,0.4-0.8,1-0.4,1.6c0.4,0.6,1,0.8,1.6,0.4c0.6-0.4,0.8-1,0.4-1.6l0,0C42,179.4,41.2,179.2,40.7,179.6L40.7,179.6z
			 M39.5,184.5c-0.6,0.4-0.8,1-0.4,1.6s1,0.8,1.6,0.4c0.6-0.4,0.8-1,0.4-1.6C40.8,184.3,40.1,184.1,39.5,184.5L39.5,184.5
			L39.5,184.5z M38.6,173.8c-0.2-0.3-0.6-0.6-1-0.5l0.1,2.4c0.2,0,0.4-0.1,0.5-0.2C38.7,175.1,39,174.4,38.6,173.8L38.6,173.8
			L38.6,173.8z M45.6,180.8c-0.6,0.4-0.8,1-0.4,1.6s1,0.8,1.6,0.4c0.6-0.4,0.8-1,0.4-1.6l0,0C46.9,180.6,46.2,180.4,45.6,180.8
			L45.6,180.8z M43.2,169.7c-0.6,0.4-0.8,1-0.4,1.6c0.4,0.6,1,0.8,1.6,0.4c0.6-0.4,0.8-1,0.4-1.6l0,0
			C44.5,169.6,43.7,169.4,43.2,169.7z M41.9,174.6c-0.6,0.4-0.8,1-0.4,1.6c0.4,0.6,1,0.8,1.6,0.4c0.6-0.4,0.8-1,0.4-1.6l0,0
			C43.2,174.4,42.5,174.3,41.9,174.6z M39.4,163.5c-0.6,0.4-0.8,1-0.4,1.6c0.4,0.6,1,0.8,1.6,0.4c0.6-0.4,0.8-1,0.4-1.6l0,0
			C40.8,163.4,40,163.1,39.4,163.5L39.4,163.5L39.4,163.5z M38.2,168.4c-0.6,0.4-0.8,1-0.4,1.6c0.4,0.6,1,0.8,1.6,0.4
			c0.6-0.4,0.8-1,0.4-1.6l0,0C39.5,168.3,38.8,168.1,38.2,168.4z M37.4,157.7c-0.1-0.2-0.3-0.3-0.5-0.4v2
			C37.6,159,37.7,158.3,37.4,157.7L37.4,157.7z M36.8,154.5c0.5,0.4,1.2,0.3,1.6-0.2c0.4-0.5,0.3-1.2-0.2-1.6
			c-0.4-0.2-0.9-0.3-1.3,0c-0.1,0.1-0.2,0.1-0.1,0.2V154.5z M45.7,159.9c-0.6,0.4-0.8,1-0.4,1.6c0.4,0.6,1,0.8,1.6,0.4
			s0.8-1,0.4-1.6l0,0C46.9,159.7,46.1,159.5,45.7,159.9C45.6,159.8,45.6,159.8,45.7,159.9L45.7,159.9z M44.4,164.7
			c-0.6,0.4-0.8,1-0.4,1.6c0.4,0.6,1,0.8,1.6,0.4c0.6-0.4,0.8-1,0.4-1.6l0,0C45.7,164.6,45,164.4,44.4,164.7L44.4,164.7L44.4,164.7z
			 M41.9,153.7c-0.6,0.4-0.8,1-0.4,1.6c0.4,0.6,1,0.8,1.6,0.4c0.6-0.4,0.8-1,0.4-1.6l0,0C43.2,153.5,42.5,153.3,41.9,153.7
			C41.9,153.6,41.9,153.6,41.9,153.7L41.9,153.7z M40.7,158.7c-0.5,0.4-0.6,1.1-0.3,1.7c0.4,0.5,0.9,0.6,1.5,0.4
			c0.7-0.3,0.8-1,0.5-1.6c-0.3-0.7-1-0.8-1.6-0.5C40.8,158.6,40.7,158.7,40.7,158.7z M38.2,147.5c-0.6,0.4-0.8,1-0.4,1.6
			c0.4,0.6,1,0.8,1.6,0.4c0.6-0.4,0.8-1,0.4-1.6l0,0C39.5,147.4,38.8,147.2,38.2,147.5L38.2,147.5L38.2,147.5z M44.3,143.9
			c-0.7,0.3-0.8,1-0.5,1.6c0.3,0.7,1,0.8,1.6,0.5c0.1-0.1,0.1-0.1,0.2-0.1c0.5-0.4,0.6-1.1,0.3-1.7
			C45.5,143.7,44.8,143.6,44.3,143.9z M43.1,148.7c-0.7,0.3-0.8,1-0.5,1.6c0.3,0.7,1,0.8,1.6,0.5c0.1-0.1,0.1-0.1,0.2-0.1
			c0.5-0.4,0.6-1.1,0.3-1.7C44.2,148.6,43.6,148.5,43.1,148.7z M40.6,137.7c-0.6,0.4-0.8,1-0.4,1.6c0.4,0.6,1,0.8,1.6,0.4
			c0.6-0.4,0.8-1,0.4-1.6l0,0C41.9,137.5,41.2,137.4,40.6,137.7L40.6,137.7z M39.4,142.6c-0.6,0.4-0.8,1-0.4,1.6
			c0.4,0.6,1,0.8,1.6,0.4c0.6-0.4,0.8-1,0.4-1.6l0,0C40.6,142.5,40,142.3,39.4,142.6L39.4,142.6z M37.3,136.9
			c-0.3-0.4-0.7-0.6-1.3-0.5l0.1,2.4c0.3,0.1,0.4,0,0.7-0.2C37.5,138.2,37.6,137.4,37.3,136.9L37.3,136.9z M36.9,131.5
			c-0.6,0.4-0.8,1-0.4,1.6s1,0.8,1.6,0.4c0.6-0.4,0.8-1,0.4-1.6l0,0C38.2,131.4,37.5,131.2,36.9,131.5L36.9,131.5z M45.5,138.9
			c-0.6,0.4-0.8,1-0.4,1.6c0.4,0.6,1,0.8,1.6,0.4c0.6-0.4,0.8-1,0.4-1.6l0,0C46.8,138.7,46.1,138.6,45.5,138.9L45.5,138.9
			L45.5,138.9z M43,127.8c-0.6,0.4-0.8,1-0.4,1.6c0.4,0.6,1,0.8,1.6,0.4c0.6-0.4,0.8-1,0.4-1.6l0,0C44.3,127.6,43.6,127.5,43,127.8
			L43,127.8L43,127.8z M41.8,132.8c-0.6,0.4-0.8,1-0.4,1.6c0.4,0.6,1,0.8,1.6,0.4c0.6-0.4,0.8-1,0.4-1.6l0,0
			C43.1,132.6,42.4,132.4,41.8,132.8L41.8,132.8L41.8,132.8z M39.3,121.7c-0.6,0.4-0.8,1-0.4,1.6c0.4,0.6,1,0.8,1.6,0.4
			s0.8-1,0.4-1.6l0,0C40.6,121.5,39.9,121.3,39.3,121.7L39.3,121.7L39.3,121.7z M38.1,126.6c-0.6,0.4-0.8,1-0.4,1.6
			c0.4,0.6,1,0.8,1.6,0.4c0.6-0.4,0.8-1,0.4-1.6l0,0C39.4,126.4,38.7,126.2,38.1,126.6L38.1,126.6z M36,120.8
			c-0.2-0.3-0.3-0.4-0.6-0.4l0.1,2.1l0.1-0.1C36.2,122,36.3,121.4,36,120.8L36,120.8z M36.8,117.6c0.7-0.3,0.8-1,0.5-1.6
			c-0.3-0.7-1-0.8-1.6-0.5c-0.1,0.1-0.1,0.1-0.2,0.1c-0.2,0.1-0.3,0.2-0.4,0.3l0.1,1.3C35.7,117.6,36.3,117.9,36.8,117.6L36.8,117.6
			z M45.5,117.9c-0.6,0.4-0.8,1-0.4,1.6c0.4,0.6,1,0.8,1.6,0.4s0.8-1,0.4-1.6l0,0C46.8,117.8,46.1,117.6,45.5,117.9L45.5,117.9z
			 M44.3,122.9c-0.6,0.4-0.8,1-0.4,1.6c0.4,0.6,1,0.8,1.6,0.4s0.8-1,0.4-1.6l0,0C45.5,122.7,44.9,122.5,44.3,122.9L44.3,122.9
			L44.3,122.9z M41.8,111.8c-0.6,0.4-0.8,1-0.4,1.6c0.4,0.6,1,0.8,1.6,0.4s0.8-1,0.4-1.6l0,0C43,111.6,42.4,111.4,41.8,111.8
			L41.8,111.8z M40.5,116.7c-0.5,0.4-0.6,1.1-0.3,1.7c0.4,0.5,0.9,0.6,1.5,0.4c0.7-0.3,0.8-1,0.5-1.6c-0.3-0.7-1-0.8-1.6-0.5
			C40.7,116.6,40.6,116.7,40.5,116.7z M38,105.6c-0.7,0.3-0.8,1-0.5,1.6c0.3,0.7,1,0.8,1.6,0.5c0.1-0.1,0.1-0.1,0.2-0.1
			c0.5-0.4,0.6-1.1,0.3-1.7C39.2,105.5,38.6,105.4,38,105.6z M36.8,110.6c-0.6,0.4-0.8,1-0.4,1.6c0.4,0.6,1,0.8,1.6,0.4
			s0.8-1,0.4-1.6l0,0C38.2,110.4,37.4,110.2,36.8,110.6L36.8,110.6L36.8,110.6z M34.9,105l0.1,0.9C35,105.6,34.9,105.3,34.9,105
			L34.9,105z M35.6,101.5c0.6-0.4,0.8-1,0.4-1.6l0,0c-0.3-0.5-0.9-0.6-1.3-0.5l0.1,2.3C35,101.7,35.3,101.7,35.6,101.5L35.6,101.5z
			 M46.7,113c-0.6,0.4-0.8,1-0.4,1.6c0.4,0.6,1,0.8,1.6,0.4s0.8-1,0.4-1.6l0,0C48,112.8,47.3,112.6,46.7,113L46.7,113z M44.2,101.9
			c-0.6,0.4-0.8,1-0.4,1.6c0.4,0.6,1,0.8,1.6,0.4s0.8-1,0.4-1.6l0,0C45.6,101.8,44.7,101.6,44.2,101.9L44.2,101.9z M43,106.8
			c-0.6,0.4-0.8,1-0.4,1.6c0.4,0.6,1,0.8,1.6,0.4s0.8-1,0.4-1.6l0,0C44.3,106.7,43.6,106.5,43,106.8L43,106.8z M40.5,95.7
			c-0.6,0.4-0.8,1-0.4,1.6c0.4,0.6,1,0.8,1.6,0.4s0.8-1,0.4-1.6l0,0C41.8,95.6,41,95.4,40.5,95.7C40.5,95.8,40.5,95.8,40.5,95.7
			L40.5,95.7z M39.3,100.7c-0.7,0.3-0.8,1-0.5,1.6c0.3,0.7,1,0.8,1.6,0.5c0.1-0.1,0.1-0.1,0.2-0.1c0.5-0.4,0.6-1.1,0.3-1.7
			C40.4,100.6,39.8,100.4,39.3,100.7z M36.8,89.6c-0.6,0.4-0.8,1-0.4,1.6c0.4,0.6,1,0.8,1.6,0.4s0.8-1,0.4-1.6l0,0
			C38.1,89.5,37.3,89.3,36.8,89.6L36.8,89.6z M35.6,94.6c-0.6,0.4-0.8,1-0.4,1.6c0.4,0.6,1,0.8,1.6,0.4s0.8-1,0.4-1.6l0,0
			C36.9,94.4,36.2,94.2,35.6,94.6L35.6,94.6z M34.8,83.9c-0.2-0.3-0.4-0.5-0.8-0.6l0.1,2.3c0.1-0.1,0.2,0,0.3-0.1
			C34.9,85.2,35.1,84.4,34.8,83.9L34.8,83.9z M35.6,80.6c0.6-0.4,0.8-1,0.4-1.6c-0.4-0.6-1-0.8-1.6-0.4c-0.3,0.2-0.5,0.4-0.6,0.7
			l0.1,0.7c0.1,0.1,0.1,0.2,0.1,0.3C34.2,80.7,35,81,35.6,80.6L35.6,80.6L35.6,80.6z M46.7,92c-0.5,0.4-0.6,1.1-0.3,1.7
			c0.4,0.5,0.9,0.6,1.5,0.4c0.7-0.3,0.8-1,0.5-1.6c-0.3-0.7-1-0.8-1.6-0.5C46.7,92,46.7,92,46.7,92z M45.4,97
			c-0.6,0.4-0.8,1-0.4,1.6c0.4,0.6,1,0.8,1.6,0.4s0.8-1,0.4-1.6l0,0C46.8,96.8,46,96.6,45.4,97L45.4,97L45.4,97z M43,85.9
			c-0.6,0.4-0.8,1-0.4,1.6c0.4,0.6,1,0.8,1.6,0.4s0.8-1,0.4-1.6l0,0C44.3,85.7,43.5,85.6,43,85.9L43,85.9L43,85.9z M41.8,90.9
			c-0.5,0.4-0.6,1.1-0.3,1.7c0.4,0.5,0.9,0.6,1.5,0.4c0.7-0.3,0.8-1,0.5-1.6c-0.3-0.7-1-0.8-1.6-0.5C41.8,90.7,41.8,90.7,41.8,90.9z
			 M39.3,79.8c-0.6,0.4-0.8,1-0.4,1.6c0.4,0.6,1,0.8,1.6,0.4s0.8-1,0.4-1.6l0,0C40.6,79.7,39.8,79.5,39.3,79.8L39.3,79.8z
			 M38.1,84.7c-0.6,0.4-0.8,1-0.4,1.6c0.4,0.6,1,0.8,1.6,0.4s0.8-1,0.4-1.6l0,0C39.4,84.6,38.7,84.3,38.1,84.7L38.1,84.7L38.1,84.7z
			 M35.6,73.7c-0.5,0.4-0.6,1.1-0.3,1.7c0.4,0.5,0.9,0.6,1.5,0.4c0.7-0.3,0.8-1,0.5-1.6c-0.3-0.7-1-0.8-1.6-0.5
			C35.6,73.5,35.6,73.6,35.6,73.7z M33.5,67.9c-0.1-0.1-0.1-0.2-0.2-0.1l0.1,1.5C33.7,68.9,33.7,68.3,33.5,67.9L33.5,67.9z
			 M34.4,64.6c0.6-0.4,0.8-1,0.4-1.6c-0.4-0.6-1-0.8-1.6-0.4l0,0l0.1,2.1C33.5,64.8,34,64.8,34.4,64.6L34.4,64.6z M45.4,76
			c-0.7,0.3-0.8,1-0.5,1.6c0.3,0.7,1,0.8,1.6,0.5c0.1-0.1,0.1-0.1,0.2-0.1c0.5-0.4,0.6-1.1,0.3-1.7C46.6,76,45.9,75.9,45.4,76z
			 M44.2,81c-0.7,0.3-0.8,1-0.5,1.6c0.3,0.7,1,0.8,1.6,0.5c0.1-0.1,0.1-0.1,0.2-0.1c0.5-0.4,0.6-1.1,0.3-1.7
			C45.3,80.9,44.7,80.8,44.2,81z M41.8,70c-0.6,0.4-0.8,1-0.5,1.6c0.4,0.6,1,0.8,1.6,0.5c0.6-0.4,0.8-1,0.5-1.6c0,0,0,0-0.1-0.1
			C43,69.8,42.2,69.6,41.8,70C41.7,69.9,41.7,69.9,41.8,70L41.8,70z M40.5,74.8c-0.6,0.4-0.8,1-0.4,1.6c0.4,0.6,1,0.8,1.6,0.4
			s0.8-1,0.4-1.6l0,0C41.8,74.7,41.1,74.5,40.5,74.8L40.5,74.8L40.5,74.8z M38.1,63.8c-0.6,0.4-0.8,1-0.4,1.6c0.4,0.6,1,0.8,1.6,0.4
			s0.8-1,0.4-1.6l0,0C39.3,63.6,38.6,63.4,38.1,63.8C38,63.7,38,63.7,38.1,63.8L38.1,63.8z M36.8,68.7c-0.6,0.4-0.8,1-0.4,1.6
			c0.4,0.6,1,0.8,1.6,0.4s0.8-1,0.4-1.6l0,0C38.1,68.6,37.4,68.3,36.8,68.7L36.8,68.7L36.8,68.7z M34.3,57.6c-0.6,0.4-0.8,1-0.4,1.6
			c0.4,0.6,1,0.8,1.6,0.4c0.6-0.4,0.8-1,0.4-1.6l0,0C35.6,57.4,34.9,57.3,34.3,57.6C34.3,57.5,34.3,57.5,34.3,57.6L34.3,57.6z
			 M46.6,71.2c-0.6,0.4-0.8,1-0.4,1.6c0.4,0.6,1,0.8,1.6,0.4s0.8-1,0.4-1.6l0,0C47.9,71,47.2,70.8,46.6,71.2L46.6,71.2z M44.1,60
			c-0.6,0.4-0.8,1-0.4,1.6c0.4,0.6,1,0.8,1.6,0.4c0.6-0.4,0.8-1,0.4-1.6l0,0C45.4,59.9,44.7,59.7,44.1,60L44.1,60z M42.9,65
			c-0.6,0.4-0.8,1-0.4,1.6c0.4,0.6,1,0.8,1.6,0.4s0.8-1,0.4-1.6l0,0C44.2,64.9,43.5,64.6,42.9,65L42.9,65z M40.4,53.9
			c-0.6,0.4-0.8,1-0.4,1.6s1,0.8,1.6,0.4s0.8-1,0.4-1.6l0,0C41.7,53.8,41,53.5,40.4,53.9L40.4,53.9z M39.2,58.8
			c-0.6,0.4-0.8,1-0.4,1.6c0.4,0.6,1,0.8,1.6,0.4c0.6-0.4,0.8-1,0.4-1.6l0,0C40.6,58.7,39.7,58.5,39.2,58.8z M36.7,47.8
			c-0.5,0.4-0.6,1.1-0.3,1.7c0.4,0.5,0.9,0.6,1.5,0.4c0.7-0.3,0.8-1,0.5-1.6c-0.3-0.7-1-0.8-1.6-0.5C36.8,47.6,36.7,47.7,36.7,47.8z
			 M35.4,52.7c-0.6,0.4-0.8,1-0.4,1.6c0.4,0.6,1,0.8,1.6,0.4c0.6-0.4,0.8-1,0.4-1.6l0,0C36.8,52.6,36.1,52.4,35.4,52.7L35.4,52.7z
			 M33.4,46.9c-0.2-0.3-0.6-0.6-1-0.5l0.1,2.4c0.2,0,0.3-0.1,0.5-0.2C33.6,48.2,33.8,47.4,33.4,46.9L33.4,46.9z M32.9,41.6
			c-0.6,0.4-0.8,1-0.4,1.6s1,0.8,1.6,0.4s0.8-1,0.4-1.6l0,0C34.3,41.4,33.5,41.2,32.9,41.6L32.9,41.6z M46.5,50.2
			c-0.6,0.4-0.8,1-0.4,1.6s1,0.8,1.6,0.4c0.6-0.4,0.8-1,0.4-1.6l0,0C47.9,50.1,47.1,49.8,46.5,50.2L46.5,50.2z M45.3,55.1
			c-0.6,0.4-0.8,1-0.4,1.6s1,0.8,1.6,0.4c0.6-0.4,0.8-1,0.4-1.6l0,0C46.7,55,45.9,54.7,45.3,55.1L45.3,55.1z M42.8,44
			c-0.6,0.4-0.8,1-0.4,1.6c0.4,0.6,1,0.8,1.6,0.4c0.6-0.4,0.8-1,0.4-1.6l0,0C44.2,43.9,43.5,43.7,42.8,44L42.8,44z M41.6,48.9
			c-0.5,0.4-0.6,1.1-0.3,1.7c0.4,0.5,0.9,0.6,1.5,0.4c0.7-0.3,0.8-1,0.5-1.6c-0.3-0.7-1-0.8-1.6-0.5C41.7,48.9,41.7,48.9,41.6,48.9z
			 M39.1,37.8c-0.6,0.4-0.8,1-0.4,1.6s1,0.8,1.6,0.4c0.6-0.4,0.8-1,0.4-1.6l0,0C40.4,37.7,39.8,37.6,39.1,37.8L39.1,37.8z
			 M37.9,42.8c-0.6,0.4-0.8,1-0.4,1.6s1,0.8,1.6,0.4c0.6-0.4,0.8-1,0.4-1.6l0,0C39.2,42.7,38.5,42.5,37.9,42.8L37.9,42.8z
			 M35.4,31.8c-0.6,0.4-0.8,1-0.4,1.6c0.4,0.6,1,0.8,1.6,0.4c0.6-0.4,0.8-1,0.4-1.6l0,0C36.7,31.6,36,31.4,35.4,31.8L35.4,31.8z
			 M34.2,36.6c-0.6,0.4-0.8,1-0.4,1.6c0.4,0.6,1,0.8,1.6,0.4s0.8-1,0.4-1.6l0,0C35.5,36.5,34.8,36.3,34.2,36.6L34.2,36.6z
			 M32.1,30.9c-0.1-0.2-0.2-0.3-0.3-0.4l0.1,1.9C32.3,32,32.5,31.5,32.1,30.9L32.1,30.9z M33,27.6c0.6-0.4,0.8-1,0.4-1.6
			c-0.4-0.6-1-0.8-1.6-0.4c-0.1,0.1-0.1,0.1-0.2,0.1l0.1,1.9C32,27.9,32.5,27.9,33,27.6L33,27.6z M45.3,34.1c-0.6,0.4-0.8,1-0.4,1.6
			c0.4,0.6,1,0.8,1.6,0.4c0.6-0.4,0.8-1,0.4-1.6l0,0C46.6,34,45.9,33.8,45.3,34.1z M44,39.1c-0.6,0.4-0.8,1-0.4,1.6
			c0.4,0.6,1,0.8,1.6,0.4c0.6-0.4,0.8-1,0.4-1.6l0,0C45.4,39,44.7,38.8,44,39.1L44,39.1z M41.6,28c-0.6,0.4-0.8,1-0.4,1.6
			c0.4,0.6,1,0.8,1.6,0.4s0.8-1,0.4-1.6l0,0C42.9,27.8,42.2,27.7,41.6,28L41.6,28z M40.3,32.9c-0.6,0.4-0.8,1-0.4,1.6
			c0.4,0.6,1,0.8,1.6,0.4c0.6-0.4,0.8-1,0.4-1.6l0,0C41.7,32.8,41,32.6,40.3,32.9L40.3,32.9z M37.9,21.9c-0.6,0.4-0.8,1-0.4,1.6
			c0.4,0.6,1,0.8,1.6,0.4s0.8-1,0.4-1.6l0,0C39.2,21.7,38.5,21.5,37.9,21.9L37.9,21.9z M36.7,26.8c-0.6,0.4-0.8,1-0.4,1.6
			c0.4,0.6,1,0.8,1.6,0.4s0.8-1,0.4-1.6l0,0C37.9,26.6,37.3,26.5,36.7,26.8L36.7,26.8z M34.2,15.7c-0.6,0.4-0.8,1-0.4,1.6
			c0.4,0.6,1,0.8,1.6,0.4s0.8-1,0.4-1.6l0,0C35.5,15.5,34.8,15.3,34.2,15.7L34.2,15.7z M32.9,20.6c-0.7,0.3-0.8,1-0.5,1.6
			s1,0.8,1.6,0.5c0.1-0.1,0.1-0.1,0.2-0.1c0.5-0.4,0.6-1.1,0.3-1.7C34.1,20.5,33.5,20.3,32.9,20.6z M32.1,9.9
			c-0.3-0.4-0.7-0.6-1.2-0.6l0.1,2.4c0.2,0,0.4,0,0.6-0.1C32.3,11.2,32.5,10.5,32.1,9.9L32.1,9.9z M46.5,29.3
			c-0.6,0.4-0.8,1-0.4,1.6c0.4,0.6,1,0.8,1.6,0.4s0.8-1,0.4-1.6l0,0C47.8,29.1,47.1,28.9,46.5,29.3z M44.1,18.2
			c-0.6,0.4-0.8,1-0.4,1.6c0.4,0.6,1,0.8,1.6,0.4s0.8-1,0.4-1.6l0,0C45.3,18,44.7,17.8,44.1,18.2L44.1,18.2L44.1,18.2z M42.8,23.1
			c-0.6,0.4-0.8,1-0.4,1.6c0.4,0.6,1,0.8,1.6,0.4s0.8-1,0.4-1.6l0,0C44.1,22.9,43.4,22.7,42.8,23.1L42.8,23.1z M40.3,12
			c-0.6,0.4-0.8,1-0.4,1.6c0.4,0.6,1,0.8,1.6,0.4c0.6-0.4,0.8-1,0.4-1.6l0,0C41.7,11.9,40.9,11.6,40.3,12L40.3,12L40.3,12z
			 M39.1,16.9c-0.6,0.4-0.8,1-0.4,1.6c0.4,0.6,1,0.8,1.6,0.4s0.8-1,0.4-1.6l0,0C40.4,16.7,39.7,16.6,39.1,16.9z M36.6,5.8
			c-0.5,0.4-0.6,1.1-0.3,1.7c0.4,0.5,1,0.6,1.6,0.4c0.7-0.3,0.8-1,0.5-1.6s-1-0.8-1.6-0.5C36.7,5.8,36.7,5.8,36.6,5.8z M35.4,10.8
			c-0.6,0.4-0.8,1-0.4,1.6c0.4,0.6,1,0.8,1.6,0.4c0.6-0.4,0.8-1,0.4-1.6l0,0C36.7,10.7,36,10.4,35.4,10.8L35.4,10.8z M32.5,1.3
			c0.4,0.6,1,0.8,1.6,0.4c0.5-0.2,0.7-0.7,0.6-1.2l-2-0.6C32.3,0.2,32.2,0.9,32.5,1.3L32.5,1.3z M37.4,2.5c0.4,0.6,1,0.8,1.6,0.4
			c0.4-0.2,0.7-0.6,0.7-0.9l-2.2-0.7C37.3,1.7,37.2,2.2,37.4,2.5z M31.7,4.6c-0.6,0.4-0.8,1-0.4,1.6s1,0.8,1.6,0.4s0.8-1,0.4-1.6
			l0,0C33,4.5,32.3,4.2,31.7,4.6L31.7,4.6z M50.2,14.4c-0.6,0.4-0.8,1-0.4,1.6c0.4,0.6,1,0.8,1.6,0.4s0.8-1,0.4-1.6l0,0
			C51.5,14.2,50.7,14.1,50.2,14.4L50.2,14.4z M46.5,8.3c-0.7,0.3-0.8,1-0.5,1.6c0.3,0.7,1,0.8,1.6,0.5c0.1-0.1,0.1-0.1,0.2-0.1
			c0.5-0.4,0.6-1.1,0.3-1.7C47.6,8.2,47.1,8,46.5,8.3z M49,5.4c0.2-0.1,0.3-0.3,0.4-0.5l-2.2-0.7c0,0.2,0,0.4,0.2,0.7
			C47.7,5.6,48.4,5.7,49,5.4L49,5.4z M45.3,13.2c-0.6,0.4-0.8,1-0.4,1.6c0.4,0.6,1,0.8,1.6,0.4c0.6-0.4,0.8-1,0.4-1.6l0,0
			C46.6,13,45.9,12.8,45.3,13.2L45.3,13.2L45.3,13.2z M42.4,3.8c0.4,0.6,1,0.8,1.6,0.4c0.3-0.2,0.5-0.4,0.5-0.7l-2.3-0.7
			C42.2,3.2,42.2,3.5,42.4,3.8L42.4,3.8z M41.6,7c-0.6,0.4-0.8,1-0.4,1.6c0.4,0.6,1,0.8,1.6,0.4c0.6-0.4,0.8-1,0.4-1.6l0,0
			C42.9,6.9,42.2,6.7,41.6,7L41.6,7L41.6,7z M60.1,16.9c-0.6,0.4-0.8,1-0.4,1.6c0.4,0.6,1,0.8,1.6,0.4s0.8-1,0.4-1.6l0,0
			C61.4,16.7,60.7,16.5,60.1,16.9L60.1,16.9z M56.4,10.7c-0.6,0.4-0.8,1-0.4,1.6c0.4,0.6,1,0.8,1.6,0.4c0.6-0.4,0.8-1,0.4-1.6l0,0
			C57.7,10.5,57,10.4,56.4,10.7z M58.8,7.8l-1.7-0.5l0.1,0.1C57.5,7.9,58.2,8.1,58.8,7.8L58.8,7.8z M55.2,15.7
			c-0.6,0.4-0.8,1-0.4,1.6c0.4,0.6,1,0.8,1.6,0.4s0.8-1,0.4-1.6l0,0C56.4,15.5,55.8,15.3,55.2,15.7L55.2,15.7L55.2,15.7z M53.9,6.6
			c0.1-0.1,0.2-0.1,0.2-0.2l-2-0.6c0,0.1,0.1,0.3,0.1,0.4C52.6,6.8,53.3,7,53.9,6.6L53.9,6.6z M51.4,9.5c-0.7,0.3-0.8,1-0.5,1.6
			c0.3,0.7,1,0.8,1.6,0.5c0.1-0.1,0.1-0.1,0.2-0.1c0.5-0.4,0.6-1.1,0.3-1.7C52.6,9.4,52,9.3,51.4,9.5z M66.2,13.2
			c-0.5,0.4-0.6,1.1-0.3,1.7c0.4,0.5,0.9,0.6,1.5,0.4c0.7-0.3,0.8-1,0.5-1.6C67.6,13,66.9,12.9,66.2,13.2
			C66.3,13,66.2,13.1,66.2,13.2z M63.3,9.2l-1-0.2C62.6,9.2,62.9,9.3,63.3,9.2L63.3,9.2z M61.3,11.9c-0.5,0.4-0.6,1.1-0.3,1.7
			c0.4,0.5,0.9,0.6,1.5,0.4c0.7-0.3,0.8-1,0.5-1.6c-0.3-0.7-1-0.8-1.6-0.5C61.4,11.9,61.3,11.9,61.3,11.9z M76,15.6
			c-0.7,0.3-0.8,1-0.5,1.6c0.3,0.7,1,0.8,1.6,0.5c0.1-0.1,0.1-0.1,0.2-0.1c0.5-0.4,0.6-1.1,0.3-1.7C77.2,15.4,76.6,15.4,76,15.6z
			 M71.1,14.4c-0.6,0.4-0.8,1-0.4,1.6s1,0.8,1.6,0.4s0.8-1,0.4-1.6l0,0C72.4,14.3,71.7,14.1,71.1,14.4L71.1,14.4z M81,16.9
			c-0.6,0.4-0.8,1-0.4,1.6s1,0.8,1.6,0.4s0.8-1,0.4-1.6l0,0C82.3,16.7,81.6,16.5,81,16.9L81,16.9L81,16.9z"/>
	</g>
	<g id="gdpr_direct-background-simple--inject-2">
		<path class="st0" d="M421.6,91.7l2.3,0.2c-0.1,0.5-0.6,0.9-1.1,0.9C422.1,92.8,421.6,92.3,421.6,91.7z M415.6,92.8
			c0.7,0,1.2-0.5,1.2-1.2l0,0c0-0.2,0-0.4-0.1-0.5l-2-0.2c-0.2,0.2-0.3,0.5-0.3,0.8C414.4,92.3,414.9,92.8,415.6,92.8L415.6,92.8
			L415.6,92.8z M415.6,100c0.7,0,1.2-0.5,1.2-1.2s-0.5-1.2-1.2-1.2s-1.2,0.5-1.2,1.2C414.4,99.4,414.9,100,415.6,100L415.6,100z
			 M419.2,96.4c0.7,0,1.2-0.5,1.2-1.2s-0.5-1.2-1.2-1.2s-1.2,0.5-1.2,1.2l0,0C418,95.8,418.5,96.4,419.2,96.4L419.2,96.4z
			 M418,102.4c0,0.4,0.2,0.7,0.4,0.9l1.1-2c-0.1,0-0.2-0.1-0.4-0.1C418.5,101.2,418,101.7,418,102.4L418,102.4z M415.6,107.2
			c0.7,0,1.2-0.5,1.2-1.2s-0.5-1.2-1.2-1.2s-1.2,0.5-1.2,1.2l0,0C414.4,106.6,414.9,107.2,415.6,107.2L415.6,107.2z M408.4,92.8
			c0.7,0,1.2-0.5,1.2-1.2s-0.5-1.2-1.2-1.2s-1.2,0.5-1.2,1.2S407.7,92.8,408.4,92.8L408.4,92.8z M408.4,100c0.7,0,1.2-0.5,1.2-1.2
			s-0.5-1.2-1.2-1.2s-1.2,0.5-1.2,1.2S407.7,100,408.4,100L408.4,100z M412,96.4c0.7,0,1.2-0.5,1.2-1.2S412.7,94,412,94
			s-1.2,0.5-1.2,1.2S411.3,96.4,412,96.4L412,96.4z M408.4,107.2c0.7-0.1,1.1-0.6,1.1-1.3c-0.1-0.6-0.5-1-1.1-1.1
			c-0.7-0.1-1.2,0.4-1.3,1.1c-0.1,0.7,0.4,1.2,1.1,1.3C408.3,107.2,408.3,107.2,408.4,107.2z M412,103.6c0.7,0,1.2-0.5,1.2-1.2
			s-0.5-1.2-1.2-1.2s-1.2,0.5-1.2,1.2C410.8,103,411.3,103.6,412,103.6L412,103.6z M408.4,114.3c0.7,0,1.2-0.5,1.2-1.2
			s-0.5-1.2-1.2-1.2s-1.2,0.5-1.2,1.2S407.7,114.3,408.4,114.3L408.4,114.3z M412,110.7c0.7-0.1,1.1-0.6,1.1-1.3
			c-0.1-0.6-0.5-1-1.1-1.1c-0.7-0.1-1.2,0.4-1.3,1.1c-0.1,0.7,0.4,1.2,1.1,1.3C411.8,110.8,411.9,110.8,412,110.7z M410.8,116.7
			c0,0.1,0,0.2,0.1,0.3l0.8-1.5C411.1,115.8,410.8,116.2,410.8,116.7L410.8,116.7z M408.4,119.1c-0.7-0.1-1.2,0.4-1.3,1.1
			c-0.1,0.7,0.4,1.2,1.1,1.3c0.1,0,0.1,0,0.2,0l0,0l1-1.8C409.2,119.4,408.8,119.1,408.4,119.1L408.4,119.1z M331.8,260.5
			c0,0.2,0,0.3,0.1,0.5l0.9-1.7C332.2,259.4,331.8,259.8,331.8,260.5L331.8,260.5z M329.4,262.8c-0.7,0-1.2,0.5-1.2,1.2
			s0.5,1.2,1.2,1.2c0.1,0,0.1,0,0.2,0l0.9-1.7C330.3,263.1,329.9,262.8,329.4,262.8L329.4,262.8z M322.2,265.2
			c0.7,0,1.2-0.5,1.2-1.2s-0.5-1.2-1.2-1.2s-1.2,0.5-1.2,1.2l0,0C321,264.7,321.5,265.2,322.2,265.2L322.2,265.2z M325.8,261.6
			c0.7,0,1.2-0.5,1.2-1.2s-0.5-1.2-1.2-1.2s-1.2,0.5-1.2,1.2l0,0C324.6,261.1,325.1,261.6,325.8,261.6L325.8,261.6z M322.2,272.4
			c0.7,0,1.2-0.5,1.2-1.2s-0.5-1.2-1.2-1.2s-1.2,0.5-1.2,1.2l0,0C321,271.9,321.5,272.4,322.2,272.4L322.2,272.4z M325.8,268.8
			c0.7,0.1,1.2-0.4,1.3-1.1c0.1-0.7-0.4-1.2-1.1-1.3c-0.1,0-0.1,0-0.2,0c-0.7,0.1-1.1,0.6-1.1,1.3
			C324.7,268.3,325.2,268.8,325.8,268.8z M321,278.4c0,0.5,0.3,0.9,0.7,1.1l1.1-2.1c-0.2-0.1-0.4-0.2-0.6-0.2
			C321.5,277.2,321,277.7,321,278.4L321,278.4z M315,265.2c0.7,0,1.2-0.5,1.2-1.2s-0.5-1.2-1.2-1.2s-1.2,0.5-1.2,1.2l0,0
			C313.8,264.7,314.3,265.2,315,265.2L315,265.2L315,265.2z M318.6,261.6c0.7,0,1.2-0.5,1.2-1.2s-0.5-1.2-1.2-1.2s-1.2,0.5-1.2,1.2
			l0,0C317.4,261.1,317.9,261.6,318.6,261.6L318.6,261.6z M315,272.4c0.7,0,1.2-0.5,1.2-1.2s-0.5-1.2-1.2-1.2s-1.2,0.5-1.2,1.2l0,0
			C313.8,271.8,314.3,272.4,315,272.4L315,272.4L315,272.4z M318.6,268.8c0.7,0,1.2-0.5,1.2-1.2s-0.5-1.2-1.2-1.2s-1.2,0.5-1.2,1.2
			l0,0C317.4,268.3,317.9,268.8,318.6,268.8z M315,279.6c0.7-0.1,1.1-0.6,1.1-1.3c-0.1-0.6-0.5-1-1.1-1.1c-0.7-0.1-1.2,0.4-1.3,1.1
			c-0.1,0.7,0.4,1.2,1.1,1.3C314.9,279.6,314.9,279.6,315,279.6z M318.6,276c0.7,0,1.2-0.5,1.2-1.2s-0.5-1.2-1.2-1.2
			s-1.2,0.5-1.2,1.2l0,0C317.4,275.4,317.9,276,318.6,276L318.6,276z M316.2,285.6c0-0.7-0.5-1.2-1.2-1.2c-0.5,0-0.9,0.3-1.1,0.8
			l1.4,1.6C315.8,286.6,316.2,286.1,316.2,285.6L316.2,285.6z M312.6,282c0-0.7-0.5-1.2-1.2-1.2c-0.4,0-0.8,0.2-1,0.5l1.5,1.7
			C312.3,282.8,312.6,282.4,312.6,282z M318.6,283.2c0.7,0,1.2-0.5,1.2-1.2s-0.5-1.2-1.2-1.2s-1.2,0.5-1.2,1.2l0,0
			C317.4,282.6,317.9,283.2,318.6,283.2L318.6,283.2z M307.8,265.2c0.7,0,1.2-0.5,1.2-1.2s-0.5-1.2-1.2-1.2s-1.2,0.5-1.2,1.2l0,0
			C306.6,264.7,307.2,265.2,307.8,265.2L307.8,265.2z M311.4,261.6c0.7,0,1.2-0.5,1.2-1.2s-0.5-1.2-1.2-1.2s-1.2,0.5-1.2,1.2l0,0
			C310.2,261.1,310.7,261.6,311.4,261.6L311.4,261.6L311.4,261.6z M307.8,272.4c0.7,0.1,1.2-0.4,1.3-1.1c0.1-0.7-0.4-1.2-1.1-1.3
			c-0.1,0-0.1,0-0.2,0c-0.7,0.1-1.1,0.6-1.1,1.3C306.8,271.9,307.2,272.3,307.8,272.4z M304.2,273.6c-0.2,0-0.4,0.1-0.6,0.2l1.5,1.7
			c0.1-0.2,0.2-0.4,0.2-0.7C305.4,274.1,304.9,273.6,304.2,273.6L304.2,273.6z M311.4,268.8c0.7,0,1.2-0.5,1.2-1.2s-0.5-1.2-1.2-1.2
			s-1.2,0.5-1.2,1.2l0,0C310.2,268.3,310.7,268.8,311.4,268.8L311.4,268.8L311.4,268.8z M309,278.4c0-0.7-0.5-1.2-1.2-1.2
			c-0.3,0-0.6,0.1-0.8,0.3l1.6,1.8C308.9,279,309,278.7,309,278.4L309,278.4z M311.4,276c0.7,0,1.2-0.5,1.2-1.2s-0.5-1.2-1.2-1.2
			s-1.2,0.5-1.2,1.2l0,0C310.2,275.4,310.7,276,311.4,276L311.4,276L311.4,276z M300.6,265.2c0.7,0,1.2-0.5,1.2-1.2
			s-0.5-1.2-1.2-1.2s-1.2,0.5-1.2,1.2l0,0C299.4,264.7,299.9,265.2,300.6,265.2z M297,266.4l1.2,1.3v-0.1
			C298.2,267,297.7,266.5,297,266.4L297,266.4z M304.2,261.6c0.7,0,1.2-0.5,1.2-1.2s-0.5-1.2-1.2-1.2s-1.2,0.5-1.2,1.2l0,0
			C303,261.1,303.5,261.6,304.2,261.6L304.2,261.6L304.2,261.6z M300.6,270c-0.1,0-0.2,0-0.3,0.1l1.4,1.6c0.1-0.1,0.1-0.3,0.1-0.4
			C301.8,270.5,301.3,270,300.6,270L300.6,270z M304.2,268.8c0.7,0.1,1.2-0.4,1.3-1.1c0.1-0.7-0.4-1.2-1.1-1.3c-0.1,0-0.1,0-0.2,0
			c-0.7,0.1-1.1,0.6-1.1,1.3C303.1,268.3,303.6,268.7,304.2,268.8z M293.9,262.9l0.7,0.7C294.5,263.3,294.3,263,293.9,262.9
			L293.9,262.9z M297,261.6c0.7-0.1,1.1-0.6,1.1-1.3c-0.1-0.6-0.5-1-1.1-1.1c-0.7-0.1-1.2,0.4-1.3,1.1c-0.1,0.7,0.4,1.2,1.1,1.3
			C296.9,261.6,297,261.6,297,261.6z"/>
	</g>
	<g>
		<g id="gdpr_direct-Screen--inject-2">
			<path class="st1" d="M406,258.6l-357.4,0.2h-0.2v-0.2L48.3,18.9v-0.3h0.3L406,18.8h0.1v0.1L406,258.6z M406,258.6L405.9,19
				l0.1,0.1L48.6,19.2l0.3-0.3l-0.1,239.6l-0.2-0.2L406,258.6z"/>
			<rect x="48.6" y="18.9" class="st2" width="357.4" height="31.1"/>
			<rect x="48.6" y="18.9" class="st1" width="357.4" height="9.9"/>
			<path class="st3" d="M56.5,23.9c0,1.4-1.1,2.5-2.5,2.4c-1.4,0-2.5-1.1-2.4-2.5c0-1.4,1.1-2.4,2.5-2.4
				C55.4,21.4,56.5,22.5,56.5,23.9L56.5,23.9z"/>
			<path class="st4" d="M66.6,23.9c0,1.4-1.1,2.5-2.5,2.4c-1.4,0-2.5-1.1-2.4-2.5c0-1.4,1.1-2.4,2.5-2.4
				C65.5,21.4,66.6,22.5,66.6,23.9L66.6,23.9z"/>
			<path class="st2" d="M76.6,23.9c0,1.4-1.1,2.5-2.5,2.4c-1.4,0-2.5-1.1-2.4-2.5c0-1.4,1.1-2.4,2.5-2.4
				C75.5,21.4,76.6,22.5,76.6,23.9L76.6,23.9z"/>
			<rect x="48.6" y="197.4" class="st5" width="358" height="60.9"/>
			<path class="st4" d="M109.1,198.5c-0.2,0.1-0.3,0.3-0.2,0.4c0,0.1,0.2,0.2,0.3,0.2c0.2-0.1,0.3-0.3,0.2-0.4
				C109.4,198.5,109.2,198.5,109.1,198.5z"/>
			<path class="st4" d="M108.2,196.9c-0.1,0-0.2,0.2-0.2,0.3s0.1,0.2,0.2,0.2s0.2-0.2,0.2-0.3C108.4,197,108.3,196.9,108.2,196.9z"
				/>
		</g>
	</g>
	<path class="st2" d="M163.1,165.2H69.7V71.8h93.5v93.4H163.1z M77.9,157h77V80h-77V157z"/>
	<g>
		<rect x="302.5" y="104.5" class="st6" width="1.1" height="6.6"/>
		<rect x="297.8" y="104.5" class="st6" width="1.1" height="6.6"/>
		<rect x="300.1" y="104.5" class="st6" width="1.1" height="6.6"/>
		<path class="st6" d="M197.7,92.1h-17.2v17.2h17.2V92.1z M181.9,93.4h14.6V108h-14.6V93.4z"/>
	</g>
	<g>
		<path class="st6" d="M340.6,76.8V94h17.2V76.8H340.6z M341.9,92.7V78.1h14.6v14.6H341.9z"/>
		<rect x="342.3" y="162.9" class="st7" width="27.3" height="2.1"/>
		<polygon class="st7" points="369.6,164.9 367.5,164.9 367.5,139.7 344.4,139.7 344.4,164.9 342.3,164.9 342.3,137.6 369.6,137.6 
					"/>
		<rect x="309.4" y="117.5" class="st2" width="45.1" height="1.6"/>
		<path class="st0" d="M294.6,131.1c3.2-0.1,6.5-0.1,9.7-0.2h9.7h9.7l4.8,0.1l4.8,0.1l-4.8,0.1l-4.8,0.1H314h-9.7
			C301,131.2,297.8,131.2,294.6,131.1z"/>
		<path class="st0" d="M294.6,135.3c3.2-0.1,6.5-0.1,9.7-0.2h9.7h9.7l4.8,0.1l4.8,0.1l-4.8,0.1l-4.8,0.1H314h-9.7
			C301,135.4,297.8,135.3,294.6,135.3z"/>
		<path class="st0" d="M294.6,139.5c3.2-0.1,6.5-0.1,9.7-0.2h9.7h9.7l4.8,0.1l4.8,0.1l-4.8,0.1l-4.8,0.1H314h-9.7
			C301,139.6,297.8,139.5,294.6,139.5z"/>
		<path class="st0" d="M294.6,147.9c3.2-0.1,6.5-0.1,9.7-0.2h9.7h9.7l4.8,0.1l4.8,0.1l-4.8,0.1l-4.8,0.1H314h-9.7
			C301,148,297.8,148,294.6,147.9z"/>
		<path class="st0" d="M294.6,152.1c3.2-0.1,6.5-0.1,9.7-0.2h9.7h9.7l4.8,0.1l4.8,0.1l-4.8,0.1l-4.8,0.1H314h-9.7
			C301,152.2,297.8,152.2,294.6,152.1z"/>
		<path class="st0" d="M294.6,156.3c2-0.1,3.9-0.1,5.9-0.2c2,0,3.9,0,5.9,0s3.9,0,5.9,0l2.9,0.1c1,0,2,0.1,2.9,0.1
			c-1,0-2,0.1-2.9,0.1l-2.9,0.1c-2,0-3.9,0-5.9,0s-3.9,0-5.9,0C298.5,156.4,296.5,156.4,294.6,156.3z"/>
	</g>
	<path class="st2" d="M227.6,146.7h-27.1v-19.4h27.1V146.7z M200.8,146.3h26.3v-18.6h-26.3V146.3z"/>
	<g>
		<path class="st1" d="M193.1,242.9c0.4,0.2,0.7,0.5,0.9,0.9s0.3,0.8,0.3,1.3s-0.1,0.9-0.3,1.3c-0.2,0.4-0.5,0.7-0.9,0.9
			s-0.8,0.3-1.3,0.3s-0.9-0.1-1.3-0.3c-0.4-0.2-0.7-0.5-0.9-0.9s-0.3-0.8-0.3-1.3s0.1-0.9,0.3-1.3c0.2-0.4,0.5-0.7,0.9-0.9
			s0.8-0.3,1.3-0.3S192.8,242.7,193.1,242.9z M190.8,243.2c-0.3,0.2-0.5,0.4-0.7,0.7s-0.2,0.7-0.2,1.1c0,0.4,0.1,0.8,0.2,1.1
			c0.2,0.3,0.4,0.6,0.7,0.7s0.7,0.3,1.1,0.3s0.8-0.1,1.1-0.3s0.5-0.4,0.7-0.7s0.2-0.7,0.2-1.1c0-0.4-0.1-0.8-0.2-1.1
			c-0.2-0.3-0.4-0.6-0.7-0.7c-0.3-0.2-0.7-0.3-1.1-0.3S191.1,243,190.8,243.2z M191.1,243.7c-0.2,0.1-0.4,0.3-0.6,0.5
			c-0.1,0.2-0.2,0.5-0.2,0.8s0.1,0.6,0.2,0.8c0.1,0.2,0.3,0.4,0.6,0.5c0.2,0.1,0.5,0.2,0.8,0.2c0.4,0,0.7-0.1,1-0.3s0.4-0.5,0.5-0.8
			h-1c-0.1,0.2-0.2,0.3-0.5,0.3c-0.2,0-0.3-0.1-0.4-0.2c-0.1-0.1-0.1-0.3-0.1-0.6s0-0.4,0.1-0.6c0.1-0.1,0.2-0.2,0.4-0.2
			c0.1,0,0.2,0,0.3,0.1s0.1,0.1,0.2,0.3h1c-0.1-0.4-0.2-0.6-0.5-0.8s-0.6-0.3-1-0.3C191.6,243.5,191.3,243.6,191.1,243.7z"/>
		<path class="st1" d="M196.6,243.8c0.2-0.4,0.5-0.7,0.9-0.9s0.8-0.3,1.3-0.3c0.6,0,1.1,0.2,1.5,0.5s0.7,0.7,0.8,1.3h-1.3
			c-0.1-0.2-0.2-0.4-0.4-0.5s-0.4-0.2-0.6-0.2c-0.4,0-0.7,0.1-0.9,0.4c-0.2,0.3-0.3,0.6-0.3,1s0.1,0.8,0.3,1s0.5,0.4,0.9,0.4
			c0.2,0,0.4-0.1,0.6-0.2s0.3-0.3,0.4-0.5h1.3c-0.1,0.5-0.4,1-0.8,1.3c-0.4,0.3-0.9,0.5-1.5,0.5c-0.5,0-0.9-0.1-1.3-0.3
			c-0.4-0.2-0.7-0.5-0.9-0.9s-0.3-0.8-0.3-1.3S196.4,244.2,196.6,243.8z"/>
		<path class="st1" d="M202.6,247.4c-0.3-0.2-0.5-0.4-0.7-0.7s-0.3-0.7-0.3-1.1c0-0.4,0.1-0.8,0.3-1.1s0.4-0.5,0.7-0.7
			s0.7-0.2,1-0.2c0.4,0,0.7,0.1,1,0.2c0.3,0.2,0.6,0.4,0.7,0.7c0.2,0.3,0.3,0.7,0.3,1.1s-0.1,0.8-0.3,1.1s-0.4,0.5-0.7,0.7
			s-0.7,0.2-1,0.2S202.9,247.5,202.6,247.4z M204.2,246.3c0.2-0.2,0.2-0.4,0.2-0.7s-0.1-0.6-0.2-0.7c-0.2-0.2-0.3-0.3-0.6-0.3
			c-0.2,0-0.4,0.1-0.6,0.2c-0.2,0.2-0.2,0.4-0.2,0.7s0.1,0.6,0.2,0.7c0.2,0.2,0.3,0.3,0.6,0.3S204,246.5,204.2,246.3z"/>
		<path class="st1" d="M208,243.7c0.2-0.1,0.4-0.2,0.7-0.2s0.6,0.1,0.9,0.2s0.5,0.4,0.6,0.7c0.2,0.3,0.2,0.7,0.2,1.1
			s-0.1,0.8-0.2,1.1c-0.2,0.3-0.4,0.5-0.6,0.7c-0.3,0.2-0.6,0.2-0.9,0.2c-0.3,0-0.5-0.1-0.7-0.2c-0.2-0.1-0.4-0.3-0.5-0.4v2.4h-1.2
			v-5.8h1.2v0.6C207.6,244,207.8,243.9,208,243.7z M209,244.9c-0.2-0.2-0.4-0.3-0.6-0.3c-0.2,0-0.4,0.1-0.6,0.3
			c-0.2,0.2-0.2,0.4-0.2,0.7s0.1,0.5,0.2,0.7c0.2,0.2,0.4,0.3,0.6,0.3s0.4-0.1,0.6-0.3s0.3-0.4,0.3-0.7S209.1,245,209,244.9z"/>
		<path class="st1" d="M215,243.6l-2.4,5.8h-1.3l0.9-2l-1.6-3.8h1.3l0.9,2.4l0.9-2.4H215z"/>
		<path class="st1" d="M217.2,243.8c0.2-0.1,0.4-0.2,0.7-0.2v1.3h-0.3c-0.3,0-0.5,0.1-0.7,0.2c-0.1,0.1-0.2,0.4-0.2,0.7v1.8h-1.2
			v-3.9h1.2v0.7C216.8,244.1,217,243.9,217.2,243.8z"/>
		<path class="st1" d="M218.6,243c-0.1-0.1-0.2-0.3-0.2-0.5s0.1-0.3,0.2-0.5c0.1-0.1,0.3-0.2,0.5-0.2s0.4,0.1,0.5,0.2
			c0.1,0.1,0.2,0.3,0.2,0.5s-0.1,0.3-0.2,0.5c-0.1,0.1-0.3,0.2-0.5,0.2S218.7,243.2,218.6,243z M219.7,243.6v3.9h-1.2v-3.9H219.7z"
			/>
		<path class="st1" d="M222.7,243.7c0.2,0.1,0.4,0.3,0.5,0.4v-0.6h1.2v3.9c0,0.4-0.1,0.7-0.2,1c-0.1,0.3-0.4,0.5-0.7,0.7
			s-0.7,0.3-1.1,0.3c-0.6,0-1-0.1-1.4-0.4c-0.4-0.3-0.6-0.6-0.6-1.1h1.2c0,0.1,0.1,0.3,0.3,0.4c0.1,0.1,0.3,0.1,0.5,0.1
			s0.4-0.1,0.6-0.2s0.2-0.4,0.2-0.7V247c-0.1,0.2-0.3,0.3-0.5,0.4c-0.2,0.1-0.4,0.2-0.7,0.2s-0.6-0.1-0.9-0.2
			c-0.3-0.2-0.5-0.4-0.6-0.7c-0.2-0.3-0.2-0.7-0.2-1.1s0.1-0.8,0.2-1.1c0.2-0.3,0.4-0.5,0.6-0.7s0.6-0.2,0.9-0.2
			C222.3,243.6,222.5,243.6,222.7,243.7z M223,244.9c-0.2-0.2-0.4-0.3-0.6-0.3c-0.2,0-0.4,0.1-0.6,0.3c-0.2,0.2-0.2,0.4-0.2,0.7
			s0.1,0.5,0.2,0.7c0.2,0.2,0.4,0.3,0.6,0.3c0.2,0,0.4-0.1,0.6-0.3c0.2-0.2,0.2-0.4,0.2-0.7C223.2,245.3,223.1,245.1,223,244.9z"/>
		<path class="st1" d="M228.8,244c0.3,0.3,0.4,0.7,0.4,1.2v2.3H228v-2.1c0-0.3-0.1-0.5-0.2-0.6c-0.1-0.1-0.3-0.2-0.5-0.2
			s-0.4,0.1-0.5,0.2s-0.2,0.3-0.2,0.6v2.1h-1.2v-5.2h1.2v1.8c0.1-0.2,0.3-0.3,0.5-0.4s0.4-0.2,0.7-0.2
			C228.1,243.6,228.5,243.7,228.8,244z"/>
		<path class="st1" d="M232.2,246.5v1h-0.6c-0.4,0-0.8-0.1-1-0.3s-0.4-0.6-0.4-1v-1.6h-0.5v-1h0.5v-1h1.2v1h0.8v1h-0.8v1.6
			c0,0.1,0,0.2,0.1,0.3s0.1,0.1,0.3,0.1h0.4V246.5z"/>
	</g>
	<g>
		<path class="st1" d="M98.1,213.8c-0.2,0.4-0.5,0.7-1,0.9s-1,0.4-1.7,0.4H94v3.2h-1.7V210h3.1c0.6,0,1.2,0.1,1.7,0.3s0.8,0.5,1,0.9
			s0.3,0.8,0.3,1.3C98.5,213,98.4,213.4,98.1,213.8z M96.4,213.5c0.2-0.2,0.3-0.5,0.3-0.9c0-0.8-0.5-1.2-1.4-1.2H94v2.4h1.3
			C95.8,213.8,96.2,213.7,96.4,213.5z"/>
		<path class="st1" d="M102.2,211.9c0.3-0.2,0.7-0.3,1.2-0.3v1.8H103c-0.5,0-0.9,0.1-1.2,0.4c-0.3,0.2-0.4,0.7-0.4,1.3v3.3h-1.7
			v-6.6h1.7v1C101.5,212.4,101.8,212.1,102.2,211.9z"/>
		<path class="st1" d="M104.6,210.6c-0.2-0.2-0.3-0.4-0.3-0.7s0.1-0.5,0.3-0.7c0.2-0.2,0.4-0.3,0.7-0.3c0.3,0,0.5,0.1,0.7,0.3
			s0.3,0.4,0.3,0.7s-0.1,0.5-0.3,0.7c-0.2,0.2-0.4,0.3-0.7,0.3C105,210.9,104.8,210.8,104.6,210.6z M106.2,211.7v6.6h-1.7v-6.6
			H106.2z"/>
		<path class="st1" d="M110.6,216.8l1.7-5.1h1.8l-2.5,6.6h-2l-2.4-6.6h1.8L110.6,216.8z"/>
		<path class="st1" d="M115,213.2c0.3-0.5,0.6-0.9,1.1-1.2s1-0.4,1.5-0.4s0.9,0.1,1.3,0.3s0.7,0.5,0.9,0.8v-0.9h1.7v6.6h-1.7v-1
			c-0.2,0.3-0.5,0.6-0.9,0.8s-0.8,0.3-1.3,0.3c-0.6,0-1.1-0.1-1.5-0.4c-0.5-0.3-0.8-0.7-1.1-1.2c-0.3-0.5-0.4-1.1-0.4-1.8
			C114.6,214.3,114.7,213.7,115,213.2z M119.6,214c-0.2-0.3-0.4-0.5-0.6-0.7c-0.3-0.2-0.6-0.2-0.9-0.2s-0.6,0.1-0.9,0.2
			s-0.5,0.4-0.6,0.7s-0.2,0.6-0.2,1s0.1,0.8,0.2,1s0.4,0.5,0.6,0.7s0.6,0.2,0.9,0.2s0.6-0.1,0.9-0.2c0.3-0.2,0.5-0.4,0.6-0.7
			c0.2-0.3,0.2-0.6,0.2-1.1C119.8,214.6,119.7,214.3,119.6,214z"/>
		<path class="st1" d="M123.1,213.2c0.3-0.5,0.7-0.9,1.2-1.2s1.1-0.4,1.7-0.4c0.8,0,1.5,0.2,2,0.6s0.9,1,1.1,1.7h-1.8
			c-0.1-0.3-0.3-0.5-0.5-0.7s-0.5-0.2-0.8-0.2c-0.5,0-0.9,0.2-1.1,0.5c-0.3,0.3-0.4,0.8-0.4,1.5c0,0.6,0.1,1.1,0.4,1.5
			c0.3,0.3,0.7,0.5,1.1,0.5c0.7,0,1.1-0.3,1.3-0.9h1.8c-0.2,0.7-0.5,1.3-1.1,1.7c-0.5,0.4-1.2,0.6-2,0.6c-0.6,0-1.2-0.1-1.7-0.4
			c-0.5-0.3-0.9-0.7-1.2-1.2c-0.3-0.5-0.4-1.1-0.4-1.8C122.7,214.3,122.9,213.7,123.1,213.2z"/>
		<path class="st1" d="M136.7,211.7l-4.1,9.8h-1.8l1.4-3.3l-2.7-6.5h1.9l1.7,4.6l1.7-4.6H136.7z"/>
		<path class="st1" d="M146.3,213.8c-0.2,0.4-0.5,0.7-1,0.9s-1,0.4-1.7,0.4h-1.4v3.2h-1.7V210h3.1c0.6,0,1.2,0.1,1.7,0.3
			s0.8,0.5,1,0.9s0.3,0.8,0.3,1.3C146.6,213,146.5,213.4,146.3,213.8z M144.5,213.5c0.2-0.2,0.3-0.5,0.3-0.9c0-0.8-0.5-1.2-1.4-1.2
			h-1.3v2.4h1.3C144,213.8,144.3,213.7,144.5,213.5z"/>
		<path class="st1" d="M149,218c-0.5-0.3-0.9-0.7-1.2-1.2s-0.4-1.1-0.4-1.8s0.1-1.3,0.4-1.8c0.3-0.5,0.7-0.9,1.2-1.2
			s1.1-0.4,1.7-0.4c0.6,0,1.2,0.1,1.7,0.4c0.5,0.3,0.9,0.7,1.2,1.2s0.5,1.1,0.5,1.8s-0.2,1.3-0.5,1.8s-0.7,0.9-1.2,1.2
			s-1.1,0.4-1.8,0.4C150.1,218.5,149.5,218.3,149,218z M151.6,216.8c0.3-0.1,0.5-0.4,0.6-0.7c0.2-0.3,0.2-0.7,0.2-1.1
			c0-0.6-0.2-1.1-0.5-1.5c-0.3-0.3-0.7-0.5-1.2-0.5s-0.9,0.2-1.2,0.5s-0.5,0.8-0.5,1.5c0,0.6,0.2,1.1,0.5,1.5
			c0.3,0.3,0.7,0.5,1.2,0.5C151,217,151.3,216.9,151.6,216.8z"/>
		<path class="st1" d="M157.1,209.5v8.9h-1.7v-8.9H157.1z"/>
		<path class="st1" d="M158.9,210.6c-0.2-0.2-0.3-0.4-0.3-0.7s0.1-0.5,0.3-0.7s0.4-0.3,0.7-0.3s0.5,0.1,0.7,0.3s0.3,0.4,0.3,0.7
			s-0.1,0.5-0.3,0.7s-0.4,0.3-0.7,0.3C159.3,210.9,159.1,210.8,158.9,210.6z M160.5,211.7v6.6h-1.7v-6.6H160.5z"/>
		<path class="st1" d="M162.1,213.2c0.3-0.5,0.7-0.9,1.2-1.2s1.1-0.4,1.7-0.4c0.8,0,1.5,0.2,2,0.6s0.9,1,1.1,1.7h-1.8
			c-0.1-0.3-0.3-0.5-0.5-0.7s-0.5-0.2-0.8-0.2c-0.5,0-0.9,0.2-1.1,0.5c-0.3,0.3-0.4,0.8-0.4,1.5c0,0.6,0.1,1.1,0.4,1.5
			c0.3,0.3,0.7,0.5,1.1,0.5c0.7,0,1.1-0.3,1.3-0.9h1.8c-0.2,0.7-0.5,1.3-1.1,1.7c-0.5,0.4-1.2,0.6-2,0.6c-0.6,0-1.2-0.1-1.7-0.4
			c-0.5-0.3-0.9-0.7-1.2-1.2s-0.4-1.1-0.4-1.8C161.7,214.3,161.8,213.7,162.1,213.2z"/>
		<path class="st1" d="M175.7,211.7l-4.1,9.8h-1.8l1.4-3.3l-2.7-6.5h1.9l1.7,4.6l1.7-4.6H175.7z"/>
		<path class="st1" d="M183.8,219.6h-1.1v-10.8h1.1V219.6z"/>
		<path class="st1" d="M192,211.9c0.4-0.7,0.9-1.2,1.5-1.5s1.4-0.5,2.2-0.5c0.9,0,1.8,0.2,2.5,0.7s1.2,1.1,1.5,2h-2
			c-0.2-0.4-0.5-0.7-0.8-0.9s-0.8-0.3-1.2-0.3c-0.5,0-0.9,0.1-1.3,0.3c-0.4,0.2-0.7,0.5-0.9,1s-0.3,0.9-0.3,1.5s0.1,1,0.3,1.5
			c0.2,0.4,0.5,0.7,0.9,1c0.4,0.2,0.8,0.3,1.3,0.3s0.9-0.1,1.2-0.3s0.6-0.5,0.8-0.9h1.9c-0.3,0.9-0.8,1.5-1.5,2s-1.5,0.7-2.5,0.7
			c-0.8,0-1.5-0.2-2.2-0.5s-1.2-0.9-1.5-1.5c-0.4-0.6-0.6-1.4-0.6-2.2C191.5,213.3,191.6,212.6,192,211.9z"/>
		<path class="st1" d="M202.3,218c-0.5-0.3-0.9-0.7-1.2-1.2s-0.4-1.1-0.4-1.8s0.1-1.3,0.4-1.8c0.3-0.5,0.7-0.9,1.2-1.2
			s1.1-0.4,1.7-0.4c0.6,0,1.2,0.1,1.7,0.4c0.5,0.3,0.9,0.7,1.2,1.2s0.5,1.1,0.5,1.8s-0.2,1.3-0.5,1.8s-0.7,0.9-1.2,1.2
			s-1.1,0.4-1.8,0.4C203.4,218.5,202.8,218.3,202.3,218z M204.9,216.8c0.3-0.1,0.5-0.4,0.6-0.7c0.2-0.3,0.2-0.7,0.2-1.1
			c0-0.6-0.2-1.1-0.5-1.5c-0.3-0.3-0.7-0.5-1.2-0.5s-0.9,0.2-1.2,0.5s-0.5,0.8-0.5,1.5c0,0.6,0.2,1.1,0.5,1.5
			c0.3,0.3,0.7,0.5,1.2,0.5C204.3,217,204.6,216.9,204.9,216.8z"/>
		<path class="st1" d="M210,218c-0.5-0.3-0.9-0.7-1.2-1.2s-0.4-1.1-0.4-1.8s0.1-1.3,0.4-1.8c0.3-0.5,0.7-0.9,1.2-1.2
			s1.1-0.4,1.7-0.4c0.6,0,1.2,0.1,1.7,0.4c0.5,0.3,0.9,0.7,1.2,1.2s0.5,1.1,0.5,1.8s-0.2,1.3-0.5,1.8s-0.7,0.9-1.2,1.2
			s-1.1,0.4-1.8,0.4C211,218.5,210.5,218.3,210,218z M212.5,216.8c0.3-0.1,0.5-0.4,0.6-0.7c0.2-0.3,0.2-0.7,0.2-1.1
			c0-0.6-0.2-1.1-0.5-1.5c-0.3-0.3-0.7-0.5-1.2-0.5s-0.9,0.2-1.2,0.5s-0.5,0.8-0.5,1.5c0,0.6,0.2,1.1,0.5,1.5
			c0.3,0.3,0.7,0.5,1.2,0.5C212,217,212.3,216.9,212.5,216.8z"/>
		<path class="st1" d="M220.3,218.3l-2.3-2.8v2.8h-1.7v-8.9h1.7v5.1l2.2-2.8h2.2l-2.9,3.3l3,3.3L220.3,218.3L220.3,218.3z"/>
		<path class="st1" d="M223.5,210.6c-0.2-0.2-0.3-0.4-0.3-0.7s0.1-0.5,0.3-0.7s0.4-0.3,0.7-0.3s0.5,0.1,0.7,0.3s0.3,0.4,0.3,0.7
			s-0.1,0.5-0.3,0.7s-0.4,0.3-0.7,0.3C224,210.9,223.7,210.8,223.5,210.6z M225.1,211.7v6.6h-1.7v-6.6H225.1z"/>
		<path class="st1" d="M232.9,215.5H228c0,0.5,0.2,0.9,0.5,1.1c0.3,0.3,0.7,0.4,1.1,0.4c0.6,0,1.1-0.3,1.3-0.8h1.8
			c-0.2,0.6-0.6,1.2-1.1,1.6s-1.2,0.6-2,0.6c-0.6,0-1.2-0.1-1.7-0.4c-0.5-0.3-0.9-0.7-1.2-1.2s-0.4-1.1-0.4-1.8s0.1-1.3,0.4-1.8
			c0.3-0.5,0.7-0.9,1.2-1.2s1.1-0.4,1.7-0.4c0.6,0,1.2,0.1,1.7,0.4c0.5,0.3,0.9,0.7,1.2,1.2s0.4,1.1,0.4,1.7
			C232.9,215.1,232.9,215.3,232.9,215.5z M231.2,214.4c0-0.4-0.2-0.8-0.5-1c-0.3-0.3-0.7-0.4-1.1-0.4c-0.4,0-0.8,0.1-1.1,0.4
			c-0.3,0.3-0.5,0.6-0.5,1H231.2z"/>
		<path class="st1" d="M242.8,213.8c-0.2,0.4-0.5,0.7-1,0.9s-1,0.4-1.7,0.4h-1.4v3.2H237V210h3.1c0.6,0,1.2,0.1,1.7,0.3
			s0.8,0.5,1,0.9s0.3,0.8,0.3,1.3C243.1,213,243,213.4,242.8,213.8z M241,213.5c0.2-0.2,0.3-0.5,0.3-0.9c0-0.8-0.5-1.2-1.4-1.2h-1.2
			v2.4h1.3C240.5,213.8,240.8,213.7,241,213.5z"/>
		<path class="st1" d="M245.5,218c-0.5-0.3-0.9-0.7-1.2-1.2s-0.4-1.1-0.4-1.8s0.2-1.3,0.5-1.8s0.7-0.9,1.2-1.2s1.1-0.4,1.7-0.4
			s1.2,0.1,1.7,0.4c0.5,0.3,0.9,0.7,1.2,1.2s0.5,1.1,0.5,1.8s-0.2,1.3-0.5,1.8s-0.7,0.9-1.2,1.2s-1.1,0.4-1.8,0.4
			C246.6,218.5,246,218.3,245.5,218z M248.1,216.8c0.3-0.1,0.5-0.4,0.6-0.7c0.2-0.3,0.2-0.7,0.2-1.1c0-0.6-0.2-1.1-0.5-1.5
			c-0.3-0.3-0.7-0.5-1.2-0.5s-0.9,0.2-1.2,0.5s-0.5,0.8-0.5,1.5c0,0.6,0.2,1.1,0.5,1.5c0.3,0.3,0.7,0.5,1.2,0.5
			C247.5,217,247.8,216.9,248.1,216.8z"/>
		<path class="st1" d="M253.6,209.5v8.9h-1.7v-8.9H253.6z"/>
		<path class="st1" d="M255.4,210.6c-0.2-0.2-0.3-0.4-0.3-0.7s0.1-0.5,0.3-0.7c0.2-0.2,0.4-0.3,0.7-0.3s0.5,0.1,0.7,0.3
			s0.3,0.4,0.3,0.7s-0.1,0.5-0.3,0.7c-0.2,0.2-0.4,0.3-0.7,0.3S255.6,210.8,255.4,210.6z M257,211.7v6.6h-1.7v-6.6H257z"/>
		<path class="st1" d="M258.6,213.2c0.3-0.5,0.7-0.9,1.2-1.2s1.1-0.4,1.7-0.4c0.8,0,1.5,0.2,2,0.6s0.9,1,1.1,1.7h-1.8
			c-0.1-0.3-0.3-0.5-0.5-0.7s-0.5-0.2-0.8-0.2c-0.5,0-0.9,0.2-1.1,0.5s-0.4,0.8-0.4,1.5c0,0.6,0.1,1.1,0.4,1.5
			c0.3,0.3,0.7,0.5,1.1,0.5c0.7,0,1.1-0.3,1.3-0.9h1.8c-0.2,0.7-0.5,1.3-1.1,1.7c-0.5,0.4-1.2,0.6-2,0.6c-0.6,0-1.2-0.1-1.7-0.4
			c-0.5-0.3-0.9-0.7-1.2-1.2c-0.3-0.5-0.4-1.1-0.4-1.8C258.2,214.3,258.3,213.7,258.6,213.2z"/>
		<path class="st1" d="M272.2,211.7l-4.1,9.8h-1.8l1.4-3.3l-2.7-6.5h1.9l1.7,4.6l1.7-4.6H272.2z"/>
		<path class="st1" d="M280.3,219.6h-1.1v-10.8h1.1V219.6z"/>
		<path class="st1" d="M290,217h2.8v1.3h-4.4V210h1.7v7H290z"/>
		<path class="st1" d="M300,215.5h-4.9c0,0.5,0.2,0.9,0.5,1.1c0.3,0.3,0.7,0.4,1.1,0.4c0.6,0,1.1-0.3,1.3-0.8h1.8
			c-0.2,0.6-0.6,1.2-1.1,1.6s-1.2,0.6-2,0.6c-0.6,0-1.2-0.1-1.7-0.4c-0.5-0.3-0.9-0.7-1.2-1.2c-0.3-0.5-0.4-1.1-0.4-1.8
			s0.1-1.3,0.4-1.8s0.7-0.9,1.2-1.2s1.1-0.4,1.7-0.4s1.2,0.1,1.7,0.4c0.5,0.3,0.9,0.7,1.2,1.2c0.3,0.5,0.4,1.1,0.4,1.7
			C300.1,215.1,300,215.3,300,215.5z M298.3,214.4c0-0.4-0.2-0.8-0.5-1c-0.3-0.3-0.7-0.4-1.1-0.4s-0.8,0.1-1.1,0.4
			c-0.3,0.3-0.5,0.6-0.5,1H298.3z"/>
		<path class="st1" d="M305.2,211.9c0.4,0.2,0.7,0.5,0.9,0.8v-0.9h1.7v6.7c0,0.6-0.1,1.2-0.4,1.7s-0.6,0.9-1.1,1.2s-1.1,0.4-1.8,0.4
			c-0.9,0-1.7-0.2-2.3-0.7c-0.6-0.4-0.9-1-1-1.8h1.7c0.1,0.3,0.3,0.5,0.6,0.7c0.3,0.2,0.6,0.3,1.1,0.3s0.9-0.1,1.2-0.4
			c0.3-0.3,0.5-0.7,0.5-1.3v-1c-0.2,0.3-0.5,0.6-0.9,0.8s-0.8,0.3-1.3,0.3c-0.6,0-1.1-0.1-1.5-0.4c-0.5-0.3-0.8-0.7-1.1-1.2
			c-0.3-0.5-0.4-1.1-0.4-1.8s0.1-1.3,0.4-1.8s0.6-0.9,1.1-1.2s1-0.4,1.5-0.4C304.4,211.6,304.8,211.7,305.2,211.9z M305.8,214
			c-0.2-0.3-0.4-0.5-0.6-0.7c-0.3-0.2-0.6-0.2-0.9-0.2s-0.6,0.1-0.9,0.2c-0.3,0.2-0.5,0.4-0.6,0.7s-0.2,0.6-0.2,1s0.1,0.8,0.2,1
			s0.4,0.5,0.6,0.7c0.3,0.2,0.6,0.2,0.9,0.2s0.6-0.1,0.9-0.2c0.3-0.2,0.5-0.4,0.6-0.7c0.2-0.3,0.2-0.6,0.2-1.1
			C306.1,214.6,306,214.3,305.8,214z"/>
		<path class="st1" d="M309.4,213.2c0.3-0.5,0.6-0.9,1.1-1.2s1-0.4,1.5-0.4s0.9,0.1,1.3,0.3s0.7,0.5,0.9,0.8v-0.9h1.7v6.6h-1.7v-1
			c-0.2,0.3-0.5,0.6-0.9,0.8s-0.8,0.3-1.3,0.3c-0.6,0-1.1-0.1-1.5-0.4c-0.5-0.3-0.8-0.7-1.1-1.2c-0.3-0.5-0.4-1.1-0.4-1.8
			C309,214.3,309.1,213.7,309.4,213.2z M314,214c-0.2-0.3-0.4-0.5-0.6-0.7c-0.3-0.2-0.6-0.2-0.9-0.2s-0.6,0.1-0.9,0.2
			c-0.3,0.2-0.5,0.4-0.6,0.7s-0.2,0.6-0.2,1s0.1,0.8,0.2,1s0.4,0.5,0.6,0.7c0.3,0.2,0.6,0.2,0.9,0.2s0.6-0.1,0.9-0.2
			c0.3-0.2,0.5-0.4,0.6-0.7c0.2-0.3,0.2-0.6,0.2-1.1C314.2,214.6,314.1,214.3,314,214z"/>
		<path class="st1" d="M319.2,209.5v8.9h-1.7v-8.9H319.2z"/>
		<path class="st1" d="M330.9,218.3h-1.7l-3.8-5.7v5.7h-1.7V210h1.7l3.8,5.8V210h1.7V218.3z"/>
		<path class="st1" d="M333.8,218c-0.5-0.3-0.9-0.7-1.2-1.2c-0.3-0.5-0.4-1.1-0.4-1.8s0.2-1.3,0.5-1.8s0.7-0.9,1.2-1.2
			s1.1-0.4,1.7-0.4s1.2,0.1,1.7,0.4c0.5,0.3,0.9,0.7,1.2,1.2c0.3,0.5,0.5,1.1,0.5,1.8s-0.2,1.3-0.5,1.8s-0.7,0.9-1.2,1.2
			s-1.1,0.4-1.8,0.4C334.9,218.5,334.3,218.3,333.8,218z M336.4,216.8c0.3-0.1,0.5-0.4,0.6-0.7c0.2-0.3,0.2-0.7,0.2-1.1
			c0-0.6-0.2-1.1-0.5-1.5c-0.3-0.3-0.7-0.5-1.2-0.5s-0.9,0.2-1.2,0.5c-0.3,0.3-0.5,0.8-0.5,1.5c0,0.6,0.2,1.1,0.5,1.5
			c0.3,0.3,0.7,0.5,1.2,0.5C335.8,217,336.1,216.9,336.4,216.8z"/>
		<path class="st1" d="M342.2,213.1v3.2c0,0.2,0.1,0.4,0.2,0.5s0.3,0.1,0.5,0.1h0.8v1.4h-1.1c-1.4,0-2.1-0.7-2.1-2.1V213h-0.8v-1.4
			h0.8V210h1.7v1.6h1.5v1.4h-1.5V213.1z"/>
		<path class="st1" d="M345,210.6c-0.2-0.2-0.3-0.4-0.3-0.7s0.1-0.5,0.3-0.7c0.2-0.2,0.4-0.3,0.7-0.3c0.3,0,0.5,0.1,0.7,0.3
			s0.3,0.4,0.3,0.7s-0.1,0.5-0.3,0.7s-0.4,0.3-0.7,0.3C345.4,210.9,345.2,210.8,345,210.6z M346.6,211.7v6.6h-1.7v-6.6H346.6z"/>
		<path class="st1" d="M348.2,213.2c0.3-0.5,0.7-0.9,1.2-1.2s1.1-0.4,1.7-0.4c0.8,0,1.5,0.2,2,0.6s0.9,1,1.1,1.7h-1.8
			c-0.1-0.3-0.3-0.5-0.5-0.7s-0.5-0.2-0.8-0.2c-0.5,0-0.9,0.2-1.1,0.5c-0.3,0.3-0.4,0.8-0.4,1.5c0,0.6,0.1,1.1,0.4,1.5
			c0.3,0.3,0.7,0.5,1.1,0.5c0.7,0,1.1-0.3,1.3-0.9h1.8c-0.2,0.7-0.5,1.3-1.1,1.7c-0.5,0.4-1.2,0.6-2,0.6c-0.6,0-1.2-0.1-1.7-0.4
			c-0.5-0.3-0.9-0.7-1.2-1.2c-0.3-0.5-0.4-1.1-0.4-1.8C347.8,214.3,347.9,213.7,348.2,213.2z"/>
		<path class="st1" d="M361.6,215.5h-4.9c0,0.5,0.2,0.9,0.5,1.1c0.3,0.3,0.7,0.4,1.1,0.4c0.6,0,1.1-0.3,1.3-0.8h1.8
			c-0.2,0.6-0.6,1.2-1.1,1.6s-1.2,0.6-2,0.6c-0.6,0-1.2-0.1-1.7-0.4c-0.5-0.3-0.9-0.7-1.2-1.2c-0.3-0.5-0.4-1.1-0.4-1.8
			s0.1-1.3,0.4-1.8s0.7-0.9,1.2-1.2s1.1-0.4,1.7-0.4s1.2,0.1,1.7,0.4c0.5,0.3,0.9,0.7,1.2,1.2s0.4,1.1,0.4,1.7
			C361.6,215.1,361.6,215.3,361.6,215.5z M359.9,214.4c0-0.4-0.2-0.8-0.5-1c-0.3-0.3-0.7-0.4-1.1-0.4s-0.8,0.1-1,0.4s-0.5,0.6-0.5,1
			H359.9z"/>
	</g>
	<g>
		<path class="st4" d="M64.6,34.6v7h-1.4v-4.5l-1.9,4.5h-1.1l-1.9-4.5v4.5h-1.4v-7h1.6l2.2,5.2l2.2-5.2H64.6z"/>
		<path class="st4" d="M71.3,36.1l-3.4,8.2h-1.5l1.2-2.8l-2.2-5.4H67l1.4,3.9l1.5-3.9H71.3z"/>
		<path class="st4" d="M82.1,36.1l-1.6,5.5H79l-1-3.9l-1,3.9h-1.5l-1.6-5.5h1.4l1,4.2l1.1-4.2h1.3l1,4.2l1-4.2H82.1z"/>
		<path class="st4" d="M88,39.3h-4.1c0,0.4,0.2,0.7,0.4,0.9c0.2,0.2,0.6,0.3,0.9,0.3c0.5,0,0.9-0.2,1.1-0.7h1.5
			c-0.2,0.5-0.5,1-0.9,1.3c-0.5,0.3-1,0.5-1.7,0.5c-0.5,0-1-0.1-1.4-0.4s-0.8-0.6-1-1s-0.4-0.9-0.4-1.5s0.1-1.1,0.4-1.5
			c0.2-0.4,0.6-0.8,1-1s0.9-0.2,1.5-0.2c0.5,0,1,0.1,1.4,0.3s0.7,0.5,1,1s0.3,0.9,0.3,1.4C88,38.9,88,39.1,88,39.3z M86.6,38.3
			c0-0.4-0.1-0.6-0.4-0.9c-0.3-0.2-0.6-0.3-0.9-0.3s-0.6,0.1-0.9,0.3c-0.2,0.2-0.4,0.5-0.4,0.9H86.6z"/>
		<path class="st4" d="M91.2,36.3c0.3-0.2,0.7-0.3,1.1-0.3c0.5,0,0.9,0.1,1.3,0.4s0.7,0.6,0.9,1s0.3,0.9,0.3,1.5s-0.1,1.1-0.3,1.5
			c-0.2,0.4-0.5,0.8-0.9,1s-0.8,0.4-1.3,0.4c-0.4,0-0.8-0.1-1.1-0.2s-0.6-0.4-0.7-0.6v0.8h-1.4v-7.4h1.4v2.7
			C90.6,36.6,90.9,36.4,91.2,36.3z M93.2,38c-0.1-0.2-0.3-0.4-0.5-0.6s-0.5-0.2-0.7-0.2c-0.3,0-0.5,0.1-0.7,0.2s-0.4,0.3-0.5,0.6
			c-0.1,0.2-0.2,0.5-0.2,0.9c0,0.3,0.1,0.6,0.2,0.9c0.1,0.2,0.3,0.4,0.5,0.6c0.2,0.1,0.5,0.2,0.7,0.2c0.3,0,0.5-0.1,0.7-0.2
			c0.2-0.1,0.4-0.3,0.5-0.6c0.1-0.2,0.2-0.5,0.2-0.9S93.3,38.2,93.2,38z"/>
		<path class="st4" d="M96.7,41.5c-0.4-0.2-0.6-0.4-0.9-0.7s-0.3-0.6-0.3-0.9h1.4c0,0.2,0.1,0.4,0.3,0.5c0.2,0.1,0.4,0.2,0.7,0.2
			c0.3,0,0.5-0.1,0.6-0.2c0.1-0.1,0.2-0.2,0.2-0.4s-0.1-0.3-0.3-0.4c-0.2-0.1-0.5-0.2-0.9-0.3s-0.8-0.2-1-0.3
			c-0.3-0.1-0.5-0.3-0.7-0.5c-0.1-0.2-0.1-0.5-0.1-0.8s0.1-0.6,0.3-0.8c0.2-0.3,0.4-0.5,0.8-0.6c0.3-0.1,0.7-0.2,1.2-0.2
			c0.7,0,1.2,0.2,1.6,0.5s0.6,0.8,0.7,1.3h-1.6c0-0.2-0.1-0.4-0.3-0.5c-0.2-0.1-0.4-0.2-0.7-0.2c-0.3,0-0.4,0-0.6,0.1
			c-0.1,0.1-0.2,0.2-0.2,0.4s0.1,0.3,0.3,0.4c0.2,0.1,0.5,0.2,0.9,0.3s0.7,0.2,1,0.3s0.5,0.3,0.7,0.5s0.3,0.5,0.3,0.9
			c0,0.3-0.1,0.6-0.3,0.9c-0.2,0.3-0.4,0.5-0.8,0.6c-0.3,0.1-0.7,0.2-1.2,0.2C97.5,41.7,97.1,41.6,96.7,41.5z"/>
		<path class="st4" d="M101.4,35.2c-0.2-0.2-0.2-0.4-0.2-0.6c0-0.2,0.1-0.4,0.2-0.6c0.2-0.2,0.4-0.2,0.6-0.2s0.5,0.1,0.6,0.2
			c0.2,0.2,0.2,0.4,0.2,0.6c0,0.2-0.1,0.4-0.2,0.6c-0.2,0.2-0.4,0.2-0.6,0.2C101.7,35.4,101.5,35.4,101.4,35.2z M102.7,36.1v5.5
			h-1.4v-5.5H102.7z"/>
		<path class="st4" d="M105.7,37.2v2.7c0,0.2,0,0.3,0.1,0.4c0.1,0.1,0.2,0.1,0.5,0.1h0.7v1.2h-0.9c-1.2,0-1.8-0.6-1.8-1.7v-2.7h-0.7
			V36h0.7v-1.4h1.4V36h1.2v1.2H105.7z"/>
		<path class="st4" d="M113.1,39.3H109c0,0.4,0.2,0.7,0.4,0.9c0.2,0.2,0.6,0.3,0.9,0.3c0.5,0,0.9-0.2,1.1-0.7h1.5
			c-0.2,0.5-0.5,1-0.9,1.3c-0.5,0.3-1,0.5-1.7,0.5c-0.5,0-1-0.1-1.4-0.4s-0.8-0.6-1-1s-0.4-0.9-0.4-1.5s0.1-1.1,0.4-1.5
			c0.2-0.4,0.6-0.8,1-1s0.9-0.4,1.5-0.4c0.5,0,1,0.1,1.4,0.3s0.7,0.5,1,1s0.3,0.9,0.3,1.4C113.1,38.9,113.1,39.1,113.1,39.3z
			 M111.7,38.3c0-0.4-0.1-0.6-0.4-0.9c-0.3-0.2-0.6-0.3-0.9-0.3s-0.6,0.1-0.9,0.3c-0.2,0.2-0.4,0.5-0.4,0.9H111.7z"/>
	</g>
	<g>
		<path class="st2" d="M254,249.7c0,0.8-0.6,1.4-1.4,1.4H241c-0.8,0-1.4-0.6-1.4-1.4v-7.5c0-0.8,0.6-1.4,1.4-1.4h11.6
			c0.8,0,1.4,0.6,1.4,1.4V249.7z"/>
		<path class="st4" d="M243.8,244.2l-0.9,2.7c0,0-0.2-1.1-0.3-1.3c-0.5-1.2-1.3-1.1-1.3-1.1l0.9,3.5l0,0h1.1l1.5-3.8L243.8,244.2
			L243.8,244.2z M244.7,248h1l0.6-3.8h-1L244.7,248z M251.6,244.2h-1L249,248h1l0.2-0.5h1.2l0.1,0.5h0.9L251.6,244.2z M250.4,246.7
			l0.5-1.4l0.3,1.4H250.4z M247.6,245.3c0-0.2,0.2-0.4,0.7-0.4c0.3,0,0.7,0.2,0.7,0.2l0.2-0.8c0,0-0.5-0.2-0.9-0.2
			c-1,0-1.6,0.5-1.6,1.1c0,1.1,1.4,1,1.4,1.6c0,0.1-0.1,0.3-0.6,0.3c-0.6,0-0.9-0.2-0.9-0.2l-0.2,0.8c0,0,0.4,0.2,1.1,0.2
			c0.7,0,1.7-0.5,1.7-1.3C249,245.8,247.6,245.7,247.6,245.3z"/>
		<path class="st8" d="M242.8,246.3l-0.3-1.6c0,0-0.1-0.4-0.5-0.4s-1.5,0-1.5,0S242.4,244.9,242.8,246.3z"/>
	</g>
	<g>
		<path class="st2" d="M274,249.9c0,0.8-0.6,1.4-1.4,1.4h-11.9c-0.8,0-1.4-0.6-1.4-1.4v-7.7c0-0.8,0.6-1.4,1.4-1.4h11.9
			c0.8,0,1.4,0.6,1.4,1.4V249.9z"/>
		<path class="st8" d="M268.8,242.6c-1.9,0-3.5,1.6-3.5,3.5s1.6,3.5,3.5,3.5s3.5-1.6,3.5-3.5C272.3,244.1,270.7,242.6,268.8,242.6z"
			/>
		<path class="st9" d="M266,248.2c-0.2-0.2-0.3-0.4-0.4-0.7h1.9c0.1-0.2,0.2-0.5,0.2-0.7h-2.3c0-0.2-0.1-0.5-0.1-0.7h2.4
			c0-0.2,0-0.5-0.1-0.7h-2.3c0-0.2,0.1-0.5,0.2-0.7h1.9c-0.1-0.3-0.2-0.5-0.4-0.7h-1c0.2-0.2,0.3-0.4,0.5-0.6
			c-0.6-0.5-1.4-0.8-2.3-0.8c-1.9,0-3.5,1.6-3.5,3.5s1.6,3.5,3.5,3.5c1.1,0,2.2-0.6,2.8-1.4L266,248.2L266,248.2z"/>
	</g>
</g>
<g id="Layer_2_1_">
	<g>
		<path class="st10" d="M315,88.8c-37.3,27.4-69.4,62-94.1,101.2"/>
		<path class="st10" d="M218.3,174.1c2,5.3,2.6,11.2,1.8,16.8"/>
		<path class="st10" d="M233.3,182.7c-5.1,1.6-9.8,4.5-13.5,8.4"/>
	</g>
	<path class="st11" d="M73.3,200.5c-0.2-0.2-0.4-0.4-0.5-0.5v19.6"/>
	<polyline class="st10" points="70.1,229.4 381.9,229.4 381.9,200 70.6,200 	"/>
</g>
</svg>
