<?xml version="1.0" encoding="utf-8"?>
<!-- Generator: Adobe Illustrator 25.0.0, SVG Export Plug-In . SVG Version: 6.00 Build 0)  -->
<svg version="1.1" id="Layer_1" xmlns="http://www.w3.org/2000/svg" xmlns:xlink="http://www.w3.org/1999/xlink" x="0px" y="0px"
	 width="362.8px" height="485.7px" viewBox="0 0 362.8 485.7" style="enable-background:new 0 0 362.8 485.7;" xml:space="preserve"
	>
<style type="text/css">
	.st0{fill:#D8DDEF;}
	.st1{fill:#263238;stroke:#263238;stroke-miterlimit:10;}
	.st2{fill:#6074CB;}
	.st3{fill:#263238;}
	.st4{fill:#C7C7C7;}
	.st5{fill:#FFFFFF;}
	.st6{fill:#EBEBEB;}
	.st7{fill:#A6A6A6;}
	.st8{fill:#DBDBDB;}
	.st9{fill:#FFC107;}
	.st10{fill:#FF3D00;}
	.st11{fill:none;stroke:#F4C416;stroke-width:4;stroke-linecap:round;stroke-miterlimit:10;}
	.st12{fill:none;stroke:#F6CD2F;stroke-width:4;stroke-linecap:round;stroke-miterlimit:10;}
	.st13{enable-background:new    ;}
	.st14{fill:none;stroke:#6074CB;stroke-width:1.4095;stroke-miterlimit:10;stroke-dasharray:5.6447,5.6447;}
	.st15{fill:none;stroke:#6074CB;stroke-miterlimit:10;}
	.st16{fill:#6074CB;stroke:#6074CB;stroke-width:2;stroke-miterlimit:10;}
</style>
<rect x="2.7" y="181.3" class="st0" width="357.4" height="58.3"/>
<g>
	<g id="Layer_1_1_">
		<g>
			<g id="gdpr_direct-Screen--inject-2">
				<path class="st1" d="M360,239.9L2.6,240.1H2.4v-0.2L2.3,0.2v-0.3h0.3L360,0.1h0.1v0.1L360,239.9z M360,239.9L359.9,0.3l0.1,0.1
					L2.6,0.5l0.3-0.3L2.8,239.8l-0.2-0.2L360,239.9z"/>
				<rect x="2.6" y="0.2" class="st2" width="357.4" height="31.1"/>
				<rect x="2.6" y="0.2" class="st3" width="357.4" height="9.9"/>
				<path class="st4" d="M10.5,5.2c0,1.4-1.1,2.5-2.5,2.4c-1.4,0-2.5-1.1-2.4-2.5c0-1.4,1.1-2.4,2.5-2.4C9.4,2.7,10.5,3.8,10.5,5.2
					L10.5,5.2z"/>
				<path class="st5" d="M20.6,5.2c0,1.4-1.1,2.5-2.5,2.4c-1.4,0-2.5-1.1-2.4-2.5c0-1.4,1.1-2.4,2.5-2.4C19.5,2.7,20.6,3.8,20.6,5.2
					L20.6,5.2z"/>
				<path class="st2" d="M30.6,5.2c0,1.4-1.1,2.5-2.5,2.4c-1.4,0-2.5-1.1-2.4-2.5c0-1.4,1.1-2.4,2.5-2.4C29.5,2.7,30.6,3.8,30.6,5.2
					L30.6,5.2z"/>
				<path class="st5" d="M63.1,179.8c-0.2,0.1-0.3,0.3-0.2,0.4c0,0.1,0.2,0.2,0.3,0.2c0.2-0.1,0.3-0.3,0.2-0.4
					C63.4,179.8,63.2,179.8,63.1,179.8z"/>
				<path class="st5" d="M62.2,178.2c-0.1,0-0.2,0.2-0.2,0.3s0.1,0.2,0.2,0.2s0.2-0.2,0.2-0.3C62.4,178.3,62.3,178.2,62.2,178.2z"/>
			</g>
		</g>
		<path class="st2" d="M117.1,146.5H23.7V53.1h93.5L117.1,146.5L117.1,146.5L117.1,146.5z M31.9,138.3h77v-77h-77
			C31.9,61.3,31.9,138.3,31.9,138.3z"/>
		<g>
			<rect x="256.5" y="85.8" class="st6" width="1.1" height="6.6"/>
			<rect x="251.8" y="85.8" class="st6" width="1.1" height="6.6"/>
			<rect x="254.1" y="85.8" class="st6" width="1.1" height="6.6"/>
			<path class="st6" d="M151.7,73.4h-17.2v17.2h17.2V73.4z M135.9,74.7h14.6v14.6h-14.6V74.7z"/>
		</g>
		<g>
			<path class="st6" d="M294.6,58.1v17.2h17.2V58.1H294.6z M295.9,74V59.4h14.6V74H295.9z"/>
			<rect x="296.3" y="144.2" class="st7" width="27.3" height="2.1"/>
			<polygon class="st7" points="323.6,146.2 321.5,146.2 321.5,121 298.4,121 298.4,146.2 296.3,146.2 296.3,118.9 323.6,118.9 			
				"/>
			<rect x="263.4" y="98.8" class="st2" width="45.1" height="1.6"/>
			<path class="st8" d="M248.6,112.4c3.2-0.1,6.5-0.1,9.7-0.2h9.7h9.7l4.8,0.1l4.8,0.1l-4.8,0.1l-4.8,0.1H268h-9.7
				C255,112.5,251.8,112.5,248.6,112.4z"/>
			<path class="st8" d="M248.6,116.6c3.2-0.1,6.5-0.1,9.7-0.2h9.7h9.7l4.8,0.1l4.8,0.1l-4.8,0.1l-4.8,0.1H268h-9.7
				C255,116.7,251.8,116.6,248.6,116.6z"/>
			<path class="st8" d="M248.6,120.8c3.2-0.1,6.5-0.1,9.7-0.2h9.7h9.7l4.8,0.1l4.8,0.1l-4.8,0.1l-4.8,0.1H268h-9.7
				C255,120.9,251.8,120.8,248.6,120.8z"/>
			<path class="st8" d="M248.6,129.2c3.2-0.1,6.5-0.1,9.7-0.2h9.7h9.7l4.8,0.1l4.8,0.1l-4.8,0.1l-4.8,0.1H268h-9.7
				C255,129.3,251.8,129.3,248.6,129.2z"/>
			<path class="st8" d="M248.6,133.4c3.2-0.1,6.5-0.1,9.7-0.2h9.7h9.7l4.8,0.1l4.8,0.1l-4.8,0.1l-4.8,0.1H268h-9.7
				C255,133.5,251.8,133.5,248.6,133.4z"/>
			<path class="st8" d="M248.6,137.6c2-0.1,3.9-0.1,5.9-0.2c2,0,3.9,0,5.9,0s3.9,0,5.9,0l2.9,0.1c1,0,2,0.1,2.9,0.1
				c-1,0-2,0.1-2.9,0.1l-2.9,0.1c-2,0-3.9,0-5.9,0s-3.9,0-5.9,0C252.5,137.7,250.5,137.7,248.6,137.6z"/>
		</g>
		<path class="st2" d="M181.6,128h-27.1v-19.4h27.1V128z M154.8,127.6h26.3V109h-26.3V127.6z"/>
		<g>
			<path class="st3" d="M147.1,224.2c0.4,0.2,0.7,0.5,0.9,0.9s0.3,0.8,0.3,1.3s-0.1,0.9-0.3,1.3c-0.2,0.4-0.5,0.7-0.9,0.9
				s-0.8,0.3-1.3,0.3s-0.9-0.1-1.3-0.3c-0.4-0.2-0.7-0.5-0.9-0.9s-0.3-0.8-0.3-1.3s0.1-0.9,0.3-1.3c0.2-0.4,0.5-0.7,0.9-0.9
				s0.8-0.3,1.3-0.3S146.8,224,147.1,224.2z M144.8,224.5c-0.3,0.2-0.5,0.4-0.7,0.7s-0.2,0.7-0.2,1.1c0,0.4,0.1,0.8,0.2,1.1
				c0.2,0.3,0.4,0.6,0.7,0.7s0.7,0.3,1.1,0.3s0.8-0.1,1.1-0.3s0.5-0.4,0.7-0.7s0.2-0.7,0.2-1.1c0-0.4-0.1-0.8-0.2-1.1
				c-0.2-0.3-0.4-0.6-0.7-0.7c-0.3-0.2-0.7-0.3-1.1-0.3S145.1,224.3,144.8,224.5z M145.1,225c-0.2,0.1-0.4,0.3-0.6,0.5
				c-0.1,0.2-0.2,0.5-0.2,0.8s0.1,0.6,0.2,0.8c0.1,0.2,0.3,0.4,0.6,0.5c0.2,0.1,0.5,0.2,0.8,0.2c0.4,0,0.7-0.1,1-0.3
				s0.4-0.5,0.5-0.8h-1c-0.1,0.2-0.2,0.3-0.5,0.3c-0.2,0-0.3-0.1-0.4-0.2c-0.1-0.1-0.1-0.3-0.1-0.6s0-0.4,0.1-0.6
				c0.1-0.1,0.2-0.2,0.4-0.2c0.1,0,0.2,0,0.3,0.1s0.1,0.1,0.2,0.3h1c-0.1-0.4-0.2-0.6-0.5-0.8s-0.6-0.3-1-0.3
				C145.6,224.8,145.3,224.9,145.1,225z"/>
			<path class="st3" d="M150.6,225.1c0.2-0.4,0.5-0.7,0.9-0.9s0.8-0.3,1.3-0.3c0.6,0,1.1,0.2,1.5,0.5s0.7,0.7,0.8,1.3h-1.3
				c-0.1-0.2-0.2-0.4-0.4-0.5s-0.4-0.2-0.6-0.2c-0.4,0-0.7,0.1-0.9,0.4c-0.2,0.3-0.3,0.6-0.3,1s0.1,0.8,0.3,1s0.5,0.4,0.9,0.4
				c0.2,0,0.4-0.1,0.6-0.2s0.3-0.3,0.4-0.5h1.3c-0.1,0.5-0.4,1-0.8,1.3c-0.4,0.3-0.9,0.5-1.5,0.5c-0.5,0-0.9-0.1-1.3-0.3
				c-0.4-0.2-0.7-0.5-0.9-0.9s-0.3-0.8-0.3-1.3S150.4,225.5,150.6,225.1z"/>
			<path class="st3" d="M156.6,228.7c-0.3-0.2-0.5-0.4-0.7-0.7s-0.3-0.7-0.3-1.1c0-0.4,0.1-0.8,0.3-1.1s0.4-0.5,0.7-0.7
				s0.7-0.2,1-0.2c0.4,0,0.7,0.1,1,0.2c0.3,0.2,0.6,0.4,0.7,0.7c0.2,0.3,0.3,0.7,0.3,1.1s-0.1,0.8-0.3,1.1s-0.4,0.5-0.7,0.7
				s-0.7,0.2-1,0.2S156.9,228.8,156.6,228.7z M158.2,227.6c0.2-0.2,0.2-0.4,0.2-0.7s-0.1-0.6-0.2-0.7c-0.2-0.2-0.3-0.3-0.6-0.3
				c-0.2,0-0.4,0.1-0.6,0.2c-0.2,0.2-0.2,0.4-0.2,0.7s0.1,0.6,0.2,0.7c0.2,0.2,0.3,0.3,0.6,0.3S158,227.8,158.2,227.6z"/>
			<path class="st3" d="M162,225c0.2-0.1,0.4-0.2,0.7-0.2s0.6,0.1,0.9,0.2s0.5,0.4,0.6,0.7c0.2,0.3,0.2,0.7,0.2,1.1
				s-0.1,0.8-0.2,1.1c-0.2,0.3-0.4,0.5-0.6,0.7c-0.3,0.2-0.6,0.2-0.9,0.2c-0.3,0-0.5-0.1-0.7-0.2c-0.2-0.1-0.4-0.3-0.5-0.4v2.4h-1.2
				v-5.8h1.2v0.6C161.6,225.3,161.8,225.2,162,225z M163,226.2c-0.2-0.2-0.4-0.3-0.6-0.3c-0.2,0-0.4,0.1-0.6,0.3
				c-0.2,0.2-0.2,0.4-0.2,0.7s0.1,0.5,0.2,0.7c0.2,0.2,0.4,0.3,0.6,0.3s0.4-0.1,0.6-0.3s0.3-0.4,0.3-0.7S163.1,226.3,163,226.2z"/>
			<path class="st3" d="M169,224.9l-2.4,5.8h-1.3l0.9-2l-1.6-3.8h1.3l0.9,2.4l0.9-2.4H169z"/>
			<path class="st3" d="M171.2,225.1c0.2-0.1,0.4-0.2,0.7-0.2v1.3h-0.3c-0.3,0-0.5,0.1-0.7,0.2c-0.1,0.1-0.2,0.4-0.2,0.7v1.8h-1.2
				V225h1.2v0.7C170.8,225.4,171,225.2,171.2,225.1z"/>
			<path class="st3" d="M172.6,224.3c-0.1-0.1-0.2-0.3-0.2-0.5s0.1-0.3,0.2-0.5c0.1-0.1,0.3-0.2,0.5-0.2s0.4,0.1,0.5,0.2
				c0.1,0.1,0.2,0.3,0.2,0.5s-0.1,0.3-0.2,0.5c-0.1,0.1-0.3,0.2-0.5,0.2S172.7,224.5,172.6,224.3z M173.7,224.9v3.9h-1.2v-3.9H173.7
				z"/>
			<path class="st3" d="M176.7,225c0.2,0.1,0.4,0.3,0.5,0.4v-0.6h1.2v3.9c0,0.4-0.1,0.7-0.2,1c-0.1,0.3-0.4,0.5-0.7,0.7
				s-0.7,0.3-1.1,0.3c-0.6,0-1-0.1-1.4-0.4c-0.4-0.3-0.6-0.6-0.6-1.1h1.2c0,0.1,0.1,0.3,0.3,0.4c0.1,0.1,0.3,0.1,0.5,0.1
				s0.4-0.1,0.6-0.2s0.2-0.4,0.2-0.7v-0.5c-0.1,0.2-0.3,0.3-0.5,0.4c-0.2,0.1-0.4,0.2-0.7,0.2s-0.6-0.1-0.9-0.2
				c-0.3-0.2-0.5-0.4-0.6-0.7c-0.2-0.3-0.2-0.7-0.2-1.1s0.1-0.8,0.2-1.1c0.2-0.3,0.4-0.5,0.6-0.7s0.6-0.2,0.9-0.2
				C176.3,224.9,176.5,224.9,176.7,225z M177,226.2c-0.2-0.2-0.4-0.3-0.6-0.3c-0.2,0-0.4,0.1-0.6,0.3c-0.2,0.2-0.2,0.4-0.2,0.7
				s0.1,0.5,0.2,0.7c0.2,0.2,0.4,0.3,0.6,0.3c0.2,0,0.4-0.1,0.6-0.3c0.2-0.2,0.2-0.4,0.2-0.7C177.2,226.6,177.1,226.4,177,226.2z"/>
			<path class="st3" d="M182.8,225.3c0.3,0.3,0.4,0.7,0.4,1.2v2.3H182v-2.1c0-0.3-0.1-0.5-0.2-0.6c-0.1-0.1-0.3-0.2-0.5-0.2
				s-0.4,0.1-0.5,0.2s-0.2,0.3-0.2,0.6v2.1h-1.2v-5.2h1.2v1.8c0.1-0.2,0.3-0.3,0.5-0.4s0.4-0.2,0.7-0.2
				C182.1,224.9,182.5,225,182.8,225.3z"/>
			<path class="st3" d="M186.2,227.8v1h-0.6c-0.4,0-0.8-0.1-1-0.3s-0.4-0.6-0.4-1v-1.6h-0.5v-1h0.5v-1h1.2v1h0.8v1h-0.8v1.6
				c0,0.1,0,0.2,0.1,0.3s0.1,0.1,0.3,0.1h0.4V227.8z"/>
		</g>
		<g>
			<path class="st3" d="M52.1,195.1c-0.2,0.4-0.5,0.7-1,0.9s-1,0.4-1.7,0.4H48v3.2h-1.7v-8.3h3.1c0.6,0,1.2,0.1,1.7,0.3
				s0.8,0.5,1,0.9s0.3,0.8,0.3,1.3C52.5,194.3,52.4,194.7,52.1,195.1z M50.4,194.8c0.2-0.2,0.3-0.5,0.3-0.9c0-0.8-0.5-1.2-1.4-1.2
				H48v2.4h1.3C49.8,195.1,50.2,195,50.4,194.8z"/>
			<path class="st3" d="M56.2,193.2c0.3-0.2,0.7-0.3,1.2-0.3v1.8H57c-0.5,0-0.9,0.1-1.2,0.4c-0.3,0.2-0.4,0.7-0.4,1.3v3.3h-1.7v-6.6
				h1.7v1C55.5,193.7,55.8,193.4,56.2,193.2z"/>
			<path class="st3" d="M58.6,191.9c-0.2-0.2-0.3-0.4-0.3-0.7s0.1-0.5,0.3-0.7c0.2-0.2,0.4-0.3,0.7-0.3c0.3,0,0.5,0.1,0.7,0.3
				s0.3,0.4,0.3,0.7s-0.1,0.5-0.3,0.7c-0.2,0.2-0.4,0.3-0.7,0.3C59,192.2,58.8,192.1,58.6,191.9z M60.2,193v6.6h-1.7V193H60.2z"/>
			<path class="st3" d="M64.6,198.1l1.7-5.1h1.8l-2.5,6.6h-2l-2.4-6.6H63L64.6,198.1z"/>
			<path class="st3" d="M69,194.5c0.3-0.5,0.6-0.9,1.1-1.2s1-0.4,1.5-0.4s0.9,0.1,1.3,0.3s0.7,0.5,0.9,0.8v-0.9h1.7v6.6h-1.7v-1
				c-0.2,0.3-0.5,0.6-0.9,0.8s-0.8,0.3-1.3,0.3c-0.6,0-1.1-0.1-1.5-0.4c-0.5-0.3-0.8-0.7-1.1-1.2c-0.3-0.5-0.4-1.1-0.4-1.8
				C68.6,195.6,68.7,195,69,194.5z M73.6,195.3c-0.2-0.3-0.4-0.5-0.6-0.7c-0.3-0.2-0.6-0.2-0.9-0.2s-0.6,0.1-0.9,0.2
				s-0.5,0.4-0.6,0.7s-0.2,0.6-0.2,1s0.1,0.8,0.2,1s0.4,0.5,0.6,0.7s0.6,0.2,0.9,0.2s0.6-0.1,0.9-0.2c0.3-0.2,0.5-0.4,0.6-0.7
				c0.2-0.3,0.2-0.6,0.2-1.1C73.8,195.9,73.7,195.6,73.6,195.3z"/>
			<path class="st3" d="M77.1,194.5c0.3-0.5,0.7-0.9,1.2-1.2s1.1-0.4,1.7-0.4c0.8,0,1.5,0.2,2,0.6c0.5,0.4,0.9,1,1.1,1.7h-1.8
				c-0.1-0.3-0.3-0.5-0.5-0.7s-0.5-0.2-0.8-0.2c-0.5,0-0.9,0.2-1.1,0.5c-0.3,0.3-0.4,0.8-0.4,1.5c0,0.6,0.1,1.1,0.4,1.5
				c0.3,0.3,0.7,0.5,1.1,0.5c0.7,0,1.1-0.3,1.3-0.9h1.8c-0.2,0.7-0.5,1.3-1.1,1.7c-0.5,0.4-1.2,0.6-2,0.6c-0.6,0-1.2-0.1-1.7-0.4
				c-0.5-0.3-0.9-0.7-1.2-1.2c-0.3-0.5-0.4-1.1-0.4-1.8C76.7,195.6,76.9,195,77.1,194.5z"/>
			<path class="st3" d="M90.7,193l-4.1,9.8h-1.8l1.4-3.3l-2.7-6.5h1.9l1.7,4.6l1.7-4.6H90.7z"/>
			<path class="st3" d="M100.3,195.1c-0.2,0.4-0.5,0.7-1,0.9s-1,0.4-1.7,0.4h-1.4v3.2h-1.7v-8.3h3.1c0.6,0,1.2,0.1,1.7,0.3
				s0.8,0.5,1,0.9s0.3,0.8,0.3,1.3C100.6,194.3,100.5,194.7,100.3,195.1z M98.5,194.8c0.2-0.2,0.3-0.5,0.3-0.9
				c0-0.8-0.5-1.2-1.4-1.2h-1.3v2.4h1.3C98,195.1,98.3,195,98.5,194.8z"/>
			<path class="st3" d="M103,199.3c-0.5-0.3-0.9-0.7-1.2-1.2s-0.4-1.1-0.4-1.8s0.1-1.3,0.4-1.8c0.3-0.5,0.7-0.9,1.2-1.2
				s1.1-0.4,1.7-0.4c0.6,0,1.2,0.1,1.7,0.4c0.5,0.3,0.9,0.7,1.2,1.2s0.5,1.1,0.5,1.8s-0.2,1.3-0.5,1.8s-0.7,0.9-1.2,1.2
				s-1.1,0.4-1.8,0.4C104.1,199.8,103.5,199.6,103,199.3z M105.6,198.1c0.3-0.1,0.5-0.4,0.6-0.7c0.2-0.3,0.2-0.7,0.2-1.1
				c0-0.6-0.2-1.1-0.5-1.5c-0.3-0.3-0.7-0.5-1.2-0.5s-0.9,0.2-1.2,0.5s-0.5,0.8-0.5,1.5c0,0.6,0.2,1.1,0.5,1.5
				c0.3,0.3,0.7,0.5,1.2,0.5C105,198.3,105.3,198.2,105.6,198.1z"/>
			<path class="st3" d="M111.1,190.8v8.9h-1.7v-8.9H111.1z"/>
			<path class="st3" d="M112.9,191.9c-0.2-0.2-0.3-0.4-0.3-0.7s0.1-0.5,0.3-0.7s0.4-0.3,0.7-0.3s0.5,0.1,0.7,0.3s0.3,0.4,0.3,0.7
				s-0.1,0.5-0.3,0.7s-0.4,0.3-0.7,0.3C113.3,192.2,113.1,192.1,112.9,191.9z M114.5,193v6.6h-1.7V193H114.5z"/>
			<path class="st3" d="M116.1,194.5c0.3-0.5,0.7-0.9,1.2-1.2s1.1-0.4,1.7-0.4c0.8,0,1.5,0.2,2,0.6s0.9,1,1.1,1.7h-1.8
				c-0.1-0.3-0.3-0.5-0.5-0.7s-0.5-0.2-0.8-0.2c-0.5,0-0.9,0.2-1.1,0.5c-0.3,0.3-0.4,0.8-0.4,1.5c0,0.6,0.1,1.1,0.4,1.5
				c0.3,0.3,0.7,0.5,1.1,0.5c0.7,0,1.1-0.3,1.3-0.9h1.8c-0.2,0.7-0.5,1.3-1.1,1.7c-0.5,0.4-1.2,0.6-2,0.6c-0.6,0-1.2-0.1-1.7-0.4
				c-0.5-0.3-0.9-0.7-1.2-1.2s-0.4-1.1-0.4-1.8C115.7,195.6,115.8,195,116.1,194.5z"/>
			<path class="st3" d="M129.7,193l-4.1,9.8h-1.8l1.4-3.3l-2.7-6.5h1.9l1.7,4.6l1.7-4.6H129.7z"/>
			<path class="st3" d="M137.8,200.9h-1.1v-10.8h1.1V200.9z"/>
			<path class="st3" d="M146,193.2c0.4-0.7,0.9-1.2,1.5-1.5s1.4-0.5,2.2-0.5c0.9,0,1.8,0.2,2.5,0.7s1.2,1.1,1.5,2h-2
				c-0.2-0.4-0.5-0.7-0.8-0.9s-0.8-0.3-1.2-0.3c-0.5,0-0.9,0.1-1.3,0.3c-0.4,0.2-0.7,0.5-0.9,1s-0.3,0.9-0.3,1.5s0.1,1,0.3,1.5
				c0.2,0.4,0.5,0.7,0.9,1c0.4,0.2,0.8,0.3,1.3,0.3s0.9-0.1,1.2-0.3s0.6-0.5,0.8-0.9h1.9c-0.3,0.9-0.8,1.5-1.5,2s-1.5,0.7-2.5,0.7
				c-0.8,0-1.5-0.2-2.2-0.5s-1.2-0.9-1.5-1.5c-0.4-0.6-0.6-1.4-0.6-2.2C145.5,194.6,145.6,193.9,146,193.2z"/>
			<path class="st3" d="M156.3,199.3c-0.5-0.3-0.9-0.7-1.2-1.2s-0.4-1.1-0.4-1.8s0.1-1.3,0.4-1.8c0.3-0.5,0.7-0.9,1.2-1.2
				s1.1-0.4,1.7-0.4c0.6,0,1.2,0.1,1.7,0.4c0.5,0.3,0.9,0.7,1.2,1.2s0.5,1.1,0.5,1.8s-0.2,1.3-0.5,1.8s-0.7,0.9-1.2,1.2
				s-1.1,0.4-1.8,0.4C157.4,199.8,156.8,199.6,156.3,199.3z M158.9,198.1c0.3-0.1,0.5-0.4,0.6-0.7c0.2-0.3,0.2-0.7,0.2-1.1
				c0-0.6-0.2-1.1-0.5-1.5c-0.3-0.3-0.7-0.5-1.2-0.5s-0.9,0.2-1.2,0.5s-0.5,0.8-0.5,1.5c0,0.6,0.2,1.1,0.5,1.5
				c0.3,0.3,0.7,0.5,1.2,0.5C158.3,198.3,158.6,198.2,158.9,198.1z"/>
			<path class="st3" d="M164,199.3c-0.5-0.3-0.9-0.7-1.2-1.2s-0.4-1.1-0.4-1.8s0.1-1.3,0.4-1.8c0.3-0.5,0.7-0.9,1.2-1.2
				s1.1-0.4,1.7-0.4c0.6,0,1.2,0.1,1.7,0.4c0.5,0.3,0.9,0.7,1.2,1.2s0.5,1.1,0.5,1.8s-0.2,1.3-0.5,1.8s-0.7,0.9-1.2,1.2
				s-1.1,0.4-1.8,0.4C165,199.8,164.5,199.6,164,199.3z M166.5,198.1c0.3-0.1,0.5-0.4,0.6-0.7c0.2-0.3,0.2-0.7,0.2-1.1
				c0-0.6-0.2-1.1-0.5-1.5c-0.3-0.3-0.7-0.5-1.2-0.5s-0.9,0.2-1.2,0.5s-0.5,0.8-0.5,1.5c0,0.6,0.2,1.1,0.5,1.5
				c0.3,0.3,0.7,0.5,1.2,0.5C166,198.3,166.3,198.2,166.5,198.1z"/>
			<path class="st3" d="M174.3,199.6l-2.3-2.8v2.8h-1.7v-8.9h1.7v5.1l2.2-2.8h2.2l-2.9,3.3l3,3.3L174.3,199.6L174.3,199.6z"/>
			<path class="st3" d="M177.5,191.9c-0.2-0.2-0.3-0.4-0.3-0.7s0.1-0.5,0.3-0.7s0.4-0.3,0.7-0.3s0.5,0.1,0.7,0.3s0.3,0.4,0.3,0.7
				s-0.1,0.5-0.3,0.7s-0.4,0.3-0.7,0.3C178,192.2,177.7,192.1,177.5,191.9z M179.1,193v6.6h-1.7V193H179.1z"/>
			<path class="st3" d="M186.9,196.8H182c0,0.5,0.2,0.9,0.5,1.1c0.3,0.3,0.7,0.4,1.1,0.4c0.6,0,1.1-0.3,1.3-0.8h1.8
				c-0.2,0.6-0.6,1.2-1.1,1.6s-1.2,0.6-2,0.6c-0.6,0-1.2-0.1-1.7-0.4c-0.5-0.3-0.9-0.7-1.2-1.2s-0.4-1.1-0.4-1.8s0.1-1.3,0.4-1.8
				c0.3-0.5,0.7-0.9,1.2-1.2s1.1-0.4,1.7-0.4c0.6,0,1.2,0.1,1.7,0.4c0.5,0.3,0.9,0.7,1.2,1.2s0.4,1.1,0.4,1.7
				C186.9,196.4,186.9,196.6,186.9,196.8z M185.2,195.7c0-0.4-0.2-0.8-0.5-1c-0.3-0.3-0.7-0.4-1.1-0.4c-0.4,0-0.8,0.1-1.1,0.4
				c-0.3,0.3-0.5,0.6-0.5,1H185.2z"/>
			<path class="st3" d="M196.8,195.1c-0.2,0.4-0.5,0.7-1,0.9s-1,0.4-1.7,0.4h-1.4v3.2H191v-8.3h3.1c0.6,0,1.2,0.1,1.7,0.3
				s0.8,0.5,1,0.9s0.3,0.8,0.3,1.3S197,194.7,196.8,195.1z M195,194.8c0.2-0.2,0.3-0.5,0.3-0.9c0-0.8-0.5-1.2-1.4-1.2h-1.2v2.4h1.3
				C194.5,195.1,194.8,195,195,194.8z"/>
			<path class="st3" d="M199.5,199.3c-0.5-0.3-0.9-0.7-1.2-1.2s-0.4-1.1-0.4-1.8s0.2-1.3,0.5-1.8s0.7-0.9,1.2-1.2s1.1-0.4,1.7-0.4
				s1.2,0.1,1.7,0.4c0.5,0.3,0.9,0.7,1.2,1.2s0.5,1.1,0.5,1.8s-0.2,1.3-0.5,1.8s-0.7,0.9-1.2,1.2s-1.1,0.4-1.8,0.4
				C200.6,199.8,200,199.6,199.5,199.3z M202.1,198.1c0.3-0.1,0.5-0.4,0.6-0.7c0.2-0.3,0.2-0.7,0.2-1.1c0-0.6-0.2-1.1-0.5-1.5
				c-0.3-0.3-0.7-0.5-1.2-0.5s-0.9,0.2-1.2,0.5s-0.5,0.8-0.5,1.5c0,0.6,0.2,1.1,0.5,1.5c0.3,0.3,0.7,0.5,1.2,0.5
				C201.5,198.3,201.8,198.2,202.1,198.1z"/>
			<path class="st3" d="M207.6,190.8v8.9h-1.7v-8.9H207.6z"/>
			<path class="st3" d="M209.4,191.9c-0.2-0.2-0.3-0.4-0.3-0.7s0.1-0.5,0.3-0.7s0.4-0.3,0.7-0.3s0.5,0.1,0.7,0.3s0.3,0.4,0.3,0.7
				s-0.1,0.5-0.3,0.7c-0.2,0.2-0.4,0.3-0.7,0.3S209.6,192.1,209.4,191.9z M211,193v6.6h-1.7V193H211z"/>
			<path class="st3" d="M212.6,194.5c0.3-0.5,0.7-0.9,1.2-1.2s1.1-0.4,1.7-0.4c0.8,0,1.5,0.2,2,0.6s0.9,1,1.1,1.7h-1.8
				c-0.1-0.3-0.3-0.5-0.5-0.7s-0.5-0.2-0.8-0.2c-0.5,0-0.9,0.2-1.1,0.5s-0.4,0.8-0.4,1.5c0,0.6,0.1,1.1,0.4,1.5
				c0.3,0.3,0.7,0.5,1.1,0.5c0.7,0,1.1-0.3,1.3-0.9h1.8c-0.2,0.7-0.5,1.3-1.1,1.7c-0.5,0.4-1.2,0.6-2,0.6c-0.6,0-1.2-0.1-1.7-0.4
				c-0.5-0.3-0.9-0.7-1.2-1.2c-0.3-0.5-0.4-1.1-0.4-1.8C212.2,195.6,212.3,195,212.6,194.5z"/>
			<path class="st3" d="M226.2,193l-4.1,9.8h-1.8l1.4-3.3L219,193h1.9l1.7,4.6l1.7-4.6H226.2z"/>
			<path class="st3" d="M234.3,200.9h-1.1v-10.8h1.1V200.9z"/>
			<path class="st3" d="M244,198.3h2.8v1.3h-4.4v-8.3h1.7v7H244z"/>
			<path class="st3" d="M254,196.8h-4.9c0,0.5,0.2,0.9,0.5,1.1c0.3,0.3,0.7,0.4,1.1,0.4c0.6,0,1.1-0.3,1.3-0.8h1.8
				c-0.2,0.6-0.6,1.2-1.1,1.6s-1.2,0.6-2,0.6c-0.6,0-1.2-0.1-1.7-0.4c-0.5-0.3-0.9-0.7-1.2-1.2c-0.3-0.5-0.4-1.1-0.4-1.8
				s0.1-1.3,0.4-1.8s0.7-0.9,1.2-1.2s1.1-0.4,1.7-0.4s1.2,0.1,1.7,0.4c0.5,0.3,0.9,0.7,1.2,1.2c0.3,0.5,0.4,1.1,0.4,1.7
				C254.1,196.4,254,196.6,254,196.8z M252.3,195.7c0-0.4-0.2-0.8-0.5-1c-0.3-0.3-0.7-0.4-1.1-0.4s-0.8,0.1-1.1,0.4
				c-0.3,0.3-0.5,0.6-0.5,1H252.3z"/>
			<path class="st3" d="M259.2,193.2c0.4,0.2,0.7,0.5,0.9,0.8v-0.9h1.7v6.7c0,0.6-0.1,1.2-0.4,1.7s-0.6,0.9-1.1,1.2
				s-1.1,0.4-1.8,0.4c-0.9,0-1.7-0.2-2.3-0.7c-0.6-0.4-0.9-1-1-1.8h1.7c0.1,0.3,0.3,0.5,0.6,0.7c0.3,0.2,0.6,0.3,1.1,0.3
				s0.9-0.1,1.2-0.4c0.3-0.3,0.5-0.7,0.5-1.3v-1c-0.2,0.3-0.5,0.6-0.9,0.8s-0.8,0.3-1.3,0.3c-0.6,0-1.1-0.1-1.5-0.4
				c-0.5-0.3-0.8-0.7-1.1-1.2c-0.3-0.5-0.4-1.1-0.4-1.8s0.1-1.3,0.4-1.8s0.6-0.9,1.1-1.2s1-0.4,1.5-0.4
				C258.4,192.9,258.8,193,259.2,193.2z M259.8,195.3c-0.2-0.3-0.4-0.5-0.6-0.7c-0.3-0.2-0.6-0.2-0.9-0.2s-0.6,0.1-0.9,0.2
				c-0.3,0.2-0.5,0.4-0.6,0.7s-0.2,0.6-0.2,1s0.1,0.8,0.2,1s0.4,0.5,0.6,0.7c0.3,0.2,0.6,0.2,0.9,0.2s0.6-0.1,0.9-0.2
				c0.3-0.2,0.5-0.4,0.6-0.7c0.2-0.3,0.2-0.6,0.2-1.1C260.1,195.9,260,195.6,259.8,195.3z"/>
			<path class="st3" d="M263.4,194.5c0.3-0.5,0.6-0.9,1.1-1.2s1-0.4,1.5-0.4s0.9,0.1,1.3,0.3s0.7,0.5,0.9,0.8v-0.9h1.7v6.6h-1.7v-1
				c-0.2,0.3-0.5,0.6-0.9,0.8s-0.8,0.3-1.3,0.3c-0.6,0-1.1-0.1-1.5-0.4c-0.5-0.3-0.8-0.7-1.1-1.2c-0.3-0.5-0.4-1.1-0.4-1.8
				C263,195.6,263.1,195,263.4,194.5z M268,195.3c-0.2-0.3-0.4-0.5-0.6-0.7c-0.3-0.2-0.6-0.2-0.9-0.2s-0.6,0.1-0.9,0.2
				c-0.3,0.2-0.5,0.4-0.6,0.7s-0.2,0.6-0.2,1s0.1,0.8,0.2,1s0.4,0.5,0.6,0.7c0.3,0.2,0.6,0.2,0.9,0.2s0.6-0.1,0.9-0.2
				c0.3-0.2,0.5-0.4,0.6-0.7c0.2-0.3,0.2-0.6,0.2-1.1C268.2,195.9,268.1,195.6,268,195.3z"/>
			<path class="st3" d="M273.2,190.8v8.9h-1.7v-8.9H273.2z"/>
			<path class="st3" d="M284.9,199.6h-1.7l-3.8-5.7v5.7h-1.7v-8.3h1.7l3.8,5.8v-5.8h1.7V199.6z"/>
			<path class="st3" d="M287.8,199.3c-0.5-0.3-0.9-0.7-1.2-1.2c-0.3-0.5-0.4-1.1-0.4-1.8s0.2-1.3,0.5-1.8s0.7-0.9,1.2-1.2
				s1.1-0.4,1.7-0.4s1.2,0.1,1.7,0.4c0.5,0.3,0.9,0.7,1.2,1.2c0.3,0.5,0.5,1.1,0.5,1.8s-0.2,1.3-0.5,1.8s-0.7,0.9-1.2,1.2
				s-1.1,0.4-1.8,0.4C288.9,199.8,288.3,199.6,287.8,199.3z M290.4,198.1c0.3-0.1,0.5-0.4,0.6-0.7c0.2-0.3,0.2-0.7,0.2-1.1
				c0-0.6-0.2-1.1-0.5-1.5c-0.3-0.3-0.7-0.5-1.2-0.5s-0.9,0.2-1.2,0.5c-0.3,0.3-0.5,0.8-0.5,1.5c0,0.6,0.2,1.1,0.5,1.5
				c0.3,0.3,0.7,0.5,1.2,0.5C289.8,198.3,290.1,198.2,290.4,198.1z"/>
			<path class="st3" d="M296.2,194.4v3.2c0,0.2,0.1,0.4,0.2,0.5s0.3,0.1,0.5,0.1h0.8v1.4h-1.1c-1.4,0-2.1-0.7-2.1-2.1v-3.2h-0.8
				v-1.4h0.8v-1.6h1.7v1.6h1.5v1.4h-1.5V194.4z"/>
			<path class="st3" d="M299,191.9c-0.2-0.2-0.3-0.4-0.3-0.7s0.1-0.5,0.3-0.7c0.2-0.2,0.4-0.3,0.7-0.3c0.3,0,0.5,0.1,0.7,0.3
				s0.3,0.4,0.3,0.7s-0.1,0.5-0.3,0.7s-0.4,0.3-0.7,0.3C299.4,192.2,299.2,192.1,299,191.9z M300.6,193v6.6h-1.7V193H300.6z"/>
			<path class="st3" d="M302.2,194.5c0.3-0.5,0.7-0.9,1.2-1.2s1.1-0.4,1.7-0.4c0.8,0,1.5,0.2,2,0.6s0.9,1,1.1,1.7h-1.8
				c-0.1-0.3-0.3-0.5-0.5-0.7s-0.5-0.2-0.8-0.2c-0.5,0-0.9,0.2-1.1,0.5c-0.3,0.3-0.4,0.8-0.4,1.5c0,0.6,0.1,1.1,0.4,1.5
				c0.3,0.3,0.7,0.5,1.1,0.5c0.7,0,1.1-0.3,1.3-0.9h1.8c-0.2,0.7-0.5,1.3-1.1,1.7c-0.5,0.4-1.2,0.6-2,0.6c-0.6,0-1.2-0.1-1.7-0.4
				c-0.5-0.3-0.9-0.7-1.2-1.2c-0.3-0.5-0.4-1.1-0.4-1.8C301.8,195.6,301.9,195,302.2,194.5z"/>
			<path class="st3" d="M315.6,196.8h-4.9c0,0.5,0.2,0.9,0.5,1.1c0.3,0.3,0.7,0.4,1.1,0.4c0.6,0,1.1-0.3,1.3-0.8h1.8
				c-0.2,0.6-0.6,1.2-1.1,1.6s-1.2,0.6-2,0.6c-0.6,0-1.2-0.1-1.7-0.4c-0.5-0.3-0.9-0.7-1.2-1.2c-0.3-0.5-0.4-1.1-0.4-1.8
				s0.1-1.3,0.4-1.8s0.7-0.9,1.2-1.2s1.1-0.4,1.7-0.4s1.2,0.1,1.7,0.4c0.5,0.3,0.9,0.7,1.2,1.2s0.4,1.1,0.4,1.7
				C315.6,196.4,315.6,196.6,315.6,196.8z M313.9,195.7c0-0.4-0.2-0.8-0.5-1c-0.3-0.3-0.7-0.4-1.1-0.4s-0.8,0.1-1,0.4
				s-0.5,0.6-0.5,1H313.9z"/>
		</g>
		<g>
			<path class="st5" d="M18.6,15.9v7h-1.4v-4.5l-1.9,4.5h-1.1l-1.9-4.5v4.5h-1.4v-7h1.6l2.2,5.2l2.2-5.2H18.6z"/>
			<path class="st5" d="M25.3,17.4l-3.4,8.2h-1.5l1.2-2.8l-2.2-5.4H21l1.4,3.9l1.5-3.9H25.3z"/>
			<path class="st5" d="M36.1,17.4l-1.6,5.5H33L32,19l-1,3.9h-1.5l-1.6-5.5h1.4l1,4.2l1.1-4.2h1.3l1,4.2l1-4.2H36.1z"/>
			<path class="st5" d="M42,20.6h-4.1c0,0.4,0.2,0.7,0.4,0.9c0.2,0.2,0.6,0.3,0.9,0.3c0.5,0,0.9-0.2,1.1-0.7h1.5
				c-0.2,0.5-0.5,1-0.9,1.3c-0.5,0.3-1,0.5-1.7,0.5c-0.5,0-1-0.1-1.4-0.4s-0.8-0.6-1-1s-0.4-0.9-0.4-1.5s0.1-1.1,0.4-1.5
				c0.2-0.4,0.6-0.8,1-1s0.9-0.2,1.5-0.2c0.5,0,1,0.1,1.4,0.3s0.7,0.5,1,1S42,19.5,42,20C42,20.2,42,20.4,42,20.6z M40.6,19.6
				c0-0.4-0.1-0.6-0.4-0.9c-0.3-0.2-0.6-0.3-0.9-0.3s-0.6,0.1-0.9,0.3c-0.2,0.2-0.4,0.5-0.4,0.9H40.6z"/>
			<path class="st5" d="M45.2,17.6c0.3-0.2,0.7-0.3,1.1-0.3c0.5,0,0.9,0.1,1.3,0.4s0.7,0.6,0.9,1s0.3,0.9,0.3,1.5s-0.1,1.1-0.3,1.5
				c-0.2,0.4-0.5,0.8-0.9,1s-0.8,0.4-1.3,0.4c-0.4,0-0.8-0.1-1.1-0.2s-0.6-0.4-0.7-0.6v0.8h-1.4v-7.4h1.4v2.7
				C44.6,17.9,44.9,17.7,45.2,17.6z M47.2,19.3c-0.1-0.2-0.3-0.4-0.5-0.6s-0.5-0.2-0.7-0.2c-0.3,0-0.5,0.1-0.7,0.2s-0.4,0.3-0.5,0.6
				c-0.1,0.2-0.2,0.5-0.2,0.9c0,0.3,0.1,0.6,0.2,0.9c0.1,0.2,0.3,0.4,0.5,0.6c0.2,0.1,0.5,0.2,0.7,0.2c0.3,0,0.5-0.1,0.7-0.2
				c0.2-0.1,0.4-0.3,0.5-0.6c0.1-0.2,0.2-0.5,0.2-0.9S47.3,19.5,47.2,19.3z"/>
			<path class="st5" d="M50.7,22.8c-0.4-0.2-0.6-0.4-0.9-0.7s-0.3-0.6-0.3-0.9h1.4c0,0.2,0.1,0.4,0.3,0.5c0.2,0.1,0.4,0.2,0.7,0.2
				c0.3,0,0.5-0.1,0.6-0.2c0.1-0.1,0.2-0.2,0.2-0.4s-0.1-0.3-0.3-0.4c-0.2-0.1-0.5-0.2-0.9-0.3s-0.8-0.2-1-0.3
				c-0.3-0.1-0.5-0.3-0.7-0.5c-0.1-0.2-0.1-0.5-0.1-0.8s0.1-0.6,0.3-0.8c0.2-0.3,0.4-0.5,0.8-0.6c0.3-0.1,0.7-0.2,1.2-0.2
				c0.7,0,1.2,0.2,1.6,0.5s0.6,0.8,0.7,1.3h-1.6c0-0.2-0.1-0.4-0.3-0.5c-0.2-0.1-0.4-0.2-0.7-0.2c-0.3,0-0.4,0-0.6,0.1
				c-0.1,0.1-0.2,0.2-0.2,0.4s0.1,0.3,0.3,0.4c0.2,0.1,0.5,0.2,0.9,0.3s0.7,0.2,1,0.3s0.5,0.3,0.7,0.5s0.3,0.5,0.3,0.9
				c0,0.3-0.1,0.6-0.3,0.9c-0.2,0.3-0.4,0.5-0.8,0.6c-0.3,0.1-0.7,0.2-1.2,0.2C51.5,23,51.1,22.9,50.7,22.8z"/>
			<path class="st5" d="M55.4,16.5c-0.2-0.2-0.2-0.4-0.2-0.6c0-0.2,0.1-0.4,0.2-0.6c0.2-0.2,0.4-0.2,0.6-0.2s0.5,0.1,0.6,0.2
				c0.2,0.2,0.2,0.4,0.2,0.6c0,0.2-0.1,0.4-0.2,0.6c-0.2,0.2-0.4,0.2-0.6,0.2C55.7,16.7,55.5,16.7,55.4,16.5z M56.7,17.4v5.5h-1.4
				v-5.5H56.7z"/>
			<path class="st5" d="M59.7,18.5v2.7c0,0.2,0,0.3,0.1,0.4c0.1,0.1,0.2,0.1,0.5,0.1H61v1.2h-0.9c-1.2,0-1.8-0.6-1.8-1.7v-2.7h-0.7
				v-1.2h0.7v-1.4h1.4v1.4h1.2v1.2H59.7z"/>
			<path class="st5" d="M67.1,20.6H63c0,0.4,0.2,0.7,0.4,0.9c0.2,0.2,0.6,0.3,0.9,0.3c0.5,0,0.9-0.2,1.1-0.7h1.5
				c-0.2,0.5-0.5,1-0.9,1.3c-0.5,0.3-1,0.5-1.7,0.5c-0.5,0-1-0.1-1.4-0.4s-0.8-0.6-1-1s-0.4-0.9-0.4-1.5s0.1-1.1,0.4-1.5
				c0.2-0.4,0.6-0.8,1-1s0.9-0.4,1.5-0.4c0.5,0,1,0.1,1.4,0.3s0.7,0.5,1,1s0.3,0.9,0.3,1.4C67.1,20.2,67.1,20.4,67.1,20.6z
				 M65.7,19.6c0-0.4-0.1-0.6-0.4-0.9c-0.3-0.2-0.6-0.3-0.9-0.3s-0.6,0.1-0.9,0.3c-0.2,0.2-0.4,0.5-0.4,0.9H65.7z"/>
		</g>
		<g>
			<path class="st2" d="M208,231c0,0.8-0.6,1.4-1.4,1.4H195c-0.8,0-1.4-0.6-1.4-1.4v-7.5c0-0.8,0.6-1.4,1.4-1.4h11.6
				c0.8,0,1.4,0.6,1.4,1.4V231z"/>
			<path class="st5" d="M197.8,225.5l-0.9,2.7c0,0-0.2-1.1-0.3-1.3c-0.5-1.2-1.3-1.1-1.3-1.1l0.9,3.5l0,0h1.1l1.5-3.8L197.8,225.5
				L197.8,225.5z M198.7,229.3h1l0.6-3.8h-1L198.7,229.3z M205.6,225.5h-1l-1.6,3.8h1l0.2-0.5h1.2l0.1,0.5h0.9L205.6,225.5z
				 M204.4,228l0.5-1.4l0.3,1.4H204.4z M201.6,226.6c0-0.2,0.2-0.4,0.7-0.4c0.3,0,0.7,0.2,0.7,0.2l0.2-0.8c0,0-0.5-0.2-0.9-0.2
				c-1,0-1.6,0.5-1.6,1.1c0,1.1,1.4,1,1.4,1.6c0,0.1-0.1,0.3-0.6,0.3c-0.6,0-0.9-0.2-0.9-0.2l-0.2,0.8c0,0,0.4,0.2,1.1,0.2
				c0.7,0,1.7-0.5,1.7-1.3C203,227.1,201.6,227,201.6,226.6z"/>
			<path class="st9" d="M196.8,227.6l-0.3-1.6c0,0-0.1-0.4-0.5-0.4s-1.5,0-1.5,0S196.4,226.2,196.8,227.6z"/>
		</g>
		<g>
			<path class="st2" d="M228,231.2c0,0.8-0.6,1.4-1.4,1.4h-11.9c-0.8,0-1.4-0.6-1.4-1.4v-7.7c0-0.8,0.6-1.4,1.4-1.4h11.9
				c0.8,0,1.4,0.6,1.4,1.4V231.2z"/>
			<path class="st9" d="M222.8,223.9c-1.9,0-3.5,1.6-3.5,3.5s1.6,3.5,3.5,3.5s3.5-1.6,3.5-3.5C226.3,225.4,224.7,223.9,222.8,223.9z
				"/>
			<path class="st10" d="M220,229.5c-0.2-0.2-0.3-0.4-0.4-0.7h1.9c0.1-0.2,0.2-0.5,0.2-0.7h-2.3c0-0.2-0.1-0.5-0.1-0.7h2.4
				c0-0.2,0-0.5-0.1-0.7h-2.3c0-0.2,0.1-0.5,0.2-0.7h1.9c-0.1-0.3-0.2-0.5-0.4-0.7h-1c0.2-0.2,0.3-0.4,0.5-0.6
				c-0.6-0.5-1.4-0.8-2.3-0.8c-1.9,0-3.5,1.6-3.5,3.5s1.6,3.5,3.5,3.5c1.1,0,2.2-0.6,2.8-1.4L220,229.5L220,229.5z"/>
		</g>
	</g>
	<g id="Layer_2_1_">
		<g>
			<path class="st11" d="M269,70.1c-37.3,27.4-69.4,62-94.1,101.2"/>
			<path class="st11" d="M172.3,155.4c2,5.3,2.6,11.2,1.8,16.8"/>
			<path class="st11" d="M187.3,164c-5.1,1.6-9.8,4.5-13.5,8.4"/>
		</g>
		<path class="st12" d="M27.3,181.8c-0.2-0.2-0.4-0.4-0.5-0.5v19.6"/>
		<polyline class="st11" points="24.1,210.7 335.9,210.7 335.9,181.3 24.6,181.3 		"/>
	</g>
</g>
<g>
	<g id="gdpr_direct-Screen--inject-2_1_">
		<path class="st1" d="M360.2,483.7L2.8,483.9H2.6v-0.2L2.5,244v-0.3h0.3l357.4,0.2h0.1v0.1L360.2,483.7z M360.2,483.7l-0.1-239.6
			l0.1,0.1L2.8,244.3l0.3-0.3L3,483.6l-0.2-0.2L360.2,483.7z"/>
		<rect x="2.8" y="244" class="st2" width="357.4" height="31.1"/>
		<rect x="2.8" y="244" class="st3" width="357.4" height="9.9"/>
		<path class="st4" d="M10.7,249c0,1.4-1.1,2.5-2.5,2.4c-1.4,0-2.5-1.1-2.4-2.5c0-1.4,1.1-2.4,2.5-2.4
			C9.6,246.5,10.7,247.6,10.7,249L10.7,249z"/>
		<path class="st5" d="M20.8,249c0,1.4-1.1,2.5-2.5,2.4c-1.4,0-2.5-1.1-2.4-2.5c0-1.4,1.1-2.4,2.5-2.4
			C19.7,246.5,20.8,247.6,20.8,249L20.8,249z"/>
		<path class="st2" d="M30.8,249c0,1.4-1.1,2.5-2.5,2.4c-1.4,0-2.5-1.1-2.4-2.5c0-1.4,1.1-2.4,2.5-2.4
			C29.7,246.5,30.8,247.6,30.8,249L30.8,249z"/>
		<path class="st5" d="M63.3,423.6c-0.2,0.1-0.3,0.3-0.2,0.4c0,0.1,0.2,0.2,0.3,0.2c0.2-0.1,0.3-0.3,0.2-0.4
			C63.6,423.6,63.4,423.6,63.3,423.6z"/>
		<path class="st5" d="M62.4,422c-0.1,0-0.2,0.2-0.2,0.3s0.1,0.2,0.2,0.2s0.2-0.2,0.2-0.3S62.5,422,62.4,422z"/>
	</g>
	<path class="st6" d="M129.7,290.6v25.5h25.5v-25.5H129.7z M131.7,314.2v-21.6h21.6v21.6H131.7z"/>
	<g>
		<rect x="39.4" y="372.7" class="st6" width="1.7" height="10.3"/>
		<rect x="32" y="372.7" class="st6" width="1.7" height="10.3"/>
		<rect x="35.7" y="372.7" class="st6" width="1.7" height="10.3"/>
		<rect x="101.3" y="463.4" class="st7" width="42.4" height="3.3"/>
		<polygon class="st7" points="143.5,466.5 140.4,466.5 140.4,427.4 104.4,427.4 104.4,466.5 101.3,466.5 101.3,424.1 143.5,424.1 
					"/>
		<rect x="50" y="392.9" class="st2" width="70.1" height="2.5"/>
		<path class="st8" d="M27,414c5-0.2,10.1-0.2,15.1-0.3h15.1h15.1l7.5,0.2l7.5,0.2l-7.5,0.2l-7.5,0.2H57.2H42.1
			C37.1,414.2,32,414.2,27,414z"/>
		<path class="st8" d="M27,420.6c5-0.2,10.1-0.2,15.1-0.3h15.1h15.1l7.5,0.2l7.5,0.2l-7.5,0.2l-7.5,0.2H57.2H42.1
			C37.1,420.7,32,420.6,27,420.6z"/>
		<path class="st8" d="M27,427.1c5-0.2,10.1-0.2,15.1-0.3h15.1h15.1l7.5,0.2l7.5,0.2l-7.5,0.2l-7.5,0.2H57.2H42.1
			C37.1,427.2,32,427.1,27,427.1z"/>
		<path class="st8" d="M27,440.1c5-0.2,10.1-0.2,15.1-0.3h15.1h15.1l7.5,0.2l7.5,0.2l-7.5,0.2h-7.5H57.2H42.1
			C37.1,440.3,32,440.3,27,440.1z"/>
		<path class="st8" d="M27,446.7c5-0.2,10.1-0.2,15.1-0.3h15.1h15.1l7.5,0.2l7.5,0.2l-7.5,0.2l-7.5,0.2H57.2H42.1
			C37.1,446.8,32,446.8,27,446.7z"/>
		<path class="st8" d="M27,453.2c3.1-0.2,6.1-0.2,9.2-0.3c3.1,0,6.1,0,9.2,0s6.1,0,9.2,0l4.5,0.2c1.6,0,3.1,0.2,4.5,0.2
			c-1.6,0-3.1,0.2-4.5,0.2l-4.5,0.2c-3.1,0-6.1,0-9.2,0s-6.1,0-9.2,0C33.1,453.3,30.1,453.3,27,453.2z"/>
	</g>
	<g>
		<path class="st6" d="M75.2,293.4H48.5v26.7h26.7C75.2,320.1,75.2,293.4,75.2,293.4z M50.5,295.4h22.7v22.7H50.5V295.4z"/>
		<path class="st2" d="M155.2,366.8h-42.1v-30.2h42.1V366.8z M113.7,366.2h40.9v-28.9h-40.9V366.2z"/>
	</g>
	<g class="st13">
		<path class="st5" d="M18.7,259.7v7h-1.4v-4.5l-1.9,4.5h-1.1l-1.9-4.5v4.5H11v-7h1.6l2.2,5.2l2.2-5.2H18.7z"/>
		<path class="st5" d="M25.4,261.2l-3.4,8.2h-1.5l1.2-2.8l-2.2-5.4h1.6l1.4,3.9l1.5-3.9H25.4z"/>
		<path class="st5" d="M36.2,261.2l-1.6,5.5h-1.5l-1-3.9l-1,3.9h-1.5l-1.6-5.5h1.4l1,4.2l1.1-4.2H33l1,4.2l1-4.2H36.2z"/>
		<path class="st5" d="M42.1,264.4H38c0,0.4,0.2,0.7,0.4,0.9c0.2,0.2,0.6,0.3,0.9,0.3c0.5,0,0.9-0.2,1.1-0.7h1.5
			c-0.2,0.5-0.5,1-0.9,1.3s-1,0.5-1.7,0.5c-0.5,0-1-0.1-1.4-0.4c-0.4-0.2-0.8-0.6-1-1c-0.2-0.4-0.4-0.9-0.4-1.5
			c0-0.6,0.1-1.1,0.4-1.5c0.3-0.4,0.6-0.8,1-1c0.4-0.2,0.9-0.4,1.5-0.4c0.5,0,1,0.1,1.4,0.3c0.4,0.2,0.7,0.5,1,1
			c0.3,0.5,0.3,0.9,0.3,1.4C42.2,264,42.1,264.2,42.1,264.4z M40.7,263.4c0-0.4-0.1-0.6-0.4-0.9c-0.3-0.2-0.6-0.3-0.9-0.3
			s-0.6,0.1-0.9,0.3c-0.3,0.2-0.4,0.5-0.4,0.9H40.7z"/>
		<path class="st5" d="M45.3,261.3c0.3-0.2,0.7-0.2,1.1-0.2c0.5,0,0.9,0.1,1.3,0.4c0.4,0.3,0.7,0.6,0.9,1c0.2,0.4,0.3,0.9,0.3,1.5
			c0,0.6-0.1,1.1-0.3,1.5c-0.2,0.4-0.5,0.8-0.9,1c-0.4,0.2-0.8,0.4-1.3,0.4c-0.4,0-0.8-0.1-1.1-0.2c-0.3-0.1-0.6-0.4-0.7-0.6v0.8
			h-1.4v-7.4h1.4v2.7C44.8,261.7,45,261.5,45.3,261.3z M47.3,263.1c-0.1-0.2-0.3-0.4-0.5-0.6c-0.2-0.2-0.5-0.2-0.7-0.2
			c-0.3,0-0.5,0.1-0.7,0.2c-0.2,0.1-0.5,0.3-0.6,0.6c-0.1,0.3-0.2,0.5-0.2,0.9c0,0.4,0.1,0.6,0.2,0.9c0.1,0.3,0.3,0.4,0.5,0.6
			c0.2,0.1,0.5,0.2,0.7,0.2c0.3,0,0.5-0.1,0.7-0.2c0.2-0.1,0.4-0.3,0.5-0.6c0.1-0.2,0.2-0.5,0.2-0.9
			C47.5,263.6,47.4,263.3,47.3,263.1z"/>
		<path class="st5" d="M50.9,266.6c-0.4-0.2-0.6-0.4-0.9-0.7c-0.2-0.3-0.3-0.6-0.3-0.9h1.4c0,0.2,0.1,0.4,0.3,0.5
			c0.2,0.1,0.4,0.2,0.7,0.2c0.3,0,0.5-0.1,0.6-0.2c0.1-0.1,0.2-0.2,0.2-0.4s-0.1-0.3-0.3-0.4s-0.5-0.2-0.9-0.3
			c-0.4-0.1-0.8-0.2-1-0.3c-0.3-0.1-0.5-0.3-0.7-0.5c-0.1-0.2-0.2-0.5-0.2-0.8c0-0.3,0.1-0.6,0.3-0.8c0.2-0.2,0.4-0.5,0.8-0.6
			c0.3-0.1,0.7-0.2,1.2-0.2c0.7,0,1.2,0.2,1.6,0.5s0.6,0.8,0.7,1.3h-1.3c0-0.2-0.1-0.4-0.3-0.5c-0.2-0.1-0.4-0.2-0.7-0.2
			c-0.3,0-0.4,0-0.6,0.1c-0.1,0.1-0.2,0.2-0.2,0.4c0,0.2,0.1,0.3,0.3,0.4c0.2,0.1,0.5,0.2,0.9,0.3c0.4,0.1,0.7,0.2,1,0.3
			c0.3,0.1,0.5,0.3,0.7,0.5c0.2,0.2,0.3,0.5,0.3,0.9c0,0.3-0.1,0.6-0.3,0.9c-0.2,0.3-0.4,0.5-0.8,0.6c-0.3,0.1-0.7,0.2-1.2,0.2
			C51.6,266.8,51.2,266.7,50.9,266.6z"/>
		<path class="st5" d="M55.5,260.3c-0.2-0.2-0.2-0.4-0.2-0.6c0-0.2,0.1-0.4,0.2-0.6c0.2-0.2,0.4-0.2,0.6-0.2s0.5,0.1,0.6,0.2
			c0.2,0.2,0.2,0.4,0.2,0.6c0,0.2-0.1,0.4-0.2,0.6c-0.2,0.2-0.4,0.2-0.6,0.2S55.7,260.5,55.5,260.3z M56.8,261.2v5.5h-1.4v-5.5H56.8
			z"/>
		<path class="st5" d="M59.8,262.3v2.7c0,0.2,0,0.3,0.1,0.4c0.1,0.1,0.2,0.1,0.5,0.1h0.7v1.2h-0.9c-1.2,0-1.8-0.6-1.8-1.7v-2.7h-0.6
			v-1.2h0.7v-1.4h1.3v1.4H61v1.2H59.8z"/>
		<path class="st5" d="M67.2,264.4h-4.1c0,0.4,0.2,0.7,0.4,0.9c0.2,0.2,0.6,0.3,0.9,0.3c0.5,0,0.9-0.2,1.1-0.7H67
			c-0.2,0.5-0.5,1-0.9,1.3c-0.5,0.3-1,0.5-1.7,0.5c-0.5,0-1-0.1-1.4-0.4c-0.4-0.2-0.8-0.6-1-1c-0.2-0.4-0.4-0.9-0.4-1.5
			c0-0.6,0.1-1.1,0.3-1.5c0.2-0.4,0.6-0.8,1-1c0.4-0.2,0.9-0.4,1.5-0.4c0.5,0,1,0.1,1.4,0.3c0.4,0.2,0.7,0.5,1,1s0.3,0.9,0.3,1.4
			C67.2,264,67.2,264.2,67.2,264.4z M65.8,263.4c0-0.4-0.1-0.6-0.4-0.9c-0.3-0.3-0.6-0.3-0.9-0.3s-0.6,0.1-0.9,0.3
			c-0.2,0.2-0.4,0.5-0.4,0.9H65.8z"/>
	</g>
	<g>
		<path class="st3" d="M220.5,308.7h-0.8l-3.3-5v5h-0.8v-6.3h0.8l3.3,5v-5h0.8V308.7z"/>
		<path class="st3" d="M221.9,304.9c0.2-0.4,0.5-0.7,0.8-0.9c0.3-0.2,0.8-0.3,1.2-0.3s0.8,0.1,1.1,0.3c0.3,0.2,0.6,0.4,0.7,0.7v-0.9
			h0.8v4.9h-0.7v-0.9c-0.2,0.3-0.4,0.5-0.7,0.7c-0.3,0.2-0.7,0.3-1.1,0.3s-0.8-0.1-1.2-0.3s-0.6-0.5-0.8-0.9
			c-0.2-0.4-0.3-0.8-0.3-1.3C221.6,305.7,221.7,305.3,221.9,304.9z M225.5,305.3c-0.1-0.3-0.4-0.5-0.6-0.6c-0.3-0.1-0.5-0.2-0.8-0.2
			s-0.6,0.1-0.8,0.2c-0.3,0.1-0.5,0.4-0.6,0.6c-0.2,0.3-0.2,0.6-0.2,1c0,0.4,0.1,0.7,0.2,1c0.2,0.3,0.4,0.5,0.6,0.6
			c0.3,0.1,0.5,0.2,0.8,0.2s0.6-0.1,0.8-0.2c0.3-0.1,0.5-0.4,0.6-0.6c0.2-0.3,0.2-0.6,0.2-1C225.7,305.9,225.7,305.5,225.5,305.3z"
			/>
		<path class="st3" d="M234.9,303.9c0.3,0.2,0.5,0.4,0.7,0.7c0.2,0.3,0.3,0.7,0.3,1.2v2.9h-0.8v-2.8c0-0.5-0.1-0.9-0.4-1.1
			c-0.2-0.3-0.6-0.4-1-0.4s-0.8,0.1-1,0.4c-0.2,0.3-0.4,0.7-0.4,1.2v2.7h-0.8v-2.8c0-0.5-0.1-0.9-0.4-1.1c-0.2-0.3-0.6-0.4-1-0.4
			s-0.8,0.1-1,0.4c-0.2,0.3-0.4,0.7-0.4,1.2v2.7h-0.8v-4.9h0.8v0.7c0.2-0.3,0.4-0.5,0.7-0.6c0.3-0.1,0.6-0.2,0.9-0.2
			c0.4,0,0.8,0.1,1.1,0.3c0.3,0.2,0.6,0.5,0.7,0.8c0.1-0.3,0.4-0.6,0.7-0.8c0.3-0.2,0.7-0.3,1.1-0.3
			C234.3,303.7,234.6,303.8,234.9,303.9z"/>
		<path class="st3" d="M241.7,306.6h-3.9c0,0.5,0.2,0.9,0.5,1.1c0.3,0.2,0.7,0.4,1.1,0.4s0.6-0.1,0.9-0.2c0.2-0.2,0.4-0.4,0.5-0.7
			h0.9c-0.1,0.5-0.4,0.9-0.8,1.2c-0.4,0.3-0.9,0.4-1.5,0.4c-0.5,0-0.9-0.1-1.3-0.3c-0.4-0.2-0.7-0.5-0.9-0.9
			c-0.2-0.4-0.3-0.8-0.3-1.3s0.1-1,0.3-1.3c0.2-0.4,0.5-0.7,0.9-0.9s0.8-0.3,1.3-0.3s0.9,0.1,1.2,0.3c0.4,0.2,0.6,0.5,0.8,0.8
			c0.2,0.4,0.3,0.8,0.3,1.2C241.7,306.2,241.7,306.4,241.7,306.6z M240.7,305.1c-0.1-0.2-0.3-0.4-0.6-0.5c-0.2-0.1-0.5-0.2-0.8-0.2
			c-0.4,0-0.8,0.1-1.1,0.4c-0.3,0.3-0.5,0.6-0.5,1.1h3.1C240.9,305.6,240.8,305.3,240.7,305.1z"/>
	</g>
	<g>
		<path class="st14" d="M335.7,387.5H212.4c-1.7,0-3.2-1.4-3.2-3.2v-30.4c0-1.7,1.4-3.2,3.2-3.2h123.3c1.7,0,3.2,1.4,3.2,3.2v30.4
			C338.9,386.1,337.5,387.5,335.7,387.5z"/>
	</g>
	<g id="Layer_2_2_">
		<g>
			<path class="st11" d="M77.6,360.5c32.6,32.8,71.6,59.5,114,78.1"/>
			<path class="st11" d="M176.3,443.4c4.9-2.8,10.7-4.2,16.3-4.3"/>
			<path class="st11" d="M182.6,427.4c2.3,4.8,5.9,9,10.3,12.1"/>
		</g>
	</g>
	<path class="st15" d="M336.6,314.4H211.5c-1.2,0-2.2-1-2.2-2.2v-14c0-1.2,1-2.2,2.2-2.2h125.2c1.2,0,2.2,1,2.2,2.2v14
		C338.9,313.4,337.9,314.4,336.6,314.4z"/>
	<g>
		<path class="st3" d="M221.2,334.6h-0.8l-3.3-5v5h-0.8v-6.3h0.8l3.3,5v-5h0.8V334.6z"/>
		<path class="st3" d="M222.6,330.8c0.2-0.4,0.5-0.7,0.8-0.9c0.4-0.2,0.8-0.3,1.2-0.3s0.8,0.1,1.1,0.3c0.3,0.2,0.6,0.4,0.7,0.7v-0.9
			h0.8v4.9h-0.8v-0.9c-0.2,0.3-0.4,0.5-0.7,0.7c-0.3,0.2-0.7,0.3-1.1,0.3s-0.8-0.1-1.2-0.3s-0.6-0.5-0.8-0.9
			c-0.2-0.4-0.3-0.8-0.3-1.3C222.3,331.6,222.4,331.2,222.6,330.8z M226.2,331.2c-0.2-0.3-0.4-0.5-0.6-0.6c-0.3-0.1-0.5-0.2-0.8-0.2
			s-0.6,0.1-0.8,0.2c-0.3,0.1-0.5,0.4-0.6,0.6c-0.2,0.3-0.2,0.6-0.2,1s0.1,0.7,0.2,1c0.1,0.3,0.3,0.5,0.6,0.6
			c0.3,0.1,0.5,0.2,0.8,0.2s0.6-0.1,0.8-0.2c0.3-0.1,0.5-0.4,0.6-0.6c0.1-0.3,0.2-0.6,0.2-1S226.4,331.4,226.2,331.2z"/>
		<path class="st3" d="M235.6,329.8c0.3,0.2,0.5,0.4,0.7,0.7c0.2,0.3,0.3,0.7,0.3,1.2v2.9h-0.8v-2.8c0-0.5-0.1-0.9-0.4-1.1
			c-0.2-0.3-0.6-0.4-1-0.4s-0.8,0.1-1,0.4c-0.2,0.3-0.4,0.7-0.4,1.2v2.7h-0.8v-2.8c0-0.5-0.1-0.9-0.4-1.1c-0.2-0.3-0.6-0.4-1-0.4
			s-0.8,0.1-1,0.4c-0.2,0.3-0.4,0.7-0.4,1.2v2.7h-0.8v-4.9h0.8v0.7c0.2-0.3,0.4-0.5,0.7-0.6c0.3-0.1,0.6-0.2,0.9-0.2
			c0.4,0,0.8,0.1,1.1,0.3c0.3,0.2,0.6,0.5,0.7,0.8c0.1-0.3,0.4-0.6,0.7-0.8c0.3-0.2,0.7-0.3,1.1-0.3
			C235,329.6,235.3,329.7,235.6,329.8z"/>
		<path class="st3" d="M242.4,332.5h-3.9c0,0.5,0.2,0.9,0.5,1.1c0.3,0.3,0.7,0.4,1.1,0.4s0.6-0.1,0.9-0.2c0.2-0.2,0.4-0.4,0.5-0.7
			h0.9c-0.1,0.5-0.4,0.9-0.8,1.2s-0.9,0.4-1.5,0.4c-0.5,0-0.9-0.1-1.3-0.3c-0.4-0.2-0.7-0.5-0.9-0.9c-0.2-0.4-0.3-0.8-0.3-1.3
			s0.1-1,0.3-1.3c0.2-0.4,0.5-0.7,0.9-0.9s0.8-0.3,1.3-0.3s0.9,0.1,1.2,0.3c0.4,0.2,0.6,0.5,0.8,0.8c0.2,0.4,0.3,0.8,0.3,1.2
			C242.4,332.1,242.4,332.3,242.4,332.5z M241.4,331c-0.1-0.2-0.3-0.4-0.6-0.5c-0.2-0.1-0.5-0.2-0.8-0.2c-0.4,0-0.8,0.1-1.1,0.4
			c-0.3,0.3-0.5,0.6-0.5,1.1h3.1C241.6,331.5,241.5,331.2,241.4,331z"/>
	</g>
	<path class="st15" d="M336.6,341.1H211.5c-1.2,0-2.2-1-2.2-2.2v-14c0-1.2,1-2.2,2.2-2.2h125.2c1.2,0,2.2,1,2.2,2.2v14
		C338.9,340.1,337.9,341.1,336.6,341.1z"/>
	<path class="st2" d="M336.6,413.5H211.5c-1.2,0-2.2-1-2.2-2.2v-14c0-1.2,1-2.2,2.2-2.2h125.2c1.2,0,2.2,1,2.2,2.2v14
		C338.9,412.5,337.9,413.5,336.6,413.5z"/>
	<g>
		<path class="st5" d="M263,408.7c-0.4-0.2-0.7-0.4-0.9-0.7c-0.2-0.3-0.3-0.7-0.3-1.1h1.5c0,0.3,0.1,0.5,0.3,0.7
			c0.2,0.2,0.4,0.3,0.8,0.3c0.3,0,0.6-0.1,0.8-0.2c0.2-0.2,0.3-0.4,0.3-0.6c0-0.2-0.1-0.4-0.2-0.5s-0.3-0.2-0.5-0.3
			s-0.5-0.2-0.8-0.3c-0.5-0.1-0.8-0.3-1.1-0.4c-0.3-0.1-0.5-0.3-0.7-0.6c-0.2-0.3-0.3-0.6-0.3-1.1c0-0.4,0.1-0.8,0.3-1.1
			c0.2-0.3,0.5-0.5,0.9-0.7c0.4-0.2,0.8-0.2,1.3-0.2c0.7,0,1.3,0.2,1.8,0.5c0.5,0.4,0.7,0.8,0.7,1.5h-1.5c0-0.2-0.1-0.4-0.3-0.6
			c-0.2-0.2-0.4-0.2-0.8-0.2c-0.3,0-0.5,0.1-0.7,0.2c-0.2,0.1-0.2,0.3-0.2,0.6c0,0.2,0.1,0.3,0.2,0.5c0.1,0.1,0.3,0.2,0.5,0.3
			s0.4,0.2,0.8,0.3c0.5,0.1,0.8,0.3,1.1,0.4c0.3,0.1,0.5,0.3,0.7,0.6c0.2,0.3,0.3,0.6,0.3,1.1c0,0.4-0.1,0.7-0.3,1
			c-0.2,0.3-0.5,0.6-0.9,0.8c-0.4,0.2-0.8,0.3-1.3,0.3C263.8,408.9,263.4,408.8,263,408.7z"/>
		<path class="st5" d="M273.1,406.5H269c0,0.4,0.2,0.7,0.4,0.9c0.2,0.2,0.6,0.3,0.9,0.3c0.5,0,0.9-0.2,1.1-0.7h1.5
			c-0.2,0.5-0.5,1-0.9,1.3c-0.5,0.3-1,0.5-1.7,0.5c-0.5,0-1-0.1-1.4-0.4c-0.4-0.2-0.8-0.6-1-1s-0.4-0.9-0.4-1.5s0.1-1.1,0.3-1.5
			c0.2-0.4,0.6-0.8,1-1c0.4-0.2,0.9-0.4,1.5-0.4c0.5,0,1,0.1,1.4,0.3c0.4,0.2,0.7,0.5,1,1s0.3,0.9,0.3,1.4
			C273.2,406.2,273.1,406.3,273.1,406.5z M271.7,405.6c0-0.4-0.1-0.6-0.4-0.9s-0.6-0.3-0.9-0.3s-0.6,0.1-0.9,0.3
			c-0.2,0.2-0.4,0.5-0.4,0.9H271.7z"/>
		<path class="st5" d="M278.8,403.9c0.4,0.4,0.6,1,0.6,1.7v3.3H278v-3.1c0-0.4-0.1-0.8-0.3-1c-0.2-0.2-0.5-0.4-0.9-0.4
			s-0.7,0.1-0.9,0.4c-0.2,0.2-0.3,0.6-0.3,1v3.1h-1.4v-5.5h1.4v0.7c0.2-0.2,0.4-0.4,0.7-0.6c0.3-0.1,0.6-0.2,1-0.2
			C277.9,403.2,278.4,403.4,278.8,403.9z"/>
		<path class="st5" d="M280.8,404.6c0.2-0.4,0.5-0.8,0.9-1c0.4-0.2,0.8-0.4,1.3-0.4c0.4,0,0.7,0.1,1,0.2c0.3,0.2,0.6,0.4,0.8,0.6
			v-2.6h1.4v7.4h-1.4V408c-0.2,0.3-0.4,0.5-0.7,0.7c-0.3,0.2-0.7,0.2-1.1,0.2c-0.5,0-0.9-0.1-1.3-0.4s-0.7-0.6-0.9-1
			c-0.2-0.4-0.3-0.9-0.3-1.5C280.4,405.5,280.5,405,280.8,404.6z M284.6,405.2c-0.1-0.2-0.3-0.4-0.5-0.6c-0.2-0.1-0.5-0.2-0.7-0.2
			c-0.3,0-0.5,0.1-0.7,0.2c-0.2,0.1-0.4,0.3-0.5,0.6c-0.1,0.2-0.2,0.5-0.2,0.9s0.1,0.6,0.2,0.9c0.1,0.2,0.3,0.4,0.5,0.6
			c0.2,0.1,0.5,0.2,0.7,0.2c0.3,0,0.5-0.1,0.7-0.2s0.4-0.3,0.5-0.6c0.1-0.2,0.2-0.5,0.2-0.9S284.7,405.5,284.6,405.2z"/>
	</g>
	<g>
		<path class="st1" d="M338.7,424.2c-11.2-0.2-23.5-0.2-34.7,0C315.2,424.4,327.5,424.4,338.7,424.2z"/>
		<path class="st1" d="M292.4,424.2c-10-0.2-20.1-0.2-30.1,0C272.4,424.4,282.4,424.4,292.4,424.2z"/>
		<path class="st1" d="M252.5,424.2c-14.1-0.2-29.6-0.2-43.7,0C222.9,424.4,238.5,424.4,252.5,424.2z"/>
		<path class="st1" d="M317.9,429.7c6.8,0.2,13.8,0.2,20.8,0C331.7,429.5,324.9,429.5,317.9,429.7z"/>
		<path class="st1" d="M312.7,429.7c-12.1-0.2-25.4-0.2-37.5,0C287.3,429.9,300.7,429.9,312.7,429.7z"/>
		<path class="st1" d="M270,429.7c-19.7-0.2-41.5-0.2-61.3,0C228.6,429.9,250.4,429.9,270,429.7z"/>
		<path class="st1" d="M273.8,435.1c20.9,0.3,44,0.3,64.9,0C317.8,434.9,294.8,434.9,273.8,435.1z"/>
		<path class="st1" d="M264,435.1c-17.8-0.2-37.4-0.2-55.2,0C226.6,435.4,246.2,435.4,264,435.1z"/>
		<path class="st1" d="M295.7,440.5c13.9,0.3,29.2,0.3,43,0C324.8,440.3,309.6,440.3,295.7,440.5z"/>
		<path class="st16" d="M288.4,440.5c-13.1-0.2-27.6-0.2-40.7,0C260.8,440.8,275.3,440.8,288.4,440.5z"/>
		<path class="st16" d="M241.5,440.5c-10.6-0.2-22.2-0.2-32.7,0C219.3,440.8,230.9,440.8,241.5,440.5z"/>
		<path class="st1" d="M304.1,446c11.2,0.2,23.5,0.2,34.7,0C327.5,445.8,315.2,445.8,304.1,446z"/>
		<path class="st1" d="M237.8,446.1c11.3,0,22.7,0,33.9,0c5.9,0,11.9,0,17.8-0.1c2.3,0,4.6,0,6.9,0c-2.3,0-4.6,0-6.9,0
			c-5.9-0.1-11.9-0.1-17.8-0.1c-11.3,0-22.7,0-33.9,0c-9.7,0-19.6,0-28.9,0.1C218.1,446.1,228.1,446.2,237.8,446.1z"/>
		<path class="st1" d="M317.9,451.4c6.8,0.2,13.8,0.2,20.8,0C331.7,451.2,324.9,451.2,317.9,451.4z"/>
		<path class="st1" d="M312.7,451.4c-12.1-0.2-25.4-0.2-37.5,0C287.3,451.6,300.7,451.6,312.7,451.4z"/>
		<path class="st1" d="M270,451.4c-19.7-0.2-41.5-0.2-61.3,0C228.6,451.6,250.4,451.6,270,451.4z"/>
		<path class="st1" d="M273.8,456.9c20.9,0.3,44,0.3,64.9,0C317.8,456.6,294.8,456.6,273.8,456.9z"/>
		<path class="st1" d="M264,456.9c-17.8-0.2-37.4-0.2-55.2,0C226.6,457.1,246.2,457.1,264,456.9z"/>
		<path class="st1" d="M295.7,462.3c13.9,0.3,29.2,0.3,43,0C324.8,462.1,309.6,462.1,295.7,462.3z"/>
		<path class="st1" d="M288.4,462.3c-13.1-0.2-27.6-0.2-40.7,0C260.8,462.6,275.3,462.6,288.4,462.3z"/>
		<path class="st1" d="M241.5,462.3c-10.6-0.2-22.2-0.2-32.7,0C219.3,462.6,230.9,462.6,241.5,462.3z"/>
		<path class="st1" d="M208.8,467.8c28.2,0.2,59.4,0.2,87.6,0C268,467.6,237,467.6,208.8,467.8z"/>
	</g>
	<g>
		<path class="st12" d="M206.3,431.9c-0.2-0.2-0.4-0.4-0.5-0.5v9.8"/>
		<polyline class="st11" points="203,449.4 294.3,449.4 294.3,431.3 203.6,431.3 		"/>
	</g>
	<polygon class="st2" points="274,363.3 266.8,370.5 271.2,370.5 271.2,378.1 276.9,378.1 276.9,370.5 281.2,370.5 	"/>
</g>
</svg>
