<?xml version="1.0" encoding="utf-8"?>
<!-- Generator: Adobe Illustrator 25.0.0, SVG Export Plug-In . SVG Version: 6.00 Build 0)  -->
<svg version="1.1" id="Layer_1" xmlns="http://www.w3.org/2000/svg" xmlns:xlink="http://www.w3.org/1999/xlink" x="0px" y="0px"
	 width="453.5px" height="283.5px" viewBox="0 0 453.5 283.5" style="enable-background:new 0 0 453.5 283.5;" xml:space="preserve"
	>
<style type="text/css">
	.st0{fill:#DBDBDB;}
	.st1{fill:#263238;}
	.st2{fill:#6074CB;}
	.st3{fill:#C7C7C7;}
	.st4{fill:#FFFFFF;}
	.st5{fill:#EBEBEB;}
	.st6{fill:#A6A6A6;}
	.st7{enable-background:new    ;}
	.st8{fill:none;stroke:#6074CB;stroke-width:1.4095;stroke-miterlimit:10;stroke-dasharray:5.6447,5.6447;}
	.st9{fill:none;stroke:#F4C416;stroke-width:4;stroke-linecap:round;stroke-miterlimit:10;}
	.st10{fill:none;stroke:#6074CB;stroke-miterlimit:10;}
	.st11{fill:#263238;stroke:#263238;stroke-miterlimit:10;}
	.st12{fill:#6074CB;stroke:#6074CB;stroke-width:2;stroke-miterlimit:10;}
	.st13{fill:none;stroke:#F6CD2F;stroke-width:4;stroke-linecap:round;stroke-miterlimit:10;}
</style>
<path class="st0" d="M42.4,221.8l-2.1,1c-0.2-0.5,0-1.1,0.5-1.3C41.4,221.1,42.1,221.3,42.4,221.8z M43.2,211.6
	c-0.6,0.4-0.8,1-0.4,1.6c0.4,0.6,1,0.8,1.6,0.4c0.6-0.4,0.8-1,0.4-1.6C44.6,211.5,43.8,211.2,43.2,211.6L43.2,211.6z M42,216.5
	c-0.6,0.4-0.8,1-0.4,1.6s1,0.8,1.6,0.4c0.6-0.4,0.8-1,0.4-1.6l0,0C43.4,216.4,42.6,216.2,42,216.5L42,216.5z M39.9,210.8
	c-0.2-0.3-0.5-0.5-0.8-0.6l0.1,2.3c0.1-0.1,0.2,0,0.4-0.1C40.1,212,40.3,211.4,39.9,210.8L39.9,210.8z M39.5,205.4
	c-0.6,0.4-0.8,1-0.4,1.6s1,0.8,1.6,0.4c0.6-0.4,0.8-1,0.4-1.6l0,0C40.9,205.3,40.1,205,39.5,205.4L39.5,205.4z M45.7,201.7
	c-0.5,0.4-0.6,1.1-0.3,1.7c0.4,0.5,0.9,0.6,1.5,0.4c0.7-0.3,0.8-1,0.5-1.6C47.1,201.5,46.4,201.4,45.7,201.7
	C45.8,201.6,45.8,201.6,45.7,201.7z M44.5,206.6c-0.6,0.4-0.8,1-0.4,1.6s1,0.8,1.6,0.4c0.6-0.4,0.8-1,0.4-1.6
	C45.8,206.5,45.1,206.3,44.5,206.6L44.5,206.6z M42,195.6c-0.6,0.4-0.8,1-0.4,1.6s1,0.8,1.6,0.4c0.6-0.4,0.8-1,0.4-1.6
	C43.3,195.4,42.6,195.2,42,195.6L42,195.6z M40.8,200.5c-0.5,0.4-0.6,1.1-0.3,1.7c0.4,0.5,0.9,0.6,1.5,0.4c0.7-0.3,0.8-1,0.5-1.6
	C42.2,200.3,41.5,200.2,40.8,200.5C40.9,200.4,40.8,200.4,40.8,200.5z M38.7,194.8c-0.1-0.1-0.1-0.2-0.2-0.2l0.1,1.7
	C38.9,195.7,39,195.2,38.7,194.8L38.7,194.8z M39.5,191.5c0.7-0.3,0.8-1,0.5-1.6c-0.3-0.7-1-0.8-1.6-0.5c-0.1,0.1-0.1,0.1-0.2,0.1
	l0,0l0.1,2.1C38.7,191.7,39.2,191.7,39.5,191.5L39.5,191.5z M44.5,185.7c-0.7,0.3-0.8,1-0.5,1.6c0.3,0.7,1,0.8,1.6,0.5
	c0.1-0.1,0.1-0.1,0.2-0.1c0.5-0.4,0.6-1.1,0.3-1.7C45.6,185.6,45,185.4,44.5,185.7z M43.2,190.7c-0.6,0.4-0.8,1-0.4,1.6
	c0.4,0.6,1,0.8,1.6,0.4c0.6-0.4,0.8-1,0.4-1.6l0,0C44.5,190.5,43.8,190.3,43.2,190.7L43.2,190.7z M40.8,179.6
	c-0.6,0.4-0.8,1-0.4,1.6c0.4,0.6,1,0.8,1.6,0.4c0.6-0.4,0.8-1,0.4-1.6l0,0C42,179.4,41.3,179.2,40.8,179.6L40.8,179.6z M39.5,184.5
	c-0.6,0.4-0.8,1-0.4,1.6s1,0.8,1.6,0.4c0.6-0.4,0.8-1,0.4-1.6S40.1,184.1,39.5,184.5L39.5,184.5L39.5,184.5z M38.7,173.8
	c-0.2-0.3-0.6-0.6-1-0.5l0.1,2.4c0.2,0,0.4-0.1,0.5-0.2C38.8,175.1,39,174.4,38.7,173.8L38.7,173.8L38.7,173.8z M45.7,180.8
	c-0.6,0.4-0.8,1-0.4,1.6c0.4,0.6,1,0.8,1.6,0.4c0.6-0.4,0.8-1,0.4-1.6l0,0C47,180.6,46.3,180.4,45.7,180.8L45.7,180.8z M43.2,169.7
	c-0.6,0.4-0.8,1-0.4,1.6c0.4,0.6,1,0.8,1.6,0.4c0.6-0.4,0.8-1,0.4-1.6l0,0C44.5,169.6,43.7,169.4,43.2,169.7z M42,174.6
	c-0.6,0.4-0.8,1-0.4,1.6s1,0.8,1.6,0.4c0.6-0.4,0.8-1,0.4-1.6l0,0C43.3,174.4,42.6,174.3,42,174.6z M39.5,163.5
	c-0.6,0.4-0.8,1-0.4,1.6s1,0.8,1.6,0.4c0.6-0.4,0.8-1,0.4-1.6l0,0C40.8,163.4,40.1,163.1,39.5,163.5L39.5,163.5L39.5,163.5z
	 M38.3,168.4c-0.6,0.4-0.8,1-0.4,1.6s1,0.8,1.6,0.4c0.6-0.4,0.8-1,0.4-1.6l0,0C39.5,168.3,38.9,168.1,38.3,168.4z M37.4,157.7
	c-0.1-0.2-0.3-0.3-0.5-0.4v2C37.6,159,37.8,158.3,37.4,157.7L37.4,157.7z M36.8,154.5c0.5,0.4,1.2,0.3,1.6-0.2
	c0.4-0.5,0.3-1.2-0.2-1.6c-0.4-0.2-0.9-0.3-1.3,0c-0.1,0.1-0.2,0.1-0.1,0.2V154.5z M45.7,159.9c-0.6,0.4-0.8,1-0.4,1.6
	c0.4,0.6,1,0.8,1.6,0.4c0.6-0.4,0.8-1,0.4-1.6l0,0C47,159.7,46.2,159.5,45.7,159.9C45.6,159.8,45.6,159.8,45.7,159.9L45.7,159.9z
	 M44.4,164.7c-0.6,0.4-0.8,1-0.4,1.6c0.4,0.6,1,0.8,1.6,0.4c0.6-0.4,0.8-1,0.4-1.6l0,0C45.8,164.6,45,164.4,44.4,164.7L44.4,164.7
	L44.4,164.7z M42,153.7c-0.6,0.4-0.8,1-0.4,1.6s1,0.8,1.6,0.4c0.6-0.4,0.8-1,0.4-1.6l0,0C43.3,153.5,42.6,153.3,42,153.7
	C41.9,153.6,41.9,153.6,42,153.7L42,153.7z M40.8,158.7c-0.5,0.4-0.6,1.1-0.3,1.7c0.4,0.5,0.9,0.6,1.5,0.4c0.7-0.3,0.8-1,0.5-1.6
	C42.2,158.5,41.5,158.4,40.8,158.7C40.8,158.6,40.8,158.7,40.8,158.7z M38.3,147.5c-0.6,0.4-0.8,1-0.4,1.6s1,0.8,1.6,0.4
	c0.6-0.4,0.8-1,0.4-1.6l0,0C39.6,147.4,38.9,147.2,38.3,147.5L38.3,147.5L38.3,147.5z M44.3,143.9c-0.7,0.3-0.8,1-0.5,1.6
	c0.3,0.7,1,0.8,1.6,0.5c0.1-0.1,0.1-0.1,0.2-0.1c0.5-0.4,0.6-1.1,0.3-1.7C45.5,143.7,44.9,143.6,44.3,143.9z M43.2,148.7
	c-0.7,0.3-0.8,1-0.5,1.6c0.3,0.7,1,0.8,1.6,0.5c0.1-0.1,0.1-0.1,0.2-0.1c0.5-0.4,0.6-1.1,0.3-1.7C44.3,148.6,43.6,148.5,43.2,148.7z
	 M40.6,137.7c-0.6,0.4-0.8,1-0.4,1.6c0.4,0.6,1,0.8,1.6,0.4c0.6-0.4,0.8-1,0.4-1.6l0,0C41.9,137.5,41.2,137.4,40.6,137.7L40.6,137.7
	z M39.5,142.6c-0.6,0.4-0.8,1-0.4,1.6s1,0.8,1.6,0.4c0.6-0.4,0.8-1,0.4-1.6l0,0C40.7,142.5,40,142.3,39.5,142.6L39.5,142.6z
	 M37.3,136.9c-0.3-0.4-0.7-0.6-1.3-0.5l0.1,2.4c0.3,0.1,0.4,0,0.7-0.2C37.5,138.2,37.6,137.4,37.3,136.9L37.3,136.9z M36.9,131.5
	c-0.6,0.4-0.8,1-0.4,1.6c0.4,0.6,1,0.8,1.6,0.4c0.6-0.4,0.8-1,0.4-1.6l0,0C38.2,131.4,37.5,131.2,36.9,131.5L36.9,131.5z
	 M45.6,138.9c-0.6,0.4-0.8,1-0.4,1.6c0.4,0.6,1,0.8,1.6,0.4c0.6-0.4,0.8-1,0.4-1.6l0,0C46.9,138.7,46.2,138.6,45.6,138.9L45.6,138.9
	L45.6,138.9z M43.1,127.8c-0.6,0.4-0.8,1-0.4,1.6c0.4,0.6,1,0.8,1.6,0.4c0.6-0.4,0.8-1,0.4-1.6l0,0
	C44.4,127.6,43.7,127.5,43.1,127.8L43.1,127.8L43.1,127.8z M41.9,132.8c-0.6,0.4-0.8,1-0.4,1.6c0.4,0.6,1,0.8,1.6,0.4
	c0.6-0.4,0.8-1,0.4-1.6l0,0C43.1,132.6,42.5,132.4,41.9,132.8L41.9,132.8L41.9,132.8z M39.4,121.7c-0.6,0.4-0.8,1-0.4,1.6
	c0.4,0.6,1,0.8,1.6,0.4c0.6-0.4,0.8-1,0.4-1.6l0,0C40.6,121.5,40,121.3,39.4,121.7L39.4,121.7L39.4,121.7z M38.1,126.6
	c-0.6,0.4-0.8,1-0.4,1.6c0.4,0.6,1,0.8,1.6,0.4c0.6-0.4,0.8-1,0.4-1.6l0,0C39.4,126.4,38.7,126.2,38.1,126.6L38.1,126.6z
	 M36.1,120.8c-0.2-0.3-0.3-0.4-0.6-0.4l0.1,2.1l0.1-0.1C36.2,122,36.4,121.4,36.1,120.8L36.1,120.8z M36.9,117.6
	c0.7-0.3,0.8-1,0.5-1.6c-0.3-0.7-1-0.8-1.6-0.5c-0.1,0.1-0.1,0.1-0.2,0.1c-0.2,0.1-0.3,0.2-0.4,0.3l0.1,1.3
	C35.8,117.6,36.4,117.9,36.9,117.6L36.9,117.6z M45.5,117.9c-0.6,0.4-0.8,1-0.4,1.6s1,0.8,1.6,0.4c0.6-0.4,0.8-1,0.4-1.6l0,0
	C46.8,117.8,46.1,117.6,45.5,117.9L45.5,117.9z M44.3,122.9c-0.6,0.4-0.8,1-0.4,1.6c0.4,0.6,1,0.8,1.6,0.4c0.6-0.4,0.8-1,0.4-1.6
	l0,0C45.6,122.7,44.9,122.5,44.3,122.9L44.3,122.9L44.3,122.9z M41.8,111.8c-0.6,0.4-0.8,1-0.4,1.6c0.4,0.6,1,0.8,1.6,0.4
	c0.6-0.4,0.8-1,0.4-1.6l0,0C43.1,111.6,42.4,111.4,41.8,111.8L41.8,111.8z M40.6,116.7c-0.5,0.4-0.6,1.1-0.3,1.7
	c0.4,0.5,0.9,0.6,1.5,0.4c0.7-0.3,0.8-1,0.5-1.6C42,116.5,41.3,116.4,40.6,116.7C40.8,116.6,40.7,116.7,40.6,116.7z M38.1,105.6
	c-0.7,0.3-0.8,1-0.5,1.6c0.3,0.7,1,0.8,1.6,0.5c0.1-0.1,0.1-0.1,0.2-0.1c0.5-0.4,0.6-1.1,0.3-1.7C39.2,105.5,38.7,105.4,38.1,105.6z
	 M36.9,110.6c-0.6,0.4-0.8,1-0.4,1.6c0.4,0.6,1,0.8,1.6,0.4c0.6-0.4,0.8-1,0.4-1.6l0,0C38.2,110.4,37.5,110.2,36.9,110.6L36.9,110.6
	L36.9,110.6z M34.9,105l0.1,0.9C35,105.6,35,105.3,34.9,105L34.9,105z M35.6,101.5c0.6-0.4,0.8-1,0.4-1.6l0,0
	c-0.3-0.6-0.8-0.7-1.3-0.5l0.1,2.3C35,101.7,35.4,101.7,35.6,101.5L35.6,101.5z M46.7,113c-0.6,0.4-0.8,1-0.4,1.6
	c0.4,0.6,1,0.8,1.6,0.4c0.6-0.4,0.8-1,0.4-1.6l0,0C48,112.8,47.3,112.6,46.7,113L46.7,113z M44.3,101.9c-0.6,0.4-0.8,1-0.4,1.6
	c0.4,0.6,1,0.8,1.6,0.4c0.6-0.4,0.8-1,0.4-1.6l0,0C45.6,101.8,44.8,101.6,44.3,101.9L44.3,101.9z M43,106.8c-0.6,0.4-0.8,1-0.4,1.6
	s1,0.8,1.6,0.4c0.6-0.4,0.8-1,0.4-1.6l0,0C44.4,106.7,43.6,106.5,43,106.8L43,106.8z M40.5,95.7c-0.6,0.4-0.8,1-0.4,1.6
	s1,0.8,1.6,0.4c0.6-0.4,0.8-1,0.4-1.6l0,0C41.9,95.6,41.1,95.4,40.5,95.7C40.6,95.8,40.6,95.8,40.5,95.7L40.5,95.7z M39.3,100.7
	c-0.7,0.3-0.8,1-0.5,1.6c0.3,0.7,1,0.8,1.6,0.5c0.1-0.1,0.1-0.1,0.2-0.1c0.5-0.4,0.6-1.1,0.3-1.7C40.4,100.6,39.9,100.4,39.3,100.7z
	 M36.9,89.6c-0.6,0.4-0.8,1-0.4,1.6c0.4,0.6,1,0.8,1.6,0.4c0.6-0.4,0.8-1,0.4-1.6l0,0C38.2,89.5,37.4,89.3,36.9,89.6L36.9,89.6z
	 M35.6,94.6c-0.6,0.4-0.8,1-0.4,1.6c0.4,0.6,1,0.8,1.6,0.4c0.6-0.4,0.8-1,0.4-1.6l0,0C36.9,94.4,36.2,94.2,35.6,94.6L35.6,94.6z
	 M34.8,83.9c-0.2-0.3-0.4-0.5-0.8-0.6l0.1,2.3c0.1-0.1,0.2,0,0.3-0.1C34.9,85.2,35.1,84.4,34.8,83.9L34.8,83.9z M35.6,80.6
	c0.6-0.4,0.8-1,0.4-1.6c-0.4-0.6-1-0.8-1.6-0.4c-0.3,0.2-0.5,0.4-0.6,0.7l0.1,0.7c0.1,0.1,0.1,0.2,0.1,0.3
	C34.3,80.7,35,81,35.6,80.6L35.6,80.6L35.6,80.6z M46.7,92c-0.5,0.4-0.6,1.1-0.3,1.7c0.4,0.5,0.9,0.6,1.5,0.4c0.7-0.3,0.8-1,0.5-1.6
	C48.1,91.8,47.4,91.7,46.7,92C46.8,92,46.7,92,46.7,92z M45.5,97c-0.6,0.4-0.8,1-0.4,1.6s1,0.8,1.6,0.4c0.6-0.4,0.8-1,0.4-1.6l0,0
	C46.8,96.8,46,96.6,45.5,97L45.5,97L45.5,97z M43,85.9c-0.6,0.4-0.8,1-0.4,1.6s1,0.8,1.6,0.4c0.6-0.4,0.8-1,0.4-1.6l0,0
	C44.3,85.7,43.6,85.6,43,85.9L43,85.9L43,85.9z M41.8,90.9c-0.5,0.4-0.6,1.1-0.3,1.7c0.4,0.5,0.9,0.6,1.5,0.4c0.7-0.3,0.8-1,0.5-1.6
	C43.2,90.7,42.5,90.6,41.8,90.9C41.8,90.7,41.8,90.7,41.8,90.9z M39.3,79.8c-0.6,0.4-0.8,1-0.4,1.6s1,0.8,1.6,0.4
	c0.6-0.4,0.8-1,0.4-1.6l0,0C40.7,79.7,39.8,79.5,39.3,79.8L39.3,79.8z M38.1,84.7c-0.6,0.4-0.8,1-0.4,1.6c0.4,0.6,1,0.8,1.6,0.4
	c0.6-0.4,0.8-1,0.4-1.6l0,0C39.4,84.6,38.7,84.3,38.1,84.7L38.1,84.7L38.1,84.7z M35.7,73.7c-0.5,0.4-0.6,1.1-0.3,1.7
	c0.4,0.5,0.9,0.6,1.5,0.4c0.7-0.3,0.8-1,0.5-1.6C37.1,73.5,36.4,73.4,35.7,73.7C35.7,73.5,35.6,73.6,35.7,73.7z M33.6,67.9
	c-0.1-0.1-0.1-0.2-0.2-0.1l0.1,1.5C33.8,68.9,33.8,68.3,33.6,67.9L33.6,67.9z M34.4,64.6c0.6-0.4,0.8-1,0.4-1.6
	c-0.4-0.6-1-0.8-1.6-0.4l0,0l0.1,2.1C33.6,64.8,34,64.8,34.4,64.6L34.4,64.6z M45.5,76c-0.7,0.3-0.8,1-0.5,1.6
	c0.3,0.7,1,0.8,1.6,0.5c0.1-0.1,0.1-0.1,0.2-0.1c0.5-0.4,0.6-1.1,0.3-1.7C46.6,76,46,75.9,45.5,76z M44.3,81c-0.7,0.3-0.8,1-0.5,1.6
	c0.3,0.7,1,0.8,1.6,0.5c0.1-0.1,0.1-0.1,0.2-0.1c0.5-0.4,0.6-1.1,0.3-1.7C45.4,80.9,44.7,80.8,44.3,81z M41.8,70
	c-0.6,0.4-0.8,1-0.5,1.6c0.4,0.6,1,0.8,1.6,0.5c0.6-0.4,0.8-1,0.5-1.6c0,0,0,0-0.1-0.1C43,69.8,42.3,69.6,41.8,70
	C41.8,69.9,41.8,69.9,41.8,70L41.8,70z M40.5,74.8c-0.6,0.4-0.8,1-0.4,1.6s1,0.8,1.6,0.4c0.6-0.4,0.8-1,0.4-1.6l0,0
	C41.9,74.7,41.1,74.5,40.5,74.8L40.5,74.8L40.5,74.8z M38.1,63.8c-0.6,0.4-0.8,1-0.4,1.6c0.4,0.6,1,0.8,1.6,0.4
	c0.6-0.4,0.8-1,0.4-1.6l0,0C39.4,63.6,38.7,63.4,38.1,63.8C38.1,63.7,38.1,63.7,38.1,63.8L38.1,63.8z M36.9,68.7
	c-0.6,0.4-0.8,1-0.4,1.6c0.4,0.6,1,0.8,1.6,0.4c0.6-0.4,0.8-1,0.4-1.6l0,0C38.2,68.6,37.4,68.3,36.9,68.7
	C36.8,68.7,36.8,68.7,36.9,68.7L36.9,68.7z M34.4,57.6c-0.6,0.4-0.8,1-0.4,1.6c0.4,0.6,1,0.8,1.6,0.4c0.6-0.4,0.8-1,0.4-1.6l0,0
	C35.7,57.4,35,57.3,34.4,57.6C34.3,57.5,34.3,57.5,34.4,57.6L34.4,57.6z M46.6,71.2c-0.6,0.4-0.8,1-0.4,1.6c0.4,0.6,1,0.8,1.6,0.4
	c0.6-0.4,0.8-1,0.4-1.6l0,0C47.9,71,47.2,70.8,46.6,71.2L46.6,71.2z M44.1,60c-0.6,0.4-0.8,1-0.4,1.6c0.4,0.6,1,0.8,1.6,0.4
	c0.6-0.4,0.8-1,0.4-1.6l0,0C45.5,59.9,44.7,59.7,44.1,60L44.1,60z M42.9,65c-0.6,0.4-0.8,1-0.4,1.6c0.4,0.6,1,0.8,1.6,0.4
	c0.6-0.4,0.8-1,0.4-1.6l0,0C44.2,64.9,43.5,64.6,42.9,65L42.9,65z M40.4,53.9c-0.6,0.4-0.8,1-0.4,1.6c0.4,0.6,1,0.8,1.6,0.4
	c0.6-0.4,0.8-1,0.4-1.6l0,0C41.8,53.8,41,53.5,40.4,53.9L40.4,53.9z M39.3,58.8c-0.6,0.4-0.8,1-0.4,1.6s1,0.8,1.6,0.4
	c0.6-0.4,0.8-1,0.4-1.6l0,0C40.6,58.7,39.8,58.5,39.3,58.8z M36.7,47.8c-0.5,0.4-0.6,1.1-0.3,1.7c0.4,0.5,0.9,0.6,1.5,0.4
	c0.7-0.3,0.8-1,0.5-1.6C38.1,47.6,37.4,47.5,36.7,47.8C36.9,47.6,36.8,47.7,36.7,47.8z M35.5,52.7c-0.6,0.4-0.8,1-0.4,1.6
	c0.4,0.6,1,0.8,1.6,0.4c0.6-0.4,0.8-1,0.4-1.6l0,0C36.8,52.6,36.1,52.4,35.5,52.7L35.5,52.7z M33.4,46.9c-0.2-0.3-0.6-0.6-1-0.5
	l0.1,2.4c0.2,0,0.3-0.1,0.5-0.2C33.6,48.2,33.8,47.4,33.4,46.9L33.4,46.9z M33,41.6c-0.6,0.4-0.8,1-0.4,1.6s1,0.8,1.6,0.4
	c0.6-0.4,0.8-1,0.4-1.6l0,0C34.3,41.4,33.6,41.2,33,41.6L33,41.6z M46.6,50.2c-0.6,0.4-0.8,1-0.4,1.6c0.4,0.6,1,0.8,1.6,0.4
	c0.6-0.4,0.8-1,0.4-1.6l0,0C47.9,50.1,47.2,49.8,46.6,50.2L46.6,50.2z M45.4,55.1c-0.6,0.4-0.8,1-0.4,1.6c0.4,0.6,1,0.8,1.6,0.4
	c0.6-0.4,0.8-1,0.4-1.6l0,0C46.7,55,46,54.7,45.4,55.1L45.4,55.1z M42.9,44c-0.6,0.4-0.8,1-0.4,1.6c0.4,0.6,1,0.8,1.6,0.4
	c0.6-0.4,0.8-1,0.4-1.6l0,0C44.2,43.9,43.5,43.7,42.9,44L42.9,44z M41.6,48.9c-0.5,0.4-0.6,1.1-0.3,1.7c0.4,0.5,0.9,0.6,1.5,0.4
	c0.7-0.3,0.8-1,0.5-1.6C43,48.7,42.3,48.6,41.6,48.9C41.7,48.9,41.7,48.9,41.6,48.9z M39.1,37.8c-0.6,0.4-0.8,1-0.4,1.6
	c0.4,0.6,1,0.8,1.6,0.4c0.6-0.4,0.8-1,0.4-1.6l0,0C40.5,37.7,39.8,37.6,39.1,37.8L39.1,37.8z M37.9,42.8c-0.6,0.4-0.8,1-0.4,1.6
	c0.4,0.6,1,0.8,1.6,0.4c0.6-0.4,0.8-1,0.4-1.6l0,0C39.3,42.7,38.6,42.5,37.9,42.8L37.9,42.8z M35.5,31.8c-0.6,0.4-0.8,1-0.4,1.6
	c0.4,0.6,1,0.8,1.6,0.4c0.6-0.4,0.8-1,0.4-1.6l0,0C36.8,31.6,36.1,31.4,35.5,31.8L35.5,31.8z M34.2,36.6c-0.6,0.4-0.8,1-0.4,1.6
	c0.4,0.6,1,0.8,1.6,0.4c0.6-0.4,0.8-1,0.4-1.6l0,0C35.5,36.5,34.9,36.3,34.2,36.6L34.2,36.6z M32.1,30.9c-0.1-0.2-0.2-0.3-0.3-0.4
	l0.1,1.9C32.4,32,32.5,31.5,32.1,30.9L32.1,30.9z M33,27.6c0.6-0.4,0.8-1,0.4-1.6c-0.4-0.6-1-0.8-1.6-0.4c-0.1,0-0.1,0-0.2,0.1
	l0.1,1.9C32.1,27.9,32.6,27.9,33,27.6L33,27.6z M45.3,34.1c-0.6,0.4-0.8,1-0.4,1.6c0.4,0.6,1,0.8,1.6,0.4c0.6-0.4,0.8-1,0.4-1.6l0,0
	C46.6,34,45.9,33.8,45.3,34.1z M44.1,39.1c-0.6,0.4-0.8,1-0.4,1.6c0.4,0.6,1,0.8,1.6,0.4c0.6-0.4,0.8-1,0.4-1.6l0,0
	C45.4,39,44.7,38.8,44.1,39.1L44.1,39.1z M41.6,28c-0.6,0.4-0.8,1-0.4,1.6c0.4,0.6,1,0.8,1.6,0.4c0.6-0.4,0.8-1,0.4-1.6l0,0
	C42.9,27.8,42.2,27.7,41.6,28L41.6,28z M40.4,32.9c-0.6,0.4-0.8,1-0.4,1.6c0.4,0.6,1,0.8,1.6,0.4c0.6-0.4,0.8-1,0.4-1.6l0,0
	C41.7,32.8,41,32.6,40.4,32.9L40.4,32.9z M37.9,21.9c-0.6,0.4-0.8,1-0.4,1.6c0.4,0.6,1,0.8,1.6,0.4c0.6-0.4,0.8-1,0.4-1.6l0,0
	C39.2,21.7,38.5,21.5,37.9,21.9L37.9,21.9z M36.7,26.8c-0.6,0.4-0.8,1-0.4,1.6c0.4,0.6,1,0.8,1.6,0.4s0.8-1,0.4-1.6l0,0
	C38,26.6,37.3,26.5,36.7,26.8L36.7,26.8z M34.2,15.7c-0.6,0.4-0.8,1-0.4,1.6c0.4,0.6,1,0.8,1.6,0.4c0.6-0.4,0.8-1,0.4-1.6l0,0
	C35.5,15.5,34.8,15.3,34.2,15.7L34.2,15.7z M33,20.6c-0.7,0.3-0.8,1-0.5,1.6c0.3,0.6,1,0.8,1.6,0.5c0.1-0.1,0.1-0.1,0.2-0.1
	c0.5-0.4,0.6-1.1,0.3-1.7C34.2,20.5,33.5,20.3,33,20.6z M32.1,9.9c-0.3-0.4-0.7-0.6-1.2-0.6l0.1,2.4c0.2,0,0.4,0,0.6-0.1
	C32.3,11.2,32.5,10.5,32.1,9.9L32.1,9.9z M46.6,29.3c-0.6,0.4-0.8,1-0.4,1.6c0.4,0.6,1,0.8,1.6,0.4c0.6-0.4,0.8-1,0.4-1.6l0,0
	C47.9,29.1,47.2,28.9,46.6,29.3z M44.1,18.2c-0.6,0.4-0.8,1-0.4,1.6c0.4,0.6,1,0.8,1.6,0.4c0.6-0.4,0.8-1,0.4-1.6l0,0
	C45.4,18,44.7,17.8,44.1,18.2L44.1,18.2L44.1,18.2z M42.9,23.1c-0.6,0.4-0.8,1-0.4,1.6c0.4,0.6,1,0.8,1.6,0.4c0.6-0.4,0.8-1,0.4-1.6
	l0,0C44.2,22.9,43.5,22.7,42.9,23.1L42.9,23.1z M40.4,12c-0.6,0.4-0.8,1-0.4,1.6c0.4,0.6,1,0.8,1.6,0.4c0.6-0.4,0.8-1,0.4-1.6l0,0
	C41.7,11.9,41,11.6,40.4,12L40.4,12L40.4,12z M39.2,16.9c-0.6,0.4-0.8,1-0.4,1.6c0.4,0.6,1,0.8,1.6,0.4s0.8-1,0.4-1.6l0,0
	C40.4,16.7,39.8,16.6,39.2,16.9z M36.7,5.8c-0.6,0.5-0.7,1.1-0.3,1.7c0.4,0.5,0.9,0.6,1.5,0.4c0.7-0.3,0.8-1,0.5-1.6
	S37.4,5.5,36.7,5.8L36.7,5.8z M35.4,10.8c-0.6,0.4-0.8,1-0.4,1.6c0.4,0.6,1,0.8,1.6,0.4c0.6-0.4,0.8-1,0.4-1.6l0,0
	C36.8,10.7,36,10.4,35.4,10.8L35.4,10.8z M32.5,1.3c0.4,0.6,1,0.8,1.6,0.4c0.5-0.2,0.7-0.7,0.6-1.2l-2-0.7
	C32.4,0.2,32.3,0.9,32.5,1.3L32.5,1.3z M37.5,2.5c0.4,0.6,1,0.8,1.6,0.4c0.4-0.2,0.6-0.6,0.6-0.9l-2.1-0.7
	C37.3,1.7,37.3,2.2,37.5,2.5z M31.7,4.6c-0.6,0.4-0.8,1-0.4,1.6c0.4,0.6,1,0.8,1.6,0.4c0.6-0.4,0.8-1,0.5-1.6l0,0
	C33.1,4.5,32.3,4.2,31.7,4.6L31.7,4.6z M50.3,14.4c-0.6,0.4-0.8,1-0.4,1.6c0.4,0.6,1,0.8,1.6,0.4c0.6-0.4,0.8-1,0.4-1.6l0,0
	C51.5,14.2,50.8,14.1,50.3,14.4L50.3,14.4z M46.5,8.3c-0.7,0.3-0.8,1-0.5,1.6c0.3,0.7,1,0.8,1.6,0.5c0.1-0.1,0.1-0.1,0.2-0.1
	c0.5-0.4,0.6-1.1,0.3-1.7C47.7,8.2,47.1,8,46.5,8.3z M49,5.4c0.2-0.1,0.3-0.3,0.4-0.5l-2.2-0.7c0,0.2,0,0.4,0.2,0.7
	C47.7,5.6,48.4,5.7,49,5.4L49,5.4z M45.3,13.2c-0.6,0.4-0.8,1-0.4,1.6c0.4,0.6,1,0.8,1.6,0.4c0.6-0.4,0.8-1,0.4-1.6l0,0
	C46.6,13,45.9,12.8,45.3,13.2L45.3,13.2L45.3,13.2z M42.4,3.8c0.4,0.6,1,0.8,1.6,0.4c0.3-0.2,0.5-0.4,0.5-0.7l-2.2-0.7
	C42.2,3.2,42.3,3.5,42.4,3.8L42.4,3.8z M41.6,7c-0.6,0.4-0.8,1-0.4,1.6c0.4,0.6,1,0.8,1.6,0.4c0.6-0.4,0.8-1,0.4-1.6l0,0
	C42.9,6.9,42.2,6.7,41.6,7L41.6,7L41.6,7z M60.1,16.9c-0.6,0.4-0.8,1-0.4,1.6c0.4,0.6,1,0.8,1.6,0.4c0.6-0.4,0.8-1,0.4-1.6l0,0
	C61.4,16.7,60.7,16.5,60.1,16.9L60.1,16.9z M56.4,10.7c-0.6,0.4-0.8,1-0.4,1.6c0.4,0.6,1,0.8,1.6,0.4c0.6-0.4,0.8-1,0.4-1.6l0,0
	C57.7,10.5,57,10.4,56.4,10.7z M58.9,7.8l-1.7-0.5l0.1,0.1C57.6,7.9,58.2,8.1,58.9,7.8L58.9,7.8z M55.2,15.7c-0.6,0.4-0.8,1-0.4,1.6
	c0.4,0.6,1,0.8,1.6,0.4c0.6-0.4,0.8-1,0.4-1.6l0,0C56.5,15.5,55.8,15.3,55.2,15.7L55.2,15.7L55.2,15.7z M53.9,6.6
	c0.1-0.1,0.2-0.1,0.2-0.2l-2-0.6c0,0.1,0.1,0.3,0.1,0.4C52.7,6.8,53.3,7,53.9,6.6L53.9,6.6z M51.5,9.5c-0.7,0.3-0.8,1-0.5,1.6
	c0.3,0.7,1,0.8,1.6,0.5c0.1-0.1,0.1-0.1,0.2-0.1c0.5-0.4,0.6-1.1,0.3-1.7C52.7,9.4,52.1,9.3,51.5,9.5z M66.2,13.2
	c-0.5,0.4-0.6,1.1-0.3,1.7c0.4,0.5,0.9,0.6,1.5,0.4c0.7-0.3,0.8-1,0.5-1.6c-0.3-0.7-1-0.8-1.6-0.5C66.3,13,66.3,13.1,66.2,13.2z
	 M63.4,9.2l-1-0.2C62.6,9.2,63,9.3,63.4,9.2L63.4,9.2z M61.4,11.9c-0.5,0.4-0.6,1.1-0.3,1.7c0.4,0.5,0.9,0.6,1.5,0.4
	c0.7-0.3,0.8-1,0.5-1.6c-0.3-0.7-1-0.8-1.6-0.5C61.5,11.9,61.4,11.9,61.4,11.9z M76.1,15.6c-0.7,0.3-0.8,1-0.5,1.6
	c0.3,0.7,1,0.8,1.6,0.5c0.1-0.1,0.1-0.1,0.2-0.1c0.5-0.4,0.6-1.1,0.3-1.7C77.3,15.4,76.6,15.4,76.1,15.6z M71.1,14.4
	c-0.6,0.4-0.8,1-0.4,1.6c0.4,0.6,1,0.8,1.6,0.4s0.8-1,0.4-1.6l0,0C72.5,14.3,71.8,14.1,71.1,14.4L71.1,14.4z M81,16.9
	c-0.6,0.4-0.8,1-0.4,1.6s1,0.8,1.6,0.4s0.8-1,0.4-1.6l0,0C82.3,16.7,81.6,16.5,81,16.9L81,16.9L81,16.9z"/>
<path class="st0" d="M421.6,91.7l2.3,0.2c-0.1,0.5-0.6,0.9-1.1,0.9C422.1,92.8,421.6,92.3,421.6,91.7z M415.6,92.8
	c0.7,0,1.2-0.5,1.2-1.2l0,0c0-0.2,0-0.4-0.1-0.5l-2-0.2c-0.2,0.2-0.3,0.5-0.3,0.8C414.4,92.3,414.9,92.8,415.6,92.8L415.6,92.8
	L415.6,92.8z M415.6,100c0.7,0,1.2-0.5,1.2-1.2s-0.5-1.2-1.2-1.2s-1.2,0.5-1.2,1.2C414.4,99.4,414.9,100,415.6,100L415.6,100z
	 M419.2,96.4c0.7,0,1.2-0.5,1.2-1.2s-0.5-1.2-1.2-1.2s-1.2,0.5-1.2,1.2l0,0C418,95.8,418.5,96.4,419.2,96.4L419.2,96.4z M418,102.4
	c0,0.4,0.2,0.7,0.4,0.9l1.1-2c-0.1,0-0.2-0.1-0.4-0.1C418.5,101.2,418,101.7,418,102.4L418,102.4z M415.6,107.2
	c0.7,0,1.2-0.5,1.2-1.2s-0.5-1.2-1.2-1.2s-1.2,0.5-1.2,1.2l0,0C414.4,106.6,414.9,107.2,415.6,107.2L415.6,107.2z M408.4,92.8
	c0.7,0,1.2-0.5,1.2-1.2s-0.5-1.2-1.2-1.2s-1.2,0.5-1.2,1.2S407.7,92.8,408.4,92.8L408.4,92.8z M408.4,100c0.7,0,1.2-0.5,1.2-1.2
	s-0.5-1.2-1.2-1.2s-1.2,0.5-1.2,1.2S407.7,100,408.4,100L408.4,100z M412,96.4c0.7,0,1.2-0.5,1.2-1.2S412.7,94,412,94
	s-1.2,0.5-1.2,1.2S411.3,96.4,412,96.4L412,96.4z M408.4,107.2c0.7-0.1,1.1-0.6,1.1-1.3c-0.1-0.6-0.5-1-1.1-1.1
	c-0.7-0.1-1.2,0.4-1.3,1.1c-0.1,0.7,0.4,1.2,1.1,1.3C408.3,107.2,408.3,107.2,408.4,107.2z M412,103.6c0.7,0,1.2-0.5,1.2-1.2
	s-0.5-1.2-1.2-1.2s-1.2,0.5-1.2,1.2C410.8,103,411.3,103.6,412,103.6L412,103.6z M408.4,114.3c0.7,0,1.2-0.5,1.2-1.2
	s-0.5-1.2-1.2-1.2s-1.2,0.5-1.2,1.2S407.7,114.3,408.4,114.3L408.4,114.3z M412,110.7c0.7-0.1,1.1-0.6,1.1-1.3
	c-0.1-0.6-0.5-1-1.1-1.1c-0.7-0.1-1.2,0.4-1.3,1.1c-0.1,0.7,0.4,1.2,1.1,1.3C411.8,110.8,411.9,110.8,412,110.7z M410.8,116.7
	c0,0.1,0,0.2,0.1,0.3l0.8-1.5C411.1,115.8,410.8,116.2,410.8,116.7L410.8,116.7z M408.4,119.1c-0.7-0.1-1.2,0.4-1.3,1.1
	c-0.1,0.7,0.4,1.2,1.1,1.3c0.1,0,0.1,0,0.2,0l0,0l1-1.8C409.2,119.4,408.8,119.1,408.4,119.1L408.4,119.1z M331.8,260.5
	c0,0.2,0,0.3,0.1,0.5l0.9-1.7C332.2,259.4,331.8,259.8,331.8,260.5L331.8,260.5z M329.4,262.8c-0.7,0-1.2,0.5-1.2,1.2
	s0.5,1.2,1.2,1.2c0.1,0,0.1,0,0.2,0l0.9-1.7C330.3,263.1,329.9,262.8,329.4,262.8L329.4,262.8z M322.2,265.2c0.7,0,1.2-0.5,1.2-1.2
	s-0.5-1.2-1.2-1.2s-1.2,0.5-1.2,1.2l0,0C321,264.7,321.5,265.2,322.2,265.2L322.2,265.2z M325.8,261.6c0.7,0,1.2-0.5,1.2-1.2
	s-0.5-1.2-1.2-1.2s-1.2,0.5-1.2,1.2l0,0C324.6,261.1,325.1,261.6,325.8,261.6L325.8,261.6z M322.2,272.4c0.7,0,1.2-0.5,1.2-1.2
	s-0.5-1.2-1.2-1.2s-1.2,0.5-1.2,1.2l0,0C321,271.9,321.5,272.4,322.2,272.4L322.2,272.4z M325.8,268.8c0.7,0.1,1.2-0.4,1.3-1.1
	c0.1-0.7-0.4-1.2-1.1-1.3c-0.1,0-0.1,0-0.2,0c-0.7,0.1-1.1,0.6-1.1,1.3C324.7,268.3,325.2,268.8,325.8,268.8z M321,278.4
	c0,0.5,0.3,0.9,0.7,1.1l1.1-2.1c-0.2-0.1-0.4-0.2-0.6-0.2C321.5,277.2,321,277.7,321,278.4L321,278.4z M315,265.2
	c0.7,0,1.2-0.5,1.2-1.2s-0.5-1.2-1.2-1.2s-1.2,0.5-1.2,1.2l0,0C313.8,264.7,314.3,265.2,315,265.2L315,265.2L315,265.2z
	 M318.6,261.6c0.7,0,1.2-0.5,1.2-1.2s-0.5-1.2-1.2-1.2s-1.2,0.5-1.2,1.2l0,0C317.4,261.1,317.9,261.6,318.6,261.6L318.6,261.6z
	 M315,272.4c0.7,0,1.2-0.5,1.2-1.2s-0.5-1.2-1.2-1.2s-1.2,0.5-1.2,1.2l0,0C313.8,271.8,314.3,272.4,315,272.4L315,272.4L315,272.4z
	 M318.6,268.8c0.7,0,1.2-0.5,1.2-1.2s-0.5-1.2-1.2-1.2s-1.2,0.5-1.2,1.2l0,0C317.4,268.3,317.9,268.8,318.6,268.8z M315,279.6
	c0.7-0.1,1.1-0.6,1.1-1.3c-0.1-0.6-0.5-1-1.1-1.1c-0.7-0.1-1.2,0.4-1.3,1.1c-0.1,0.7,0.4,1.2,1.1,1.3
	C314.9,279.6,314.9,279.6,315,279.6z M318.6,276c0.7,0,1.2-0.5,1.2-1.2s-0.5-1.2-1.2-1.2s-1.2,0.5-1.2,1.2l0,0
	C317.4,275.4,317.9,276,318.6,276L318.6,276z M316.2,285.6c0-0.7-0.5-1.2-1.2-1.2c-0.5,0-0.9,0.3-1.1,0.8l1.4,1.6
	C315.8,286.6,316.2,286.1,316.2,285.6L316.2,285.6z M312.6,282c0-0.7-0.5-1.2-1.2-1.2c-0.4,0-0.8,0.2-1,0.5l1.5,1.7
	C312.3,282.8,312.6,282.4,312.6,282z M318.6,283.2c0.7,0,1.2-0.5,1.2-1.2s-0.5-1.2-1.2-1.2s-1.2,0.5-1.2,1.2l0,0
	C317.4,282.6,317.9,283.2,318.6,283.2L318.6,283.2z M307.8,265.2c0.7,0,1.2-0.5,1.2-1.2s-0.5-1.2-1.2-1.2s-1.2,0.5-1.2,1.2l0,0
	C306.6,264.7,307.2,265.2,307.8,265.2L307.8,265.2z M311.4,261.6c0.7,0,1.2-0.5,1.2-1.2s-0.5-1.2-1.2-1.2s-1.2,0.5-1.2,1.2l0,0
	C310.2,261.1,310.7,261.6,311.4,261.6L311.4,261.6L311.4,261.6z M307.8,272.4c0.7,0.1,1.2-0.4,1.3-1.1c0.1-0.7-0.4-1.2-1.1-1.3
	c-0.1,0-0.1,0-0.2,0c-0.7,0.1-1.1,0.6-1.1,1.3C306.8,271.9,307.2,272.3,307.8,272.4z M304.2,273.6c-0.2,0-0.4,0.1-0.6,0.2l1.5,1.7
	c0.1-0.2,0.2-0.4,0.2-0.7C305.4,274.1,304.9,273.6,304.2,273.6L304.2,273.6z M311.4,268.8c0.7,0,1.2-0.5,1.2-1.2s-0.5-1.2-1.2-1.2
	s-1.2,0.5-1.2,1.2l0,0C310.2,268.3,310.7,268.8,311.4,268.8L311.4,268.8L311.4,268.8z M309,278.4c0-0.7-0.5-1.2-1.2-1.2
	c-0.3,0-0.6,0.1-0.8,0.3l1.6,1.8C308.9,279,309,278.7,309,278.4L309,278.4z M311.4,276c0.7,0,1.2-0.5,1.2-1.2s-0.5-1.2-1.2-1.2
	s-1.2,0.5-1.2,1.2l0,0C310.2,275.4,310.7,276,311.4,276L311.4,276L311.4,276z M300.6,265.2c0.7,0,1.2-0.5,1.2-1.2s-0.5-1.2-1.2-1.2
	s-1.2,0.5-1.2,1.2l0,0C299.4,264.7,299.9,265.2,300.6,265.2z M297,266.4l1.2,1.3v-0.1C298.2,267,297.7,266.5,297,266.4L297,266.4z
	 M304.2,261.6c0.7,0,1.2-0.5,1.2-1.2s-0.5-1.2-1.2-1.2s-1.2,0.5-1.2,1.2l0,0C303,261.1,303.5,261.6,304.2,261.6L304.2,261.6
	L304.2,261.6z M300.6,270c-0.1,0-0.2,0-0.3,0.1l1.4,1.6c0.1-0.1,0.1-0.3,0.1-0.4C301.8,270.5,301.3,270,300.6,270L300.6,270z
	 M304.2,268.8c0.7,0.1,1.2-0.4,1.3-1.1c0.1-0.7-0.4-1.2-1.1-1.3c-0.1,0-0.1,0-0.2,0c-0.7,0.1-1.1,0.6-1.1,1.3
	C303.1,268.3,303.6,268.7,304.2,268.8z M293.9,262.9l0.7,0.7C294.5,263.3,294.3,263,293.9,262.9L293.9,262.9z M297,261.6
	c0.7-0.1,1.1-0.6,1.1-1.3c-0.1-0.6-0.5-1-1.1-1.1c-0.7-0.1-1.2,0.4-1.3,1.1c-0.1,0.7,0.4,1.2,1.1,1.3
	C296.9,261.6,297,261.6,297,261.6z"/>
<g id="gdpr_direct-Screen--inject-2">
	<path class="st1" d="M406.1,258.6l-357.4,0.2h-0.2v-0.2L48.4,18.9v-0.3h0.3l357.4,0.2h0.1v0.1L406.1,258.6z M406.1,258.6L406,19
		l0.1,0.1L48.7,19.2l0.3-0.3l-0.1,239.6l-0.2-0.2L406.1,258.6z"/>
	<rect x="48.7" y="18.9" class="st2" width="357.4" height="31.1"/>
	<rect x="48.7" y="18.9" class="st1" width="357.4" height="9.9"/>
	<path class="st3" d="M56.6,23.9c0,1.4-1.1,2.5-2.5,2.4c-1.4,0-2.5-1.1-2.4-2.5c0-1.4,1.1-2.4,2.5-2.4
		C55.5,21.4,56.6,22.5,56.6,23.9L56.6,23.9z"/>
	<path class="st4" d="M66.7,23.9c0,1.4-1.1,2.5-2.5,2.4c-1.4,0-2.5-1.1-2.4-2.5c0-1.4,1.1-2.4,2.5-2.4
		C65.6,21.4,66.7,22.5,66.7,23.9L66.7,23.9z"/>
	<path class="st2" d="M76.7,23.9c0,1.4-1.1,2.5-2.5,2.4c-1.4,0-2.5-1.1-2.4-2.5c0-1.4,1.1-2.4,2.5-2.4
		C75.6,21.4,76.7,22.5,76.7,23.9L76.7,23.9z"/>
	<path class="st4" d="M109.2,198.5c-0.2,0.1-0.3,0.3-0.2,0.4c0,0.1,0.2,0.2,0.3,0.2c0.2-0.1,0.3-0.3,0.2-0.4
		C109.5,198.5,109.3,198.5,109.2,198.5z"/>
	<path class="st4" d="M108.3,196.9c-0.1,0-0.2,0.2-0.2,0.3s0.1,0.2,0.2,0.2s0.2-0.2,0.2-0.3C108.5,197,108.4,196.9,108.3,196.9z"/>
</g>
<path class="st5" d="M175.6,65.5V91h25.5V65.5H175.6z M177.6,89.1V67.5h21.6v21.6H177.6z"/>
<g>
	<rect x="85.3" y="147.6" class="st5" width="1.7" height="10.3"/>
	<rect x="77.9" y="147.6" class="st5" width="1.7" height="10.3"/>
	<rect x="81.6" y="147.6" class="st5" width="1.7" height="10.3"/>
	<rect x="147.2" y="238.3" class="st6" width="42.4" height="3.3"/>
	<polygon class="st6" points="189.4,241.4 186.3,241.4 186.3,202.3 150.3,202.3 150.3,241.4 147.2,241.4 147.2,199 189.4,199 	"/>
	<rect x="95.9" y="167.8" class="st2" width="70.1" height="2.5"/>
	<path class="st0" d="M72.9,188.9c5-0.2,10.1-0.2,15.1-0.3h15.1h15.1l7.5,0.2l7.5,0.2l-7.5,0.2l-7.5,0.2h-15.1H88
		C83,189.1,77.9,189.1,72.9,188.9z"/>
	<path class="st0" d="M72.9,195.5c5-0.2,10.1-0.2,15.1-0.3h15.1h15.1l7.5,0.2l7.5,0.2l-7.5,0.2l-7.5,0.2h-15.1H88
		C83,195.6,77.9,195.5,72.9,195.5z"/>
	<path class="st0" d="M72.9,202c5-0.2,10.1-0.2,15.1-0.3h15.1h15.1l7.5,0.2l7.5,0.2l-7.5,0.2l-7.5,0.2h-15.1H88
		C83,202.1,77.9,202,72.9,202z"/>
	<path class="st0" d="M72.9,215c5-0.2,10.1-0.2,15.1-0.3h15.1h15.1l7.5,0.2l7.5,0.2l-7.5,0.2h-7.5h-15.1H88
		C83,215.2,77.9,215.2,72.9,215z"/>
	<path class="st0" d="M72.9,221.6c5-0.2,10.1-0.2,15.1-0.3h15.1h15.1l7.5,0.2l7.5,0.2l-7.5,0.2l-7.5,0.2h-15.1H88
		C83,221.7,77.9,221.7,72.9,221.6z"/>
	<path class="st0" d="M72.9,228.1c3.1-0.2,6.1-0.2,9.2-0.3c3.1,0,6.1,0,9.2,0c3.1,0,6.1,0,9.2,0l4.5,0.2c1.6,0,3.1,0.2,4.5,0.2
		c-1.6,0-3.1,0.2-4.5,0.2l-4.5,0.2c-3.1,0-6.1,0-9.2,0s-6.1,0-9.2,0C79,228.2,76,228.2,72.9,228.1z"/>
</g>
<g>
	<path class="st5" d="M121.1,68.3H94.4V95h26.7V68.3z M96.4,70.3h22.7V93H96.4V70.3z"/>
	<path class="st2" d="M201.1,141.7H159v-30.2h42.1V141.7z M159.6,141.1h40.9v-28.9h-40.9V141.1z"/>
</g>
<g class="st7">
	<path class="st4" d="M64.6,34.6v7h-1.4v-4.5l-1.9,4.5h-1.1l-1.9-4.5v4.5h-1.4v-7h1.6l2.2,5.2l2.2-5.2H64.6z"/>
	<path class="st4" d="M71.3,36.1l-3.4,8.2h-1.5l1.2-2.8l-2.2-5.4H67l1.4,3.9l1.5-3.9H71.3z"/>
	<path class="st4" d="M82.1,36.1l-1.6,5.5H79l-1-3.9l-1,3.9h-1.5l-1.6-5.5h1.4l1,4.2l1.1-4.2h1.5l1,4.2l1-4.2H82.1z"/>
	<path class="st4" d="M88,39.3h-4.1c0,0.4,0.2,0.7,0.4,0.9c0.2,0.2,0.6,0.3,0.9,0.3c0.5,0,0.9-0.2,1.1-0.7h1.5
		c-0.2,0.5-0.5,1-0.9,1.3s-1,0.5-1.7,0.5c-0.5,0-1-0.1-1.4-0.4c-0.4-0.2-0.8-0.6-1-1c-0.2-0.4-0.4-0.9-0.4-1.5s0.1-1.1,0.4-1.5
		s0.6-0.8,1-1s0.9-0.4,1.5-0.4c0.5,0,1,0.1,1.4,0.3s0.7,0.5,1,1C88,37.6,88,38,88,38.5C88.1,38.9,88,39.1,88,39.3z M86.6,38.3
		c0-0.4-0.1-0.6-0.4-0.9c-0.3-0.2-0.6-0.3-0.9-0.3c-0.3,0-0.6,0.1-0.9,0.3S84,37.9,84,38.3H86.6z"/>
	<path class="st4" d="M91.2,36.2c0.3-0.2,0.7-0.2,1.1-0.2c0.5,0,0.9,0.1,1.3,0.4c0.4,0.3,0.7,0.6,0.9,1c0.2,0.4,0.3,0.9,0.3,1.5
		s-0.1,1.1-0.3,1.5c-0.2,0.4-0.5,0.8-0.9,1s-0.8,0.4-1.3,0.4c-0.4,0-0.8-0.1-1.1-0.2c-0.3-0.1-0.6-0.4-0.7-0.6v0.8h-1.4v-7.4h1.4
		v2.7C90.7,36.6,90.9,36.4,91.2,36.2z M93.2,38c-0.1-0.2-0.3-0.4-0.5-0.6c-0.2-0.2-0.5-0.2-0.7-0.2c-0.3,0-0.5,0.1-0.7,0.2
		c-0.2,0.1-0.5,0.3-0.6,0.6s-0.2,0.5-0.2,0.9s0.1,0.6,0.2,0.9c0.1,0.3,0.3,0.4,0.5,0.6c0.2,0.1,0.5,0.2,0.7,0.2
		c0.3,0,0.5-0.1,0.7-0.2c0.2-0.1,0.4-0.3,0.5-0.6c0.1-0.2,0.2-0.5,0.2-0.9C93.4,38.5,93.3,38.2,93.2,38z"/>
	<path class="st4" d="M96.8,41.5c-0.4-0.2-0.6-0.4-0.9-0.7c-0.2-0.3-0.3-0.6-0.3-0.9H97c0,0.2,0.1,0.4,0.3,0.5
		c0.2,0.1,0.4,0.2,0.7,0.2c0.3,0,0.5-0.1,0.6-0.2c0.1-0.1,0.2-0.2,0.2-0.4s-0.1-0.3-0.3-0.4s-0.5-0.2-0.9-0.3s-0.8-0.2-1-0.3
		c-0.3-0.1-0.5-0.3-0.7-0.5c-0.1-0.2-0.2-0.5-0.2-0.8s0.1-0.6,0.3-0.8c0.2-0.2,0.4-0.5,0.8-0.6c0.3-0.1,0.7-0.2,1.2-0.2
		c0.7,0,1.2,0.2,1.6,0.5s0.6,0.8,0.7,1.3H99c0-0.2-0.1-0.4-0.3-0.5s-0.4-0.2-0.7-0.2c-0.3,0-0.4,0-0.6,0.1c-0.1,0.1-0.2,0.2-0.2,0.4
		s0.1,0.3,0.3,0.4c0.2,0.1,0.5,0.2,0.9,0.3s0.7,0.2,1,0.3s0.5,0.3,0.7,0.5s0.3,0.5,0.3,0.9c0,0.3-0.1,0.6-0.3,0.9s-0.4,0.5-0.8,0.6
		c-0.3,0.1-0.7,0.2-1.2,0.2C97.5,41.7,97.1,41.6,96.8,41.5z"/>
	<path class="st4" d="M101.4,35.2c-0.2-0.2-0.2-0.4-0.2-0.6s0.1-0.4,0.2-0.6c0.2-0.2,0.4-0.2,0.6-0.2s0.5,0.1,0.6,0.2
		c0.2,0.2,0.2,0.4,0.2,0.6s-0.1,0.4-0.2,0.6c-0.2,0.2-0.4,0.2-0.6,0.2S101.6,35.4,101.4,35.2z M102.7,36.1v5.5h-1.4v-5.5H102.7z"/>
	<path class="st4" d="M105.7,37.2v2.7c0,0.2,0,0.3,0.1,0.4c0.1,0.1,0.2,0.1,0.5,0.1h0.7v1.2h-0.9c-1.2,0-1.8-0.6-1.8-1.7v-2.7h-0.6
		V36h0.7v-1.4h1.3V36h1.2v1.2H105.7z"/>
	<path class="st4" d="M113.1,39.3H109c0,0.4,0.2,0.7,0.4,0.9c0.2,0.2,0.6,0.3,0.9,0.3c0.5,0,0.9-0.2,1.1-0.7h1.5
		c-0.2,0.5-0.5,1-0.9,1.3c-0.5,0.3-1,0.5-1.7,0.5c-0.5,0-1-0.1-1.4-0.4c-0.4-0.2-0.8-0.6-1-1s-0.4-0.9-0.4-1.5s0.1-1.1,0.3-1.5
		c0.2-0.4,0.6-0.8,1-1s0.9-0.4,1.5-0.4c0.5,0,1,0.1,1.4,0.3s0.7,0.5,1,1s0.3,0.9,0.3,1.4C113.1,38.9,113.1,39.1,113.1,39.3z
		 M111.7,38.3c0-0.4-0.1-0.6-0.4-0.9s-0.6-0.3-0.9-0.3s-0.6,0.1-0.9,0.3c-0.2,0.2-0.4,0.5-0.4,0.9H111.7z"/>
</g>
<g>
	<path class="st1" d="M266.4,83.6h-0.8l-3.3-5v5h-0.8v-6.3h0.8l3.3,5v-5h0.8V83.6z"/>
	<path class="st1" d="M267.8,79.8c0.2-0.4,0.5-0.7,0.8-0.9c0.3-0.2,0.8-0.3,1.2-0.3s0.8,0.1,1.1,0.3c0.3,0.2,0.6,0.4,0.7,0.7v-0.9
		h0.8v4.9h-0.7v-0.9c-0.2,0.3-0.4,0.5-0.7,0.7c-0.3,0.2-0.7,0.3-1.1,0.3c-0.4,0-0.8-0.1-1.2-0.3s-0.6-0.5-0.8-0.9
		c-0.2-0.4-0.3-0.8-0.3-1.3C267.5,80.6,267.6,80.2,267.8,79.8z M271.4,80.2c-0.1-0.3-0.4-0.5-0.6-0.6c-0.3-0.1-0.5-0.2-0.8-0.2
		c-0.3,0-0.6,0.1-0.8,0.2c-0.3,0.1-0.5,0.4-0.6,0.6c-0.2,0.3-0.2,0.6-0.2,1s0.1,0.7,0.2,1c0.2,0.3,0.4,0.5,0.6,0.6
		c0.3,0.1,0.5,0.2,0.8,0.2c0.3,0,0.6-0.1,0.8-0.2c0.3-0.1,0.5-0.4,0.6-0.6c0.2-0.3,0.2-0.6,0.2-1S271.6,80.4,271.4,80.2z"/>
	<path class="st1" d="M280.8,78.8c0.3,0.2,0.5,0.4,0.7,0.7c0.2,0.3,0.3,0.7,0.3,1.2v2.9H281v-2.8c0-0.5-0.1-0.9-0.4-1.1
		c-0.2-0.3-0.6-0.4-1-0.4s-0.8,0.1-1,0.4c-0.2,0.3-0.4,0.7-0.4,1.2v2.7h-0.8v-2.8c0-0.5-0.1-0.9-0.4-1.1c-0.2-0.3-0.6-0.4-1-0.4
		s-0.8,0.1-1,0.4c-0.2,0.3-0.4,0.7-0.4,1.2v2.7h-0.8v-4.9h0.8v0.7c0.2-0.3,0.4-0.5,0.7-0.6c0.3-0.1,0.6-0.2,0.9-0.2
		c0.4,0,0.8,0.1,1.1,0.3c0.3,0.2,0.6,0.5,0.7,0.8c0.1-0.3,0.4-0.6,0.7-0.8c0.3-0.2,0.7-0.3,1.1-0.3
		C280.2,78.6,280.5,78.7,280.8,78.8z"/>
	<path class="st1" d="M287.6,81.5h-3.9c0,0.5,0.2,0.9,0.5,1.1c0.3,0.2,0.7,0.4,1.1,0.4c0.4,0,0.6-0.1,0.9-0.2
		c0.2-0.2,0.4-0.4,0.5-0.7h0.9c-0.1,0.5-0.4,0.9-0.8,1.2c-0.4,0.3-0.9,0.4-1.5,0.4c-0.5,0-0.9-0.1-1.3-0.3c-0.4-0.2-0.7-0.5-0.9-0.9
		c-0.2-0.4-0.3-0.8-0.3-1.3s0.1-1,0.3-1.3c0.2-0.4,0.5-0.7,0.9-0.9c0.4-0.2,0.8-0.3,1.3-0.3s0.9,0.1,1.2,0.3
		c0.4,0.2,0.6,0.5,0.8,0.8c0.2,0.4,0.3,0.8,0.3,1.2C287.6,81.1,287.6,81.3,287.6,81.5z M286.6,80c-0.1-0.2-0.3-0.4-0.6-0.5
		c-0.2-0.1-0.5-0.2-0.8-0.2c-0.4,0-0.8,0.1-1.1,0.4c-0.3,0.3-0.5,0.6-0.5,1.1h3.1C286.8,80.5,286.7,80.2,286.6,80z"/>
</g>
<g>
	<path class="st8" d="M381.6,162.4H258.3c-1.7,0-3.2-1.4-3.2-3.2v-30.4c0-1.7,1.4-3.2,3.2-3.2h123.3c1.7,0,3.2,1.4,3.2,3.2v30.4
		C384.8,161,383.4,162.4,381.6,162.4z"/>
</g>
<g id="Layer_2_1_">
	<g>
		<path class="st9" d="M123.5,135.4c32.6,32.8,71.6,59.5,114,78.1"/>
		<path class="st9" d="M222.2,218.3c4.9-2.8,10.7-4.2,16.3-4.3"/>
		<path class="st9" d="M228.5,202.3c2.3,4.8,5.9,9,10.3,12.1"/>
	</g>
</g>
<path class="st10" d="M382.5,89.3H257.4c-1.2,0-2.2-1-2.2-2.2v-14c0-1.2,1-2.2,2.2-2.2h125.2c1.2,0,2.2,1,2.2,2.2v14
	C384.8,88.3,383.8,89.3,382.5,89.3z"/>
<g>
	<path class="st1" d="M267.1,109.5h-0.8l-3.3-5v5h-0.8v-6.3h0.8l3.3,5v-5h0.8V109.5z"/>
	<path class="st1" d="M268.5,105.7c0.2-0.4,0.5-0.7,0.8-0.9c0.4-0.2,0.8-0.3,1.2-0.3s0.8,0.1,1.1,0.3c0.3,0.2,0.6,0.4,0.7,0.7v-0.9
		h0.8v4.9h-0.8v-0.9c-0.2,0.3-0.4,0.5-0.7,0.7c-0.3,0.2-0.7,0.3-1.1,0.3c-0.4,0-0.8-0.1-1.2-0.3s-0.6-0.5-0.8-0.9
		c-0.2-0.4-0.3-0.8-0.3-1.3C268.2,106.5,268.3,106.1,268.5,105.7z M272.1,106.1c-0.2-0.3-0.4-0.5-0.6-0.6c-0.3-0.1-0.5-0.2-0.8-0.2
		c-0.3,0-0.6,0.1-0.8,0.2c-0.3,0.1-0.5,0.4-0.6,0.6c-0.2,0.3-0.2,0.6-0.2,1s0.1,0.7,0.2,1s0.3,0.5,0.6,0.6c0.3,0.1,0.5,0.2,0.8,0.2
		c0.3,0,0.6-0.1,0.8-0.2c0.3-0.1,0.5-0.4,0.6-0.6c0.1-0.3,0.2-0.6,0.2-1S272.3,106.3,272.1,106.1z"/>
	<path class="st1" d="M281.5,104.7c0.3,0.2,0.5,0.4,0.7,0.7c0.2,0.3,0.3,0.7,0.3,1.2v2.9h-0.8v-2.8c0-0.5-0.1-0.9-0.4-1.1
		c-0.2-0.3-0.6-0.4-1-0.4s-0.8,0.1-1,0.4c-0.2,0.3-0.4,0.7-0.4,1.2v2.7h-0.8v-2.8c0-0.5-0.1-0.9-0.4-1.1c-0.2-0.3-0.6-0.4-1-0.4
		s-0.8,0.1-1,0.4c-0.2,0.3-0.4,0.7-0.4,1.2v2.7h-0.8v-4.9h0.8v0.7c0.2-0.3,0.4-0.5,0.7-0.6c0.3-0.1,0.6-0.2,0.9-0.2
		c0.4,0,0.8,0.1,1.1,0.3c0.3,0.2,0.6,0.5,0.7,0.8c0.1-0.3,0.4-0.6,0.7-0.8c0.3-0.2,0.7-0.3,1.1-0.3
		C280.9,104.5,281.2,104.6,281.5,104.7z"/>
	<path class="st1" d="M288.3,107.4h-3.9c0,0.5,0.2,0.9,0.5,1.1c0.3,0.3,0.7,0.4,1.1,0.4c0.4,0,0.6-0.1,0.9-0.2
		c0.2-0.2,0.4-0.4,0.5-0.7h0.9c-0.1,0.5-0.4,0.9-0.8,1.2c-0.4,0.3-0.9,0.4-1.5,0.4c-0.5,0-0.9-0.1-1.3-0.3c-0.4-0.2-0.7-0.5-0.9-0.9
		c-0.2-0.4-0.3-0.8-0.3-1.3s0.1-1,0.3-1.3c0.2-0.4,0.5-0.7,0.9-0.9s0.8-0.3,1.3-0.3s0.9,0.1,1.2,0.3c0.4,0.2,0.6,0.5,0.8,0.8
		c0.2,0.4,0.3,0.8,0.3,1.2C288.3,107,288.3,107.2,288.3,107.4z M287.3,105.9c-0.1-0.2-0.3-0.4-0.6-0.5c-0.2-0.1-0.5-0.2-0.8-0.2
		c-0.4,0-0.8,0.1-1.1,0.4c-0.3,0.3-0.5,0.6-0.5,1.1h3.1C287.5,106.4,287.4,106.1,287.3,105.9z"/>
</g>
<path class="st10" d="M382.5,116H257.4c-1.2,0-2.2-1-2.2-2.2v-14c0-1.2,1-2.2,2.2-2.2h125.2c1.2,0,2.2,1,2.2,2.2v14
	C384.8,115,383.8,116,382.5,116z"/>
<path class="st2" d="M382.5,188.4H257.4c-1.2,0-2.2-1-2.2-2.2v-14c0-1.2,1-2.2,2.2-2.2h125.2c1.2,0,2.2,1,2.2,2.2v14
	C384.8,187.4,383.8,188.4,382.5,188.4z"/>
<g>
	<path class="st4" d="M308.9,183.6c-0.4-0.2-0.7-0.4-0.9-0.7c-0.2-0.3-0.3-0.7-0.3-1.1h1.5c0,0.3,0.1,0.5,0.3,0.7
		c0.2,0.2,0.4,0.3,0.8,0.3c0.3,0,0.6-0.1,0.8-0.2c0.2-0.2,0.3-0.4,0.3-0.6c0-0.2-0.1-0.4-0.2-0.5s-0.3-0.2-0.5-0.3s-0.5-0.2-0.8-0.3
		c-0.5-0.1-0.8-0.3-1.1-0.4c-0.3-0.1-0.5-0.3-0.7-0.6s-0.3-0.6-0.3-1.1c0-0.4,0.1-0.8,0.3-1.1c0.2-0.3,0.5-0.5,0.9-0.7
		s0.8-0.2,1.3-0.2c0.7,0,1.3,0.2,1.8,0.5c0.5,0.4,0.7,0.8,0.7,1.5h-1.5c0-0.2-0.1-0.4-0.3-0.6c-0.2-0.2-0.4-0.2-0.8-0.2
		c-0.3,0-0.5,0.1-0.7,0.2c-0.2,0.1-0.2,0.3-0.2,0.6c0,0.2,0.1,0.3,0.2,0.5c0.1,0.1,0.3,0.2,0.5,0.3s0.4,0.2,0.8,0.3
		c0.5,0.1,0.8,0.3,1.1,0.4c0.3,0.1,0.5,0.3,0.7,0.6s0.3,0.6,0.3,1.1c0,0.4-0.1,0.7-0.3,1s-0.5,0.6-0.9,0.8s-0.8,0.3-1.3,0.3
		C309.7,183.8,309.3,183.7,308.9,183.6z"/>
	<path class="st4" d="M319,181.4h-4.1c0,0.4,0.2,0.7,0.4,0.9c0.2,0.2,0.6,0.3,0.9,0.3c0.5,0,0.9-0.2,1.1-0.7h1.5
		c-0.2,0.5-0.5,1-0.9,1.3c-0.5,0.3-1,0.5-1.7,0.5c-0.5,0-1-0.1-1.4-0.4c-0.4-0.2-0.8-0.6-1-1s-0.4-0.9-0.4-1.5s0.1-1.1,0.3-1.5
		c0.2-0.4,0.6-0.8,1-1s0.9-0.4,1.5-0.4c0.5,0,1,0.1,1.4,0.3s0.7,0.5,1,1s0.3,0.9,0.3,1.4C319.1,181.1,319,181.2,319,181.4z
		 M317.6,180.5c0-0.4-0.1-0.6-0.4-0.9s-0.6-0.3-0.9-0.3s-0.6,0.1-0.9,0.3c-0.2,0.2-0.4,0.5-0.4,0.9H317.6z"/>
	<path class="st4" d="M324.7,178.8c0.4,0.4,0.6,1,0.6,1.7v3.3h-1.4v-3.1c0-0.4-0.1-0.8-0.3-1c-0.2-0.2-0.5-0.4-0.9-0.4
		s-0.7,0.1-0.9,0.4c-0.2,0.2-0.3,0.6-0.3,1v3.1h-1.4v-5.5h1.4v0.7c0.2-0.2,0.4-0.4,0.7-0.6c0.3-0.1,0.6-0.2,1-0.2
		C323.8,178.1,324.3,178.3,324.7,178.8z"/>
	<path class="st4" d="M326.7,179.5c0.2-0.4,0.5-0.8,0.9-1s0.8-0.4,1.3-0.4c0.4,0,0.7,0.1,1,0.2c0.3,0.2,0.6,0.4,0.8,0.6v-2.6h1.4
		v7.4h-1.4v-0.8c-0.2,0.3-0.4,0.5-0.7,0.7c-0.3,0.2-0.7,0.2-1.1,0.2c-0.5,0-0.9-0.1-1.3-0.4s-0.7-0.6-0.9-1
		c-0.2-0.4-0.3-0.9-0.3-1.5C326.3,180.4,326.4,179.9,326.7,179.5z M330.5,180.1c-0.1-0.2-0.3-0.4-0.5-0.6c-0.2-0.1-0.5-0.2-0.7-0.2
		c-0.3,0-0.5,0.1-0.7,0.2c-0.2,0.1-0.4,0.3-0.5,0.6c-0.1,0.2-0.2,0.5-0.2,0.9s0.1,0.6,0.2,0.9c0.1,0.2,0.3,0.4,0.5,0.6
		c0.2,0.1,0.5,0.2,0.7,0.2c0.3,0,0.5-0.1,0.7-0.2c0.2-0.1,0.4-0.3,0.5-0.6c0.1-0.2,0.2-0.5,0.2-0.9S330.6,180.4,330.5,180.1z"/>
</g>
<g>
	<path class="st11" d="M384.6,199.1c-11.2-0.2-23.5-0.2-34.7,0C361.1,199.3,373.4,199.3,384.6,199.1z"/>
	<path class="st11" d="M338.3,199.1c-10-0.2-20.1-0.2-30.1,0C318.3,199.3,328.3,199.3,338.3,199.1z"/>
	<path class="st11" d="M298.4,199.1c-14.1-0.2-29.6-0.2-43.7,0C268.8,199.3,284.4,199.3,298.4,199.1z"/>
	<path class="st11" d="M363.8,204.6c6.8,0.2,13.8,0.2,20.8,0C377.6,204.4,370.8,204.4,363.8,204.6z"/>
	<path class="st11" d="M358.6,204.6c-12.1-0.2-25.4-0.2-37.5,0C333.2,204.8,346.6,204.8,358.6,204.6z"/>
	<path class="st11" d="M315.9,204.6c-19.7-0.2-41.5-0.2-61.3,0C274.5,204.8,296.3,204.8,315.9,204.6z"/>
	<path class="st11" d="M319.7,210c20.9,0.3,44,0.3,64.9,0C363.7,209.8,340.7,209.8,319.7,210z"/>
	<path class="st11" d="M309.9,210c-17.8-0.2-37.4-0.2-55.2,0C272.5,210.3,292.1,210.3,309.9,210z"/>
	<path class="st11" d="M341.6,215.4c13.9,0.3,29.2,0.3,43,0C370.7,215.2,355.5,215.2,341.6,215.4z"/>
	<path class="st12" d="M334.3,215.4c-13.1-0.2-27.6-0.2-40.7,0C306.7,215.7,321.2,215.7,334.3,215.4z"/>
	<path class="st12" d="M287.4,215.4c-10.6-0.2-22.2-0.2-32.7,0C265.2,215.7,276.8,215.7,287.4,215.4z"/>
	<path class="st11" d="M350,220.9c11.2,0.2,23.5,0.2,34.7,0C373.4,220.7,361.1,220.7,350,220.9z"/>
	<path class="st11" d="M283.7,221c11.3,0,22.7,0,33.9,0c5.9,0,11.9,0,17.8-0.1c2.3,0,4.6,0,6.9,0c-2.3,0-4.6,0-6.9,0
		c-5.9-0.1-11.9-0.1-17.8-0.1c-11.3,0-22.7,0-33.9,0c-9.7,0-19.6,0-28.9,0.1C264,221,274,221.1,283.7,221z"/>
	<path class="st11" d="M363.8,226.3c6.8,0.2,13.8,0.2,20.8,0C377.6,226.1,370.8,226.1,363.8,226.3z"/>
	<path class="st11" d="M358.6,226.3c-12.1-0.2-25.4-0.2-37.5,0C333.2,226.5,346.6,226.5,358.6,226.3z"/>
	<path class="st11" d="M315.9,226.3c-19.7-0.2-41.5-0.2-61.3,0C274.5,226.5,296.3,226.5,315.9,226.3z"/>
	<path class="st11" d="M319.7,231.8c20.9,0.3,44,0.3,64.9,0C363.7,231.5,340.7,231.5,319.7,231.8z"/>
	<path class="st11" d="M309.9,231.8c-17.8-0.2-37.4-0.2-55.2,0C272.5,232,292.1,232,309.9,231.8z"/>
	<path class="st11" d="M341.6,237.2c13.9,0.3,29.2,0.3,43,0C370.7,237,355.5,237,341.6,237.2z"/>
	<path class="st11" d="M334.3,237.2c-13.1-0.2-27.6-0.2-40.7,0C306.7,237.5,321.2,237.5,334.3,237.2z"/>
	<path class="st11" d="M287.4,237.2c-10.6-0.2-22.2-0.2-32.7,0C265.2,237.5,276.8,237.5,287.4,237.2z"/>
	<path class="st11" d="M254.7,242.7c28.2,0.2,59.4,0.2,87.6,0C313.9,242.5,282.9,242.5,254.7,242.7z"/>
</g>
<g>
	<path class="st13" d="M252.2,206.8c-0.2-0.2-0.4-0.4-0.5-0.5v9.8"/>
	<polyline class="st9" points="248.9,224.3 340.2,224.3 340.2,206.2 249.5,206.2 	"/>
</g>
<polygon class="st2" points="319.9,138.2 312.7,145.4 317.1,145.4 317.1,153 322.8,153 322.8,145.4 327.1,145.4 "/>
</svg>
