<svg id="Layer_1" data-name="Layer 1" xmlns="http://www.w3.org/2000/svg" viewBox="0 0 200 200"><defs><style>.cls-1{fill:#6074cb;}.cls-2{fill:#ad6359;}.cls-3{fill:#c7c7c7;}.cls-4{fill:#263238;}.cls-5{opacity:0.1;}.cls-5,.cls-8{isolation:isolate;}.cls-6{fill:#37474f;}.cls-7{fill:#455a64;}.cls-8{fill:#fff;opacity:0.4;}.cls-9{opacity:0.3;}.cls-10{fill:#ebebeb;}</style></defs><path class="cls-1" d="M166,100.73l.15.13a1.62,1.62,0,0,0,2.27-.27l.12-.12-2.8-1.4a1.6,1.6,0,0,0,.39,1.53Z"/><path class="cls-1" d="M124.72,142l.08.07a1.62,1.62,0,0,0,2.28-.15l0,0a1.63,1.63,0,1,0-2.3,0Z"/><path class="cls-1" d="M117.78,148.91a1.42,1.42,0,0,0,.13.12,1.63,1.63,0,0,0,2.29-.25h0a1.63,1.63,0,1,0-2.3,0Z"/><path class="cls-1" d="M172.85,107.61a1.07,1.07,0,0,0,.16.14,1.61,1.61,0,0,0,2.26-.27h0a1.62,1.62,0,0,0,0-2.3,1.63,1.63,0,0,0-2.3,2.3Z"/><path class="cls-1" d="M138.43,135.15l.14.12a1.63,1.63,0,0,0,2.29-.25h0a1.63,1.63,0,0,0-2.3-2.3,1.62,1.62,0,0,0,0,2.3Z"/><path class="cls-1" d="M131.55,142l.14.12a1.63,1.63,0,0,0,2.29-.25h0a1.63,1.63,0,0,0-2.3-2.3,1.62,1.62,0,0,0,0,2.3Z"/><path class="cls-1" d="M145.32,128.26l.15.13a1.61,1.61,0,0,0,2.27-.25h0a1.63,1.63,0,1,0-2.3-2.3,1.62,1.62,0,0,0,0,2.3Z"/><path class="cls-1" d="M166,107.61l.14.12a1.62,1.62,0,0,0,2.28-.25h0a1.62,1.62,0,1,0-2.29,0Z"/><path class="cls-1" d="M138.43,142l.16.14a1.62,1.62,0,0,0,2.27-.27h0a1.63,1.63,0,0,0-2.3-2.3,1.62,1.62,0,0,0,0,2.3Z"/><path class="cls-1" d="M152.2,121.38l.19.16a1.62,1.62,0,0,0,2.27-.33h0a1.62,1.62,0,0,0,0-2.3,1.63,1.63,0,1,0-2.3,2.3Z"/><path class="cls-1" d="M159.09,114.49l.2.17a1.6,1.6,0,0,0,2.25-.33h0a1.62,1.62,0,0,0,0-2.3,1.63,1.63,0,1,0-2.3,2.3Z"/><path class="cls-1" d="M134,146.44a1.61,1.61,0,0,0-1.08-.48,1.63,1.63,0,0,0-1.68,1.56l2.94-.79a1.67,1.67,0,0,0-.18-.28Z"/><path class="cls-1" d="M145.71,135.16a1.63,1.63,0,1,0-.21-.21A2.08,2.08,0,0,0,145.71,135.16Z"/><path class="cls-1" d="M152.2,128.26l.23.2a1.62,1.62,0,0,0,2.25-.39h0a1.62,1.62,0,0,0,0-2.3,1.63,1.63,0,1,0-2.3,2.3Z"/><path class="cls-1" d="M159.08,121.38l.23.2a1.62,1.62,0,0,0,2.25-.39h0a1.62,1.62,0,0,0,0-2.3,1.63,1.63,0,1,0-2.3,2.3Z"/><path class="cls-1" d="M166.36,114.51a1.63,1.63,0,1,0-.21-.21A2.08,2.08,0,0,0,166.36,114.51Z"/><path class="cls-1" d="M133.81,135a1.62,1.62,0,0,0,.21-2.29l-.21-.21a1.63,1.63,0,1,0,0,2.5Z"/><path class="cls-1" d="M127.14,146.43a2.08,2.08,0,0,0-.21-.21,1.63,1.63,0,0,0-2.08,2.5,1.79,1.79,0,0,0,.54.37l1.66-.45.19-.06a1.59,1.59,0,0,0-.1-2.15Z"/><path class="cls-1" d="M193.5,128.26l.23.2a1.62,1.62,0,0,0,2.25-.39h0a1.62,1.62,0,0,0,0-2.3,1.63,1.63,0,1,0-2.3,2.3Z"/><path class="cls-1" d="M172.85,114.49l.23.2a1.62,1.62,0,0,0,2.25-.39h0a1.62,1.62,0,0,0,0-2.3,1.63,1.63,0,0,0-2.3,2.3Z"/><path class="cls-1" d="M145.31,142a1.63,1.63,0,0,0,2.48-.19h0a1.62,1.62,0,0,0,0-2.3,1.63,1.63,0,1,0-2.3,2.3Z"/><path class="cls-1" d="M166.36,121.39a1.63,1.63,0,1,0-.21-.21A2.08,2.08,0,0,0,166.36,121.39Z"/><path class="cls-1" d="M159.08,128.26l.23.2a1.62,1.62,0,0,0,2.25-.39h0a1.62,1.62,0,0,0,0-2.3,1.63,1.63,0,1,0-2.3,2.3Z"/><path class="cls-1" d="M161.35,135a1.62,1.62,0,0,0,.21-2.29,2.08,2.08,0,0,0-.21-.21,1.63,1.63,0,1,0,0,2.5Z"/><path class="cls-1" d="M166,128.29a1.22,1.22,0,0,0,.17.15,1.63,1.63,0,0,0,2.27-.37h0a1.63,1.63,0,1,0-2.3,0Z"/><path class="cls-1" d="M186.62,128.26l.23.2a1.62,1.62,0,0,0,2.25-.39h0a1.62,1.62,0,0,0,0-2.3,1.63,1.63,0,1,0-2.3,2.3Z"/><path class="cls-1" d="M193.5,121.38l.23.2a1.62,1.62,0,0,0,2.25-.39h0a1.62,1.62,0,0,0,0-2.3,1.63,1.63,0,1,0-2.3,2.3Z"/><path class="cls-1" d="M152.59,135.16a1.63,1.63,0,1,0-.21-.21A2.08,2.08,0,0,0,152.59,135.16Z"/><path class="cls-1" d="M188.06,132.24a1.52,1.52,0,0,0-.88.24Z"/><path class="cls-1" d="M138.44,128.26a1.87,1.87,0,0,0,.3.26,1.62,1.62,0,0,0,2.24-.45l0,0a1.63,1.63,0,1,0-2.3,0Z"/><path class="cls-1" d="M179.73,107.61a1.61,1.61,0,0,0,.28.24,1.63,1.63,0,0,0,2.26-.44l.1-.11-.42-.21-1.08-.55-1.27-.64a1.55,1.55,0,0,0,.39,1.52Z"/><path class="cls-1" d="M172.89,121.4a1.55,1.55,0,0,0,.27.24,1.62,1.62,0,0,0,2.24-.45l0,0a1.63,1.63,0,1,0-2.3,0Z"/><path class="cls-1" d="M182.08,114.31a1.63,1.63,0,0,0,.21-2.29l-.21-.21a1.63,1.63,0,0,0-2.08,2.5A1.61,1.61,0,0,0,182.08,114.31Z"/><path class="cls-1" d="M152.68,139.55a1.62,1.62,0,0,0-.21,2.29l2.68-.76a1.5,1.5,0,0,0-2.47-1.53Z"/><path class="cls-1" d="M161.15,139.58a1.61,1.61,0,0,0-1.81,0,1.8,1.8,0,0,0-.32.49l.64-.17,1.75-.47Z"/><path class="cls-1" d="M202.39,128.43a1.15,1.15,0,0,0,.33-.21,1.68,1.68,0,0,0,.48-1.06,1.61,1.61,0,1,0-1.71,1.52Z"/><path class="cls-1" d="M186.62,114.5l0,0a1.63,1.63,0,0,0,2.3-.07h0a1.63,1.63,0,1,0-2.3,0Z"/><path class="cls-1" d="M181.86,121.34a1.63,1.63,0,0,0,.21-2.29,2.08,2.08,0,0,0-.21-.21,1.63,1.63,0,1,0,0,2.5Z"/><path class="cls-1" d="M172.86,128.26l0,0a1.61,1.61,0,0,0,2.28-.07l0,0a1.63,1.63,0,1,0-2.3,0Z"/><path class="cls-1" d="M168.09,135.11a1.63,1.63,0,0,0,.21-2.29,1,1,0,0,0-.21-.21,1.63,1.63,0,1,0,0,2.5Z"/><path class="cls-1" d="M186.62,121.38l.08.07a1.63,1.63,0,0,0,2.3-.15h0a1.64,1.64,0,0,0,0-2.3,1.63,1.63,0,0,0-2.3,2.3Z"/><path class="cls-1" d="M179.74,128.26l.09.08a1.62,1.62,0,0,0,2.28-.15h0a1.64,1.64,0,0,0,0-2.3,1.63,1.63,0,0,0-2.3,2.3Z"/><path class="cls-1" d="M172.85,135.15l.08.07a1.64,1.64,0,0,0,2.3-.15h0a1.64,1.64,0,0,0,0-2.3,1.63,1.63,0,0,0-2.3,2.3Z"/><path class="cls-1" d="M193.51,114.49l.06.05a1.62,1.62,0,0,0,2.28-.15l.08-.09-2.77-1.38a1.57,1.57,0,0,0,.43,1.49Z"/><path class="cls-1" d="M180.26,132.43a1.62,1.62,0,0,0-.77,2.15l1.1-.3.58-.15,1.39-.37a1.74,1.74,0,0,0-.45-1A1.62,1.62,0,0,0,180.26,132.43Z"/><path class="cls-1" d="M124.66,128.26l.1.09a1.62,1.62,0,0,0,2.28-.17h0a1.64,1.64,0,0,0,0-2.3,1.63,1.63,0,0,0-2.3,2.3Z"/><path class="cls-1" d="M131.84,121.5a1.63,1.63,0,1,0-.21-.21A1,1,0,0,0,131.84,121.5Z"/><path class="cls-1" d="M145.31,107.61l.1.09a1.62,1.62,0,0,0,2.28-.17h0a1.63,1.63,0,1,0-2.3-2.3,1.62,1.62,0,0,0,0,2.3Z"/><path class="cls-1" d="M106.44,153.4a1.6,1.6,0,0,0-2.69,1.57l1.52-.4h0l1.52-.39a1.66,1.66,0,0,0-.4-.75Z"/><path class="cls-1" d="M97.16,148.91a1.61,1.61,0,0,0,2.28,0h0a1.63,1.63,0,0,0-2.3-2.3,1.64,1.64,0,0,0,0,2.3Z"/><path class="cls-1" d="M83.37,142h0a1.61,1.61,0,0,0,2.28,0l0,0a1.63,1.63,0,1,0-2.3,0Z"/><path class="cls-1" d="M71.69,155.78a1.62,1.62,0,0,0,.21-2.29,2.08,2.08,0,0,0-.21-.21,1.63,1.63,0,0,0-2.08,2.5A1.61,1.61,0,0,0,71.69,155.78Z"/><path class="cls-1" d="M147.4,121.38a1.62,1.62,0,0,0,.21-2.29,1,1,0,0,0-.21-.21,1.63,1.63,0,1,0,0,2.5Z"/><path class="cls-1" d="M58.13,167.26a1.55,1.55,0,0,0-.89-.49,1.58,1.58,0,0,0-1.82,1.29l2.71-.79h0Z"/><path class="cls-1" d="M133.84,93.84h0a1.63,1.63,0,1,0-2.3,0A1.63,1.63,0,0,0,133.85,93.83Z"/><path class="cls-1" d="M138.45,114.51a1.62,1.62,0,0,0,2.28,0h0a1.63,1.63,0,0,0-2.3-2.3,1.64,1.64,0,0,0,0,2.3Z"/><path class="cls-1" d="M138.45,87a1.61,1.61,0,0,0,2.28,0,1.29,1.29,0,0,0,.16-.17l-2.8-1.4a1.6,1.6,0,0,0,.35,1.56Z"/><path class="cls-1" d="M97.34,156a1.63,1.63,0,1,0,2.08-2.5,1.63,1.63,0,0,0-2.29,2.29Z"/><path class="cls-1" d="M92.33,135.15a1.62,1.62,0,0,0,.21-2.29,1,1,0,0,0-.21-.21,1.61,1.61,0,0,0-2.29.21,1.63,1.63,0,0,0,2.29,2.29Z"/><path class="cls-1" d="M117.84,135.1a1.61,1.61,0,0,0,2.28,0h0a1.63,1.63,0,0,0-2.3-2.3,1.64,1.64,0,0,0,0,2.3Z"/><path class="cls-1" d="M126.75,100.73a1.62,1.62,0,0,0,.21-2.29,1,1,0,0,0-.21-.21,1.63,1.63,0,1,0,0,2.5Z"/><path class="cls-1" d="M65,162.71s0,0,0-.05a1.6,1.6,0,1,0,0,.05Z"/><path class="cls-1" d="M113,114.5a1.62,1.62,0,0,0,.21-2.29A1,1,0,0,0,113,112a1.63,1.63,0,1,0,0,2.5Z"/><path class="cls-1" d="M90.46,156a1.63,1.63,0,1,0,2.08-2.5,1.63,1.63,0,0,0-2.29,2.29A2.08,2.08,0,0,0,90.46,156Z"/><path class="cls-1" d="M161.16,100.72a1.62,1.62,0,0,0,.21-2.29,1,1,0,0,0-.21-.21,1.63,1.63,0,1,0,0,2.5Z"/><path class="cls-1" d="M152.4,100.92a1.63,1.63,0,1,0-.21-.21C152.25,100.78,152.33,100.85,152.4,100.92Z"/><path class="cls-1" d="M117.79,107.61a1.62,1.62,0,0,0,2.27,0l0,0a1.63,1.63,0,1,0-2.3,0Z"/><path class="cls-1" d="M104,148.9h0a1.61,1.61,0,0,0,2.28,0h0a1.63,1.63,0,1,0-2.3-2.3,1.64,1.64,0,0,0,0,2.3Z"/><path class="cls-1" d="M110.89,142h0a1.61,1.61,0,0,0,2.28,0h0a1.63,1.63,0,0,0-2.3-2.3,1.64,1.64,0,0,0,0,2.3Z"/><path class="cls-1" d="M131.54,128.26l0,0a1.63,1.63,0,0,0,2.3-.07h0a1.63,1.63,0,1,0-2.3,0Z"/><path class="cls-1" d="M69.59,148.9l0,0a1.61,1.61,0,0,0,2.28-.09h0a1.63,1.63,0,1,0-2.3-2.3,1.64,1.64,0,0,0,0,2.3Z"/><path class="cls-1" d="M126.74,135.14a1.62,1.62,0,0,0,.21-2.29,1,1,0,0,0-.21-.21,1.63,1.63,0,1,0,0,2.5Z"/><path class="cls-1" d="M120.06,142l0,0a1.63,1.63,0,1,0-2.3,0A1.63,1.63,0,0,0,120.08,142Z"/><path class="cls-1" d="M76.48,148.91a1.63,1.63,0,0,0,2.25,0h0a1.63,1.63,0,1,0-2.3,0Z"/><path class="cls-1" d="M159.09,107.61a1.62,1.62,0,0,0,2.23,0l0,0a1.63,1.63,0,1,0-2.3,0Z"/><path class="cls-1" d="M62.72,155.79a1.62,1.62,0,0,0,2.29,0h0a1.62,1.62,0,1,0-2.29,0Z"/><path class="cls-1" d="M152.2,114.5a1.63,1.63,0,0,0,2.29,0h0a1.63,1.63,0,1,0-2.3,0Z"/><path class="cls-1" d="M113.18,148.9h0a1.63,1.63,0,1,0-2.3,0A1.63,1.63,0,0,0,113.19,148.89Z"/><path class="cls-1" d="M55.84,162.69a1.61,1.61,0,0,0,2.29,0h0a1.63,1.63,0,1,0-2.3-2.3,1.62,1.62,0,0,0,0,2.3Z"/><path class="cls-1" d="M124.68,114.5a1.61,1.61,0,0,0,2.28,0h0a1.63,1.63,0,0,0-2.3-2.3,1.64,1.64,0,0,0,0,2.3Z"/><path class="cls-1" d="M83.4,160.41a1.29,1.29,0,0,0-.16.17l.26-.07,1.67-.46A1.63,1.63,0,0,0,83.4,160.41Z"/><path class="cls-1" d="M152.2,93.84a1.63,1.63,0,0,0,2.27,0,.93.93,0,0,0,.14-.14l-.56-.28-.93-.47-1.28-.63a1.58,1.58,0,0,0,.36,1.55Z"/><path class="cls-1" d="M145.53,100.93a1.63,1.63,0,1,0-.21-.21A2.08,2.08,0,0,0,145.53,100.93Z"/><path class="cls-1" d="M138.43,107.61l0,0a1.62,1.62,0,0,0,2.28,0h0a1.63,1.63,0,0,0-2.3-2.3,1.64,1.64,0,0,0,0,2.3Z"/><path class="cls-1" d="M131.76,114.7a1.63,1.63,0,0,0,2.08-2.5,1.61,1.61,0,0,0-2.08,0,1.63,1.63,0,0,0-.21,2.29Z"/><path class="cls-1" d="M124.66,121.38l0,0a1.62,1.62,0,0,0,2.28,0h0a1.63,1.63,0,1,0-2.3-2.3,1.64,1.64,0,0,0,0,2.3Z"/><path class="cls-1" d="M117.78,128.26l0,0a1.62,1.62,0,0,0,2.28,0h0a1.63,1.63,0,1,0-2.3-2.3,1.64,1.64,0,0,0,0,2.3Z"/><path class="cls-1" d="M111.11,135.35a1.63,1.63,0,1,0,2.08-2.5,1.61,1.61,0,0,0-2.08,0,1.63,1.63,0,0,0-.21,2.29Z"/><path class="cls-1" d="M104,142h0a1.61,1.61,0,0,0,2.28,0h0a1.63,1.63,0,0,0-2.3-2.3,1.64,1.64,0,0,0,0,2.3Z"/><path class="cls-1" d="M138.43,121.37a1.61,1.61,0,0,0,2.28,0l0,0a1.63,1.63,0,1,0-2.3,0Z"/><path class="cls-1" d="M147.39,114.49a1.62,1.62,0,0,0,.21-2.29,1,1,0,0,0-.21-.21,1.63,1.63,0,1,0,0,2.5Z"/><path class="cls-1" d="M104.07,121.33a1.62,1.62,0,0,0,2.19,0v0a1.62,1.62,0,1,0-2.29,0Z"/><path class="cls-1" d="M152.2,107.6a1.61,1.61,0,0,0,2.28,0l0,0a1.63,1.63,0,1,0-2.3,0Z"/><path class="cls-1" d="M97.13,128.27a1.64,1.64,0,0,0,2.25-.06h0a1.63,1.63,0,1,0-2.3,0Z"/><path class="cls-1" d="M90.25,148.9a1.62,1.62,0,0,0,2.25,0h0a1.64,1.64,0,0,0,0-2.3,1.63,1.63,0,0,0-2.3,2.3Z"/><path class="cls-1" d="M83.37,148.9a1.62,1.62,0,0,0,2.24,0l0,0a1.63,1.63,0,1,0-2.3,0Z"/><path class="cls-1" d="M78.76,160.36a1.6,1.6,0,0,0-2.46,2.06l2.88-.81a1.57,1.57,0,0,0-.45-1.27Z"/><path class="cls-1" d="M97.13,142a1.64,1.64,0,0,0,2.26-.05h0a1.64,1.64,0,0,0,0-2.3,1.63,1.63,0,1,0-2.3,2.3Z"/><path class="cls-1" d="M83.36,155.79a1.64,1.64,0,0,0,2.26,0h0a1.64,1.64,0,0,0,0-2.3,1.63,1.63,0,0,0-2.3,2.3Z"/><path class="cls-1" d="M104,135.15a1.64,1.64,0,0,0,2.26-.05h0a1.64,1.64,0,0,0,0-2.3,1.63,1.63,0,1,0-2.3,2.3Z"/><path class="cls-1" d="M117.78,121.38a1.62,1.62,0,0,0,2.25,0h0a1.63,1.63,0,0,0-2.3-2.3,1.64,1.64,0,0,0,0,2.3Z"/><path class="cls-1" d="M138.43,100.73a1.62,1.62,0,0,0,2.25,0h0a1.63,1.63,0,0,0-2.3-2.3,1.64,1.64,0,0,0,0,2.3Z"/><path class="cls-1" d="M111,128.21a1.62,1.62,0,0,0,2.19,0h0a1.63,1.63,0,0,0-2.3-2.3,1.64,1.64,0,0,0,0,2.3Z"/><path class="cls-1" d="M69.6,162.67a1.62,1.62,0,0,0,2.24,0l0,0a1.63,1.63,0,1,0-2.3,0Z"/><path class="cls-1" d="M131.55,107.61a1.62,1.62,0,0,0,2.25,0h0a1.63,1.63,0,1,0-2.3-2.3,1.64,1.64,0,0,0,0,2.3Z"/><path class="cls-1" d="M145.32,93.84a1.62,1.62,0,0,0,2.24,0h0a1.63,1.63,0,1,0-2.3-2.3,1.64,1.64,0,0,0,0,2.3Z"/><path class="cls-1" d="M92.55,142h0a1.63,1.63,0,1,0-2.3,0A1.63,1.63,0,0,0,92.56,142Z"/><path class="cls-1" d="M78.57,155.78a1.62,1.62,0,0,0,.21-2.29,2.08,2.08,0,0,0-.21-.21,1.63,1.63,0,0,0-2.08,2.5A1.61,1.61,0,0,0,78.57,155.78Z"/><path class="cls-1" d="M97.13,135.15h0a1.63,1.63,0,0,0,2.3,0h0a1.63,1.63,0,1,0-2.3,0Z"/><path class="cls-1" d="M104,128.26h0a1.62,1.62,0,0,0,2.28,0l0,0a1.63,1.63,0,1,0-2.3,0Z"/><path class="cls-1" d="M113,121.37a1.62,1.62,0,0,0,.21-2.29,1,1,0,0,0-.21-.21,1.63,1.63,0,1,0,0,2.5Z"/><path class="cls-1" d="M117.78,114.5h0a1.63,1.63,0,0,0,2.3,0h0a1.63,1.63,0,1,0-2.3,0Z"/><path class="cls-1" d="M124.67,107.61h0a1.62,1.62,0,0,0,2.28,0l0,0a1.63,1.63,0,1,0-2.3,0Z"/><path class="cls-1" d="M133.64,100.72a1.62,1.62,0,0,0,.21-2.29,1,1,0,0,0-.21-.21,1.63,1.63,0,1,0,0,2.5Z"/><path class="cls-1" d="M138.44,93.84h0a1.62,1.62,0,0,0,2.28,0l0,0a1.63,1.63,0,1,0-2.3,0Z"/><path class="cls-1" d="M113,80.07a1.62,1.62,0,0,0,.21-2.29,1,1,0,0,0-.21-.21,1.63,1.63,0,1,0,0,2.5Z"/><path class="cls-1" d="M76.48,142h0a1.61,1.61,0,0,0,2.28,0h0a1.63,1.63,0,0,0-2.3-2.3,1.64,1.64,0,0,0,0,2.3Z"/><path class="cls-1" d="M23.28,176.73a1.61,1.61,0,0,0,.45-.3,1.56,1.56,0,0,0,.47-1.25,1.6,1.6,0,1,0-1.48,1.7Z"/><path class="cls-1" d="M104,114.49l0,0a1.61,1.61,0,0,0,2.28,0h0a1.63,1.63,0,1,0-2.3-2.3,1.64,1.64,0,0,0,0,2.3Z"/><path class="cls-1" d="M35.2,162.68a1.61,1.61,0,0,0,2.28,0h0a1.63,1.63,0,1,0-2.3-2.3,1.62,1.62,0,0,0,0,2.3Z"/><path class="cls-1" d="M83.39,135.15a1.62,1.62,0,0,0,2.28,0h0a1.63,1.63,0,0,0-2.3-2.3,1.64,1.64,0,0,0,0,2.3Z"/><path class="cls-1" d="M90.24,128.26l0,0a1.61,1.61,0,0,0,2.28,0h0a1.63,1.63,0,1,0-2.3-2.3,1.64,1.64,0,0,0,0,2.3Z"/><path class="cls-1" d="M83.36,114.5h0a1.63,1.63,0,0,0,2.3,0h0a1.63,1.63,0,0,0-2.3-2.3,1.64,1.64,0,0,0,0,2.3Z"/><path class="cls-1" d="M51.25,167.25a1.63,1.63,0,0,0-2.08,0,1.61,1.61,0,0,0-.21,2.29,1,1,0,0,0,.27.19l1.74-.47.57-.16a1.61,1.61,0,0,0-.29-1.85Z"/><path class="cls-1" d="M110.89,107.61l0,0a1.62,1.62,0,0,0,2.28,0h0a1.63,1.63,0,1,0-2.3-2.3,1.64,1.64,0,0,0,0,2.3Z"/><path class="cls-1" d="M97.19,114.45a1.61,1.61,0,0,0,2.28,0h0a1.63,1.63,0,1,0-2.3-2.3,1.64,1.64,0,0,0,0,2.3Z"/><path class="cls-1" d="M42.32,169.72a1.63,1.63,0,1,0,2.08-2.5,1.61,1.61,0,0,0-2.08,0,1.63,1.63,0,0,0-.21,2.29Z"/><path class="cls-1" d="M62.69,148.93l.1.1a1.61,1.61,0,0,0,2.27-.17h0a1.63,1.63,0,0,0-2.3-2.3,1.64,1.64,0,0,0,0,2.3Z"/><path class="cls-1" d="M56.09,156a1.63,1.63,0,1,0-.21-.21Z"/><path class="cls-1" d="M76.74,135.3a1.63,1.63,0,1,0-.21-.21Z"/><path class="cls-1" d="M49,162.67l.07.07a1.6,1.6,0,0,0,2.27-.11h0a1.63,1.63,0,0,0-2.3-2.3,1.64,1.64,0,0,0,0,2.3Z"/><path class="cls-1" d="M69.59,142l.07.06a1.61,1.61,0,0,0,2.28-.11h0a1.63,1.63,0,1,0-2.3-2.3,1.64,1.64,0,0,0,0,2.3Z"/><path class="cls-1" d="M90.24,121.38l.07.06a1.61,1.61,0,0,0,2.28-.11h0a1.63,1.63,0,0,0-2.3-2.3,1.64,1.64,0,0,0,0,2.3Z"/><path class="cls-1" d="M83.36,128.26l.07.06a1.61,1.61,0,0,0,2.28-.11h0a1.63,1.63,0,1,0-2.3-2.3,1.64,1.64,0,0,0,0,2.3Z"/><path class="cls-1" d="M78.79,128.25h0a1.63,1.63,0,1,0-2.3-2.3,1.63,1.63,0,0,0,2.3,2.3Z"/><path class="cls-1" d="M111.12,100.92a1.63,1.63,0,1,0-.21-.21Z"/><path class="cls-1" d="M104,107.61l0,0a1.62,1.62,0,0,0,2.28,0h0a1.63,1.63,0,0,0-2.3-2.3,1.64,1.64,0,0,0,0,2.3Z"/><path class="cls-1" d="M124.66,87l0,0A1.61,1.61,0,0,0,127,87h0a1.63,1.63,0,0,0-2.3-2.3,1.64,1.64,0,0,0,0,2.3Z"/><path class="cls-1" d="M117.78,93.84l0,0a1.61,1.61,0,0,0,2.28,0h0a1.63,1.63,0,0,0-2.3-2.3,1.64,1.64,0,0,0,0,2.3Z"/><path class="cls-1" d="M35.19,169.55l0,0a1.6,1.6,0,0,0,2.28,0h0a1.63,1.63,0,1,0-2.3-2.3,1.62,1.62,0,0,0,0,2.3Z"/><path class="cls-1" d="M42.07,162.67h0a1.63,1.63,0,0,0,2.3,0h0a1.63,1.63,0,1,0-2.3-2.3,1.62,1.62,0,0,0,0,2.3Z"/><path class="cls-1" d="M69.6,135.14h0a1.61,1.61,0,0,0,2.28,0h0a1.63,1.63,0,0,0-2.3-2.3,1.64,1.64,0,0,0,0,2.3Z"/><path class="cls-1" d="M62.72,142h0a1.63,1.63,0,0,0,2.3,0h0a1.63,1.63,0,0,0-2.3-2.3,1.64,1.64,0,0,0,0,2.3Z"/><path class="cls-1" d="M97.13,107.61h0a1.63,1.63,0,0,0,2.3,0h0a1.63,1.63,0,0,0-2.3-2.3,1.64,1.64,0,0,0,0,2.3Z"/><path class="cls-1" d="M131.55,87l0,0a1.62,1.62,0,0,0,2.28,0h0a1.63,1.63,0,1,0-2.3-2.3,1.64,1.64,0,0,0,0,2.3Z"/><path class="cls-1" d="M124.66,93.84l0,0a1.61,1.61,0,0,0,2.28,0h0a1.63,1.63,0,0,0-2.3-2.3,1.64,1.64,0,0,0,0,2.3Z"/><path class="cls-1" d="M117.78,100.72l0,0a1.62,1.62,0,0,0,2.28,0h0a1.63,1.63,0,0,0-2.3-2.3,1.64,1.64,0,0,0,0,2.3Z"/><path class="cls-1" d="M90.25,114.49l0,0a1.62,1.62,0,0,0,2.28,0h0a1.63,1.63,0,0,0-2.3-2.3,1.64,1.64,0,0,0,0,2.3Z"/><path class="cls-1" d="M124.67,80.07a1.61,1.61,0,0,0,2.26,0l.19-.18-.71-.35-.78-.39-1.34-.67a1.61,1.61,0,0,0,.39,1.62Z"/><path class="cls-1" d="M117.78,87h0a1.63,1.63,0,0,0,2.3,0h0a1.63,1.63,0,0,0-2.3-2.3,1.64,1.64,0,0,0,0,2.3Z"/><path class="cls-1" d="M49,155.79h0a1.62,1.62,0,0,0,2.3,0h0a1.62,1.62,0,1,0-2.3-2.29,1.61,1.61,0,0,0,0,2.29Z"/><path class="cls-1" d="M55.84,148.9v0a1.6,1.6,0,0,0,2.28,0h0a1.63,1.63,0,0,0-2.3-2.3,1.64,1.64,0,0,0,0,2.3Z"/><path class="cls-1" d="M83.36,121.38h0a1.63,1.63,0,0,0,2.3,0h0a1.63,1.63,0,1,0-2.3-2.3,1.64,1.64,0,0,0,0,2.3Z"/><path class="cls-1" d="M104,100.73h0a1.63,1.63,0,0,0,2.3,0h0a1.63,1.63,0,0,0-2.3-2.3,1.64,1.64,0,0,0,0,2.3Z"/><path class="cls-1" d="M28.3,169.56h0a1.63,1.63,0,0,0,2.3,0h0a1.63,1.63,0,1,0-2.3-2.3,1.62,1.62,0,0,0,0,2.3Z"/><path class="cls-1" d="M23.51,169.55a1.63,1.63,0,0,0,.21-2.29l-.21-.21a1.63,1.63,0,0,0-2.08,2.5A1.61,1.61,0,0,0,23.51,169.55Z"/><path class="cls-1" d="M110.9,93.84l0,0a1.62,1.62,0,0,0,2.28,0h0a1.63,1.63,0,0,0-2.3-2.3,1.64,1.64,0,0,0,0,2.3Z"/><path class="cls-1" d="M62.72,135.15h0a1.63,1.63,0,0,0,2.3,0h0a1.63,1.63,0,0,0-2.3-2.3,1.64,1.64,0,0,0,0,2.3Z"/><path class="cls-1" d="M97.13,121.37l0,0a1.62,1.62,0,0,0,2.28,0h0a1.63,1.63,0,0,0-2.3-2.3,1.64,1.64,0,0,0,0,2.3Z"/><path class="cls-1" d="M30.59,174.15h0a1.62,1.62,0,0,0-2.28,0,1.58,1.58,0,0,0-.43,1.36l1.4-.38.48-.13,1.18-.32a1.61,1.61,0,0,0-.34-.52Z"/><path class="cls-1" d="M76.48,121.38h0a1.63,1.63,0,0,0,2.3,0h0a1.63,1.63,0,0,0-2.3-2.3,1.64,1.64,0,0,0,0,2.3Z"/><path class="cls-1" d="M55.81,142.05l0,0a1.62,1.62,0,0,0,2.29-.07h0a1.63,1.63,0,0,0-2.3-2.3,1.64,1.64,0,0,0,0,2.3Z"/><path class="cls-1" d="M42.07,155.79h0a1.62,1.62,0,0,0,2.3,0h0a1.62,1.62,0,1,0-2.3-2.29,1.61,1.61,0,0,0,0,2.29Z"/><path class="cls-1" d="M49,148.9v0a1.61,1.61,0,0,0,2.29,0h0a1.62,1.62,0,1,0-2.29,0Z"/><path class="cls-1" d="M69.6,128.26l0,0a1.62,1.62,0,0,0,2.28,0h0a1.63,1.63,0,0,0-2.3-2.3,1.64,1.64,0,0,0,0,2.3Z"/><path class="cls-1" d="M97.13,100.73h0a1.63,1.63,0,0,0,2.3,0h0a1.63,1.63,0,0,0-2.3-2.3,1.64,1.64,0,0,0,0,2.3Z"/><path class="cls-1" d="M90.3,107.56a1.62,1.62,0,0,0,2.25,0h0a1.63,1.63,0,0,0-2.3-2.3,1.64,1.64,0,0,0,0,2.3Z"/><path class="cls-1" d="M110.9,87h0a1.63,1.63,0,0,0,2.3,0h0a1.63,1.63,0,0,0-2.3-2.3,1.64,1.64,0,0,0,0,2.3Z"/><path class="cls-1" d="M104,93.84l0,0a1.62,1.62,0,0,0,2.28,0h0a1.63,1.63,0,0,0-2.3-2.3,1.64,1.64,0,0,0,0,2.3Z"/><path class="cls-1" d="M117.78,80.08h0a1.63,1.63,0,0,0,2.3,0h0a1.63,1.63,0,0,0-2.3-2.3,1.64,1.64,0,0,0,0,2.3Z"/><path class="cls-1" d="M14.54,176.44a1.61,1.61,0,0,0,2.28,0l0,0a1.63,1.63,0,1,0-2.3,0Z"/><path class="cls-1" d="M83.37,107.61a1.61,1.61,0,0,0,2.28,0l0,0a1.63,1.63,0,1,0-2.3,0Z"/><path class="cls-1" d="M28.31,162.67a1.61,1.61,0,0,0,2.28,0h0a1.63,1.63,0,1,0-2.3,0Z"/><path class="cls-1" d="M37.27,155.79a1.63,1.63,0,0,0,.21-2.29l-.21-.21a1.63,1.63,0,0,0-2.08,2.5A1.61,1.61,0,0,0,37.27,155.79Z"/><path class="cls-1" d="M44.36,148.9h0a1.63,1.63,0,1,0-2.3,0A1.63,1.63,0,0,0,44.37,148.9Z"/><path class="cls-1" d="M49,142a1.63,1.63,0,0,0,2.28,0v0A1.62,1.62,0,1,0,49,142Z"/><path class="cls-1" d="M104,87a1.61,1.61,0,0,0,2.28,0l0,0a1.63,1.63,0,1,0-2.3,0Z"/><path class="cls-1" d="M57.92,135.15a1.63,1.63,0,0,0,.21-2.29,2.08,2.08,0,0,0-.21-.21,1.63,1.63,0,0,0-2.08,2.5A1.63,1.63,0,0,0,57.92,135.15Z"/><path class="cls-1" d="M62.72,128.26a1.62,1.62,0,0,0,2.29,0v0a1.62,1.62,0,1,0-2.3,0Z"/><path class="cls-1" d="M69.61,121.37a1.63,1.63,0,0,0,2.28,0h0a1.62,1.62,0,1,0-2.3,0Z"/><path class="cls-1" d="M78.77,114.49h0a1.62,1.62,0,1,0-2.3,0A1.62,1.62,0,0,0,78.78,114.48Z"/><path class="cls-1" d="M92.33,100.73a1.62,1.62,0,0,0,.21-2.29,1,1,0,0,0-.21-.21,1.63,1.63,0,1,0,0,2.5Z"/><path class="cls-1" d="M99.42,93.84h0a1.63,1.63,0,1,0-2.3,0A1.63,1.63,0,0,0,99.43,93.83Z"/><path class="cls-1" d="M104,73.21a1.62,1.62,0,0,0,2.28,0h0a1.63,1.63,0,0,0-2.3-2.3,1.64,1.64,0,0,0,0,2.3Z"/><path class="cls-1" d="M10,155.79h0a1.63,1.63,0,1,0-2.3-2.3,1.63,1.63,0,0,0,2.3,2.3Z"/><path class="cls-1" d="M14.55,155.81a1.6,1.6,0,0,0,2.28,0h0a1.63,1.63,0,1,0-2.3-2.3,1.62,1.62,0,0,0,0,2.3Z"/><path class="cls-1" d="M49,114.5a1.62,1.62,0,0,0,2.29,0h0a1.64,1.64,0,0,0,0-2.3,1.63,1.63,0,0,0-2.3,2.3Z"/><path class="cls-1" d="M76.69,100.93a1.63,1.63,0,1,0-.21-.21Z"/><path class="cls-1" d="M7.67,162.69a1.6,1.6,0,0,0,2.28,0h0a1.63,1.63,0,1,0-2.3-2.3,1.62,1.62,0,0,0,0,2.3Z"/><path class="cls-1" d="M42,128.28a.12.12,0,0,0,.05.05,1.61,1.61,0,0,0,2.28-.07h0a1.64,1.64,0,0,0,0-2.3,1.63,1.63,0,1,0-2.3,2.3Z"/><path class="cls-1" d="M97.15,73.21a1.62,1.62,0,0,0,2.28,0h0a1.63,1.63,0,1,0-2.3-2.3,1.64,1.64,0,0,0,0,2.3Z"/><path class="cls-1" d="M14.55,148.91a1.61,1.61,0,0,0,2.28,0h0a1.64,1.64,0,0,0,0-2.3,1.62,1.62,0,1,0-2.3,2.29Z"/><path class="cls-1" d="M76.54,93.8a1.61,1.61,0,0,0,2.28,0h0a1.63,1.63,0,1,0-2.3-2.3,1.64,1.64,0,0,0,0,2.3Z"/><path class="cls-1" d="M83.36,87l.07.06a1.61,1.61,0,0,0,2.28-.11h0a1.63,1.63,0,1,0-2.3-2.3,1.64,1.64,0,0,0,0,2.3Z"/><path class="cls-1" d="M9,180.54a1.59,1.59,0,0,0-1.1.3Z"/><path class="cls-1" d="M90.25,73.19l.06.06a1.61,1.61,0,0,0,2.28-.1h0a1.62,1.62,0,0,0,0-2.3,1.63,1.63,0,0,0-2.3,2.3Z"/><path class="cls-1" d="M83.36,80.08a.12.12,0,0,1,0,0,1.64,1.64,0,0,0,2.3-.1h0a1.62,1.62,0,0,0,0-2.3,1.63,1.63,0,0,0-2.3,2.3Z"/><path class="cls-1" d="M76.48,87a.12.12,0,0,1,0,.05,1.64,1.64,0,0,0,2.3-.1h0a1.63,1.63,0,1,0-2.3-2.3,1.64,1.64,0,0,0,0,2.3Z"/><path class="cls-1" d="M35.44,135.3a1.63,1.63,0,1,0-.21-.21Z"/><path class="cls-1" d="M28.3,135.15l.05,0a1.62,1.62,0,0,0,2.29-.09h0a1.63,1.63,0,1,0-2.3-2.3,1.64,1.64,0,0,0,0,2.3Z"/><path class="cls-1" d="M1,169.72a1.63,1.63,0,1,0,2.08-2.5,1.63,1.63,0,0,0-2.29,2.29A2.08,2.08,0,0,0,1,169.72Z"/><path class="cls-1" d="M69.59,100.73l.07.06a1.61,1.61,0,0,0,2.28-.11h0a1.63,1.63,0,0,0-2.3-2.3,1.64,1.64,0,0,0,0,2.3Z"/><path class="cls-1" d="M21.67,156a1.63,1.63,0,0,0,2.29-.21,1.61,1.61,0,0,0-.21-2.29,1.63,1.63,0,0,0-2.29,2.29Z"/><path class="cls-1" d="M28.3,148.9l.07.07a1.6,1.6,0,0,0,2.27-.11h0a1.63,1.63,0,1,0-2.3-2.3,1.64,1.64,0,0,0,0,2.3Z"/><path class="cls-1" d="M56.09,114.65a1.63,1.63,0,1,0-.21-.21Z"/><path class="cls-1" d="M21.67,149.07a1.63,1.63,0,0,0,2.29-.21,1.61,1.61,0,0,0-.21-2.29,1.63,1.63,0,0,0-2.29,2.29Z"/><path class="cls-1" d="M.77,162.67l0,0a1.6,1.6,0,0,0,2.28,0h0a1.63,1.63,0,1,0-2.3,0Z"/><path class="cls-1" d="M28.3,142l0,0a1.61,1.61,0,0,0,2.28,0h0a1.64,1.64,0,0,0,0-2.3,1.63,1.63,0,0,0-2.3,2.3Z"/><path class="cls-1" d="M49,121.38l0,0a1.62,1.62,0,0,0,2.29,0h0a1.64,1.64,0,0,0,0-2.3,1.63,1.63,0,1,0-2.3,2.3Z"/><path class="cls-1" d="M83.36,93.84l0,0a1.61,1.61,0,0,0,2.28,0h0a1.63,1.63,0,0,0-2.3-2.3,1.64,1.64,0,0,0,0,2.3Z"/><path class="cls-1" d="M28.31,155.79h0a1.6,1.6,0,0,0,2.28,0h0a1.63,1.63,0,1,0-2.3,0Z"/><path class="cls-1" d="M97.35,80.27a1.63,1.63,0,1,0-.21-.21Z"/><path class="cls-1" d="M90.47,80.27a1.63,1.63,0,1,0-.21-.21Z"/><path class="cls-1" d="M21.42,142h0a1.63,1.63,0,0,0,2.3,0h0a1.64,1.64,0,0,0,0-2.3,1.63,1.63,0,1,0-2.3,2.3Z"/><path class="cls-1" d="M69.6,114.5h0a1.63,1.63,0,0,0,2.3,0h0a1.63,1.63,0,1,0-2.3,0Z"/><path class="cls-1" d="M35.2,128.27a1.61,1.61,0,0,0,2.28,0h0a1.64,1.64,0,0,0,0-2.3,1.63,1.63,0,1,0-2.3,2.3Z"/><path class="cls-1" d="M7.66,176.44a1.61,1.61,0,0,0,2.28,0l0,0a1.63,1.63,0,1,0-2.3,0Z"/><path class="cls-1" d="M69.61,93.85a1.61,1.61,0,0,0,2.28,0h0a1.63,1.63,0,1,0-2.3-2.3,1.64,1.64,0,0,0,0,2.3Z"/><path class="cls-1" d="M55.84,107.6a1.63,1.63,0,0,0,2.29,0h0a1.62,1.62,0,1,0-2.29,0Z"/><path class="cls-1" d="M51.22,135.16h0a1.63,1.63,0,1,0-2.3,0A1.61,1.61,0,0,0,51.23,135.15Z"/><path class="cls-1" d="M3.05,181.05a1.62,1.62,0,0,0-2.6,1.85l3-.8a1.56,1.56,0,0,0-.44-1Z"/><path class="cls-1" d="M62.72,100.73a1.62,1.62,0,0,0,2.24,0h0a1.63,1.63,0,1,0-2.3-2.3,1.62,1.62,0,0,0,0,2.3Z"/><path class="cls-1" d="M97.13,66.31a1.64,1.64,0,0,0,2.2,0,1,1,0,0,0,.21-.21l-.84-.42-.63-.32-1.37-.68a1.61,1.61,0,0,0,.38,1.68Z"/><path class="cls-1" d="M42.07,121.38a1.62,1.62,0,0,0,2.24.05h0a1.63,1.63,0,0,0-2.3-2.3,1.62,1.62,0,0,0,0,2.3Z"/><path class="cls-1" d="M62.74,114.5a1.62,1.62,0,0,0,2.28,0h0a1.63,1.63,0,0,0-2.3-2.3,1.64,1.64,0,0,0,0,2.3Z"/><path class="cls-1" d="M90.24,87l0,0a1.61,1.61,0,0,0,2.28,0h0a1.63,1.63,0,0,0-2.3-2.3,1.64,1.64,0,0,0,0,2.3Z"/><path class="cls-1" d="M56.05,121.57a1.63,1.63,0,0,0,2.29-.21,1.61,1.61,0,0,0-.21-2.29,1.63,1.63,0,0,0-2.29,2.29Z"/><path class="cls-1" d="M42.29,135.34a1.63,1.63,0,1,0,2.08-2.5,1.63,1.63,0,0,0-2.29,2.29A2.08,2.08,0,0,0,42.29,135.34Z"/><path class="cls-1" d="M83.42,100.68a1.61,1.61,0,0,0,2.28,0l0,0a1.63,1.63,0,1,0-2.3,0Z"/><path class="cls-1" d="M69.59,107.61l.07.06a1.61,1.61,0,0,0,2.28-.11h0a1.63,1.63,0,0,0-2.3-2.3,1.64,1.64,0,0,0,0,2.3Z"/><path class="cls-1" d="M35.18,142l.07.06a1.6,1.6,0,0,0,2.27-.11h0a1.63,1.63,0,1,0-2.3-2.3,1.64,1.64,0,0,0,0,2.3Z"/><path class="cls-1" d="M49,128.26l.07.06a1.6,1.6,0,0,0,2.27-.11h0a1.63,1.63,0,0,0-2.3-2.3,1.64,1.64,0,0,0,0,2.3Z"/><path class="cls-1" d="M21.42,162.68l0,0a1.62,1.62,0,0,0,2.29-.09h0a1.62,1.62,0,1,0-2.3,0Z"/><path class="cls-1" d="M.76,176.44l0,0a1.61,1.61,0,0,0,2.28,0h0a1.63,1.63,0,0,0-2.3-2.3,1.62,1.62,0,0,0,0,2.3Z"/><path class="cls-1" d="M14.53,162.67l0,0a1.61,1.61,0,0,0,2.28,0h0a1.63,1.63,0,1,0-2.3-2.3,1.62,1.62,0,0,0,0,2.3Z"/><path class="cls-1" d="M104,80.08h0a1.63,1.63,0,0,0,2.3,0h0a1.63,1.63,0,1,0-2.3,0Z"/><path class="cls-1" d="M97.14,87h0a1.62,1.62,0,0,0,2.28,0l0,0a1.63,1.63,0,1,0-2.3,0Z"/><path class="cls-1" d="M76.48,107.62h0a1.63,1.63,0,0,0,2.3,0h0a1.63,1.63,0,1,0-2.3,0Z"/><path class="cls-1" d="M62.72,107.61l0,0a1.62,1.62,0,0,0,2.28,0h0a1.63,1.63,0,1,0-2.3-2.3,1.64,1.64,0,0,0,0,2.3Z"/><path class="cls-1" d="M110.9,73.2a1.62,1.62,0,0,0,2.26-.06,1.8,1.8,0,0,0,.2-.19l-2.82-1.42a1.61,1.61,0,0,0,.37,1.66Z"/><path class="cls-1" d="M55.84,128.27h0a1.61,1.61,0,0,0,2.29,0h0a1.62,1.62,0,1,0-2.3,0Z"/><path class="cls-1" d="M7.65,169.55l0,0a1.6,1.6,0,0,0,2.28,0h0a1.63,1.63,0,1,0-2.3-2.3,1.62,1.62,0,0,0,0,2.3Z"/><path class="cls-1" d="M62.72,121.38h0a1.62,1.62,0,0,0,2.28,0l0,0a1.62,1.62,0,1,0-2.3,0Z"/><path class="cls-1" d="M42.08,142a1.61,1.61,0,0,0,2.24,0l.06-.06a1.62,1.62,0,1,0-2.29,0Z"/><path class="cls-1" d="M35.19,148.91h0a1.63,1.63,0,0,0,2.3,0h0a1.63,1.63,0,1,0-2.3,0Z"/><path class="cls-1" d="M14.54,169.56h0a1.63,1.63,0,0,0,2.3,0h0a1.63,1.63,0,1,0-2.3,0Z"/><path class="cls-1" d="M90.25,93.85a1.63,1.63,0,0,0,2.28,0h0a1.63,1.63,0,1,0-2.3,0Z"/><path class="cls-1" d="M2.85,121.38a1.63,1.63,0,0,0,.21-2.29,2.08,2.08,0,0,0-.21-.21,1.63,1.63,0,1,0,0,2.5Z"/><path class="cls-1" d="M49,107.61l0,0a1.6,1.6,0,0,0,2.28,0h0a1.63,1.63,0,1,0-2.3,0Z"/><path class="cls-1" d="M69.65,86.91a1.61,1.61,0,0,0,2.27.09l0,0a1.63,1.63,0,1,0-2.3,0Z"/><path class="cls-1" d="M42.07,114.5l0,0a1.63,1.63,0,0,0,2.3,0h0a1.63,1.63,0,1,0-2.3,0Z"/><path class="cls-1" d="M28.29,114.53a1.61,1.61,0,0,0,2.28,0h0a1.64,1.64,0,0,0,0-2.3,1.63,1.63,0,0,0-2.3,2.3Z"/><path class="cls-1" d="M57.89,100.76a1.63,1.63,0,0,0,.21-2.29,2.08,2.08,0,0,0-.21-.21,1.63,1.63,0,1,0,0,2.5Z"/><path class="cls-1" d="M14.54,142a1.61,1.61,0,0,0,2.25,0l0,0a1.63,1.63,0,1,0-2.3,0Z"/><path class="cls-1" d="M28.31,128.26a1.61,1.61,0,0,0,2.24,0l0,0a1.63,1.63,0,1,0-2.3,0Z"/><path class="cls-1" d="M76.48,73.2a1.65,1.65,0,0,0,2.27,0h0a1.63,1.63,0,1,0-2.3,0Z"/><path class="cls-1" d="M37.24,121.4a1.63,1.63,0,0,0,.21-2.29l-.21-.21a1.63,1.63,0,0,0-2.08,2.5A1.61,1.61,0,0,0,37.24,121.4Z"/><path class="cls-1" d="M78.54,80.11a1.63,1.63,0,0,0,.21-2.29,2.08,2.08,0,0,0-.21-.21,1.63,1.63,0,1,0,0,2.5Z"/><path class="cls-1" d="M7.65,114.5a1.62,1.62,0,0,0,2.22,0h0a1.63,1.63,0,1,0-2.3,0Z"/><path class="cls-1" d="M62.72,93.85a1.63,1.63,0,0,0,2.26,0h0a1.63,1.63,0,1,0-2.3,0Z"/><path class="cls-1" d="M83.37,73.19a1.62,1.62,0,0,0,2.26,0v0a1.62,1.62,0,1,0-2.29,0Z"/><path class="cls-1" d="M92.31,66.34a1.62,1.62,0,0,0,.2-2.29,1.34,1.34,0,0,0-.2-.21,1.63,1.63,0,0,0-2.09,2.5A1.64,1.64,0,0,0,92.31,66.34Z"/><path class="cls-1" d="M7.66,142a1.61,1.61,0,0,0,2.25,0l0,0a1.63,1.63,0,1,0-2.3,0Z"/><path class="cls-1" d="M16.59,135.17a1.63,1.63,0,0,0,.21-2.29l-.21-.21a1.63,1.63,0,0,0-2.08,2.5A1.61,1.61,0,0,0,16.59,135.17Z"/><path class="cls-1" d="M21.42,128.27a1.62,1.62,0,0,0,2.26,0h0a1.63,1.63,0,1,0-2.3,0Z"/><path class="cls-1" d="M28.31,121.38a1.61,1.61,0,0,0,2.25,0h0a1.63,1.63,0,1,0-2.3,0Z"/><path class="cls-1" d="M62.72,87A1.62,1.62,0,0,0,65,87l0,0a1.63,1.63,0,1,0-2.3,0Z"/><path class="cls-1" d="M76.67,59.66a1.63,1.63,0,1,0-.21-.21A2.08,2.08,0,0,0,76.67,59.66Z"/><path class="cls-1" d="M69.59,66.31a1.63,1.63,0,0,0,2.28,0h0a1.64,1.64,0,0,0,0-2.3,1.63,1.63,0,1,0-2.3,2.3Z"/><path class="cls-1" d="M62.72,73.19a1.62,1.62,0,0,0,2.27,0h0a1.64,1.64,0,0,0,0-2.3,1.63,1.63,0,1,0-2.3,2.3Z"/><path class="cls-1" d="M56,80.31a1.63,1.63,0,1,0-.21-.21A2.08,2.08,0,0,0,56,80.31Z"/><path class="cls-1" d="M49,87a1.62,1.62,0,0,0,2.27,0h0a1.64,1.64,0,0,0,0-2.3,1.63,1.63,0,0,0-2.3,2.3Z"/><path class="cls-1" d="M42.08,93.83a1.61,1.61,0,0,0,2.26,0h0a1.64,1.64,0,0,0,0-2.3,1.63,1.63,0,1,0-2.3,2.3Z"/><path class="cls-1" d="M35.37,101a1.63,1.63,0,1,0,2.08-2.5,1.63,1.63,0,0,0-2.29,2.29A2.08,2.08,0,0,0,35.37,101Z"/><path class="cls-1" d="M7.65,128.26a1.61,1.61,0,0,0,2.27,0h0a1.63,1.63,0,1,0-2.3-2.3,1.62,1.62,0,0,0,0,2.3Z"/><path class="cls-1" d="M1,135.37a1.63,1.63,0,1,0-.21-.21A1,1,0,0,0,1,135.37Z"/><path class="cls-1" d="M76.67,66.54a1.63,1.63,0,1,0-.21-.21A2.08,2.08,0,0,0,76.67,66.54Z"/><path class="cls-1" d="M37.24,114.52a1.63,1.63,0,0,0,.21-2.29l-.21-.2a1.62,1.62,0,1,0,0,2.49Z"/><path class="cls-1" d="M42.08,107.61a1.61,1.61,0,0,0,2.25,0l0,0a1.63,1.63,0,1,0-2.3,0Z"/><path class="cls-1" d="M49,100.72a1.64,1.64,0,0,0,2.26,0h0a1.63,1.63,0,1,0-2.3,0Z"/><path class="cls-1" d="M28.3,107.61a1.62,1.62,0,0,0,2.27,0h0a1.64,1.64,0,0,0,0-2.3,1.63,1.63,0,0,0-2.3,2.3Z"/><path class="cls-1" d="M21.6,114.72a1.59,1.59,0,1,0-.21-.2A1.34,1.34,0,0,0,21.6,114.72Z"/><path class="cls-1" d="M14.53,121.38a1.61,1.61,0,0,0,2.27,0h0a1.62,1.62,0,1,0-2.3-2.29,1.61,1.61,0,0,0,0,2.29Z"/><path class="cls-1" d="M2.82,148.94A1.63,1.63,0,0,0,3,146.65a2.08,2.08,0,0,0-.21-.21,1.63,1.63,0,1,0,0,2.5Z"/><path class="cls-1" d="M7.65,148.91a1.61,1.61,0,0,0,2.26,0h0a1.63,1.63,0,1,0-2.3,0Z"/><path class="cls-1" d="M2.82,155.82A1.63,1.63,0,0,0,3,153.53a2.08,2.08,0,0,0-.21-.21,1.63,1.63,0,1,0,0,2.5Z"/><path class="cls-1" d="M23.47,135.17a1.63,1.63,0,0,0,.21-2.29l-.21-.21a1.63,1.63,0,0,0-2.08,2.5A1.61,1.61,0,0,0,23.47,135.17Z"/><path class="cls-1" d="M21.6,121.6a1.59,1.59,0,1,0-.21-.2A1.34,1.34,0,0,0,21.6,121.6Z"/><path class="cls-1" d="M35.19,93.84a1.61,1.61,0,0,0,2.26,0h0a1.64,1.64,0,0,0,0-2.3,1.63,1.63,0,0,0-2.3,2.3Z"/><path class="cls-1" d="M55.88,73.14a1.62,1.62,0,0,0,2.22.09h0a1.64,1.64,0,0,0,0-2.3,1.63,1.63,0,1,0-2.3,2.3Z"/><path class="cls-1" d="M49,80.08l.07.08a1.61,1.61,0,1,0,0-2.35,1.62,1.62,0,0,0-.08,2.3Z"/><path class="cls-1" d="M62.72,66.31a1.63,1.63,0,0,0,2.27,0h0A1.64,1.64,0,0,0,65,64a1.63,1.63,0,1,0-2.3,2.3Z"/><path class="cls-1" d="M69.6,59.42a1.63,1.63,0,0,0,2.27,0h0a1.64,1.64,0,0,0,0-2.3,1.63,1.63,0,1,0-2.3,2.3Z"/><path class="cls-1" d="M14.54,114.49h0a1.61,1.61,0,0,0,2.28.07,1.62,1.62,0,1,0-2.32,0Z"/><path class="cls-1" d="M7.65,121.38a1.63,1.63,0,0,0,2.27,0h0a1.62,1.62,0,1,0-2.3-2.29,1.61,1.61,0,0,0,0,2.29Z"/><path class="cls-1" d="M21.39,107.64a1.64,1.64,0,0,0,2.3,0h0a1.64,1.64,0,0,0,0-2.3,1.63,1.63,0,0,0-2.3,2.3Z"/><path class="cls-1" d="M28.3,100.73a1.64,1.64,0,0,0,2.27,0h0a1.64,1.64,0,0,0,0-2.3,1.63,1.63,0,0,0-2.3,2.3Z"/><path class="cls-1" d="M42.25,101a1.63,1.63,0,0,0,2.08-2.5A1.63,1.63,0,0,0,42,100.75,2.08,2.08,0,0,0,42.25,101Z"/><path class="cls-1" d="M35.18,107.61a1.62,1.62,0,0,0,2.27,0h0a1.64,1.64,0,0,0,0-2.3,1.63,1.63,0,0,0-2.3,2.3Z"/><path class="cls-1" d="M49,93.84a1.62,1.62,0,0,0,2.27,0h0a1.64,1.64,0,0,0,0-2.3,1.63,1.63,0,1,0-2.3,2.3Z"/><path class="cls-1" d="M55.83,87a1.62,1.62,0,0,0,2.27,0h0a1.64,1.64,0,0,0,0-2.3A1.63,1.63,0,0,0,55.8,87Z"/><path class="cls-1" d="M.76,142a1.61,1.61,0,0,0,2.27,0H3a1.63,1.63,0,0,0-2.3-2.3,1.62,1.62,0,0,0,0,2.3Z"/><path class="cls-1" d="M83.36,59.42a1.64,1.64,0,0,0,2.23,0,1.67,1.67,0,0,0,.23-.23L83,57.74a1.62,1.62,0,0,0,.37,1.71Z"/><path class="cls-1" d="M7.85,135.35a1.59,1.59,0,1,0-.21-.2A1.34,1.34,0,0,0,7.85,135.35Z"/><path class="cls-1" d="M14.53,128.26h0a1.61,1.61,0,0,0,2.28,0h0a1.64,1.64,0,0,0,0-2.3,1.63,1.63,0,1,0-2.3,2.3Z"/><path class="cls-1" d="M42.07,87a1.63,1.63,0,0,0,2.29,0h0a1.64,1.64,0,0,0,0-2.3,1.63,1.63,0,1,0-2.3,2.3Z"/><path class="cls-1" d="M.77,128.26h0a1.61,1.61,0,0,0,2.28,0h0a1.64,1.64,0,0,0,0-2.3,1.63,1.63,0,0,0-2.3,2.3Z"/><path class="cls-1" d="M55.84,93.85a1.63,1.63,0,0,0,2.28,0h0a1.63,1.63,0,1,0-2.3,0Z"/><path class="cls-1" d="M71.68,80.09a1.63,1.63,0,0,0,.21-2.29l-.21-.21a1.63,1.63,0,0,0-2.09,2.5A1.64,1.64,0,0,0,71.68,80.09Z"/><path class="cls-1" d="M62.76,80a1.62,1.62,0,0,0,2.24.07h0a1.64,1.64,0,0,0,0-2.3,1.63,1.63,0,0,0-2.3,2.3Z"/><path class="cls-1" d="M23.5,100.73a1.63,1.63,0,0,0,.21-2.29,2.08,2.08,0,0,0-.21-.21,1.63,1.63,0,1,0,0,2.5Z"/><path class="cls-1" d="M69.61,73.21a1.62,1.62,0,0,0,2.28,0h0a1.63,1.63,0,1,0-2.3-2.3,1.64,1.64,0,0,0,0,2.3Z"/><path class="cls-1" d="M14.54,107.61a1.61,1.61,0,0,0,2.28,0l0,0a1.63,1.63,0,1,0-2.3,0Z"/><path class="cls-1" d="M83.37,66.31a1.61,1.61,0,0,0,2.28,0l0,0a1.63,1.63,0,1,0-2.3,0Z"/><path class="cls-1" d="M28.31,52.54a1.61,1.61,0,0,0,2.28,0l0,0a1.63,1.63,0,1,0-2.3,0Z"/><path class="cls-1" d="M28.34,80.1a1.63,1.63,0,0,0,2.29,0h0a1.64,1.64,0,0,0,0-2.3,1.63,1.63,0,0,0-2.3,2.3Z"/><path class="cls-1" d="M2.88,114.51a1.63,1.63,0,0,0,.21-2.29,2.08,2.08,0,0,0-.21-.21,1.63,1.63,0,1,0,0,2.5Z"/><path class="cls-1" d="M49,52.54l0,.05a1.61,1.61,0,0,0,2.28,0h0a1.63,1.63,0,1,0-2.3-2.3,1.64,1.64,0,0,0,0,2.3Z"/><path class="cls-1" d="M28.33,45.59a1.62,1.62,0,0,0,2.29,0h0a1.63,1.63,0,0,0-2.3-2.3,1.62,1.62,0,0,0,0,2.3Z"/><path class="cls-1" d="M51.25,45.66h0a1.64,1.64,0,0,0,0-2.3,1.63,1.63,0,0,0-2.3,2.3A1.64,1.64,0,0,0,51.25,45.66Z"/><path class="cls-1" d="M35.2,59.43a1.61,1.61,0,0,0,2.28,0h0a1.64,1.64,0,0,0,0-2.3,1.63,1.63,0,0,0-2.3,2.3Z"/><path class="cls-1" d="M44.15,45.66a1.63,1.63,0,0,0,.21-2.29l-.21-.21a1.63,1.63,0,1,0,0,2.5Z"/><path class="cls-1" d="M7.68,59.43a1.62,1.62,0,0,0,2.28,0h0a1.64,1.64,0,0,0,0-2.3,1.63,1.63,0,0,0-2.3,2.3Z"/><path class="cls-1" d="M21.45,87a1.61,1.61,0,0,0,2.28,0h0a1.64,1.64,0,0,0,0-2.3,1.63,1.63,0,1,0-2.3,2.3Z"/><path class="cls-1" d="M2.85,80.08a1.63,1.63,0,0,0,.21-2.29,2.08,2.08,0,0,0-.21-.21,1.63,1.63,0,1,0,0,2.5Z"/><path class="cls-1" d="M28.33,59.46a1.63,1.63,0,1,0,0-2.33,1.63,1.63,0,0,0,0,2.33Z"/><path class="cls-1" d="M16.84,66.29h0a1.63,1.63,0,1,0-2.3,0A1.63,1.63,0,0,0,16.85,66.28Z"/><path class="cls-1" d="M7.65,80.08h0a1.63,1.63,0,0,0,2.3,0h0a1.63,1.63,0,1,0-2.3,0Z"/><path class="cls-1" d="M14.54,73.19h0a1.62,1.62,0,0,0,2.28,0l0,0a1.63,1.63,0,1,0-2.3,0Z"/><path class="cls-1" d="M23.51,66.3A1.63,1.63,0,0,0,23.72,64l-.21-.21a1.63,1.63,0,1,0,0,2.5Z"/><path class="cls-1" d="M42.09,66.33a1.62,1.62,0,0,0,2.29,0h0a1.62,1.62,0,1,0-2.29,0Z"/><path class="cls-1" d="M1,66.51a1.63,1.63,0,1,0-.21-.21A1.39,1.39,0,0,0,1,66.51Z"/><path class="cls-1" d="M9.94,73.19l0,0a1.63,1.63,0,1,0-2.3,0A1.63,1.63,0,0,0,10,73.17Z"/><path class="cls-1" d="M23.71,59.42h0a1.63,1.63,0,1,0-2.3,0A1.63,1.63,0,0,0,23.72,59.41Z"/><path class="cls-1" d="M44.36,80.07h0a1.63,1.63,0,1,0-2.3,0A1.63,1.63,0,0,0,44.37,80.06Z"/><path class="cls-1" d="M23.73,73.18h0a1.64,1.64,0,0,0,0-2.3,1.63,1.63,0,1,0-2.3,2.3A1.64,1.64,0,0,0,23.73,73.18Z"/><path class="cls-1" d="M21.41,52.54a1.62,1.62,0,0,0,2.28,0h0a1.63,1.63,0,0,0-2.3-2.3,1.62,1.62,0,0,0,0,2.3Z"/><path class="cls-1" d="M14.53,59.42a1.62,1.62,0,0,0,2.28,0h0a1.63,1.63,0,1,0-2.3-2.3,1.62,1.62,0,0,0,0,2.3Z"/><path class="cls-1" d="M62.72,59.43a1.63,1.63,0,0,0,2.27,0h0a1.63,1.63,0,1,0-2.3,0Z"/><path class="cls-1" d="M42.07,38.78a1.62,1.62,0,0,0,2.27,0,1.46,1.46,0,0,0,.22-.33l-1.12-.57-.32-.16L41.7,37a1.62,1.62,0,0,0,.35,1.78Z"/><path class="cls-1" d="M35.18,38.77a1.61,1.61,0,0,0,2.28,0h0a1.63,1.63,0,1,0-2.3-2.3,1.62,1.62,0,0,0,0,2.3Z"/><path class="cls-1" d="M37.49,86.94h0a1.63,1.63,0,1,0-2.3,0A1.64,1.64,0,0,0,37.5,86.93Z"/><path class="cls-1" d="M.76,73.19a1.62,1.62,0,0,0,2.28,0H3a1.64,1.64,0,0,0,0-2.3,1.63,1.63,0,0,0-2.3,2.3Z"/><path class="cls-1" d="M7.68,100.75a1.61,1.61,0,0,0,2.28,0h0a1.64,1.64,0,0,0,0-2.3,1.63,1.63,0,0,0-2.3,2.3Z"/><path class="cls-1" d="M10,87h0a1.64,1.64,0,0,0,0-2.3A1.63,1.63,0,0,0,7.65,87,1.64,1.64,0,0,0,10,87Z"/><path class="cls-1" d="M49,66.26a1.61,1.61,0,0,0,2.28,0l0,0a1.63,1.63,0,1,0-2.3,0Z"/><path class="cls-1" d="M42.07,73.2l0,0a1.62,1.62,0,0,0,2.29-.1h0a1.63,1.63,0,1,0-2.3,0Z"/><path class="cls-1" d="M21.42,93.85l0,0a1.62,1.62,0,0,0,2.29-.1h0a1.62,1.62,0,1,0-2.3,0Z"/><path class="cls-1" d="M7.64,66.29a1.61,1.61,0,0,0,2.28,0h0a1.64,1.64,0,0,0,0-2.3,1.63,1.63,0,1,0-2.3,2.3Z"/><path class="cls-1" d="M28.31,93.84a1.61,1.61,0,0,0,2.26,0l0,0a1.63,1.63,0,1,0-2.3,0Z"/><path class="cls-1" d="M14.55,52.56a1.62,1.62,0,0,0,2.28,0h0a1.64,1.64,0,0,0,0-2.3,1.63,1.63,0,0,0-2.3,2.3Z"/><path class="cls-1" d="M28.31,87a1.61,1.61,0,0,0,2.28,0l0,0a1.63,1.63,0,1,0-2.3,0Z"/><path class="cls-1" d="M.8,107.65a1.62,1.62,0,0,0,2.28,0h0a1.64,1.64,0,0,0,0-2.3,1.63,1.63,0,1,0-2.3,2.3Z"/><path class="cls-1" d="M44.37,52.54h0a1.64,1.64,0,0,0,0-2.3,1.63,1.63,0,0,0-2.3,2.3A1.64,1.64,0,0,0,44.37,52.54Z"/><path class="cls-1" d="M14.55,80.08a1.61,1.61,0,0,0,2.28,0h0a1.64,1.64,0,0,0,0-2.3,1.63,1.63,0,1,0-2.3,2.3Z"/><path class="cls-1" d="M57.92,59.43a1.63,1.63,0,0,0,.21-2.29l-.21-.21a1.63,1.63,0,1,0,0,2.5Z"/><path class="cls-1" d="M9.9,107.64l.06,0a1.63,1.63,0,1,0-2.3,0A1.61,1.61,0,0,0,9.9,107.64Z"/><path class="cls-1" d="M49,73.19a1.61,1.61,0,0,0,2.28,0v0a1.62,1.62,0,1,0-2.29,0Z"/><path class="cls-1" d="M16.59,100.76a1.63,1.63,0,0,0,.21-2.29,2.08,2.08,0,0,0-.21-.21,1.63,1.63,0,1,0,0,2.5Z"/><path class="cls-1" d="M37.24,80.11a1.63,1.63,0,0,0,.21-2.29,2.08,2.08,0,0,0-.21-.21,1.63,1.63,0,1,0,0,2.5Z"/><path class="cls-1" d="M30.6,66.31h0a1.64,1.64,0,0,0,0-2.3,1.63,1.63,0,1,0-2.3,2.3A1.64,1.64,0,0,0,30.6,66.31Z"/><path class="cls-1" d="M2.82,87A1.63,1.63,0,0,0,3,84.7a1,1,0,0,0-.21-.21,1.63,1.63,0,1,0,0,2.5Z"/><path class="cls-1" d="M35.23,52.49a1.62,1.62,0,0,0,2.21.08l0,0a1.63,1.63,0,1,0-2.3,0Z"/><path class="cls-1" d="M57.93,66.38a1.62,1.62,0,0,0,.2-2.29,1.34,1.34,0,0,0-.2-.21,1.63,1.63,0,0,0-2.09,2.5A1.64,1.64,0,0,0,57.93,66.38Z"/><path class="cls-1" d="M1,100.93a1.63,1.63,0,1,0-.21-.21A2.08,2.08,0,0,0,1,100.93Z"/><path class="cls-1" d="M35.2,66.33a1.62,1.62,0,0,0,2.28,0h0a1.64,1.64,0,0,0,0-2.3,1.63,1.63,0,1,0-2.3,2.3Z"/><path class="cls-1" d="M28.32,73.21a1.62,1.62,0,0,0,2.28,0h0a1.64,1.64,0,0,0,0-2.3,1.63,1.63,0,1,0-2.3,2.3Z"/><path class="cls-1" d="M7.62,93.87l0,0A1.61,1.61,0,0,0,10,93.84h0a1.64,1.64,0,0,0,0-2.3,1.63,1.63,0,1,0-2.3,2.3Z"/><path class="cls-1" d="M71.84,52.49a1.48,1.48,0,0,0,.25-.25l-1-.49-.47-.24-1.39-.7a1.57,1.57,0,0,0,2.6,1.68Z"/><path class="cls-1" d="M14.57,93.88a1.62,1.62,0,0,0,2.28,0h0a1.64,1.64,0,0,0,0-2.3,1.63,1.63,0,0,0-2.3,2.3Z"/><path class="cls-1" d="M37.27,45.66a1.63,1.63,0,0,0,.21-2.29l-.21-.21a1.63,1.63,0,1,0,0,2.5Z"/><path class="cls-1" d="M42.12,59.38a1.61,1.61,0,0,0,2.28,0h0a1.62,1.62,0,0,0,0-2.3,1.63,1.63,0,0,0-2.3,2.3Z"/><path class="cls-1" d="M55.84,45.65l0,.06a1.61,1.61,0,0,0,2.28-.1,1.26,1.26,0,0,0,.21-.32l-2.85-1.44a1.64,1.64,0,0,0,.35,1.75Z"/><path class="cls-1" d="M21.67,80.23A1.63,1.63,0,0,0,24,80a1.61,1.61,0,0,0-.21-2.29A1.63,1.63,0,0,0,21.46,80,2.08,2.08,0,0,0,21.67,80.23Z"/><path class="cls-1" d="M62.72,52.54l.05.05a1.61,1.61,0,0,0,2.28-.1l0,0a1.63,1.63,0,1,0-2.3,0Z"/><path class="cls-1" d="M49,59.46a1.62,1.62,0,0,0,2.28,0h0a1.63,1.63,0,0,0-2.3-2.3,1.64,1.64,0,0,0,0,2.3Z"/><path class="cls-1" d="M35.21,73.23a1.63,1.63,0,0,0,2.29,0h0a1.64,1.64,0,0,0,0-2.3,1.63,1.63,0,0,0-2.3,2.3Z"/><path class="cls-1" d="M.78,93.85a1.61,1.61,0,0,0,2.28,0h0a1.64,1.64,0,0,0,0-2.3,1.63,1.63,0,1,0-2.3,2.3Z"/><path class="cls-1" d="M14.55,87a1.62,1.62,0,0,0,2.28,0h0a1.64,1.64,0,0,0,0-2.3,1.63,1.63,0,0,0-2.3,2.3Z"/><path class="cls-1" d="M55.86,52.58a1.62,1.62,0,0,0,2.28,0h0a1.63,1.63,0,1,0-2.3-2.3,1.64,1.64,0,0,0,0,2.3Z"/><path class="cls-1" d="M7.71,25A1.61,1.61,0,0,0,10,25h0a1.63,1.63,0,1,0-2.3-2.3,1.62,1.62,0,0,0,0,2.3Z"/><path class="cls-1" d="M.83,18.08a1.61,1.61,0,0,0,2.28,0,1.84,1.84,0,0,0,.26-.4L.51,16.23a1.62,1.62,0,0,0,.31,1.84Z"/><path class="cls-1" d="M21.67,45.81a1.63,1.63,0,1,0-.21-.21Z"/><path class="cls-1" d="M7.65,45.66s0,0,0,.05a1.63,1.63,0,0,0,2.3-.1h0a1.63,1.63,0,0,0-2.3-2.3,1.62,1.62,0,0,0,0,2.3Z"/><path class="cls-1" d="M.78,52.53l0,0a1.63,1.63,0,0,0,2.3-.08h0a1.63,1.63,0,0,0-2.3-2.3,1.62,1.62,0,0,0,0,2.3Z"/><path class="cls-1" d="M.77,59.42l.06.06a1.61,1.61,0,0,0,2.28-.1h0a1.63,1.63,0,1,0-2.3-2.3,1.62,1.62,0,0,0,0,2.3Z"/><path class="cls-1" d="M14.56,25a1.61,1.61,0,0,0,2.28,0,1.39,1.39,0,0,0,.25-.38L15.81,24l-.17-.07-1.43-.72A1.62,1.62,0,0,0,14.54,25Z"/><path class="cls-1" d="M28.3,31.89a1.64,1.64,0,0,0,2.3,0,1.69,1.69,0,0,0,.23-.36L28,30.09a1.63,1.63,0,0,0,.33,1.8Z"/><path class="cls-1" d="M.77,38.78a1.63,1.63,0,0,0,2.25,0H3a1.63,1.63,0,1,0-2.3,0Z"/><path class="cls-1" d="M21.47,38.73a1.61,1.61,0,0,0,2.28,0h0a1.62,1.62,0,0,0,0-2.3,1.63,1.63,0,1,0-2.3,2.3Z"/><path class="cls-1" d="M7.65,52.54s0,0,0,.05a1.63,1.63,0,0,0,2.3-.1h0a1.63,1.63,0,0,0-2.3-2.3,1.62,1.62,0,0,0,0,2.3Z"/><path class="cls-1" d="M21.42,31.89l.09.09a1.63,1.63,0,0,0,2.29-.18h0a1.62,1.62,0,0,0,0-2.3,1.63,1.63,0,1,0-2.3,2.3Z"/><path class="cls-1" d="M28.3,38.77a1.14,1.14,0,0,0,.11.11,1.61,1.61,0,0,0,2.27-.2h0a1.62,1.62,0,0,0,0-2.3,1.63,1.63,0,0,0-2.3,2.3Z"/><path class="cls-1" d="M14.53,45.66h0a1.63,1.63,0,0,0,2.3-.08.6.6,0,0,0,.08-.08,1.63,1.63,0,1,0-2.3.07Z"/><path class="cls-1" d="M14.54,38.77a.94.94,0,0,0,.1.1,1.61,1.61,0,0,0,2.27-.18h0a1.62,1.62,0,0,0,0-2.3,1.63,1.63,0,1,0-2.3,2.3Z"/><path class="cls-1" d="M1.06,25.12a1.63,1.63,0,1,0-.21-.21Z"/><path class="cls-1" d="M.76,31.89.87,32a1.61,1.61,0,0,0,2.27-.2h0a1.62,1.62,0,0,0,0-2.3,1.63,1.63,0,1,0-2.3,2.3Z"/><path class="cls-1" d="M7.66,31.89l.09.09A1.6,1.6,0,0,0,10,31.8l0,0a1.63,1.63,0,1,0-2.3,0Z"/><path class="cls-1" d="M7.65,38.78a.6.6,0,0,0,.08.08A1.63,1.63,0,0,0,10,38.68h0a1.63,1.63,0,1,0-2.3,0Z"/><path class="cls-1" d="M14.58,31.84l0,0a1.61,1.61,0,0,0,2.28-.08l0,0a1.63,1.63,0,1,0-2.3,0Z"/><path class="cls-1" d="M2.93,45.57a1.62,1.62,0,0,0,.21-2.29l-.21-.21a1.63,1.63,0,1,0,0,2.5Z"/><g id="freepik--character-1--inject-63"><path class="cls-2" d="M9.37,160.29c27.06,17.82,64.07,34.84,72.95,34.86,11.23,0,53.23-24.84,55.4-26.47,5.25-4.1-17.68-42.64-23.5-38.51-8.85,6.3-32.33,24.73-35.69,24.61S48.85,151,20.32,145.72C.63,142.12-7.41,149.21,9.37,160.29Z"/><path class="cls-2" d="M134.13,170.46c-5.54.79-25.18-29.21-22.43-34.24a75.22,75.22,0,0,0,7-30c-.19-9.5-1.55-23.5,3.56-23.85,7.43-.44,11.28,17.14,12.87,27.38,4.43-3.49,8.56-6.08,11.52-6.71,9.82-2.09,24.64,40.6,18.16,48.49C158.53,159.11,139.67,169.67,134.13,170.46Z"/><rect class="cls-3" x="130.72" y="95.56" width="11.15" height="49.02" transform="translate(-39.7 75.15) rotate(-27.06)"/><polygon class="cls-4" points="170.35 168.28 155.33 175.95 155.33 175.95 135.57 137.24 150.58 129.57 150.58 129.57 170.35 168.28"/><path class="cls-2" d="M132.13,109.22c-.76,5.17,5.76,3.09,5.76,3.09s-8.66,5.26-7.37,10.88,9,2.63,9.58,2.43c-.45.29-8.29,5.31-6.41,10.83s9.28,1.59,9.75,1.33c-.33.4-4.83,5.77-2.46,9.65,4.07,6.71,16-6.72,22.27-6.9,0,0,1.43,10.68,1.55,11,0,0,11.56-12.54,10.92-21a5.43,5.43,0,0,0-4.58-5s4.16-3.64,2.84-8c-.71-2.25-4.92-3.16-4.92-3.16a6.82,6.82,0,0,0,1.79-6.88c-1.14-3.06-5.18-3.48-5.18-3.48s1.68-4.36-.46-7.11C160.85,91.19,133.74,98.18,132.13,109.22Z"/><path class="cls-4" d="M165,103.55a48.57,48.57,0,0,0-27.5,8.85c-.25.18,0,.67.27.52A99.41,99.41,0,0,1,165,103.7Z"/><path class="cls-4" d="M169.18,114.14c.11,0,0-.2,0-.2a45.44,45.44,0,0,0-29.4,11.52c-.28.25-.26.77,0,.48C145.56,121.31,160.26,115.64,169.18,114.14Z"/><path class="cls-4" d="M143.07,138.5c8-7,17.43-10.69,27.65-13.13.13,0,.08-.2,0-.22-5.34-.16-11.75,2-16.5,4.22a27.75,27.75,0,0,0-11.36,8.86C142.7,138.38,142.86,138.65,143.07,138.5Z"/><path class="cls-4" d="M137.72,112.26c-.3.24.35.42,0,.66-1.24,1-8.18,7.53-6.72,10.59,1.21,2.43,5.33,2.52,6.92,1.93l4-1.5-3.24,2.79A17.91,17.91,0,0,0,135,131a6.33,6.33,0,0,0-.91,5,3.6,3.6,0,0,0,3.73,2.69,11,11,0,0,0,5.15-1.68l4.35-2.59-3.26,3.86a16.91,16.91,0,0,0-2.28,3.51,6.76,6.76,0,0,0-.74,3.85,3.21,3.21,0,0,0,2.18,2.6,7.1,7.1,0,0,0,4-.46A56.29,56.29,0,0,0,155,144c1.31-.7,2.62-1.42,4-2.08a10.41,10.41,0,0,1,4.24-1.32,11.39,11.39,0,0,0-4,1.67c-1.28.76-2.5,1.57-3.74,2.39a48.26,48.26,0,0,1-7.84,4.4,8.4,8.4,0,0,1-4.74.7,4.6,4.6,0,0,1-3.35-3.73,8.4,8.4,0,0,1,.8-4.78,18,18,0,0,1,2.49-4l1.1,1.27a12.43,12.43,0,0,1-6.07,2.05,5.14,5.14,0,0,1-3.36-1.05,5.9,5.9,0,0,1-1.91-2.89,7.88,7.88,0,0,1,1.14-6.38,18.84,18.84,0,0,1,4.13-4.68l.75,1.31c-2.05.68-6.71,1.1-9-2.46C127.23,119.31,136,113.25,137.72,112.26Z"/><path class="cls-4" d="M137.82,112.31a10.18,10.18,0,0,1-3.21-.12,2.45,2.45,0,0,1-1.88-1.57,5.09,5.09,0,0,1,.26-2.81c.33-1,.73-2,1.19-3.07a8.39,8.39,0,0,0-2.24,2.64,4.78,4.78,0,0,0-.58,3.67,3.33,3.33,0,0,0,1.22,1.68,3.53,3.53,0,0,0,1.88.61A5.68,5.68,0,0,0,137.82,112.31Z"/><path class="cls-1" d="M112.09,127.59l24.15,49.2s-41.11,21.62-53.08,20.88-54.27-23.2-72.68-36.07-10-20.15,7-17.19,58.75,9.72,60.21,9.26S112.09,127.59,112.09,127.59Z"/><path class="cls-4" d="M117.11,163c-2.81-5.85-5.58-11.75-8.6-17.45-1.68-3.25-3.36-6.51-5.17-9.75a.14.14,0,0,0-.19,0,.12.12,0,0,0,0,.11c2.58,6,5.2,11.95,8,17.8s5.66,11.66,8.58,17.45c1.68,3.36,3.36,6.52,5.27,9.71h.12C122.71,174.69,119.94,168.83,117.11,163Z"/><path class="cls-5" d="M83.3,197.67h-.15c-12-.72-54.26-23.2-72.67-36.07-12.76-8.9-12.64-15.11-5.74-17.14C26.44,158.91,56.84,179.44,83.3,197.67Z"/><path class="cls-6" d="M115.37,100.5a24.43,24.43,0,0,0,4.38-1.1c.64-.23,1.28-.48,1.91-.76.2-.07.41-.18.61-.26L131.2,94a19.91,19.91,0,0,1-2.52,1,18.68,18.68,0,0,1-2.21.65c-.7.18-1.42.33-2.18.45-18.37,3-38.61-14.1-45.16-38-5.08-18.4-.57-35.53,10.2-43.75a24.11,24.11,0,0,1,4.28-2.63l-9,4.4h0c-.38.18-.77.38-1.14.58s-.66.36-1,.57l-.43.27-.7.46c-.12.09-.27.18-.39.28-6.76,4.86-11.18,13.15-12.48,23.08,0,.51-.12,1-.16,1.49a54,54,0,0,0,1.86,19.59C76.74,86.4,97,103.42,115.37,100.5Z"/><path class="cls-6" d="M151.56,46.75c6.67,24.28-.85,46.64-17,54.41l-9,4.32c16.16-7.74,23.68-30.11,17-54.4-7.73-28-31.46-48-53-44.57A28.55,28.55,0,0,0,84.4,7.8c-1,.36-2,.76-3,1.21l8.93-4.32a29.57,29.57,0,0,1,3-1.22,28.44,28.44,0,0,1,5.12-1.29C120.08-1.22,143.83,18.75,151.56,46.75Z"/><path class="cls-7" d="M117.43,108a30.34,30.34,0,0,0,5.13-1.29,27,27,0,0,0,3.56-1.48h.11c.48-.24.94-.5,1.4-.78a7.11,7.11,0,0,0,.83-.51,31.27,31.27,0,0,0,9.49-9.5c.56-.84,1.1-1.74,1.59-2.66h0a40.61,40.61,0,0,0,2-4.33c.19-.53.4-1,.58-1.49.35-1,.7-2.09,1-3.16s.57-2.22.79-3.35.42-2.28.56-3.46a62.77,62.77,0,0,0-1.95-24.73c-7.73-28-31.46-48-53-44.57-.89.13-1.77.33-2.63.53s-1.68.48-2.5.75L83,8.49l-.31.13-1.1.48C65.32,16.8,57.77,39.24,64.41,63.59,72.11,91.45,95.85,111.41,117.43,108ZM70.19,62.52A54,54,0,0,1,68.33,43a11.92,11.92,0,0,1,.16-1.49c1.3-9.93,5.72-18.23,12.48-23.08.12-.11.27-.2.39-.29l.7-.46.43-.27c.31-.2.64-.39,1-.56s.76-.4,1.15-.58h0a20.4,20.4,0,0,1,2.51-1c.73-.26,1.49-.47,2.22-.66s1.49-.31,2.16-.43c18.39-2.89,38.63,14.12,45.2,38,5.06,18.42.55,35.53-10.22,43.73a23.45,23.45,0,0,1-4.88,3c-.63.27-1.27.53-1.91.76a24.43,24.43,0,0,1-4.38,1.1C97,103.42,76.74,86.4,70.19,62.52Z"/><path class="cls-8" d="M124.37,96.17c.76-.12,1.48-.27,2.17-.45,10.77-8.2,15.28-25.31,10.22-43.73C130.19,28.16,110,11.11,91.56,14c-.74.12-1.49.25-2.16.43C78.63,22.65,74.12,39.75,79.2,58.18,85.75,82.07,106,99.09,124.37,96.17Z"/><g class="cls-9"><path class="cls-10" d="M78.4,32.39l52.92,6.23a57.31,57.31,0,0,0-5.14-7.76L80.76,25.51A36.3,36.3,0,0,0,78.4,32.39Z"/><path class="cls-10" d="M86,17.54l30.21,3.56c-7.64-5.64-16.39-8.41-24.67-7.1-.74.12-1.48.25-2.15.43A27,27,0,0,0,86,17.54Z"/><path class="cls-10" d="M77.41,37.89l56.78,6.68c-.53-1.29-1.11-2.56-1.74-3.78L78,34.37C77.73,35.56,77.55,36.68,77.41,37.89Z"/><path class="cls-10" d="M94.15,84.27a46.79,46.79,0,0,0,4.66,4.13l31.56,3.72a26.71,26.71,0,0,0,2.51-3.29Z"/><path class="cls-10" d="M84.55,71.45l53,6.24A46.84,46.84,0,0,0,138.65,63L78.59,55.87c.18.76.37,1.49.58,2.31A61.15,61.15,0,0,0,84.55,71.45Z"/></g></g></svg>