<?xml version="1.0" encoding="utf-8"?>
<!-- Generator: Adobe Illustrator 25.0.0, SVG Export Plug-In . SVG Version: 6.00 Build 0)  -->
<svg version="1.1" id="Layer_1" xmlns="http://www.w3.org/2000/svg" xmlns:xlink="http://www.w3.org/1999/xlink" x="0px"
	y="0px" width="512px" height="512px" viewBox="0 0 512 512" style="enable-background:new 0 0 512 512;"
	xml:space="preserve">
	<style type="text/css">
		.st0 {
			fill: #6074CB;
		}

		.st1 {
			fill: #f2b434;
		}
	</style>
	<path class="st0" d="M89.4,503L89.4,503c-9.1,0-18.1-1.4-26.7-4.1s-16.7-6.6-24.1-11.7c-15.4-10.6-26.9-25.5-33.2-43.1
	C1.8,434.3,0,424,0,413.6c0-0.4,0-0.8,0-1.3c0-2.9,1.2-5.6,3.3-7.7s4.9-3.2,7.9-3.2c2.9,0,5.7,1.2,7.7,3.3c2,2.1,3.1,4.9,3.1,7.8
	c0,0.3,0,0.6,0,1c0,7.8,1.4,15.5,4.1,23c9.6,26.6,35.1,44.4,63.3,44.4c7.8,0,15.5-1.4,23-4l124.7-45.2c0,0,0,0,0.1,0
	c1.2-0.4,2.5-0.7,3.7-0.7c4.6,0,8.8,2.9,10.3,7.2c0.4,1.2,0.7,2.5,0.7,3.8c0,4.6-2.9,8.7-7.2,10.3l0,0l0,0c0,0,0,0-0.1,0
	l-124.7,45.2C110,501.2,99.8,503,89.4,503L89.4,503z M278,424.8c-2.3,0-4.5-0.7-6.3-2c-2.4-1.7-4-4.2-4.5-7.1s0.2-5.8,1.9-8.2
	c2.1-2.9,5.4-4.6,9-4.6c2.3,0,4.5,0.7,6.4,2c2.4,1.7,4,4.2,4.5,7.1s-0.2,5.8-1.9,8.2l0,0C284.9,423.1,281.6,424.8,278,424.8
	L278,424.8z M292.5,380.5h-0.2c-6.1-0.1-10.9-5.1-10.8-11.2c0-0.3,0-0.6,0-0.9c0-7.8-1.4-15.5-4.1-23c-6.3-17.4-19.1-31.1-36.1-38.6
	c-8.7-3.9-17.9-5.8-27.3-5.8c-7.8,0-15.5,1.4-23,4.1L66.4,350.3c-1.2,0.4-2.5,0.7-3.8,0.7c-4.6,0-8.8-2.9-10.3-7.2
	c-0.4-1.2-0.7-2.5-0.7-3.8c0-4.6,2.9-8.7,7.2-10.3l0,0l0,0c0,0,0,0,0.1,0l124.6-45.2c9.8-3.6,20.1-5.4,30.4-5.4
	c12.5,0,24.7,2.6,36.2,7.7c10.9,4.8,20.5,11.6,28.7,20.3c8.5,8.9,14.9,19.4,19.1,31c3.6,9.8,5.4,20.1,5.4,30.5c0,0.4,0,0.8,0,1.2
	c0,2.9-1.2,5.6-3.3,7.7C298.2,379.4,295.4,380.5,292.5,380.5L292.5,380.5z M25.5,379.2c-2.3,0-4.5-0.7-6.4-2
	c-5-3.5-6.1-10.4-2.6-15.3l0,0c2.1-2.9,5.4-4.6,9-4.6c2.3,0,4.5,0.7,6.4,2c4.9,3.5,6.1,10.4,2.6,15.3l0,0
	C32.5,377.5,29.1,379.2,25.5,379.2L25.5,379.2z" />
	<path class="st0" d="M296.2,427.7c-12.5,0-24.7-2.6-36.2-7.7c-10.9-4.8-20.5-11.6-28.7-20.3c-8.5-8.9-14.9-19.4-19.1-31
	c-3.6-9.8-5.4-20.1-5.4-30.5c0-0.5,0-0.9,0-1.3c0-2.9,1.2-5.6,3.3-7.7s4.9-3.2,7.9-3.2c2.9,0,5.7,1.2,7.7,3.3c2,2.1,3.1,4.9,3.1,7.8
	v1c0,7.8,1.4,15.5,4,23c6.3,17.4,19.1,31.1,36.1,38.6c8.7,3.9,17.9,5.8,27.3,5.8c7.8,0,15.5-1.4,23-4.1l124.7-45.2c0,0,0,0,0.1,0
	l0,0c1.2-0.4,2.5-0.7,3.7-0.7c4.6,0,8.8,2.9,10.3,7.2c0.5,1.2,0.7,2.5,0.7,3.8c0,4.6-2.9,8.7-7.2,10.3c0,0,0,0-0.1,0c0,0,0,0-0.1,0
	L326.6,422C316.8,425.9,306.6,427.7,296.2,427.7L296.2,427.7z M484.8,349.5c-2.3,0-4.5-0.7-6.4-2c-2.4-1.7-4-4.2-4.5-7.1
	s0.2-5.8,1.9-8.2c2.1-2.9,5.4-4.6,9-4.6c2.3,0,4.5,0.7,6.4,2c5,3.5,6.1,10.4,2.6,15.3C491.7,347.8,488.4,349.5,484.8,349.5
	L484.8,349.5z M499.3,305.2h-0.2c-2.9,0-5.7-1.2-7.7-3.3c-2.1-2.1-3.2-4.9-3.1-7.8v-0.9c0-7.8-1.4-15.5-4-22.9
	c-9.6-26.6-35.1-44.4-63.4-44.4c-7.8,0-15.5,1.4-23,4.1l-124.7,45l0,0c-1.8,0.7-3.8,0.8-5.8,0.5c-3.8-0.7-7-3.4-8.3-7.1
	c-1-2.8-0.9-5.7,0.4-8.4c1.2-2.7,3.4-4.7,6.2-5.7h0.1l124.6-45.2c9.8-3.6,20.1-5.4,30.4-5.4l0,0c9.1,0,18,1.4,26.7,4.1
	c8.6,2.7,16.7,6.6,24.1,11.7c15.4,10.6,26.9,25.5,33.2,43.1c3.6,9.8,5.4,20.1,5.4,30.4v1.2c0,2.9-1.2,5.6-3.3,7.7
	C504.9,304,502.2,305.2,499.3,305.2L499.3,305.2z M232.3,303.9c-2.3,0-4.5-0.7-6.4-2c-2.4-1.7-4-4.2-4.5-7.1s0.2-5.8,1.9-8.2
	c2.1-2.9,5.4-4.6,9-4.6c2.3,0,4.5,0.7,6.4,2c2.4,1.7,4,4.2,4.5,7.1s-0.2,5.8-1.9,8.2C239.2,302.1,235.9,303.9,232.3,303.9
	L232.3,303.9z" />
	<path class="st1"
		d="M500.2,507.1h-220c-6.1,0-11-4.9-11-11s4.9-11,11-11h220c6.1,0,11,4.9,11,11S506.3,507.1,500.2,507.1z" />
	<path class="st1"
		d="M500.2,474.1h-143c-6.1,0-11-4.9-11-11s4.9-11,11-11h143c6.1,0,11,4.9,11,11S506.3,474.1,500.2,474.1z" />
	<path class="st1"
		d="M500.2,441.1h-99c-6.1,0-11-4.9-11-11s4.9-11,11-11h99c6.1,0,11,4.9,11,11S506.3,441.1,500.2,441.1z" />
	<path class="st1"
		d="M500.2,408.1h-33c-6.1,0-11-4.9-11-11s4.9-11,11-11h33c6.1,0,11,4.9,11,11S506.3,408.1,500.2,408.1z" />
	<path class="st0" d="M92.9,116.1c-8.9,8.2-19.1,12.3-30.8,12.3c-7.7,0-14.9-1.4-21.7-4.4c-6.8-2.9-12.7-7-17.8-12.3
	s-9.1-11.6-12.1-19S6.1,77.2,6.1,68.3c0-8,1.5-15.6,4.4-22.7s7-13.3,12.3-18.6c5.2-5.3,11.4-9.4,18.5-12.5s14.8-4.6,23-4.6
	c10.9,0,20.3,2.3,28.5,6.8c8.1,4.6,14.2,10.8,18.3,18.7L91,50.6c-2.6-5.3-6.4-9.4-11.4-12.3c-5-2.9-10.4-4.4-16.2-4.4
	c-4.5,0-8.6,0.9-12.3,2.7c-3.7,1.8-6.8,4.3-9.5,7.6c-2.6,3.2-4.7,7-6.1,11.3c-1.4,4.3-2.1,8.9-2.1,13.8c0,5,0.8,9.7,2.3,14
	s3.7,8,6.4,11.1s6,5.6,9.8,7.3c3.8,1.8,8,2.6,12.6,2.6c10.5,0,20-4.9,28.5-14.6v-3.6H70.3V66.6h45.1v61H92.9V116.1z" />
	<path class="st0" d="M133.1,127.6V10.8h43.6c9.6,0,18.1,1.5,25.3,4.6s13.3,7.2,18.2,12.5s8.6,11.4,11,18.5
	c2.5,7.1,3.7,14.6,3.7,22.6c0,8.9-1.4,16.9-4.1,24.1c-2.7,7.2-6.7,13.3-11.8,18.4s-11.2,9-18.4,11.8s-15.2,4.2-23.9,4.2L133.1,127.6
	z M207.4,69.1c0-5.2-0.7-9.8-2.1-14.1c-1.4-4.2-3.4-7.9-6-10.9c-2.6-3.1-5.9-5.4-9.7-7.1c-3.8-1.6-8.2-2.5-13-2.5H160v69.4h16.6
	c4.9,0,9.3-0.9,13.2-2.6c3.8-1.8,7-4.2,9.6-7.3c2.6-3.1,4.6-6.8,5.9-11C206.7,78.7,207.4,74.1,207.4,69.1L207.4,69.1z" />
	<path class="st0" d="M250.8,127.6V10.8h49.8c5.6,0,10.7,1.2,15.4,3.5c4.7,2.3,8.7,5.3,12,9s6,7.9,7.9,12.7c1.9,4.7,2.9,9.5,2.9,14.3
	c0,5.2-0.9,10.1-2.7,14.8c-1.8,4.7-4.3,8.9-7.6,12.7c-3.2,3.7-7.2,6.7-11.8,8.9c-4.6,2.2-9.7,3.3-15.3,3.3h-23.7v37.7L250.8,127.6z
	 M277.8,66.4h22c3.2,0,5.9-1.4,8.2-4.1c2.3-2.7,3.5-6.7,3.5-12c0-2.7-0.4-5.1-1.1-7.1s-1.7-3.6-2.9-4.9c-1.2-1.3-2.6-2.3-4.1-2.9
	c-1.5-0.6-3.1-0.9-4.6-0.9h-21.1L277.8,66.4z" />
	<path class="st0" d="M353.3,127.6V10.8H406c5.5,0,10.5,1.2,15.2,3.5s8.7,5.3,12.1,9s6.1,7.9,8,12.7c1.9,4.7,2.9,9.5,2.9,14.3
	c0,3.6-0.4,7.1-1.3,10.4s-2.1,6.5-3.8,9.5c-1.6,3-3.6,5.6-6,8s-5,4.4-8,6l25.7,43.4h-30.4L398,89.9h-17.6v37.7L353.3,127.6z
	 M380.3,66.4H405c3.2,0,5.9-1.5,8.2-4.5c2.3-3,3.5-6.9,3.5-11.6c0-4.8-1.3-8.7-3.9-11.5c-2.6-2.9-5.5-4.3-8.6-4.3h-23.9L380.3,66.4z
	" />
	<g>
		<path class="st1" d="M83.9,199.9v10.8H60.7v-9c-6.2,6.7-13.6,10.1-22.1,10.1c-6,0-11.2-1.4-15.8-4.2s-8.1-6.6-10.6-11.4
		c-2.5-4.8-3.8-10.1-3.8-16c0-6,1.3-11.4,4-16.4s6.4-9,11.1-12s9.9-4.4,15.4-4.4c4,0,7.8,0.8,11.4,2.4c3.6,1.6,7.1,4.1,10.4,7.6V133
		H48.8v-10.7h24V200h11.1V199.9z M40.8,201c3.8,0,7.1-1,10.2-3c3-2,5.4-4.7,7.1-8c1.7-3.3,2.6-6.9,2.6-10.7s-0.9-7.3-2.6-10.5
		c-1.7-3.2-4.1-5.7-7.2-7.5c-3.1-1.8-6.5-2.8-10.3-2.8c-3.7,0-7,1-10,3c-2.9,2-5.2,4.6-6.9,7.9c-1.7,3.3-2.5,6.8-2.5,10.5
		c0,4,0.9,7.6,2.6,10.8s4.1,5.7,7,7.6C33.8,200.1,37.2,201,40.8,201z" />
		<path class="st1" d="M119.5,199.9v10.8H88.4v-10.8H98v-40.1h-9.6V149h21.8v50.9H119.5z M110.9,137.9c0,2-0.7,3.7-2.2,5.2
		c-1.4,1.4-3.2,2.2-5.2,2.2s-3.7-0.7-5.1-2.2c-1.4-1.4-2.1-3.2-2.1-5.2s0.7-3.7,2.1-5.2c1.4-1.4,3.1-2.2,5.1-2.2
		c2.1,0,3.8,0.7,5.2,2.1S110.9,135.8,110.9,137.9z" />
		<path class="st1"
			d="M149.3,186v14h13.5v10.8h-37.9V200h12.4v-40.1h-12.4V149h22v14c2.5-5.5,5.5-9.4,9.2-11.5
		c3.7-2.2,8.9-3.3,15.7-3.3h2.8v12.3H172c-6.6,0-11.5,0.9-14.7,2.6c-3.2,1.7-5.3,4.3-6.4,7.8C149.8,174.3,149.3,179.4,149.3,186z" />
		<path class="st1" d="M239.3,183h-51.7c0.7,5.9,3,10.6,6.9,14c3.8,3.4,8.5,5.1,14.1,5.1c4.1,0,7.9-0.8,11.3-2.5
		c3.5-1.7,6.4-4.3,8.8-7.8l10.7,4.8c-3.4,5.2-7.8,9.2-13.2,11.9c-5.5,2.7-11.4,4-17.8,4c-6.7,0-12.6-1.4-17.7-4.2
		c-5.2-2.8-9.2-6.7-12.1-11.6c-2.9-5-4.3-10.6-4.3-16.8s1.4-11.8,4.3-16.7c2.8-5,6.7-8.9,11.7-11.7c4.9-2.8,10.4-4.2,16.3-4.2
		c6.5,0,12.2,1.4,17,4.3c4.8,2.9,8.6,7,11.4,12.3C237.5,169.4,239,175.7,239.3,183z M206.5,157.5c-4.6,0-8.6,1.5-12,4.6
		s-5.7,7.1-6.6,12.2h38.6c-1.1-5.1-3.5-9.1-7.2-12.2C215.6,159,211.4,157.5,206.5,157.5z" />
		<path class="st1" d="M296,153.5V149h10.8v23.4H296c-0.5-4.5-2.3-7.9-5.4-10.3c-3.1-2.4-6.8-3.6-10.9-3.6c-3.5,0-6.7,0.9-9.5,2.8
		c-2.8,1.9-5,4.4-6.5,7.6c-1.5,3.2-2.3,6.7-2.3,10.5c0,6.5,1.7,11.7,5.2,15.8c3.4,4.1,8,6.1,13.6,6.1c8.7,0,14.9-4.1,18.5-12.2
		l10.1,4.8c-5.7,12.3-15.4,18.4-29.1,18.4c-6.1,0-11.6-1.4-16.4-4.3c-4.8-2.9-8.5-6.9-11.1-11.9c-2.6-5.1-3.9-10.7-3.9-16.8
		c0-6,1.3-11.5,4-16.4c2.6-4.9,6.3-8.8,10.9-11.5c4.6-2.8,9.8-4.1,15.4-4.1C285.5,147.4,291.2,149.4,296,153.5z" />
		<path class="st1" d="M347.3,149v10.9H336v32.4c0,3.4,0.4,5.6,1.1,6.5c0.7,1,2,1.5,3.7,1.5c2.2,0,4.3-0.4,6.5-1.1v11
		c-3.8,1.1-6.8,1.6-9.1,1.6c-5.1,0-8.8-1.3-11-3.8c-2.2-2.6-3.3-7-3.3-13.2v-34.9h-8V149h8v-9.3l12.2-11.1V149H347.3z" />
	</g>
</svg>