<?xml version="1.0" encoding="utf-8"?>
<!-- Generator: Adobe Illustrator 25.0.0, SVG Export Plug-In . SVG Version: 6.00 Build 0)  -->
<svg version="1.1" id="Layer_1" xmlns="http://www.w3.org/2000/svg" xmlns:xlink="http://www.w3.org/1999/xlink" x="0px"
	y="0px" width="511.2px" height="303.4px" viewBox="0 0 511.2 303.4" style="enable-background:new 0 0 511.2 303.4;"
	xml:space="preserve">
	<style type="text/css">
		.st0 {
			fill: #6074CB;
		}

		.st1 {
			fill: #f2b434;
		}
	</style>
	<g>
		<path class="st0" d="M89.4,299.3L89.4,299.3c-9.1,0-18.1-1.4-26.7-4.1s-16.7-6.6-24.1-11.7C23.2,272.9,11.7,258,5.4,240.4
		C1.8,230.6,0,220.3,0,209.9c0-0.4,0-0.8,0-1.3c0-2.9,1.2-5.6,3.3-7.7s4.9-3.2,7.9-3.2c2.9,0,5.7,1.2,7.7,3.3c2,2.1,3.1,4.9,3.1,7.8
		c0,0.3,0,0.6,0,1c0,7.8,1.4,15.5,4.1,23c9.6,26.6,35.1,44.4,63.3,44.4c7.8,0,15.5-1.4,23-4L237.1,228c0,0,0,0,0.1,0
		c1.2-0.4,2.5-0.7,3.7-0.7c4.6,0,8.8,2.9,10.3,7.2c0.4,1.2,0.7,2.5,0.7,3.8c0,4.6-2.9,8.7-7.2,10.3l0,0l0,0c0,0,0,0-0.1,0
		l-124.7,45.2C110,297.5,99.8,299.3,89.4,299.3L89.4,299.3z M278,221.1c-2.3,0-4.5-0.7-6.3-2c-2.4-1.7-4-4.2-4.5-7.1
		s0.2-5.8,1.9-8.2c2.1-2.9,5.4-4.6,9-4.6c2.3,0,4.5,0.7,6.4,2c2.4,1.7,4,4.2,4.5,7.1s-0.2,5.8-1.9,8.2l0,0
		C284.9,219.4,281.6,221.1,278,221.1L278,221.1z M292.5,176.8h-0.2c-6.1-0.1-10.9-5.1-10.8-11.2c0-0.3,0-0.6,0-0.9
		c0-7.8-1.4-15.5-4.1-23c-6.3-17.4-19.1-31.1-36.1-38.6c-8.7-3.9-17.9-5.8-27.3-5.8c-7.8,0-15.5,1.4-23,4.1L66.4,146.6
		c-1.2,0.4-2.5,0.7-3.8,0.7c-4.6,0-8.8-2.9-10.3-7.2c-0.4-1.2-0.7-2.5-0.7-3.8c0-4.6,2.9-8.7,7.2-10.3l0,0l0,0c0,0,0,0,0.1,0
		l124.6-45.2c9.8-3.6,20.1-5.4,30.4-5.4c12.5,0,24.7,2.6,36.2,7.7c10.9,4.8,20.5,11.6,28.7,20.3c8.5,8.9,14.9,19.4,19.1,31
		c3.6,9.8,5.4,20.1,5.4,30.5c0,0.4,0,0.8,0,1.2c0,2.9-1.2,5.6-3.3,7.7C298.2,175.7,295.4,176.8,292.5,176.8L292.5,176.8z
		 M25.5,175.5c-2.3,0-4.5-0.7-6.4-2c-5-3.5-6.1-10.4-2.6-15.3l0,0c2.1-2.9,5.4-4.6,9-4.6c2.3,0,4.5,0.7,6.4,2
		c4.9,3.5,6.1,10.4,2.6,15.3l0,0C32.5,173.8,29.1,175.5,25.5,175.5L25.5,175.5z" />
		<path class="st0" d="M296.2,224c-12.5,0-24.7-2.6-36.2-7.7c-10.9-4.8-20.5-11.6-28.7-20.3c-8.5-8.9-14.9-19.4-19.1-31
		c-3.6-9.8-5.4-20.1-5.4-30.5c0-0.5,0-0.9,0-1.3c0-2.9,1.2-5.6,3.3-7.7s4.9-3.2,7.9-3.2c2.9,0,5.7,1.2,7.7,3.3
		c2,2.1,3.1,4.9,3.1,7.8v1c0,7.8,1.4,15.5,4,23c6.3,17.4,19.1,31.1,36.1,38.6c8.7,3.9,17.9,5.8,27.3,5.8c7.8,0,15.5-1.4,23-4.1
		l124.7-45.2c0,0,0,0,0.1,0l0,0c1.2-0.4,2.5-0.7,3.7-0.7c4.6,0,8.8,2.9,10.3,7.2c0.5,1.2,0.7,2.5,0.7,3.8c0,4.6-2.9,8.7-7.2,10.3
		c0,0,0,0-0.1,0c0,0,0,0-0.1,0l-124.7,45.2C316.8,222.2,306.6,224,296.2,224L296.2,224z M484.8,145.8c-2.3,0-4.5-0.7-6.4-2
		c-2.4-1.7-4-4.2-4.5-7.1s0.2-5.8,1.9-8.2c2.1-2.9,5.4-4.6,9-4.6c2.3,0,4.5,0.7,6.4,2c5,3.5,6.1,10.4,2.6,15.3
		C491.7,144.1,488.4,145.8,484.8,145.8L484.8,145.8z M499.3,101.5h-0.2c-2.9,0-5.7-1.2-7.7-3.3c-2.1-2.1-3.2-4.9-3.1-7.8v-0.9
		c0-7.8-1.4-15.5-4-22.9c-9.6-26.6-35.1-44.4-63.4-44.4c-7.8,0-15.5,1.4-23,4.1l-124.7,45l0,0c-1.8,0.7-3.8,0.8-5.8,0.5
		c-3.8-0.7-7-3.4-8.3-7.1c-1-2.8-0.9-5.7,0.4-8.4c1.2-2.7,3.4-4.7,6.2-5.7h0.1L390.4,5.4c9.8-3.6,20.1-5.4,30.4-5.4l0,0
		c9.1,0,18,1.4,26.7,4.1c8.6,2.7,16.7,6.6,24.1,11.7c15.4,10.6,26.9,25.5,33.2,43.1c3.6,9.8,5.4,20.1,5.4,30.4v1.2
		c0,2.9-1.2,5.6-3.3,7.7C504.9,100.3,502.2,101.5,499.3,101.5L499.3,101.5z M232.3,100.2c-2.3,0-4.5-0.7-6.4-2
		c-2.4-1.7-4-4.2-4.5-7.1s0.2-5.8,1.9-8.2c2.1-2.9,5.4-4.6,9-4.6c2.3,0,4.5,0.7,6.4,2c2.4,1.7,4,4.2,4.5,7.1s-0.2,5.8-1.9,8.2
		C239.2,98.4,235.9,100.2,232.3,100.2L232.3,100.2z" />
		<path class="st1"
			d="M500.2,303.4h-220c-6.1,0-11-4.9-11-11s4.9-11,11-11h220c6.1,0,11,4.9,11,11S506.3,303.4,500.2,303.4z" />
		<path class="st1"
			d="M500.2,270.4h-143c-6.1,0-11-4.9-11-11s4.9-11,11-11h143c6.1,0,11,4.9,11,11S506.3,270.4,500.2,270.4z" />
		<path class="st1"
			d="M500.2,237.4h-99c-6.1,0-11-4.9-11-11s4.9-11,11-11h99c6.1,0,11,4.9,11,11S506.3,237.4,500.2,237.4z" />
		<path class="st1"
			d="M500.2,204.4h-33c-6.1,0-11-4.9-11-11s4.9-11,11-11h33c6.1,0,11,4.9,11,11S506.3,204.4,500.2,204.4z" />
	</g>
</svg>