<svg id="Layer_1" data-name="Layer 1" xmlns="http://www.w3.org/2000/svg" viewBox="0 0 200 200"><defs><style>.cls-1{fill:#f2b434;}.cls-2{fill:#f7a9a0;}.cls-3{fill:#fff;}.cls-4{fill:#263238;}.cls-5{fill:#020100;opacity:0.1;isolation:isolate;}</style></defs><path class="cls-1" d="M49.15,170.41H49a1.61,1.61,0,0,0-1.41,1.79v.18l3-1a1.59,1.59,0,0,0-1.35-.81Z"/><path class="cls-1" d="M49.15,112.08H49a1.61,1.61,0,0,0-1.5,1.72v0a1.63,1.63,0,1,0,1.61-1.64Z"/><path class="cls-1" d="M49.15,102.26H49a1.62,1.62,0,0,0-1.44,1.8h0a1.63,1.63,0,1,0,1.61-1.64Z"/><path class="cls-1" d="M39.42,170.41H39.2a1.62,1.62,0,0,0-1.41,1.79h0a1.63,1.63,0,1,0,1.63-1.62Z"/><path class="cls-1" d="M44.28,126.6H44.1a1.62,1.62,0,0,0-1.44,1.79h0a1.63,1.63,0,1,0,1.62-1.62Z"/><path class="cls-1" d="M44.28,116.87H44.1a1.62,1.62,0,0,0-1.44,1.8h0a1.63,1.63,0,1,0,1.62-1.63Z"/><path class="cls-1" d="M44.28,136.35h-.2a1.61,1.61,0,0,0-1.42,1.78v0a1.63,1.63,0,1,0,1.62-1.63Z"/><path class="cls-1" d="M44.28,165.55H44.1a1.61,1.61,0,0,0-1.44,1.79h0a1.63,1.63,0,1,0,1.62-1.63Z"/><path class="cls-1" d="M39.42,121.74H39.2a1.62,1.62,0,0,0-1.41,1.79h0a1.63,1.63,0,1,0,1.63-1.63Z"/><path class="cls-1" d="M44.28,146.07l-.24,0a1.62,1.62,0,0,0-1.38,1.84h0a1.63,1.63,0,1,0,1.62-1.62Z"/><path class="cls-1" d="M44.28,155.82H44a1.61,1.61,0,0,0-1.36,1.83h0a1.63,1.63,0,1,0,1.62-1.62Z"/><path class="cls-1" d="M39.42,115.49a1.61,1.61,0,0,0,1.19-2.71l-1.52,2.63a1.3,1.3,0,0,0,.33.07Z"/><path class="cls-1" d="M39.12,131.74a1.63,1.63,0,1,0,.3,0A1.5,1.5,0,0,0,39.12,131.74Z"/><path class="cls-1" d="M39.42,141.21l-.31,0a1.62,1.62,0,0,0-1.32,1.86h0a1.63,1.63,0,1,0,1.63-1.62Z"/><path class="cls-1" d="M39.42,150.94a1.6,1.6,0,0,0-1.63,1.88h0a1.63,1.63,0,1,0,1.63-1.62Z"/><path class="cls-1" d="M39.12,160.94a1.63,1.63,0,1,0,.3,0Z"/><path class="cls-1" d="M47.68,123.47a1.62,1.62,0,0,0,1.47,1.76h.29a1.62,1.62,0,1,0-1.76-1.76Z"/><path class="cls-1" d="M44.28,110.64a1.5,1.5,0,0,0,.3,0,1.63,1.63,0,0,0-.3-3.24,1.72,1.72,0,0,0-.63.12L42.79,109l-.09.18a1.59,1.59,0,0,0,1.58,1.45Z"/><path class="cls-1" d="M10.22,170.41a1.55,1.55,0,0,0-.31,0,1.61,1.61,0,0,0-1.32,1.86h0a1.63,1.63,0,1,0,1.63-1.63Z"/><path class="cls-1" d="M-.08,183.53a1.47,1.47,0,0,0,.55.12A1.63,1.63,0,0,0,2.1,182a1.61,1.61,0,0,0-.61-1.24Z"/><path class="cls-1" d="M34.55,165.55a1.51,1.51,0,0,0-.3,0,1.61,1.61,0,0,0-1.32,1.86h0a1.63,1.63,0,1,0,1.62-1.62Z"/><path class="cls-1" d="M34.55,126.6l-.3,0a1.62,1.62,0,0,0-1.32,1.87h0a1.63,1.63,0,1,0,1.62-1.63Z"/><path class="cls-1" d="M34.26,156.08a1.62,1.62,0,1,0,.29,3.23A1.64,1.64,0,0,0,36,157.84a1.62,1.62,0,0,0-1.48-1.76A1.4,1.4,0,0,0,34.26,156.08Z"/><path class="cls-1" d="M34.55,146.07l-.3,0A1.61,1.61,0,0,0,32.93,148h0a1.63,1.63,0,1,0,1.62-1.63Z"/><path class="cls-1" d="M28.2,142.94a1.64,1.64,0,0,0,1.48,1.77H30a1.63,1.63,0,1,0-1.77-1.77Z"/><path class="cls-1" d="M29.63,150.94l-.22,0a1.63,1.63,0,0,0-1.35,1.86v0a1.63,1.63,0,1,0,1.62-1.64Z"/><path class="cls-1" d="M15.08,165.55a1.59,1.59,0,0,0-1.62,1.88h0a1.63,1.63,0,1,0,1.62-1.62Z"/><path class="cls-1" d="M15.08,175.28a1.08,1.08,0,0,0-.31,0,1.61,1.61,0,0,0-1.31,1.86h0a1.63,1.63,0,1,0,1.62-1.63Z"/><path class="cls-1" d="M34.26,136.6a1.63,1.63,0,0,0,.29,3.24,1.63,1.63,0,0,0,0-3.24Z"/><path class="cls-1" d="M9.87,180.41a1.63,1.63,0,1,0,.29,3.24,1.63,1.63,0,0,0,0-3.24Z"/><path class="cls-1" d="M11.25,163.75a1.56,1.56,0,0,0,.44-.79Z"/><path class="cls-1" d="M49.15,131.48a1.33,1.33,0,0,0-.4,0,1.61,1.61,0,0,0-1.27,1.89v0a1.63,1.63,0,1,0,1.61-1.64Z"/><path class="cls-1" d="M34.55,175.28a1.18,1.18,0,0,0-.37,0,1.62,1.62,0,0,0-1.28,1.91v.14l.45-.14,1.15-.38,1.35-.45a1.55,1.55,0,0,0-1.35-.8Z"/><path class="cls-1" d="M29.63,160.68l-.35,0a1.62,1.62,0,0,0-1.27,1.9v0A1.63,1.63,0,1,0,29.62,161Z"/><path class="cls-1" d="M28.15,172.2A1.62,1.62,0,0,0,29.62,174h.3a1.63,1.63,0,1,0-1.77-1.76Z"/><path class="cls-1" d="M31.09,133.56a1.63,1.63,0,0,0-1.47-1.77l-1.35,2.44a1.58,1.58,0,0,0,1.35.8A1.62,1.62,0,0,0,31.09,133.56Z"/><path class="cls-1" d="M25.08,139.53a1.6,1.6,0,0,0,1.3-1.26,1.39,1.39,0,0,0-.12-.57l-.32.57L25,139.84Z"/><path class="cls-1" d="M3.81,176.58a1,1,0,0,0-.08.38,1.59,1.59,0,0,0,.4,1.08,1.61,1.61,0,1,0,2.41-2.14,1.59,1.59,0,0,0-2.27-.13Z"/><path class="cls-1" d="M5.34,185h-.1a1.62,1.62,0,0,0-1.56,1.67v.11l.3-.11,1.36-.42,1.35-.45a1.58,1.58,0,0,0-1.35-.75Z"/><path class="cls-1" d="M24.81,175.28h0A1.62,1.62,0,0,0,23.2,177h0a1.63,1.63,0,1,0,1.61-1.64Z"/><path class="cls-1" d="M23.34,167.07a1.63,1.63,0,0,0,1.47,1.77h.3a1.63,1.63,0,1,0-1.77-1.77Z"/><path class="cls-1" d="M24.81,155.82h0a1.61,1.61,0,0,0-1.56,1.66v0a1.63,1.63,0,1,0,1.61-1.64Z"/><path class="cls-1" d="M23.34,147.6a1.63,1.63,0,0,0,1.47,1.77h.3a1.63,1.63,0,1,0-1.77-1.77Z"/><path class="cls-1" d="M20,170.41h-.12a1.62,1.62,0,0,0-1.51,1.73h0A1.63,1.63,0,1,0,20,170.52Z"/><path class="cls-1" d="M20,160.68h-.13a1.61,1.61,0,0,0-1.5,1.71v0A1.63,1.63,0,1,0,20,160.79Z"/><path class="cls-1" d="M20,150.94h-.12a1.63,1.63,0,0,0-1.51,1.73h0A1.63,1.63,0,1,0,20,151.05Z"/><path class="cls-1" d="M20,180.16h-.09a1.61,1.61,0,0,0-1.5,1.72V182l2.94-1a1.59,1.59,0,0,0-1.35-.76Z"/><path class="cls-1" d="M16.62,158.1a1.62,1.62,0,0,0-1-2.07l-.57,1-.3.52-.72,1.25a1.73,1.73,0,0,0,1,.38A1.61,1.61,0,0,0,16.62,158.1Z"/><path class="cls-1" d="M58.89,121.74h-.14a1.61,1.61,0,0,0-1.48,1.73h0a1.63,1.63,0,1,0,1.62-1.62Z"/><path class="cls-1" d="M58.59,131.59a1.63,1.63,0,1,0,.3,0Z"/><path class="cls-1" d="M58.89,150.94h-.14a1.61,1.61,0,0,0-1.48,1.73h0a1.63,1.63,0,1,0,1.62-1.62Z"/><path class="cls-1" d="M54,91.07a1.6,1.6,0,0,0,.79-3L54,89.42h0l-.8,1.35A1.71,1.71,0,0,0,54,91Z"/><path class="cls-1" d="M63.73,87.68a1.62,1.62,0,0,0-1.6,1.63h0a1.63,1.63,0,1,0,1.63-1.63Z"/><path class="cls-1" d="M78.35,82.81h0a1.6,1.6,0,0,0-1.6,1.62v0a1.63,1.63,0,1,0,1.61-1.64Z"/><path class="cls-1" d="M76.88,64.82a1.64,1.64,0,0,0,1.47,1.77h.3a1.64,1.64,0,0,0,1.47-1.77,1.63,1.63,0,0,0-3.24,0Z"/><path class="cls-1" d="M47.68,142.68a1.62,1.62,0,0,0,1.47,1.77,1.4,1.4,0,0,0,.29,0,1.63,1.63,0,1,0-1.76-1.77Z"/><path class="cls-1" d="M78.35,47.11a1.49,1.49,0,0,0,1-.29,1.57,1.57,0,0,0,.38-2.19L78.35,47.1h0Z"/><path class="cls-1" d="M76.74,152.57h0a1.63,1.63,0,1,0,1.61-1.64A1.62,1.62,0,0,0,76.74,152.58Z"/><path class="cls-1" d="M58.86,141.21a1.61,1.61,0,0,0-1.59,1.63h0a1.63,1.63,0,1,0,1.62-1.63Z"/><path class="cls-1" d="M78.34,160.68a1.62,1.62,0,0,0-1.62,1.62v.23l3-1a1.61,1.61,0,0,0-1.36-.86Z"/><path class="cls-1" d="M58.59,82.81a1.63,1.63,0,1,0,.3,0A1.5,1.5,0,0,0,58.59,82.81Z"/><path class="cls-1" d="M76.88,94a1.62,1.62,0,0,0,1.47,1.76,1.5,1.5,0,0,0,.3,0A1.62,1.62,0,1,0,76.88,94Z"/><path class="cls-1" d="M58.88,112.08a1.61,1.61,0,0,0-1.61,1.61h0a1.63,1.63,0,1,0,1.62-1.62Z"/><path class="cls-1" d="M76.88,142.68a1.63,1.63,0,0,0,1.47,1.77,1.5,1.5,0,0,0,.3,0,1.63,1.63,0,1,0-1.77-1.77Z"/><path class="cls-1" d="M76.74,55.16v.08a1.6,1.6,0,1,0,0-.08Z"/><path class="cls-1" d="M76.88,123.21A1.64,1.64,0,0,0,78.35,125h.3a1.63,1.63,0,1,0-1.77-1.77Z"/><path class="cls-1" d="M63.46,77.94a1.63,1.63,0,1,0,.3,0Z"/><path class="cls-1" d="M52.56,167A1.63,1.63,0,0,0,54,168.79a1.41,1.41,0,0,0,.29,0A1.63,1.63,0,1,0,52.56,167Z"/><path class="cls-1" d="M58.61,160.68a1.63,1.63,0,1,0,.3,0A1.5,1.5,0,0,0,58.61,160.68Z"/><path class="cls-1" d="M78.35,131.48a1.62,1.62,0,0,0-1.6,1.61v0a1.63,1.63,0,1,0,1.61-1.64Z"/><path class="cls-1" d="M58.89,92.54h0a1.6,1.6,0,0,0-1.6,1.62h0a1.63,1.63,0,1,0,1.63-1.62Z"/><path class="cls-1" d="M58.89,102.26h0a1.62,1.62,0,0,0-1.6,1.63h0a1.63,1.63,0,1,0,1.63-1.63Z"/><path class="cls-1" d="M54,126.6h0a1.63,1.63,0,0,0-1.58,1.68v0A1.63,1.63,0,1,0,54,126.66Z"/><path class="cls-1" d="M83.23,68.2h-.07a1.61,1.61,0,0,0-1.54,1.68h0a1.63,1.63,0,0,0,3.25,0,1.63,1.63,0,0,0-1.63-1.63Z"/><path class="cls-1" d="M52.56,118.34A1.61,1.61,0,0,0,54,120.11a1.41,1.41,0,0,0,.29,0,1.63,1.63,0,1,0-1.76-1.77Z"/><path class="cls-1" d="M52.41,108.76v0A1.63,1.63,0,1,0,54,107.14,1.62,1.62,0,0,0,52.41,108.76Z"/><path class="cls-1" d="M78.35,73.06a1.62,1.62,0,0,0-1.54,1.63h0a1.63,1.63,0,1,0,1.61-1.64Z"/><path class="cls-1" d="M49.15,160.68a1.62,1.62,0,0,0-1.55,1.62v0a1.63,1.63,0,1,0,1.62-1.64Z"/><path class="cls-1" d="M83.22,58.47a1.61,1.61,0,0,0-1.62,1.61h0a1.63,1.63,0,1,0,1.63-1.62Z"/><path class="cls-1" d="M49.15,150.94a1.63,1.63,0,0,0-1.61,1.63h0a1.63,1.63,0,1,0,1.61-1.64Z"/><path class="cls-1" d="M52.41,99h0A1.63,1.63,0,1,0,54,97.4,1.63,1.63,0,0,0,52.41,99Z"/><path class="cls-1" d="M83.2,48.72a1.62,1.62,0,0,0-1.6,1.63h0a1.63,1.63,0,1,0,1.63-1.63Z"/><path class="cls-1" d="M68.61,131.48A1.62,1.62,0,0,0,67,133.09v0a1.63,1.63,0,1,0,1.63-1.63Z"/><path class="cls-1" d="M65.33,69.82v-.23l-.14.23-.85,1.51A1.64,1.64,0,0,0,65.33,69.82Z"/><path class="cls-1" d="M63.76,165.55a1.62,1.62,0,0,0-1.59,1.62.6.6,0,0,0,0,.19l.6-.19,1-.32,1.35-.46a1.54,1.54,0,0,0-1.35-.84Z"/><path class="cls-1" d="M63.46,155.82a1.63,1.63,0,1,0,.3,0Z"/><path class="cls-1" d="M63.76,146.07h0a1.62,1.62,0,0,0-1.6,1.63h0a1.63,1.63,0,1,0,1.63-1.63Z"/><path class="cls-1" d="M63.46,136.35a1.63,1.63,0,1,0,.3,0Z"/><path class="cls-1" d="M63.76,126.6h0a1.62,1.62,0,0,0-1.6,1.63h0a1.63,1.63,0,1,0,1.63-1.63Z"/><path class="cls-1" d="M63.76,116.87h0a1.62,1.62,0,0,0-1.6,1.63h0a1.63,1.63,0,1,0,1.63-1.63Z"/><path class="cls-1" d="M63.46,107.14a1.63,1.63,0,1,0,.3,0A1.5,1.5,0,0,0,63.46,107.14Z"/><path class="cls-1" d="M63.76,97.4h0A1.62,1.62,0,0,0,62.13,99h0a1.63,1.63,0,1,0,1.63-1.63Z"/><path class="cls-1" d="M54,136.35A1.62,1.62,0,0,0,52.41,138v0A1.63,1.63,0,1,0,54,136.35Z"/><path class="cls-1" d="M52.56,147.55A1.61,1.61,0,0,0,54,149.31h.29a1.63,1.63,0,0,0-.29-3.24A1.64,1.64,0,0,0,52.56,147.55Z"/><path class="cls-1" d="M78.35,112.08a1.6,1.6,0,0,0-1.54,1.54v0A1.63,1.63,0,1,0,78.42,112Z"/><path class="cls-1" d="M54,155.82a1.62,1.62,0,0,0-1.62,1.61v0A1.63,1.63,0,1,0,54,155.82Z"/><path class="cls-1" d="M78.35,102.26a1.62,1.62,0,0,0-1.54,1.63h0a1.63,1.63,0,1,0,1.61-1.64Z"/><path class="cls-1" d="M68.62,82.81a1.61,1.61,0,0,0-1.56,1.61h0a1.63,1.63,0,1,0,3.25,0,1.61,1.61,0,0,0-1.62-1.62Z"/><path class="cls-1" d="M73.49,77.94a1.62,1.62,0,0,0-1.55,1.61v0a1.63,1.63,0,1,0,1.61-1.64Z"/><path class="cls-1" d="M68.65,66.57a1.6,1.6,0,0,0,.28-3.18L67.47,66a1.57,1.57,0,0,0,1.22.58Z"/><path class="cls-1" d="M68.62,92.54a1.62,1.62,0,0,0-1.56,1.62h0a1.63,1.63,0,1,0,3.25,0,1.61,1.61,0,0,0-1.62-1.62Z"/><path class="cls-1" d="M68.62,73.06a1.64,1.64,0,0,0-1.56,1.63h0a1.63,1.63,0,1,0,1.63-1.63Z"/><path class="cls-1" d="M68.62,102.26a1.64,1.64,0,0,0-1.56,1.63h0a1.63,1.63,0,1,0,1.63-1.63Z"/><path class="cls-1" d="M68.62,121.74a1.62,1.62,0,0,0-1.56,1.62h0a1.63,1.63,0,1,0,1.63-1.62Z"/><path class="cls-1" d="M68.62,150.94a1.63,1.63,0,0,0-1.56,1.63h0a1.63,1.63,0,1,0,1.63-1.63Z"/><path class="cls-1" d="M68.62,112.08a1.61,1.61,0,0,0-1.56,1.54h0A1.63,1.63,0,1,0,68.69,112Z"/><path class="cls-1" d="M73.49,58.47a1.61,1.61,0,0,0-1.55,1.61v0a1.63,1.63,0,1,0,1.61-1.64Z"/><path class="cls-1" d="M68.62,141.21a1.63,1.63,0,0,0-1.56,1.63h0a1.63,1.63,0,1,0,1.63-1.63Z"/><path class="cls-1" d="M68.62,160.68a1.62,1.62,0,0,0-1.56,1.62h0a1.63,1.63,0,1,0,1.63-1.63Z"/><path class="cls-1" d="M71.87,89.31h0a1.63,1.63,0,1,0,1.62-1.64A1.64,1.64,0,0,0,71.87,89.32Z"/><path class="cls-1" d="M72,69.68a1.63,1.63,0,0,0,1.48,1.77h.29a1.63,1.63,0,0,0-.29-3.24A1.63,1.63,0,0,0,72,69.68Z"/><path class="cls-1" d="M73.49,97.4h0A1.64,1.64,0,0,0,71.87,99h0a1.63,1.63,0,1,0,1.62-1.64Z"/><path class="cls-1" d="M73.49,107.14h0a1.62,1.62,0,0,0-1.6,1.63v0a1.63,1.63,0,1,0,1.62-1.64Z"/><path class="cls-1" d="M72,118.36a1.62,1.62,0,0,0,1.48,1.76h.29a1.62,1.62,0,0,0-.29-3.23A1.63,1.63,0,0,0,72,118.36Z"/><path class="cls-1" d="M73.49,126.6h0a1.64,1.64,0,0,0-1.62,1.64v0a1.63,1.63,0,1,0,1.62-1.64Z"/><path class="cls-1" d="M73.49,136.35h0a1.61,1.61,0,0,0-1.6,1.62v0a1.63,1.63,0,1,0,1.62-1.64Z"/><path class="cls-1" d="M72,147.56a1.63,1.63,0,0,0,1.48,1.77h.29A1.63,1.63,0,1,0,72,147.56Z"/><path class="cls-1" d="M73.49,155.82h0a1.62,1.62,0,0,0-1.6,1.62v0a1.63,1.63,0,1,0,1.62-1.64Z"/><path class="cls-1" d="M101.22,147.56a1.63,1.63,0,0,0,1.47,1.77H103a1.63,1.63,0,1,0-1.76-1.77Z"/><path class="cls-1" d="M83.23,77.94h0a1.62,1.62,0,0,0-1.6,1.63h0A1.63,1.63,0,1,0,83.23,78Z"/><path class="cls-1" d="M96.31,15.77a1.4,1.4,0,0,0-.11.53,1.54,1.54,0,0,0,.55,1.22,1.6,1.6,0,1,0-.16-2.25Z"/><path class="cls-1" d="M83.23,116.87h-.06a1.62,1.62,0,0,0-1.57,1.66h0a1.63,1.63,0,1,0,1.63-1.63Z"/><path class="cls-1" d="M97.81,34.13a1.61,1.61,0,0,0-1.61,1.61v0a1.63,1.63,0,1,0,1.62-1.63Z"/><path class="cls-1" d="M83.2,87.68a1.62,1.62,0,0,0-1.6,1.63h0a1.63,1.63,0,1,0,1.63-1.63Z"/><path class="cls-1" d="M83.23,97.4h0A1.62,1.62,0,0,0,81.6,99h0a1.63,1.63,0,1,0,1.63-1.63Z"/><path class="cls-1" d="M97.82,102.26h0a1.63,1.63,0,0,0-1.61,1.64h0a1.63,1.63,0,1,0,1.62-1.62Z"/><path class="cls-1" d="M83.23,42.25a1.63,1.63,0,0,0,0-3.24,1.3,1.3,0,0,0-.33.07L82,40.63l-.3.52a1.61,1.61,0,0,0,1.52,1.1Z"/><path class="cls-1" d="M83.23,126.6h0a1.62,1.62,0,0,0-1.59,1.64h0a1.63,1.63,0,1,0,1.63-1.62Z"/><path class="cls-1" d="M88.08,112.08a1.61,1.61,0,0,0-1.61,1.61h0a1.63,1.63,0,1,0,1.62-1.62Z"/><path class="cls-1" d="M87.8,34.2a1.62,1.62,0,1,0,.29,0A1.4,1.4,0,0,0,87.8,34.2Z"/><path class="cls-1" d="M88.09,63.29H88A1.61,1.61,0,0,0,86.47,65h0a1.63,1.63,0,1,0,1.62-1.63Z"/><path class="cls-1" d="M87.8,53.67a1.62,1.62,0,1,0,.29,0A1.4,1.4,0,0,0,87.8,53.67Z"/><path class="cls-1" d="M87.8,82.87a1.62,1.62,0,1,0,.29,0A1.4,1.4,0,0,0,87.8,82.87Z"/><path class="cls-1" d="M88.09,43.86H88a1.61,1.61,0,0,0-1.53,1.69h0a1.63,1.63,0,1,0,1.62-1.62Z"/><path class="cls-1" d="M88.09,73.06H88a1.62,1.62,0,0,0-1.53,1.7h0a1.63,1.63,0,1,0,1.62-1.63Z"/><path class="cls-1" d="M88.09,102.26H88A1.6,1.6,0,0,0,86.47,104h0a1.63,1.63,0,1,0,1.62-1.63Z"/><path class="cls-1" d="M88.09,92.54a.27.27,0,0,0-.09,0,1.6,1.6,0,0,0-1.53,1.69h0a1.63,1.63,0,1,0,1.62-1.63Z"/><path class="cls-1" d="M91.33,89.31h0A1.63,1.63,0,1,0,93,87.68,1.63,1.63,0,0,0,91.33,89.31Z"/><path class="cls-1" d="M87.8,131.49a1.62,1.62,0,1,0,.29,0Z"/><path class="cls-1" d="M88.09,121.74h0a1.6,1.6,0,0,0-1.58,1.64h0a1.63,1.63,0,1,0,1.62-1.63Z"/><path class="cls-1" d="M88.09,150.94h0a1.6,1.6,0,0,0-1.58,1.64h0A1.63,1.63,0,1,0,88.09,151Z"/><path class="cls-1" d="M88.09,141.21h0a1.61,1.61,0,0,0-1.58,1.64h0a1.63,1.63,0,1,0,1.62-1.63Z"/><path class="cls-1" d="M93,29.27h0a1.6,1.6,0,0,0-1.6,1.62v0A1.63,1.63,0,1,0,93,29.28Z"/><path class="cls-1" d="M93,39h0a1.62,1.62,0,0,0-1.61,1.63h0A1.63,1.63,0,1,0,93,39Z"/><path class="cls-1" d="M93,77.94h0a1.62,1.62,0,0,0-1.6,1.63h0A1.63,1.63,0,1,0,93,78Z"/><path class="cls-1" d="M93,68.2h0a1.63,1.63,0,0,0-1.61,1.64h0A1.63,1.63,0,1,0,93,68.21Z"/><path class="cls-1" d="M93,116.87h0a1.63,1.63,0,0,0-1.61,1.64h0a1.63,1.63,0,1,0,3.25,0A1.61,1.61,0,0,0,93,116.89Z"/><path class="cls-1" d="M83.23,155.82h0a1.62,1.62,0,0,0-1.6,1.62v0a1.63,1.63,0,1,0,1.63-1.63Z"/><path class="cls-1" d="M83.23,146.07h0a1.61,1.61,0,0,0-1.59,1.63h0a1.63,1.63,0,1,0,1.63-1.62Z"/><path class="cls-1" d="M83.23,136.35h0A1.61,1.61,0,0,0,81.6,138h0a1.63,1.63,0,1,0,1.63-1.62Z"/><path class="cls-1" d="M93,107.14h0a1.62,1.62,0,0,0-1.6,1.63h0a1.63,1.63,0,1,0,3.25,0A1.61,1.61,0,0,0,93,107.16Z"/><path class="cls-1" d="M93,155.82a1.6,1.6,0,0,0-1.57,1.62,1.13,1.13,0,0,0,0,.26l.74-.26.83-.27,1.42-.47a1.6,1.6,0,0,0-1.42-.87Z"/><path class="cls-1" d="M93,146.07h0a1.63,1.63,0,0,0-1.61,1.64h0A1.63,1.63,0,1,0,93,146.09Z"/><path class="cls-1" d="M93,48.72h0a1.63,1.63,0,0,0-1.61,1.64h0A1.63,1.63,0,1,0,93,48.74Z"/><path class="cls-1" d="M93,58.47h0a1.61,1.61,0,0,0-1.6,1.62v0A1.63,1.63,0,1,0,93,58.48Z"/><path class="cls-1" d="M93,97.4h0A1.63,1.63,0,0,0,91.33,99h0A1.63,1.63,0,1,0,93,97.41Z"/><path class="cls-1" d="M93,126.6h0a1.63,1.63,0,0,0-1.61,1.64h0a1.63,1.63,0,1,0,3.25,0A1.61,1.61,0,0,0,93,126.62Z"/><path class="cls-1" d="M97.82,24.39h0A1.62,1.62,0,0,0,96.2,26h0a1.63,1.63,0,1,0,1.62-1.63Z"/><path class="cls-1" d="M101.22,21a1.62,1.62,0,0,0,1.47,1.76,1.4,1.4,0,0,0,.29,0A1.62,1.62,0,1,0,101.22,21Z"/><path class="cls-1" d="M93,136.35h0a1.6,1.6,0,0,0-1.6,1.62h0A1.63,1.63,0,1,0,93,136.36Z"/><path class="cls-1" d="M97.82,73.06h0A1.62,1.62,0,0,0,96.2,74.7h0a1.63,1.63,0,1,0,1.62-1.62Z"/><path class="cls-1" d="M83.23,107.14h0a1.62,1.62,0,0,0-1.6,1.63h0a1.63,1.63,0,1,0,1.63-1.62Z"/><path class="cls-1" d="M93,22.76h0a1.6,1.6,0,0,0,1.62-1.6,1.55,1.55,0,0,0-.65-1.26l-.73,1.26L93,21.6l-.61,1a1.42,1.42,0,0,0,.61.12Z"/><path class="cls-1" d="M97.82,92.54h0a1.61,1.61,0,0,0-1.61,1.63h0a1.63,1.63,0,1,0,1.62-1.62Z"/><path class="cls-1" d="M97.82,63.29h0A1.62,1.62,0,0,0,96.2,65h0a1.63,1.63,0,1,0,1.62-1.62Z"/><path class="cls-1" d="M97.82,43.86h0A1.62,1.62,0,0,0,96.2,45.5h0a1.63,1.63,0,1,0,1.62-1.63Z"/><path class="cls-1" d="M97.82,53.6h0a1.62,1.62,0,0,0-1.6,1.63h0a1.63,1.63,0,1,0,1.62-1.62Z"/><path class="cls-1" d="M97.82,82.81h0a1.6,1.6,0,0,0-1.6,1.62v0a1.63,1.63,0,1,0,1.62-1.63Z"/><path class="cls-1" d="M97.82,121.74h0a1.62,1.62,0,0,0-1.61,1.64h0a1.63,1.63,0,1,0,1.62-1.63Z"/><path class="cls-1" d="M97.82,112.08a1.61,1.61,0,0,0-1.62,1.55v0A1.63,1.63,0,1,0,97.82,112Z"/><path class="cls-1" d="M97.82,141.21h0a1.62,1.62,0,0,0-1.61,1.64h0a1.63,1.63,0,1,0,1.62-1.63Z"/><path class="cls-1" d="M97.82,131.48h0a1.62,1.62,0,0,0-1.6,1.63h0a1.63,1.63,0,1,0,1.62-1.63Z"/><path class="cls-1" d="M97.82,150.94h0a1.62,1.62,0,0,0-1.61,1.64h0A1.63,1.63,0,1,0,97.82,151Z"/><path class="cls-1" d="M102.69,9.79a1.61,1.61,0,0,0-1.61,1.62v0a1.63,1.63,0,1,0,1.61-1.64Z"/><path class="cls-1" d="M102.69,107.14a1.62,1.62,0,0,0-1.61,1.62v0a1.63,1.63,0,1,0,1.61-1.64Z"/><path class="cls-1" d="M102.69,29.27a1.61,1.61,0,0,0-1.61,1.61v0a1.63,1.63,0,1,0,1.61-1.64Z"/><path class="cls-1" d="M101.22,40.47a1.62,1.62,0,0,0,1.47,1.76,1.4,1.4,0,0,0,.29,0,1.62,1.62,0,1,0-1.76-1.76Z"/><path class="cls-1" d="M101.08,50.35h0a1.63,1.63,0,1,0,1.61-1.64A1.63,1.63,0,0,0,101.08,50.36Z"/><path class="cls-1" d="M102.69,58.47a1.61,1.61,0,0,0-1.61,1.61v0a1.63,1.63,0,1,0,1.61-1.64Z"/><path class="cls-1" d="M102.69,136.35a1.61,1.61,0,0,0-1.61,1.61v0a1.63,1.63,0,1,0,1.61-1.63Z"/><path class="cls-1" d="M101.22,69.67a1.63,1.63,0,0,0,1.47,1.77,1.4,1.4,0,0,0,.29,0,1.63,1.63,0,1,0-.29-3.24A1.62,1.62,0,0,0,101.22,69.67Z"/><path class="cls-1" d="M102.69,77.94a1.61,1.61,0,0,0-1.61,1.61v0a1.63,1.63,0,1,0,1.61-1.64Z"/><path class="cls-1" d="M102.69,87.68a1.62,1.62,0,0,0-1.61,1.62h0a1.63,1.63,0,1,0,1.61-1.64Z"/><path class="cls-1" d="M101.08,99h0a1.63,1.63,0,1,0,1.61-1.64A1.62,1.62,0,0,0,101.08,99Z"/><path class="cls-1" d="M101.22,118.34a1.62,1.62,0,0,0,1.47,1.77,1.4,1.4,0,0,0,.29,0,1.63,1.63,0,1,0-1.76-1.77Z"/><path class="cls-1" d="M101.08,128.23h0a1.63,1.63,0,1,0,1.61-1.64A1.63,1.63,0,0,0,101.08,128.23Z"/><path class="cls-1" d="M112.4,146.07a1.61,1.61,0,0,0-1.59,1.63h0a1.63,1.63,0,1,0,1.62-1.63Z"/><path class="cls-1" d="M120.53,21.15h0a1.63,1.63,0,1,0,1.63-1.63A1.62,1.62,0,0,0,120.53,21.15Z"/><path class="cls-1" d="M117.27,24.39a1.6,1.6,0,0,0-1.6,1.62h0a1.63,1.63,0,1,0,1.63-1.62Z"/><path class="cls-1" d="M122.15,77.94a1.62,1.62,0,0,0-1.62,1.61v0a1.63,1.63,0,1,0,1.63-1.63Z"/><path class="cls-1" d="M112.13,107.14a1.63,1.63,0,1,0,.3,0A1.5,1.5,0,0,0,112.13,107.14Z"/><path class="cls-1" d="M117.27,14.66a1.61,1.61,0,0,0-1.6,1.62h0a1.63,1.63,0,1,0,1.63-1.62Z"/><path class="cls-1" d="M117.3,63.29h-.07A1.62,1.62,0,0,0,115.67,65h0a1.63,1.63,0,1,0,1.63-1.63Z"/><path class="cls-1" d="M117.27,141.21a1.62,1.62,0,0,0-1.6,1.63h0a1.63,1.63,0,1,0,1.63-1.63Z"/><path class="cls-1" d="M122.15,29.27a1.62,1.62,0,0,0-1.62,1.61h0a1.63,1.63,0,1,0,1.63-1.62Z"/><path class="cls-1" d="M117.28,112.08a1.61,1.61,0,0,0-1.61,1.61h0a1.63,1.63,0,1,0,1.63-1.62Z"/><path class="cls-1" d="M117.3,121.74h-.1a1.6,1.6,0,0,0-1.53,1.69h0a1.63,1.63,0,1,0,1.63-1.62Z"/><path class="cls-1" d="M103.69,3a1.55,1.55,0,0,0,.57-1Z"/><path class="cls-1" d="M122.16,136.35h-.08a1.62,1.62,0,0,0-1.55,1.68h0a1.63,1.63,0,1,0,1.63-1.63Z"/><path class="cls-1" d="M122.16,126.6h-.07a1.64,1.64,0,0,0-1.56,1.7h0a1.63,1.63,0,1,0,1.63-1.63Z"/><path class="cls-1" d="M122.16,116.87h-.07a1.64,1.64,0,0,0-1.56,1.7h0a1.63,1.63,0,1,0,1.63-1.63Z"/><path class="cls-1" d="M117,53.67a1.63,1.63,0,1,0,.3,0A1.5,1.5,0,0,0,117,53.67Z"/><path class="cls-1" d="M122.16,48.72h-.07a1.62,1.62,0,0,0-1.56,1.69h0a1.63,1.63,0,1,0,1.63-1.63Z"/><path class="cls-1" d="M117,5a1.63,1.63,0,1,0,.3,0Z"/><path class="cls-1" d="M117.3,102.26h-.1a1.6,1.6,0,0,0-1.53,1.69h0a1.63,1.63,0,1,0,1.63-1.63Z"/><path class="cls-1" d="M112.13,29.33a1.63,1.63,0,1,0,.3,0Z"/><path class="cls-1" d="M112.43,39h-.1a1.6,1.6,0,0,0-1.52,1.69h0a1.63,1.63,0,1,0,1.62-1.63Z"/><path class="cls-1" d="M117,82.87a1.64,1.64,0,0,0-1.47,1.77,1.63,1.63,0,0,0,3.24,0,1.64,1.64,0,0,0-1.47-1.77A1.5,1.5,0,0,0,117,82.87Z"/><path class="cls-1" d="M117,34.2a1.63,1.63,0,1,0,.3,0A1.5,1.5,0,0,0,117,34.2Z"/><path class="cls-1" d="M122.16,9.79h0a1.62,1.62,0,0,0-1.6,1.63h0a1.63,1.63,0,1,0,1.63-1.62Z"/><path class="cls-1" d="M117.3,43.86h0a1.61,1.61,0,0,0-1.59,1.64h0a1.63,1.63,0,1,0,1.63-1.63Z"/><path class="cls-1" d="M117.3,73.06h0a1.61,1.61,0,0,0-1.59,1.64h0a1.63,1.63,0,1,0,1.63-1.62Z"/><path class="cls-1" d="M112.43,116.87h0a1.61,1.61,0,0,0-1.58,1.64h0a1.63,1.63,0,1,0,1.62-1.62Z"/><path class="cls-1" d="M107.55,34.13h0a1.62,1.62,0,0,0-1.6,1.63v0a1.63,1.63,0,1,0,1.61-1.64Z"/><path class="cls-1" d="M112.13,136.36a1.63,1.63,0,1,0,.3,0A1.5,1.5,0,0,0,112.13,136.36Z"/><path class="cls-1" d="M117,131.49a1.64,1.64,0,0,0-1.47,1.77,1.63,1.63,0,0,0,3.24,0,1.64,1.64,0,0,0-1.47-1.77Z"/><path class="cls-1" d="M122.16,39h0a1.63,1.63,0,0,0-1.62,1.63h0A1.63,1.63,0,1,0,122.16,39Z"/><path class="cls-1" d="M107.55,92.54h0a1.61,1.61,0,0,0-1.61,1.63v0a1.63,1.63,0,1,0,1.61-1.64Z"/><path class="cls-1" d="M122.15,58.47a1.62,1.62,0,0,0-1.62,1.61h0a1.63,1.63,0,1,0,1.63-1.62Z"/><path class="cls-1" d="M107.55,4.93a1.61,1.61,0,0,0-1.61,1.61v0a1.63,1.63,0,1,0,1.61-1.64Z"/><path class="cls-1" d="M122.15,107.14a1.63,1.63,0,0,0-1.62,1.62h0a1.63,1.63,0,1,0,1.63-1.63Z"/><path class="cls-1" d="M122.16,87.68a1.63,1.63,0,0,0-1.63,1.62h0a1.63,1.63,0,1,0,1.63-1.63Z"/><path class="cls-1" d="M105.94,64.92h0a1.63,1.63,0,1,0,1.61-1.64A1.62,1.62,0,0,0,105.94,64.93Z"/><path class="cls-1" d="M122.16,97.4a1.63,1.63,0,0,0-1.63,1.54h0a1.63,1.63,0,1,0,1.63-1.62Z"/><path class="cls-1" d="M122.16,146.07a1.64,1.64,0,0,0-1.56,1.55,1.5,1.5,0,0,0,0,.3l.9-.3.66-.22,1.45-.48a1.62,1.62,0,0,0-1.45-.93Z"/><path class="cls-1" d="M122.16,68.2a1.63,1.63,0,0,0-1.63,1.54h0a1.63,1.63,0,1,0,1.63-1.62Z"/><path class="cls-1" d="M112.4,87.68a1.61,1.61,0,0,0-1.59,1.63h0a1.63,1.63,0,1,0,1.62-1.63Z"/><path class="cls-1" d="M112.43,126.6h0a1.61,1.61,0,0,0-1.58,1.64h0a1.63,1.63,0,1,0,1.62-1.62Z"/><path class="cls-1" d="M112.13,78a1.63,1.63,0,1,0,.3,0Z"/><path class="cls-1" d="M112.13,58.48a1.63,1.63,0,1,0,.3,0Z"/><path class="cls-1" d="M107.55,112.08a1.61,1.61,0,0,0-1.61,1.61v0a1.63,1.63,0,1,0,1.61-1.64Z"/><path class="cls-1" d="M112.43,97.4h-.1a1.6,1.6,0,0,0-1.52,1.69h0a1.63,1.63,0,1,0,1.62-1.62Z"/><path class="cls-1" d="M112.43,48.72h-.1a1.6,1.6,0,0,0-1.52,1.69h0a1.63,1.63,0,0,0,3.25,0,1.63,1.63,0,0,0-1.63-1.63Z"/><path class="cls-1" d="M112.43,68.2h-.1a1.6,1.6,0,0,0-1.52,1.69h0a1.63,1.63,0,1,0,1.62-1.62Z"/><path class="cls-1" d="M107.55,24.39h0a1.62,1.62,0,0,0-1.56,1.69h0a1.63,1.63,0,1,0,3.25,0,1.62,1.62,0,0,0-1.64-1.61Z"/><path class="cls-1" d="M112.43.05h0a1.61,1.61,0,0,0-1.58,1.64h0A1.63,1.63,0,1,0,112.43.06Z"/><path class="cls-1" d="M112.43,19.52h0a1.61,1.61,0,0,0-1.58,1.64h0a1.63,1.63,0,1,0,1.62-1.62Z"/><path class="cls-1" d="M107.55,141.21h0a1.62,1.62,0,0,0-1.61,1.64h0a1.63,1.63,0,1,0,1.61-1.64Z"/><path class="cls-1" d="M107.55,131.48h0a1.62,1.62,0,0,0-1.6,1.63v0a1.63,1.63,0,1,0,1.61-1.64Z"/><path class="cls-1" d="M107.55,102.26h0a1.63,1.63,0,0,0-1.61,1.64v0a1.63,1.63,0,1,0,1.61-1.64Z"/><path class="cls-1" d="M117.3,92.54s0,0,0,0a1.6,1.6,0,0,0-1.59,1.63h0a1.63,1.63,0,1,0,1.63-1.62Z"/><path class="cls-1" d="M107.55,150.94a1.62,1.62,0,0,0-1.56,1.64v.27l3-1a1.62,1.62,0,0,0-1.44-.91Z"/><path class="cls-1" d="M107.55,73.06h0a1.62,1.62,0,0,0-1.61,1.64v0a1.63,1.63,0,1,0,1.61-1.64Z"/><path class="cls-1" d="M112.43,9.79h0a1.61,1.61,0,0,0-1.59,1.63h0a1.63,1.63,0,1,0,1.62-1.62Z"/><path class="cls-1" d="M107.55,82.81h0a1.6,1.6,0,0,0-1.6,1.62v0a1.63,1.63,0,1,0,1.61-1.64Z"/><path class="cls-1" d="M107.55,53.6a1.61,1.61,0,0,0-1.61,1.56v.09a1.63,1.63,0,1,0,1.61-1.63Z"/><path class="cls-1" d="M107.55,43.86h0a1.62,1.62,0,0,0-1.61,1.64h0a1.63,1.63,0,1,0,1.61-1.64Z"/><path class="cls-1" d="M107.55,14.66h0a1.62,1.62,0,0,0-1.61,1.64h0a1.63,1.63,0,1,0,1.61-1.64Z"/><path class="cls-1" d="M107.55,121.74a1.62,1.62,0,0,0-1.61,1.61h0a1.63,1.63,0,1,0,1.61-1.64Z"/><path class="cls-1" d="M149.89,40.47a1.62,1.62,0,0,0,1.47,1.76,1.5,1.5,0,0,0,.3,0,1.62,1.62,0,1,0-1.77-1.76Z"/><path class="cls-1" d="M127,82.81H127a1.62,1.62,0,0,0-1.61,1.62v0A1.63,1.63,0,1,0,127,82.81Z"/><path class="cls-1" d="M127,112.08a1.61,1.61,0,0,0-1.67,1.54v0A1.63,1.63,0,1,0,127,112Z"/><path class="cls-1" d="M127,73.06h0a1.63,1.63,0,0,0-1.62,1.63h0A1.63,1.63,0,1,0,127,73.06Z"/><path class="cls-1" d="M136.74,63.29a1.62,1.62,0,0,0-1.6,1.63h0a1.63,1.63,0,1,0,1.63-1.63Z"/><path class="cls-1" d="M125.55,94A1.62,1.62,0,0,0,127,95.73h.29a1.63,1.63,0,0,0-.29-3.24A1.64,1.64,0,0,0,125.55,94Z"/><path class="cls-1" d="M127,34.13a1.62,1.62,0,0,0-1.62,1.57v0A1.63,1.63,0,1,0,127,34.09Z"/><path class="cls-1" d="M127,53.6a1.62,1.62,0,0,0-1.62,1.56v0a1.63,1.63,0,0,0,3.26,0A1.64,1.64,0,0,0,127,53.56Z"/><path class="cls-1" d="M131.89,126.6a1.62,1.62,0,0,0-1.61,1.59h0a1.63,1.63,0,1,0,1.61-1.64Z"/><path class="cls-1" d="M125.55,64.76A1.63,1.63,0,0,0,127,66.53a1.4,1.4,0,0,0,.29,0,1.63,1.63,0,0,0-.29-3.24A1.63,1.63,0,0,0,125.55,64.76Z"/><path class="cls-1" d="M125.55,123.17a1.64,1.64,0,0,0,1.48,1.77h.29a1.63,1.63,0,1,0-1.77-1.77Z"/><path class="cls-1" d="M151.36,48.72a1.64,1.64,0,0,0-1.56,1.59h0a1.63,1.63,0,1,0,1.62-1.64Z"/><path class="cls-1" d="M127,102.26a1.63,1.63,0,0,0-1.62,1.59h0a1.63,1.63,0,1,0,1.62-1.64Z"/><path class="cls-1" d="M127,131.48a1.62,1.62,0,0,0-1.62,1.57v0a1.63,1.63,0,1,0,1.62-1.64Z"/><path class="cls-1" d="M125.55,142.64a1.63,1.63,0,0,0,1.48,1.77h.29a1.63,1.63,0,1,0-1.77-1.77Z"/><path class="cls-1" d="M131.89,29.27a1.61,1.61,0,0,0-1.61,1.57v0a1.63,1.63,0,1,0,1.61-1.63Z"/><path class="cls-1" d="M130.42,40.43a1.62,1.62,0,0,0,1.47,1.76,1.5,1.5,0,0,0,.3,0,1.63,1.63,0,1,0-1.77-1.76Z"/><path class="cls-1" d="M131.89,48.72a1.62,1.62,0,0,0-1.61,1.59h0a1.63,1.63,0,1,0,1.61-1.64Z"/><path class="cls-1" d="M131.89,58.47A1.61,1.61,0,0,0,130.28,60v0a1.63,1.63,0,1,0,1.61-1.64Z"/><path class="cls-1" d="M131.89,107.14a1.61,1.61,0,0,0-1.61,1.57v0a1.63,1.63,0,1,0,1.61-1.64Z"/><path class="cls-1" d="M141.34,136.3a1.62,1.62,0,1,0,.29,0Z"/><path class="cls-1" d="M141.63,126.6a1.61,1.61,0,0,0-1.62,1.59h0a1.63,1.63,0,1,0,1.62-1.63Z"/><path class="cls-1" d="M141.63,116.87a1.61,1.61,0,0,0-1.62,1.59h0a1.63,1.63,0,1,0,1.62-1.63Z"/><path class="cls-1" d="M141.34,107.1a1.62,1.62,0,1,0,.29,0Z"/><path class="cls-1" d="M141.63,97.4A1.61,1.61,0,0,0,140,99h0a1.63,1.63,0,1,0,1.62-1.63Z"/><path class="cls-1" d="M141.63,87.68A1.62,1.62,0,0,0,140,89.26h0a1.63,1.63,0,1,0,1.62-1.63Z"/><path class="cls-1" d="M141.34,77.9a1.62,1.62,0,1,0,.29,0A1.41,1.41,0,0,0,141.34,77.9Z"/><path class="cls-1" d="M141.63,39A1.6,1.6,0,0,0,140,40.58h0A1.63,1.63,0,1,0,141.63,39Z"/><path class="cls-1" d="M141.34,29.23a1.62,1.62,0,1,0,.29,0A1.41,1.41,0,0,0,141.34,29.23Z"/><path class="cls-1" d="M136.47,131.44a1.63,1.63,0,1,0,.3,0Z"/><path class="cls-1" d="M130.42,69.63a1.64,1.64,0,0,0,1.47,1.77h.3a1.63,1.63,0,1,0-1.77-1.77Z"/><path class="cls-1" d="M131.89,77.94a1.61,1.61,0,0,0-1.61,1.57v0a1.63,1.63,0,1,0,1.61-1.64Z"/><path class="cls-1" d="M131.89,87.68a1.63,1.63,0,0,0-1.61,1.58h0a1.63,1.63,0,1,0,1.61-1.64Z"/><path class="cls-1" d="M141.63,68.2A1.6,1.6,0,0,0,140,69.78h0a1.63,1.63,0,1,0,1.62-1.62Z"/><path class="cls-1" d="M141.34,58.43a1.63,1.63,0,0,0,.29,3.24,1.63,1.63,0,0,0,1.47-1.47,1.61,1.61,0,0,0-1.47-1.77Z"/><path class="cls-1" d="M141.63,48.72A1.62,1.62,0,0,0,140,50.31h0a1.63,1.63,0,1,0,1.62-1.63Z"/><path class="cls-1" d="M130.42,21a1.63,1.63,0,0,0,1.47,1.77,1.5,1.5,0,0,0,.3,0A1.63,1.63,0,1,0,130.42,21Z"/><path class="cls-1" d="M127,24.39A1.62,1.62,0,0,0,125.41,26v0A1.63,1.63,0,1,0,127,24.35Z"/><path class="cls-1" d="M125.55,16.09A1.64,1.64,0,0,0,127,17.86h.29a1.63,1.63,0,1,0-1.77-1.77Z"/><path class="cls-1" d="M125.55,45.29A1.63,1.63,0,0,0,127,47.06h.29a1.63,1.63,0,1,0-1.77-1.77Z"/><path class="cls-1" d="M136.47,53.56a1.63,1.63,0,1,0,.3,0A1.5,1.5,0,0,0,136.47,53.56Z"/><path class="cls-1" d="M146.5,82.81a1.61,1.61,0,0,0-1.63,1.57h0a1.63,1.63,0,1,0,1.63-1.63Z"/><path class="cls-1" d="M146.5,112.08a1.61,1.61,0,0,0-1.63,1.5h0A1.63,1.63,0,1,0,146.5,112Z"/><path class="cls-1" d="M146.5,102.26h-.11a1.28,1.28,0,1,0,.11,0Z"/><path class="cls-1" d="M146.5,121.74a1.63,1.63,0,0,0-1.63,1.58h0a1.63,1.63,0,1,0,3.25,0,1.61,1.61,0,0,0-1.62-1.62Z"/><path class="cls-1" d="M146.5,131.48a1.61,1.61,0,0,0-1.63,1.57v0a1.63,1.63,0,1,0,1.63-1.63Z"/><path class="cls-1" d="M146.5,53.6h0a1.61,1.61,0,1,0,1.59,1.64,1.61,1.61,0,0,0-1.59-1.64Z"/><path class="cls-1" d="M146.5,43.86a1.63,1.63,0,0,0-1.63,1.59h0a1.63,1.63,0,1,0,1.63-1.63Z"/><path class="cls-1" d="M146.5,63.29a1.63,1.63,0,0,0-1.63,1.63h0a1.63,1.63,0,1,0,1.63-1.63Z"/><path class="cls-1" d="M146.5,73.06a1.64,1.64,0,0,0-1.63,1.59h0A1.63,1.63,0,1,0,146.5,73Z"/><path class="cls-1" d="M136.47,82.76A1.64,1.64,0,0,0,135,84.53a1.63,1.63,0,0,0,3.24,0,1.64,1.64,0,0,0-1.47-1.77Z"/><path class="cls-1" d="M136.77,73.06a1.62,1.62,0,0,0-1.63,1.59h0A1.63,1.63,0,1,0,136.77,73Z"/><path class="cls-1" d="M136.77,92.54a1.61,1.61,0,0,0-1.63,1.58h0a1.63,1.63,0,1,0,1.63-1.63Z"/><path class="cls-1" d="M136.77,102.26a1.62,1.62,0,0,0-1.63,1.59h0a1.63,1.63,0,1,0,1.63-1.63Z"/><path class="cls-1" d="M136.77,24.39A1.61,1.61,0,0,0,135.14,26h0a1.63,1.63,0,1,0,3.25,0,1.61,1.61,0,0,0-1.62-1.62Z"/><path class="cls-1" d="M136.77,141.21a1.63,1.63,0,0,0-1.56,1.59,1.71,1.71,0,0,0,0,.32l3-1a1.6,1.6,0,0,0-1.46-1Z"/><path class="cls-1" d="M136.47,34.12a1.63,1.63,0,1,0,.3,0Z"/><path class="cls-1" d="M136.77,43.86h0a1.61,1.61,0,0,0-1.62,1.61h0a1.63,1.63,0,1,0,3.25,0,1.61,1.61,0,0,0-1.62-1.62Z"/><path class="cls-1" d="M146.5,92.54a1.63,1.63,0,0,0-1.63,1.61h0a1.63,1.63,0,1,0,1.63-1.63Z"/><path class="cls-1" d="M146.5,34.13h0a1.62,1.62,0,0,0-1.63,1.6h0a1.63,1.63,0,1,0,1.63-1.62Z"/><path class="cls-1" d="M131.89,97.4A1.62,1.62,0,0,0,130.28,99v0a1.63,1.63,0,1,0,1.61-1.64Z"/><path class="cls-1" d="M130.42,118.33a1.63,1.63,0,0,0,1.47,1.77,1.5,1.5,0,0,0,.3,0,1.63,1.63,0,1,0-1.77-1.77Z"/><path class="cls-1" d="M136.77,112.08a1.61,1.61,0,0,0-1.63,1.53h0a1.63,1.63,0,1,0,1.63-1.63Z"/><path class="cls-1" d="M149.89,69.67a1.64,1.64,0,0,0,1.47,1.77,1.5,1.5,0,0,0,.3,0,1.64,1.64,0,0,0,1.47-1.77,1.63,1.63,0,0,0-3.24,0Z"/><path class="cls-1" d="M136.74,121.74a1.61,1.61,0,0,0-1.6,1.62h0a1.63,1.63,0,1,0,1.63-1.62Z"/><path class="cls-1" d="M151.36,58.47a1.61,1.61,0,0,0-1.61,1.61v0a1.63,1.63,0,1,0,1.61-1.64Z"/><path class="cls-1" d="M131.89,136.35a1.61,1.61,0,0,0-1.61,1.61v0a1.63,1.63,0,1,0,1.61-1.63Z"/><path class="cls-1" d="M180.57,107.14a1.62,1.62,0,0,0-1.62,1.62v0a1.63,1.63,0,1,0,1.62-1.64Z"/><path class="cls-1" d="M161.05,87.68a1.62,1.62,0,0,0-1.6,1.63h0a1.63,1.63,0,1,0,1.63-1.63Z"/><path class="cls-1" d="M154.73,45.34a1.63,1.63,0,0,0,1.47,1.77h.3a1.63,1.63,0,1,0-1.77-1.77Z"/><path class="cls-1" d="M166,121.74h-.07a1.6,1.6,0,0,0-1.58,1.64h0a1.63,1.63,0,1,0,1.62-1.63Z"/><path class="cls-1" d="M185.46,112.08a1.62,1.62,0,0,0-1.62,1.61h0a1.63,1.63,0,1,0,1.63-1.62Z"/><path class="cls-1" d="M169.21,128.23h0a1.63,1.63,0,1,0,1.63-1.63A1.62,1.62,0,0,0,169.21,128.23Z"/><path class="cls-1" d="M170.82,107.14a1.62,1.62,0,0,0-1.61,1.62h0a1.63,1.63,0,1,0,1.63-1.63Z"/><path class="cls-1" d="M174.23,123.21A1.64,1.64,0,0,0,175.7,125h.3a1.63,1.63,0,1,0-1.77-1.77Z"/><path class="cls-1" d="M190.28,87.68a1.62,1.62,0,0,0-1.6,1.63h0a1.63,1.63,0,1,0,1.63-1.63Z"/><path class="cls-1" d="M161.07,77.94a1.61,1.61,0,0,0-1.62,1.61v0a1.63,1.63,0,1,0,1.63-1.63Z"/><path class="cls-1" d="M179.09,69.67a1.64,1.64,0,0,0,1.48,1.77,1.4,1.4,0,0,0,.29,0,1.63,1.63,0,1,0-1.77-1.77Z"/><path class="cls-1" d="M175.66,102.27a1.63,1.63,0,1,0,1.68,1.61,1.62,1.62,0,0,0-1.68-1.61Z"/><path class="cls-1" d="M179,89.31h0a1.63,1.63,0,1,0,1.62-1.64A1.64,1.64,0,0,0,179,89.32Z"/><path class="cls-1" d="M175.7,73.06h0a1.62,1.62,0,0,0-1.61,1.64v0a1.63,1.63,0,1,0,1.61-1.64Z"/><path class="cls-1" d="M175.7,82.81h0a1.6,1.6,0,0,0-1.6,1.62v0a1.63,1.63,0,1,0,1.61-1.64Z"/><path class="cls-1" d="M174.23,94a1.63,1.63,0,0,0,1.47,1.77h.3A1.63,1.63,0,1,0,174.23,94Z"/><path class="cls-1" d="M161.07,107.14a1.62,1.62,0,0,0-1.62,1.62h0a1.63,1.63,0,1,0,1.63-1.63Z"/><path class="cls-1" d="M190,77.94a1.63,1.63,0,1,0,.3,0Z"/><path class="cls-1" d="M179,79.55v0a1.63,1.63,0,1,0,1.62-1.64A1.62,1.62,0,0,0,179,79.58Z"/><path class="cls-1" d="M179,99h0a1.63,1.63,0,1,0,1.62-1.64A1.62,1.62,0,0,0,179,99Z"/><path class="cls-1" d="M149.75,99h0a1.63,1.63,0,1,0,1.61-1.64A1.62,1.62,0,0,0,149.75,99Z"/><path class="cls-1" d="M169.21,89.31h0a1.63,1.63,0,1,0,1.63-1.63A1.63,1.63,0,0,0,169.21,89.31Z"/><path class="cls-1" d="M185.44,102.26a1.62,1.62,0,0,0-1.6,1.63h0a1.63,1.63,0,1,0,1.63-1.63Z"/><path class="cls-1" d="M185.44,92.54a1.61,1.61,0,0,0-1.6,1.62h0a1.63,1.63,0,1,0,1.63-1.62Z"/><path class="cls-1" d="M151.36,126.6a1.63,1.63,0,0,0-1.58,1.63h0a1.63,1.63,0,1,0,1.61-1.64Z"/><path class="cls-1" d="M180.57,126.6a1.62,1.62,0,0,0-1.59,1.63,1.29,1.29,0,0,0,.08.39l1.19-.39.34-.11,1.51-.5a1.64,1.64,0,0,0-1.51-1Z"/><path class="cls-1" d="M185.44,121.74a1.61,1.61,0,0,0-1.6,1.62h0a1.63,1.63,0,1,0,1.63-1.62Z"/><path class="cls-1" d="M149.75,89.31h0a1.63,1.63,0,1,0,1.61-1.64A1.64,1.64,0,0,0,149.75,89.32Z"/><path class="cls-1" d="M185.44,73.06a1.62,1.62,0,0,0-1.6,1.63h0a1.63,1.63,0,1,0,1.63-1.63Z"/><path class="cls-1" d="M161.07,58.47a1.61,1.61,0,0,0-1.62,1.61h0a1.63,1.63,0,1,0,1.63-1.62Z"/><path class="cls-1" d="M169.21,69.82h0a1.63,1.63,0,1,0,1.63-1.62A1.63,1.63,0,0,0,169.21,69.82Z"/><path class="cls-1" d="M156.23,112.08a1.61,1.61,0,0,0-1.61,1.61v0a1.62,1.62,0,0,0,1.63,1.61,1.63,1.63,0,1,0,0-3.25Z"/><path class="cls-1" d="M156.23,102.26h-.06a1.61,1.61,0,0,0-1.55,1.69h0a1.63,1.63,0,1,0,1.61-1.64Z"/><path class="cls-1" d="M156.23,73.06h-.06a1.62,1.62,0,0,0-1.55,1.7h0a1.62,1.62,0,0,0,1.64,1.61,1.63,1.63,0,0,0,0-3.25Z"/><path class="cls-1" d="M185.46,82.81a1.62,1.62,0,0,0-1.62,1.61h0a1.63,1.63,0,1,0,1.63-1.62Z"/><path class="cls-1" d="M151.36,77.94a1.61,1.61,0,0,0-1.58,1.61v0a1.63,1.63,0,1,0,1.61-1.64Z"/><path class="cls-1" d="M190.28,97.4a1.62,1.62,0,0,0-1.6,1.63h0a1.63,1.63,0,1,0,1.63-1.63Z"/><path class="cls-1" d="M156.23,82.81a1.61,1.61,0,0,0-1.61,1.61v0a1.62,1.62,0,0,0,1.63,1.61,1.63,1.63,0,1,0,0-3.25Z"/><path class="cls-1" d="M161.05,48.72a1.62,1.62,0,0,0-1.6,1.63h0a1.63,1.63,0,1,0,1.63-1.63Z"/><path class="cls-1" d="M169.21,118.5h0a1.63,1.63,0,1,0,1.63-1.63A1.62,1.62,0,0,0,169.21,118.5Z"/><path class="cls-1" d="M170.82,77.94a1.61,1.61,0,0,0-1.61,1.61v0a1.63,1.63,0,1,0,1.63-1.63Z"/><path class="cls-1" d="M154.76,123.21a1.63,1.63,0,0,0,1.47,1.77h.29a1.63,1.63,0,1,0-.29-3.24A1.62,1.62,0,0,0,154.76,123.21Z"/><path class="cls-1" d="M154.62,55.16a.22.22,0,0,0,0,.08,1.63,1.63,0,1,0,1.62-1.64A1.61,1.61,0,0,0,154.62,55.16Z"/><path class="cls-1" d="M151.36,107.14a1.62,1.62,0,0,0-1.61,1.62v0a1.63,1.63,0,1,0,1.61-1.64Z"/><path class="cls-1" d="M154.76,64.76a1.61,1.61,0,0,0,1.47,1.77,1.4,1.4,0,0,0,.29,0,1.63,1.63,0,1,0-1.76-1.77Z"/><path class="cls-1" d="M154.76,94a1.61,1.61,0,0,0,1.47,1.76h.29A1.63,1.63,0,1,0,154.76,94Z"/><path class="cls-1" d="M169.21,99h0a1.63,1.63,0,1,0,1.63-1.63A1.63,1.63,0,0,0,169.21,99Z"/><path class="cls-1" d="M174.23,64.76a1.63,1.63,0,0,0,1.47,1.77,1.5,1.5,0,0,0,.3,0,1.63,1.63,0,1,0-1.77-1.77Z"/><path class="cls-1" d="M175.7,112.08a1.6,1.6,0,0,0-1.61,1.5v0A1.63,1.63,0,1,0,175.7,112Z"/><path class="cls-1" d="M149.84,118.3a1.62,1.62,0,0,0,1.47,1.77,1.5,1.5,0,0,0,.3,0,1.63,1.63,0,1,0-1.77-1.77Z"/><path class="cls-1" d="M165.67,53.6a1.63,1.63,0,1,0,.3,0Z"/><path class="cls-1" d="M165.94,102.26a1.62,1.62,0,0,0-1.6,1.63h0a1.63,1.63,0,1,0,1.63-1.63Z"/><path class="cls-1" d="M165.94,92.54a1.61,1.61,0,0,0-1.6,1.62h0A1.63,1.63,0,1,0,166,92.54Z"/><path class="cls-1" d="M166,63.29h-.07A1.62,1.62,0,0,0,164.34,65h0A1.63,1.63,0,1,0,166,63.33Z"/><path class="cls-1" d="M149.82,138a1,1,0,0,0,0,.35l1-.35.5-.16,1.48-.49a1.58,1.58,0,0,0-1.48-1A1.6,1.6,0,0,0,149.82,138Z"/><path class="cls-1" d="M161.05,68.2a1.62,1.62,0,0,0-1.6,1.62h0a1.63,1.63,0,1,0,1.63-1.62Z"/><path class="cls-1" d="M179.09,118.34a1.63,1.63,0,0,0,1.48,1.77,1.4,1.4,0,0,0,.29,0,1.63,1.63,0,1,0-1.77-1.77Z"/><path class="cls-1" d="M166,112.08a1.62,1.62,0,0,0-1.62,1.61h0a1.63,1.63,0,1,0,1.63-1.62Z"/><path class="cls-1" d="M166,131.48h-.08a1.63,1.63,0,0,0-1.55,1.68,1.24,1.24,0,0,0,.09.38l3-1a1.61,1.61,0,0,0-1.49-1Z"/><path class="cls-1" d="M165.67,82.87a1.63,1.63,0,1,0,.3,0A1.5,1.5,0,0,0,165.67,82.87Z"/><path class="cls-1" d="M156.23,131.48h-.07a1.61,1.61,0,0,0-1.54,1.68v0a1.61,1.61,0,0,0,1.63,1.61,1.63,1.63,0,1,0,0-3.25Z"/><path class="cls-1" d="M161.05,116.87a1.62,1.62,0,0,0-1.6,1.63h0a1.63,1.63,0,1,0,1.63-1.63Z"/><path class="cls-1" d="M161.05,97.4a1.62,1.62,0,0,0-1.6,1.63h0a1.63,1.63,0,1,0,1.63-1.63Z"/><path class="cls-1" d="M170.82,58.47a1.61,1.61,0,0,0-1.61,1.61h0a1.63,1.63,0,1,0,1.63-1.62Z"/><path class="cls-1" d="M165.94,73.06a1.62,1.62,0,0,0-1.6,1.63h0A1.63,1.63,0,1,0,166,73.06Z"/><path class="cls-1" d="M161.05,126.6a1.62,1.62,0,0,0-1.6,1.63h0a1.63,1.63,0,1,0,1.63-1.63Z"/><path class="cls-1" d="M190,107.21a1.63,1.63,0,1,0,.3,0Z"/><path class="cls-1" d="M200,97.4H200a1.63,1.63,0,0,0-1.56,1.69h0A1.63,1.63,0,1,0,200,97.47Z"/><path class="cls-1" d="M200,87.68H200a1.64,1.64,0,0,0-1.57,1.68h0A1.63,1.63,0,1,0,200,87.74Z"/><path class="cls-1" d="M195.17,82.81h-.08a1.6,1.6,0,0,0-1.54,1.68h0a1.63,1.63,0,1,0,1.62-1.63Z"/><path class="cls-1" d="M195.17,121.74a1.63,1.63,0,0,0-1.62,1.62,1.43,1.43,0,0,0,.09.42l3-1a1.63,1.63,0,0,0-1.51-1Z"/><path class="cls-1" d="M195.16,112.08a1.61,1.61,0,0,0-1.61,1.61h0a1.63,1.63,0,1,0,1.62-1.62Z"/><path class="cls-1" d="M195.17,92.54h-.07a1.62,1.62,0,0,0-1.55,1.69h0a1.63,1.63,0,1,0,1.62-1.63Z"/><path class="cls-1" d="M200,116.87h-.13a1.62,1.62,0,0,0-1.5,1.74h0A1.63,1.63,0,1,0,200,117Z"/><path class="cls-1" d="M190.31,116.87h-.16a1.61,1.61,0,0,0-1.47,1.74h0a1.63,1.63,0,1,0,1.63-1.63Z"/><path class="cls-1" d="M195.17,102.26h0A1.64,1.64,0,0,0,193.6,104v.11a1.63,1.63,0,1,0,1.57-1.67Z"/><path class="cls-1" d="M200,107.14h-.14a1.61,1.61,0,0,0-1.49,1.73h0a1.63,1.63,0,1,0,1.63-1.63Z"/><g id="freepik--Character--inject-77"><path class="cls-2" d="M22.53,120c28.25,8.51,65.4,24.16,68,21.52,3.53-3.66,23.78-53.42,29.06-61.78,4.47-7.08,49.17,24.41,48.43,32.23-1.7,18.13-37.89,77.92-54.27,84.36s-60.32-17.55-100.2-52.82C-7.31,124.9,4.52,114.53,22.53,120Z"/><path class="cls-1" d="M6.89,137c-12.63-17.35-3.6-22.69,13.41-18.78A353.66,353.66,0,0,1,55.21,129.7l-5.86,46.61S15.18,148.61,6.89,137Z"/><path class="cls-3" d="M49,127.31a17.41,17.41,0,0,0,2.24,4.16,17.48,17.48,0,0,0-.65-3.58Z"/><path class="cls-4" d="M45.82,171c.63-6.79,1.43-13.65,2.24-20.36.4-3.49.8-6.7,1.25-10.19s.6-6.84,1.23-10.19c0-.14-.29-.18-.29,0-.43,3.39-1.28,6.64-1.77,10.1s-.94,6.77-1.34,10.17c-.78,6.79-1.25,13.61-1.63,20.47C45.49,171.14,45.78,171.19,45.82,171Z"/><path class="cls-5" d="M2.93,119.09l50.42,24.58-4.11,32.57S15.18,148.61,6.77,137C.18,127.78-.47,122,2.93,119.09Z"/><path class="cls-2" d="M151.16,34.31c-11.4,5.65-31.87,42.58-32.67,49.82s32.69,39.69,39.22,36.92S184,99.22,189.18,87.86C194.64,76.1,162.56,28.65,151.16,34.31Z"/><path class="cls-2" d="M134.4,79.46c12.16-5.21,8.29-24.81,8.29-24.81s-15.51-41.91-28.14-37.78c-6.15,2,.07,18.82,3.38,30.38a104.44,104.44,0,0,1,2.95,30A13.1,13.1,0,0,0,134.4,79.46Z"/><path class="cls-2" d="M171.79,20.74c3.56,2.66,2.84,8.56,2.84,8.56s5.12-.78,7.49,2.59a8.65,8.65,0,0,1,0,8.94s5.45-.31,7,2.24c3.06,4.94-.87,10.75-.87,10.75a6.93,6.93,0,0,1,7.26,4.72C199.08,68.77,189,87.88,189,87.88c-.22-.33-5.45-13-5.45-13-7.69,2.24-17.91,22.35-25.08,15.65-4.07-4-.29-12,0-12.63-.49.49-8.45,7.71-12.41,1.54s4-14.86,4.47-15.36c-.62.43-9.14,6.53-12.56.12s5.52-15.65,5.52-15.65-7.31,4.65-8.06-1.92C133.82,32.54,164.77,15.2,171.79,20.74Z"/><path class="cls-4" d="M143.61,49.31c-.34.29-.74-.25-.49-.54A61.5,61.5,0,0,1,174,29v.16A126.81,126.81,0,0,0,143.61,49.31Z"/><path class="cls-4" d="M150.18,64.64c-.25.45-.51-.18-.25-.58a57.59,57.59,0,0,1,32.39-23.65c.11,0,.25.22.11.22C172,45.37,155.79,57.08,150.18,64.64Z"/><path class="cls-4" d="M157.94,78.72a35.45,35.45,0,0,1,11.17-14.57c5.19-4.18,12.16-9,18.86-10.49,0,0,.16.25,0,.25-11.75,6.3-22.1,13.9-29.63,25.08C158.16,79.21,157.85,78.94,157.94,78.72Z"/><path class="cls-4" d="M137.19,66.14c4.05,3.51,9.64,1.49,11.87,0l-1.36-1.37A24.71,24.71,0,0,0,144.14,72a10,10,0,0,0,.67,8.18,7.59,7.59,0,0,0,3.29,2.93,6.55,6.55,0,0,0,4.47.2,16.17,16.17,0,0,0,6.71-4.47l-1.77-1.21a22.48,22.48,0,0,0-1.77,5.65,10.69,10.69,0,0,0,.56,6.15,5.86,5.86,0,0,0,5.35,3.47,10.78,10.78,0,0,0,5.58-2.4,59.53,59.53,0,0,0,8.16-8c1.28-1.39,2.53-2.8,3.85-4.12A13.91,13.91,0,0,1,183.71,75,13.21,13.21,0,0,0,179,78c-1.44,1.23-2.8,2.53-4.16,3.85a71.18,71.18,0,0,1-8.38,7.33A9.14,9.14,0,0,1,161.69,91a4.1,4.1,0,0,1-3.53-2.48,8.5,8.5,0,0,1-.31-4.94,21,21,0,0,1,1.65-5l2.75-5.79-4.47,4.58A13.73,13.73,0,0,1,152,81.09a4.47,4.47,0,0,1-5.3-2.24,7.85,7.85,0,0,1-.51-6.46,21.89,21.89,0,0,1,3.11-6.48l3.06-4.47-4.47,3.13c-1.77,1.25-6.88,2.5-9.12-.11-2.82-3.26,3.55-13.54,4.74-15.15.29-.38-.58-.41-.29-.76C141.51,50.31,132.68,60.57,137.19,66.14Z"/><path class="cls-4" d="M139.7,50.87a4.66,4.66,0,0,1-2.51-.13,4.46,4.46,0,0,1-2.05-1.64,6.13,6.13,0,0,1-.47-4.71,10.3,10.3,0,0,1,1.9-3.94c-.23,1.44-.38,2.82-.47,4.16a6.1,6.1,0,0,0,.6,3.49,3.06,3.06,0,0,0,2.82,1.34,13.73,13.73,0,0,0,3.95-.89A7,7,0,0,1,139.7,50.87Z"/></g></svg>