<svg id="Layer_1" data-name="Layer 1" xmlns="http://www.w3.org/2000/svg" viewBox="0 0 200 200"><defs><style>.cls-1{fill:#dbdbdb;}.cls-2{fill:#ffc4c0;}.cls-3{fill:#263238;}.cls-4{fill:#e9e9e9;}.cls-5{fill:#fff;}.cls-6{fill:#455a64;}.cls-7{fill:#a6a6a6;}.cls-8{fill:#ff2727;}.cls-9{fill:#050400;opacity:0.2;isolation:isolate;}</style></defs><path class="cls-1" d="M16.77,67.85l-.08-.18A1.61,1.61,0,0,0,14.51,67l-.17.06,2,2.42a1.63,1.63,0,0,0,.27-1.56Z"/><path class="cls-1" d="M71.26,47l0-.1a1.61,1.61,0,0,0-2.14-.79h0a1.63,1.63,0,1,0,1.19,3,1.62,1.62,0,0,0,.92-2.11Z"/><path class="cls-1" d="M80.43,43.53l-.07-.16a1.62,1.62,0,0,0-2.19-.7h0a1.63,1.63,0,1,0,2.1.92Z"/><path class="cls-1" d="M13.3,58.76l-.09-.19A1.61,1.61,0,0,0,11,57.89h0a1.62,1.62,0,1,0,2.1.93Z"/><path class="cls-1" d="M56,47.67l-.08-.17a1.62,1.62,0,0,0-2.19-.7h0a1.62,1.62,0,1,0,2.1.93Z"/><path class="cls-1" d="M65.05,44.2c0-.06,0-.12-.08-.17a1.63,1.63,0,0,0-2.19-.71h0a1.63,1.63,0,1,0,2.1.94Z"/><path class="cls-1" d="M46.86,51.15a1,1,0,0,0-.09-.18,1.6,1.6,0,0,0-2.17-.7h0a1.63,1.63,0,1,0,2.1.94Z"/><path class="cls-1" d="M19.58,61.57l-.08-.17a1.63,1.63,0,0,0-2.19-.71h0a1.63,1.63,0,1,0,2.1.94Z"/><path class="cls-1" d="M58.76,41.39a1.67,1.67,0,0,0-.08-.2,1.63,1.63,0,0,0-2.18-.68h0a1.63,1.63,0,1,0,2.1.94Z"/><path class="cls-1" d="M37.77,54.62a1.51,1.51,0,0,0-.11-.22,1.63,1.63,0,0,0-2.21-.64h0a1.63,1.63,0,1,0,2.1.94Z"/><path class="cls-1" d="M28.66,58.1a2.44,2.44,0,0,0-.1-.24,1.61,1.61,0,0,0-2.2-.62h0a1.63,1.63,0,1,0,2.1.94Z"/><path class="cls-1" d="M64.6,39.16a1.57,1.57,0,0,0,.8.88,1.61,1.61,0,0,0,2.16-.73l-3-.48a1.26,1.26,0,0,0,0,.33Z"/><path class="cls-1" d="M49.32,44.68a1.63,1.63,0,0,0-2.92,1.44,1.62,1.62,0,0,0,3-1.16A1.33,1.33,0,0,0,49.32,44.68Z"/><path class="cls-1" d="M40.57,48.34a1,1,0,0,0-.13-.28,1.61,1.61,0,0,0-2.21-.57h0a1.63,1.63,0,1,0,2.1.94Z"/><path class="cls-1" d="M31.49,51.81a1.83,1.83,0,0,0-.14-.28,1.6,1.6,0,0,0-2.2-.56h0a1.62,1.62,0,1,0,2.09.93Z"/><path class="cls-1" d="M22,55.1a1.67,1.67,0,1,0,.1.28A1.57,1.57,0,0,0,22,55.1Z"/><path class="cls-1" d="M60.1,49.72a1.63,1.63,0,0,0-1.13,2,1.28,1.28,0,0,0,.11.27,1.63,1.63,0,1,0,1-2.28Z"/><path class="cls-1" d="M70.87,42a2.31,2.31,0,0,0,.1.28,1.63,1.63,0,0,0,2.92-1.43,1.49,1.49,0,0,0-.34-.55L71.86,40l-.2,0a1.57,1.57,0,0,0-.79,2Z"/><path class="cls-1" d="M2.87,31.48a1.75,1.75,0,0,0-.13-.28,1.61,1.61,0,0,0-2.21-.56h0a1.62,1.62,0,1,0,2.1.93Z"/><path class="cls-1" d="M16.1,52.48A1.43,1.43,0,0,0,16,52.2a1.61,1.61,0,0,0-2.21-.57h0a1.63,1.63,0,1,0,2.1.94Z"/><path class="cls-1" d="M52.48,38.58a1.17,1.17,0,0,0-.13-.28,1.61,1.61,0,0,0-2.21-.56h0a1.62,1.62,0,1,0,2.1.93Z"/><path class="cls-1" d="M24.85,48.82a1.67,1.67,0,1,0,.1.28C24.92,49,24.89,48.91,24.85,48.82Z"/><path class="cls-1" d="M34.29,45.53a1,1,0,0,0-.13-.28A1.61,1.61,0,0,0,32,44.69h0a1.62,1.62,0,0,0,1.16,3,1.63,1.63,0,0,0,.94-2.1Z"/><path class="cls-1" d="M35,38.48a1.63,1.63,0,0,0-1.13,2,1.53,1.53,0,0,0,.11.27,1.63,1.63,0,1,0,1-2.28Z"/><path class="cls-1" d="M28,42.67a.93.93,0,0,0-.1-.2,1.62,1.62,0,0,0-2.22-.59h0a1.63,1.63,0,1,0,2.11.92Z"/><path class="cls-1" d="M9.15,34.29A1,1,0,0,0,9,34a1.61,1.61,0,0,0-2.21-.57h0a1.63,1.63,0,1,0,2.1.94Z"/><path class="cls-1" d="M.07,37.76a1.83,1.83,0,0,0-.14-.28,1.6,1.6,0,0,0-2.2-.56h0A1.63,1.63,0,0,0-3.21,39a1.63,1.63,0,0,0,2.1.93,1.63,1.63,0,0,0,.93-2.1Z"/><path class="cls-1" d="M43,41.87a1.64,1.64,0,0,0-2.18-.74,1.63,1.63,0,1,0,2.28,1A1.57,1.57,0,0,0,43,41.87Z"/><path class="cls-1" d="M9.47,30.07a1.52,1.52,0,0,0,.89.13Z"/><path class="cls-1" d="M53.14,54a2.48,2.48,0,0,0-.17-.37,1.62,1.62,0,0,0-2.23-.5h0a1.62,1.62,0,1,0,2.11.92Z"/><path class="cls-1" d="M7,56a1.44,1.44,0,0,0-.16-.33,1.62,1.62,0,0,0-2.24-.52l-.14,0,.3.37.77.94.9,1.11A1.58,1.58,0,0,0,6.7,56Z"/><path class="cls-1" d="M18.89,46.15a1.87,1.87,0,0,0-.15-.32,1.61,1.61,0,0,0-2.23-.51h0a1.61,1.61,0,0,0-.92,2.1,1.63,1.63,0,1,0,3-1.18Z"/><path class="cls-1" d="M7.61,48.87a1.63,1.63,0,0,0-1.13,2,1.53,1.53,0,0,0,.11.27,1.63,1.63,0,1,0,1-2.28Z"/><path class="cls-1" d="M44.75,37.83a1.63,1.63,0,0,0,1.13-2l-2.77-.4a1.5,1.5,0,0,0,1.64,2.4Z"/><path class="cls-1" d="M37,34.35a1.61,1.61,0,0,0,1.64.76,1.57,1.57,0,0,0,.49-.31l-.65-.1-1.79-.29Z"/><path class="cls-1" d="M3.54,46.85l0,0A1.63,1.63,0,0,0,1.39,46h0a1.63,1.63,0,1,0,1.19,3,1.64,1.64,0,0,0,.92-2.11Z"/><path class="cls-1" d="M10.68,42.55a1.62,1.62,0,0,0-1.13,2,1.36,1.36,0,0,0,.11.28,1.63,1.63,0,1,0,1-2.28Z"/><path class="cls-1" d="M21.72,39.91l0,0A1.61,1.61,0,0,0,19.58,39h0a1.62,1.62,0,1,0,2.1.92Z"/><path class="cls-1" d="M28.87,35.6a1.63,1.63,0,0,0-1.13,2,1.53,1.53,0,0,0,.11.27,1.63,1.63,0,1,0,1-2.28Z"/><path class="cls-1" d="M6.35,40.57l0-.1a1.62,1.62,0,0,0-2.15-.8h0a1.63,1.63,0,1,0,2.09.94Z"/><path class="cls-1" d="M15.43,37.1s0-.08,0-.12a1.62,1.62,0,0,0-2.14-.79h0a1.63,1.63,0,1,0,2.1.94Z"/><path class="cls-1" d="M24.54,33.62s0-.07-.05-.1a1.62,1.62,0,0,0-2.15-.8h0a1.63,1.63,0,1,0,2.09.94Z"/><path class="cls-1" d="M16.66,33.07a1.61,1.61,0,0,0,1.58-1.64l-1.12-.18-.59-.1-1.42-.22a1.6,1.6,0,0,0,0,1.08A1.59,1.59,0,0,0,16.66,33.07Z"/><path class="cls-1" d="M65.71,59.58a.69.69,0,0,0,0-.13,1.62,1.62,0,0,0-2.15-.77h0a1.63,1.63,0,1,0,2.1.94Z"/><path class="cls-1" d="M56.41,62.82a1.66,1.66,0,1,0,.1.28A2.31,2.31,0,0,0,56.41,62.82Z"/><path class="cls-1" d="M38.43,70a1.12,1.12,0,0,0,0-.13,1.62,1.62,0,0,0-2.15-.77h0a1.63,1.63,0,1,0,2.1.94Z"/><path class="cls-1" d="M92.61,44.07a1.61,1.61,0,0,0,3.1-.34l-1.55-.25h0l-1.55-.27a1.74,1.74,0,0,0,.06.85Z"/><path class="cls-1" d="M99.25,52A1.62,1.62,0,0,0,97.16,51h0a1.63,1.63,0,1,0,2.1.94Z"/><path class="cls-1" d="M109,63.86h0a1.6,1.6,0,0,0-2.09-.91h0a1.63,1.63,0,1,0,2.1.92Z"/><path class="cls-1" d="M125.31,56.07a1.63,1.63,0,0,0-1.13,2,1.53,1.53,0,0,0,.11.27,1.62,1.62,0,1,0,1-2.28Z"/><path class="cls-1" d="M42.15,56.58a1.62,1.62,0,0,0-1.13,2,1.36,1.36,0,0,0,.11.28,1.63,1.63,0,1,0,1-2.28Z"/><path class="cls-1" d="M142.37,51.13a1.58,1.58,0,0,0,2.8.38l-2.79-.39h0Z"/><path class="cls-1" d="M43.29,87.25h0a1.63,1.63,0,1,0,2.11.92A1.63,1.63,0,0,0,43.27,87.26Z"/><path class="cls-1" d="M47.51,66.51a1.62,1.62,0,0,0-2.09-.92h0a1.63,1.63,0,1,0,2.1.94Z"/><path class="cls-1" d="M36.27,91.64a1.62,1.62,0,0,0-2.08-.93L34,90.8l2,2.43a1.61,1.61,0,0,0,.32-1.57Z"/><path class="cls-1" d="M102,45.41a1.66,1.66,0,1,0,.1.28A1.33,1.33,0,0,0,102,45.41Z"/><path class="cls-1" d="M98,66.49a1.62,1.62,0,0,0-1.13,2,1.36,1.36,0,0,0,.11.28,1.63,1.63,0,0,0,2.92-1.43A1.63,1.63,0,0,0,98,66.49Z"/><path class="cls-1" d="M74.74,56.12a1.62,1.62,0,0,0-2.09-.93h0a1.63,1.63,0,1,0,2.1.94Z"/><path class="cls-1" d="M52.57,83.86a1.62,1.62,0,0,0-1.13,2,2.33,2.33,0,0,0,.11.28,1.63,1.63,0,1,0,1-2.28Z"/><path class="cls-1" d="M134.28,52.49l-.08,0a1.61,1.61,0,1,0,.08,0Z"/><path class="cls-1" d="M70.76,76.91a1.63,1.63,0,0,0-1.13,2,2.33,2.33,0,0,0,.11.28,1.63,1.63,0,1,0,1-2.28Z"/><path class="cls-1" d="M108.26,48.22a1.63,1.63,0,1,0-2.92,1.43,1.62,1.62,0,0,0,3-1.15A1.33,1.33,0,0,0,108.26,48.22Z"/><path class="cls-1" d="M21.15,69.82a1.63,1.63,0,0,0-1.12,2,1.25,1.25,0,0,0,.1.27,1.63,1.63,0,1,0,1-2.28Z"/><path class="cls-1" d="M29.23,73.22a1.6,1.6,0,1,0,.11.27A1.28,1.28,0,0,0,29.23,73.22Z"/><path class="cls-1" d="M63.56,81.24a1.61,1.61,0,0,0-2.08-.92h0a1.63,1.63,0,1,0,2.1.92Z"/><path class="cls-1" d="M93,49.16h0a1.62,1.62,0,0,0-2.09-.92h0a1.63,1.63,0,1,0,2.1.94Z"/><path class="cls-1" d="M83.9,52.63h0a1.61,1.61,0,0,0-2.09-.91h0a1.62,1.62,0,1,0,2.1.93Z"/><path class="cls-1" d="M59.43,56.77v0a1.63,1.63,0,0,0-2.13-.86h0a1.63,1.63,0,1,0,2.1.92Z"/><path class="cls-1" d="M124.41,63.21a.25.25,0,0,0,0-.07,1.62,1.62,0,0,0-2.12-.84h0a1.63,1.63,0,1,0,2.1.94Z"/><path class="cls-1" d="M66.62,52.45a1.62,1.62,0,0,0-1.12,2,1.48,1.48,0,0,0,.1.27,1.63,1.63,0,1,0,1-2.28Z"/><path class="cls-1" d="M75.53,48.9h0a1.63,1.63,0,1,0,2.11.92A1.61,1.61,0,0,0,75.53,48.9Z"/><path class="cls-1" d="M118.13,60.39a1.62,1.62,0,0,0-2.07-.87h0a1.63,1.63,0,1,0,2.1.92Z"/><path class="cls-1" d="M25.86,64.38a1.61,1.61,0,0,0-2.06-.87h0a1.63,1.63,0,1,0,2.11.92Z"/><path class="cls-1" d="M133.5,59.72a1.61,1.61,0,0,0-2.08-.93h0a1.63,1.63,0,1,0,2.1.94Z"/><path class="cls-1" d="M35,60.9a1.63,1.63,0,0,0-2.1-.92h0A1.63,1.63,0,1,0,35,60.9Z"/><path class="cls-1" d="M84.62,45.43h0a1.63,1.63,0,1,0,2.1.92A1.62,1.62,0,0,0,84.62,45.43Z"/><path class="cls-1" d="M142.59,56.23a1.61,1.61,0,0,0-2.08-.91h0a1.63,1.63,0,1,0,2.09.94Z"/><path class="cls-1" d="M60.08,72.13A1.62,1.62,0,0,0,58,71.2h0a1.63,1.63,0,1,0,2.1.94Z"/><path class="cls-1" d="M116.51,47.07a1,1,0,0,0,.21-.09l-.26,0-1.71-.26A1.64,1.64,0,0,0,116.51,47.07Z"/><path class="cls-1" d="M26.53,79.76a1.63,1.63,0,0,0-2.09-.9l-.18.07.39.49.66.8.91,1.11a1.58,1.58,0,0,0,.31-1.57Z"/><path class="cls-1" d="M35.51,76a1.66,1.66,0,1,0,.1.28A1.33,1.33,0,0,0,35.51,76Z"/><path class="cls-1" d="M44.72,72.81v0a1.62,1.62,0,0,0-2.09-.92h0a1.63,1.63,0,1,0,2.1.94Z"/><path class="cls-1" d="M53.7,69.06a1.63,1.63,0,0,0-2.92,1.43,1.62,1.62,0,0,0,3-1.15A1.33,1.33,0,0,0,53.7,69.06Z"/><path class="cls-1" d="M62.91,65.86v0a1.62,1.62,0,0,0-2.09-.92h0a1.63,1.63,0,1,0,2.1.94Z"/><path class="cls-1" d="M72,62.39v0a1.62,1.62,0,0,0-2.09-.91h0a1.63,1.63,0,1,0,2.09.94Z"/><path class="cls-1" d="M81,58.64a1.66,1.66,0,1,0,.1.28A1.33,1.33,0,0,0,81,58.64Z"/><path class="cls-1" d="M90.19,55.44v0a1.62,1.62,0,0,0-2.09-.91h0a1.63,1.63,0,1,0,2.1.94Z"/><path class="cls-1" d="M50.33,60.25a1.61,1.61,0,0,0-2.08-.93h0a1.63,1.63,0,1,0,2.1.92Z"/><path class="cls-1" d="M39.34,62.87a1.63,1.63,0,0,0-1.12,2,1.57,1.57,0,0,0,.1.28,1.64,1.64,0,0,0,2.18.74,1.63,1.63,0,0,0-1.16-3Z"/><path class="cls-1" d="M81.68,74.31a1.6,1.6,0,0,0-2-.89h0a1.63,1.63,0,1,0,1.19,3,1.62,1.62,0,0,0,.92-2.11Z"/><path class="cls-1" d="M32.14,67.2a1.61,1.61,0,0,0-2.08-.93h0a1.63,1.63,0,1,0,1.19,3,1.62,1.62,0,0,0,.92-2.11Z"/><path class="cls-1" d="M90.85,70.81A1.63,1.63,0,0,0,88.78,70h0a1.63,1.63,0,1,0,2.1.92Z"/><path class="cls-1" d="M105.55,54.78a1.59,1.59,0,0,0-2.06-.88h0a1.63,1.63,0,1,0,2.1.94Z"/><path class="cls-1" d="M111.84,57.58a1.62,1.62,0,0,0-2.06-.86h0a1.62,1.62,0,1,0,2.11.92Z"/><path class="cls-1" d="M120.73,49a1.6,1.6,0,0,0,3.08-.87l-3-.44a1.63,1.63,0,0,0-.11,1.35Z"/><path class="cls-1" d="M96.47,58.25a1.64,1.64,0,0,0-2.08-.88h0a1.63,1.63,0,1,0,2.1.94Z"/><path class="cls-1" d="M114.66,51.3a1.64,1.64,0,0,0-2.08-.88h0a1.63,1.63,0,1,0,2.1.94Z"/><path class="cls-1" d="M87.38,61.72a1.62,1.62,0,0,0-2.08-.87h0a1.62,1.62,0,1,0,2.1.93Z"/><path class="cls-1" d="M69.19,68.67a1.64,1.64,0,0,0-2.08-.88h0a1.63,1.63,0,1,0,2.1.94Z"/><path class="cls-1" d="M41.91,79.09a1.62,1.62,0,0,0-2.08-.87h0a1.62,1.62,0,1,0,2.1.93Z"/><path class="cls-1" d="M78.21,65.22a1.61,1.61,0,0,0-2-.9h0a1.63,1.63,0,1,0,2.1.94Z"/><path class="cls-1" d="M130,50.63a1.62,1.62,0,0,0-2.06-.86h0a1.63,1.63,0,1,0,2.11.92Z"/><path class="cls-1" d="M51,75.62a1.64,1.64,0,0,0-2.08-.88h0a1.63,1.63,0,1,0,2.1.94Z"/><path class="cls-1" d="M32.81,82.57a1.62,1.62,0,0,0-2.07-.88h0a1.63,1.63,0,1,0,2.1.94Z"/><path class="cls-1" d="M100.64,60.14h0a1.63,1.63,0,1,0,2.1.92A1.62,1.62,0,0,0,100.63,60.14Z"/><path class="cls-1" d="M119,53.26a1.63,1.63,0,0,0-1.13,2,2.15,2.15,0,0,0,.1.27,1.63,1.63,0,1,0,1-2.28Z"/><path class="cls-1" d="M93.66,64.53h0a1.62,1.62,0,0,0-2.11-.92h0a1.63,1.63,0,1,0,2.1.92Z"/><path class="cls-1" d="M84.56,68v0a1.61,1.61,0,0,0-2.09-.91h0a1.63,1.63,0,1,0,2.1.92Z"/><path class="cls-1" d="M73.56,70.63a1.63,1.63,0,0,0-1.13,2c0,.09.06.19.1.28a1.64,1.64,0,0,0,2.18.74,1.63,1.63,0,0,0-1.15-3Z"/><path class="cls-1" d="M66.38,75h0A1.62,1.62,0,0,0,64.27,74h0a1.63,1.63,0,1,0,2.11.93Z"/><path class="cls-1" d="M57.28,78.43h0a1.62,1.62,0,0,0-2.09-.92h0a1.63,1.63,0,1,0,2.1.92Z"/><path class="cls-1" d="M46.28,81.06a1.62,1.62,0,0,0-1.13,2,1.36,1.36,0,0,0,.11.28,1.63,1.63,0,1,0,1-2.28Z"/><path class="cls-1" d="M39.09,85.38v0A1.62,1.62,0,0,0,37,84.45h0a1.63,1.63,0,1,0,2.1.92Z"/><path class="cls-1" d="M56.7,108.33a1.64,1.64,0,0,0-1.13,2,1.36,1.36,0,0,0,.11.28,1.63,1.63,0,0,0,2.92-1.44A1.64,1.64,0,0,0,56.7,108.33Z"/><path class="cls-1" d="M115.31,66.69v0a1.6,1.6,0,0,0-2.09-.91h0a1.63,1.63,0,1,0,2.1.94Z"/><path class="cls-1" d="M178.06,56.71a1.7,1.7,0,0,0-.54.09,1.6,1.6,0,1,0,2.06,2.05,1.6,1.6,0,0,0-1-2.05Z"/><path class="cls-1" d="M78.94,80.58l0,0a1.61,1.61,0,0,0-2.1-.88h0a1.63,1.63,0,1,0,2.1.94Z"/><path class="cls-1" d="M161.44,64.67a1.61,1.61,0,0,0-2.08-.93h0a1.62,1.62,0,1,0,2.1.93Z"/><path class="cls-1" d="M106.2,70.14a1.62,1.62,0,0,0-2.09-.92h0a1.63,1.63,0,1,0,2.1.94Z"/><path class="cls-1" d="M97.13,73.63v0A1.61,1.61,0,0,0,95,72.7h0a1.62,1.62,0,1,0,2.1.94Z"/><path class="cls-1" d="M97.8,89h0a1.61,1.61,0,0,0-2.1-.92h0a1.62,1.62,0,1,0,2.1.93Z"/><path class="cls-1" d="M148.66,54a1.62,1.62,0,0,0,3-1.16,1.67,1.67,0,0,0-.18-.28l-1.77-.28-.59-.09a1.58,1.58,0,0,0-.48,1.81Z"/><path class="cls-1" d="M69.86,84.05l0,0a1.62,1.62,0,0,0-2.1-.89h0a1.63,1.63,0,1,0,2.1.94Z"/><path class="cls-1" d="M85.16,83.4a1.62,1.62,0,0,0-2.09-.93h0a1.63,1.63,0,1,0,2.1.94Z"/><path class="cls-1" d="M157.8,55.34a1.61,1.61,0,1,0,.11.28A1.36,1.36,0,0,0,157.8,55.34Z"/><path class="cls-1" d="M130.73,66a1.12,1.12,0,0,0,0-.13,1.62,1.62,0,0,0-2.15-.77h0a1.63,1.63,0,1,0,2.1.94Z"/><path class="cls-1" d="M139.61,62.29a1.61,1.61,0,1,0,.11.28A1.36,1.36,0,0,0,139.61,62.29Z"/><path class="cls-1" d="M112.34,72.71a1.66,1.66,0,1,0,.1.28C112.41,72.9,112.38,72.8,112.34,72.71Z"/><path class="cls-1" d="M148.89,59.07a.36.36,0,0,1,0-.09,1.61,1.61,0,0,0-2.13-.83h0a1.63,1.63,0,1,0,2.1.94Z"/><path class="cls-1" d="M121.61,69.49a.36.36,0,0,1,0-.09,1.62,1.62,0,0,0-2.13-.83h0a1.63,1.63,0,1,0,2.1.94Z"/><path class="cls-1" d="M94.33,79.91l0-.09A1.62,1.62,0,0,0,92.16,79h0a1.62,1.62,0,1,0,2.1.94Z"/><path class="cls-1" d="M103.42,76.44a.36.36,0,0,1,0-.09,1.61,1.61,0,0,0-2.13-.83h0a1.63,1.63,0,1,0,2.1.94Z"/><path class="cls-1" d="M107.58,78.31h0a1.63,1.63,0,1,0,2.1.94A1.61,1.61,0,0,0,107.58,78.31Z"/><path class="cls-1" d="M66.92,90.07a1.64,1.64,0,1,0,.1.27A1.25,1.25,0,0,0,66.92,90.07Z"/><path class="cls-1" d="M76.14,86.86l0,0a1.61,1.61,0,0,0-2.1-.89h0a1.62,1.62,0,1,0,2.1.94Z"/><path class="cls-1" d="M48.86,97.28l0,0a1.62,1.62,0,0,0-2.1-.89h0a1.63,1.63,0,1,0,2.1.94Z"/><path class="cls-1" d="M58,93.81l0,0a1.61,1.61,0,0,0-2.1-.89h0a1.62,1.62,0,1,0,2.1.93Z"/><path class="cls-1" d="M164.25,58.4v0a1.61,1.61,0,0,0-2.08-.92h0a1.63,1.63,0,1,0,2.1.94Z"/><path class="cls-1" d="M155.17,61.88v0a1.63,1.63,0,0,0-2.11-.92h0a1.63,1.63,0,1,0,2.1.94Z"/><path class="cls-1" d="M118.78,75.77v0a1.61,1.61,0,0,0-2.09-.91h0a1.63,1.63,0,1,0,2.1.94Z"/><path class="cls-1" d="M127.89,72.3v0a1.64,1.64,0,0,0-2.11-.92h0a1.63,1.63,0,1,0,2.1.94Z"/><path class="cls-1" d="M82.42,89.67h0a1.64,1.64,0,0,0-2.11-.93h0a1.63,1.63,0,1,0,2.1.94Z"/><path class="cls-1" d="M42.56,94.48v0a1.61,1.61,0,0,0-2.09-.91h0a1.63,1.63,0,1,0,2.1.94Z"/><path class="cls-1" d="M51.66,91v0a1.62,1.62,0,0,0-2.1-.89h0a1.63,1.63,0,1,0,2.1.94Z"/><path class="cls-1" d="M60.75,87.53v0a1.61,1.61,0,0,0-2.09-.91h0a1.62,1.62,0,1,0,2.1.93Z"/><path class="cls-1" d="M91.51,86.2v0a1.61,1.61,0,0,0-2.09-.91h0a1.63,1.63,0,1,0,2.1.94Z"/><path class="cls-1" d="M46,103.57a1.61,1.61,0,0,0-2.08-.89.85.85,0,0,0-.24.09l.5.61.55.67.95,1.16a1.59,1.59,0,0,0,.3-1.64Z"/><path class="cls-1" d="M55.14,100.09h0a1.62,1.62,0,0,0-2.1-.92h0a1.62,1.62,0,1,0,2.09.94Z"/><path class="cls-1" d="M146.08,65.35h0a1.64,1.64,0,0,0-2.11-.93h0a1.63,1.63,0,1,0,2.1.94Z"/><path class="cls-1" d="M137,68.83v0a1.61,1.61,0,0,0-2.09-.91h0a1.63,1.63,0,1,0,2.1.94Z"/><path class="cls-1" d="M100.61,82.72h0a1.62,1.62,0,0,0-2.1-.92h0a1.62,1.62,0,1,0,2.1.93Z"/><path class="cls-1" d="M73.33,93.14h0a1.61,1.61,0,0,0-2.1-.92h0a1.63,1.63,0,1,0,2.1.94Z"/><path class="cls-1" d="M170.55,61.21v0a1.63,1.63,0,0,0-2.1-.92h0a1.63,1.63,0,1,0,2.1.94Z"/><path class="cls-1" d="M174.92,63.17a1.63,1.63,0,0,0-1.13,2,1.53,1.53,0,0,0,.11.27,1.63,1.63,0,1,0,1-2.28Z"/><path class="cls-1" d="M64.23,96.62v0a1.61,1.61,0,0,0-2.09-.91h0a1.63,1.63,0,1,0,2.1.94Z"/><path class="cls-1" d="M125.08,78.58h0a1.63,1.63,0,0,0-2.1-.93h0a1.63,1.63,0,1,0,2.1.94Z"/><path class="cls-1" d="M88,77.11v0a1.6,1.6,0,0,0-2.09-.91h0a1.63,1.63,0,1,0,2.1.94Z"/><path class="cls-1" d="M170.33,56.08h0a1.58,1.58,0,0,0,3-.11l-1.44-.23-.49-.07-1.21-.2a1.66,1.66,0,0,0,.11.62Z"/><path class="cls-1" d="M106.89,85.53v0a1.63,1.63,0,0,0-2.1-.92h0a1.63,1.63,0,1,0,2.09.94Z"/><path class="cls-1" d="M134.2,75.09l0,0a1.62,1.62,0,0,0-2.13-.87h0a1.63,1.63,0,1,0,2.1.94Z"/><path class="cls-1" d="M152.36,68.16v0a1.63,1.63,0,0,0-2.1-.92h0a1.63,1.63,0,1,0,2.09.94Z"/><path class="cls-1" d="M143.26,71.63v0a1.62,1.62,0,0,0-2.09-.92h0a1.63,1.63,0,1,0,2.1.94Z"/><path class="cls-1" d="M116,82.06v0a1.61,1.61,0,0,0-2.09-.91h0a1.63,1.63,0,1,0,2.1.94Z"/><path class="cls-1" d="M79.61,96h0A1.61,1.61,0,0,0,77.5,95h0a1.62,1.62,0,1,0,2.1.93Z"/><path class="cls-1" d="M88.63,92.5a1.6,1.6,0,0,0-2-1h0a1.63,1.63,0,1,0,2.09.94Z"/><path class="cls-1" d="M61.42,102.9h0a1.63,1.63,0,0,0-2.1-.93h0a1.63,1.63,0,1,0,2.1.94Z"/><path class="cls-1" d="M70.51,99.43v0a1.61,1.61,0,0,0-2.09-.91h0a1.63,1.63,0,1,0,2.1.94Z"/><path class="cls-1" d="M52.33,106.37h0a1.61,1.61,0,0,0-2.1-.92h0a1.63,1.63,0,1,0,2.1.94Z"/><path class="cls-1" d="M185.92,60.54a1.61,1.61,0,0,0-2.08-.93h0a1.63,1.63,0,0,0,1.19,3,1.64,1.64,0,0,0,.92-2.11Z"/><path class="cls-1" d="M95,95.29a1.62,1.62,0,0,0-2.08-.94h0a1.63,1.63,0,1,0,2.11.93Z"/><path class="cls-1" d="M167.73,67.49a1.61,1.61,0,0,0-2.08-.93h0a1.63,1.63,0,1,0,1.19,3,1.64,1.64,0,0,0,.92-2.11Z"/><path class="cls-1" d="M156.74,70.12a1.62,1.62,0,0,0-1.13,2,1.36,1.36,0,0,0,.11.28,1.63,1.63,0,1,0,1-2.28Z"/><path class="cls-1" d="M147.45,73.51h0a1.62,1.62,0,1,0,2.11.92A1.62,1.62,0,0,0,147.44,73.52Z"/><path class="cls-1" d="M140.45,77.91a1.62,1.62,0,0,0-2.08-.93h0a1.63,1.63,0,1,0,2.11.92Z"/><path class="cls-1" d="M67.7,105.71a1.61,1.61,0,0,0-2.08-.93h0a1.62,1.62,0,1,0,2.11.92Z"/><path class="cls-1" d="M129.46,80.54a1.62,1.62,0,0,0-1.13,2,2.33,2.33,0,0,0,.11.28,1.63,1.63,0,1,0,1-2.28Z"/><path class="cls-1" d="M122.26,84.86a1.61,1.61,0,0,0-2.08-.93h0a1.63,1.63,0,1,0,1.19,3,1.64,1.64,0,0,0,.92-2.11Z"/><path class="cls-1" d="M113.16,88.34a1.63,1.63,0,0,0-2.09-.93h0a1.63,1.63,0,1,0,2.11.93Z"/><path class="cls-1" d="M102,90.88h0a1.63,1.63,0,1,0,2.11.92A1.62,1.62,0,0,0,102,90.89Z"/><path class="cls-1" d="M84,97.91a1.63,1.63,0,0,0-1.13,2,2.33,2.33,0,0,0,.11.28,1.63,1.63,0,1,0,1-2.28Z"/><path class="cls-1" d="M74.71,101.3h0a1.63,1.63,0,1,0,2.11.92A1.63,1.63,0,0,0,74.69,101.31Z"/><path class="cls-1" d="M62.08,118.26a1.62,1.62,0,0,0-2.09-.92h0a1.63,1.63,0,1,0,2.1.94Z"/><path class="cls-1" d="M181.68,81.27h0a1.63,1.63,0,1,0,2.1.94A1.63,1.63,0,0,0,181.68,81.27Z"/><path class="cls-1" d="M177.49,79.37a1.61,1.61,0,0,0-2.09-.91h0a1.63,1.63,0,1,0,2.1.94Z"/><path class="cls-1" d="M129.2,103a1.61,1.61,0,0,0-2.08-.93h0a1.62,1.62,0,1,0,2.1.93Z"/><path class="cls-1" d="M98.35,104.11a1.66,1.66,0,1,0,.1.28A1.33,1.33,0,0,0,98.35,104.11Z"/><path class="cls-1" d="M186.58,75.9a1.61,1.61,0,0,0-2.09-.91h0a1.62,1.62,0,1,0,2.1.94Z"/><path class="cls-1" d="M141.15,93.28a.14.14,0,0,0,0-.06,1.61,1.61,0,0,0-2.11-.86h0a1.63,1.63,0,1,0,2.1.94Z"/><path class="cls-1" d="M68.36,121.06a1.62,1.62,0,0,0-2.09-.91h0a1.63,1.63,0,1,0,2.1.94Z"/><path class="cls-1" d="M174.67,85.67a1.61,1.61,0,0,0-2.08-.93h0a1.63,1.63,0,1,0,2.1.94Z"/><path class="cls-1" d="M95.58,110.68a1.61,1.61,0,0,0-2.08-.93h0a1.63,1.63,0,1,0,2.1.94Z"/><path class="cls-1" d="M86.56,114.14l0-.09a1.61,1.61,0,0,0-2.12-.82h0a1.62,1.62,0,1,0,2.09.93Z"/><path class="cls-1" d="M192.63,59.05a1.54,1.54,0,0,0,1.13.18Z"/><path class="cls-1" d="M74.65,123.9l0-.08A1.61,1.61,0,0,0,72.5,123h0a1.63,1.63,0,1,0,2.09.94Z"/><path class="cls-1" d="M83.75,120.42l0-.06a1.61,1.61,0,0,0-2.13-.85h0a1.62,1.62,0,1,0,2.1.93Z"/><path class="cls-1" d="M92.84,117l0-.07a1.63,1.63,0,0,0-2.13-.85h0a1.63,1.63,0,1,0,2.1.94Z"/><path class="cls-1" d="M150,89.57a1.66,1.66,0,1,0,.1.28A1.33,1.33,0,0,0,150,89.57Z"/><path class="cls-1" d="M156.5,92.63l0-.07a1.63,1.63,0,0,0-2.13-.85h0a1.63,1.63,0,1,0,2.1.94Z"/><path class="cls-1" d="M195.51,72.2a1.66,1.66,0,1,0,.1.28A2.31,2.31,0,0,0,195.51,72.2Z"/><path class="cls-1" d="M104.75,107.19l0-.09a1.61,1.61,0,0,0-2.12-.82h0a1.62,1.62,0,1,0,2.09.93Z"/><path class="cls-1" d="M171,76.34a1.61,1.61,0,1,0,.11.28A1.36,1.36,0,0,0,171,76.34Z"/><path class="cls-1" d="M162.12,80.07a.36.36,0,0,1,0-.09,1.61,1.61,0,0,0-2.13-.83h0a1.63,1.63,0,1,0,2.1.94Z"/><path class="cls-1" d="M122.76,100a1.63,1.63,0,1,0-2.92,1.44,1.62,1.62,0,0,0,3-1.16A1.33,1.33,0,0,0,122.76,100Z"/><path class="cls-1" d="M168.23,82.62a1.63,1.63,0,0,0-2.18-.74,1.62,1.62,0,1,0,2.28,1A1.33,1.33,0,0,0,168.23,82.62Z"/><path class="cls-1" d="M192.87,78.73v0a1.62,1.62,0,0,0-2.09-.92h0a1.63,1.63,0,1,0,2.1.94Z"/><path class="cls-1" d="M159.31,86.35l0,0a1.61,1.61,0,0,0-2.1-.9h0a1.63,1.63,0,1,0,2.1.94Z"/><path class="cls-1" d="M132,96.77l0,0a1.61,1.61,0,0,0-2.09-.9h0a1.63,1.63,0,0,0,1.16,3,1.61,1.61,0,0,0,.93-2.1Z"/><path class="cls-1" d="M89.37,107.86l0,0a1.6,1.6,0,0,0-2.1-.89h0a1.62,1.62,0,1,0,2.1.93Z"/><path class="cls-1" d="M164.92,73.77h0a1.6,1.6,0,0,0-2.09-.91h0a1.62,1.62,0,1,0,2.11.92Z"/><path class="cls-1" d="M71.06,114.54a1.64,1.64,0,1,0,.1.27A1.48,1.48,0,0,0,71.06,114.54Z"/><path class="cls-1" d="M77.34,117.34a1.67,1.67,0,1,0,.1.28A1.57,1.57,0,0,0,77.34,117.34Z"/><path class="cls-1" d="M165.59,89.16v0a1.62,1.62,0,0,0-2.1-.92h0a1.63,1.63,0,1,0,2.09.94Z"/><path class="cls-1" d="M110.36,94.62h0a1.62,1.62,0,0,0-2.11-.92h0a1.63,1.63,0,0,0,1.19,3,1.64,1.64,0,0,0,.92-2.11Z"/><path class="cls-1" d="M147.39,96.09a1.61,1.61,0,0,0-2.08-.93h0a1.62,1.62,0,1,0,2.1.93Z"/><path class="cls-1" d="M192.2,63.35a1.61,1.61,0,0,0-2.08-.93h0a1.63,1.63,0,1,0,2.11.92Z"/><path class="cls-1" d="M101.92,113.46a1.61,1.61,0,0,0-2.08-.93h0a1.63,1.63,0,1,0,2.1.94Z"/><path class="cls-1" d="M120.1,106.53a1.62,1.62,0,0,0-2.08-.94h0a1.63,1.63,0,1,0,2.1.94Z"/><path class="cls-1" d="M135.58,83.25h0a1.62,1.62,0,0,0-.92,2.11,1.63,1.63,0,1,0,.93-2.12Z"/><path class="cls-1" d="M198.29,61a1.61,1.61,0,0,0,3.12-.63l-3.09-.5a1.55,1.55,0,0,0,0,1.12Z"/><path class="cls-1" d="M111,110a1.63,1.63,0,0,0-2-1h0a1.63,1.63,0,1,0,2.09.94Z"/><path class="cls-1" d="M65.56,127.37a1.62,1.62,0,0,0-2-.9.94.94,0,0,0-.28.1l.6.73.44.54,1,1.18a1.6,1.6,0,0,0,.34-1.68Z"/><path class="cls-1" d="M138.31,99.58a1.63,1.63,0,0,0-2-1h0a1.63,1.63,0,1,0,2.1.94Z"/><path class="cls-1" d="M116.62,97.42a1.62,1.62,0,0,0-2.09-.92h0a1.63,1.63,0,1,0,2.1.94Z"/><path class="cls-1" d="M80.28,111.33l0,0a1.61,1.61,0,0,0-2.09-.89h0a1.63,1.63,0,1,0,2.09.94Z"/><path class="cls-1" d="M125.62,93.69a1.63,1.63,0,1,0-2.92,1.44,1.62,1.62,0,0,0,3-1.16A2.31,2.31,0,0,0,125.62,93.69Z"/><path class="cls-1" d="M143.81,86.74a1.67,1.67,0,1,0,.1.28A1.57,1.57,0,0,0,143.81,86.74Z"/><path class="cls-1" d="M92.11,101.59a1.62,1.62,0,0,0-2.09-.93h0a1.63,1.63,0,1,0,2.11.92Z"/><path class="cls-1" d="M107.56,100.91l0-.09a1.61,1.61,0,0,0-2.13-.82h0a1.62,1.62,0,0,0,1.16,3,1.63,1.63,0,0,0,.94-2.1Z"/><path class="cls-1" d="M153,83.54a.36.36,0,0,1,0-.09,1.61,1.61,0,0,0-2.13-.83h0a1.63,1.63,0,1,0,2.1.94Z"/><path class="cls-1" d="M134.84,90.49a.36.36,0,0,1,0-.09,1.61,1.61,0,0,0-2.13-.83h0a1.63,1.63,0,1,0,2.1.94Z"/><path class="cls-1" d="M174,70.3l0-.06a1.64,1.64,0,0,0-2.14-.85h0a1.62,1.62,0,0,0-.92,2.11,1.63,1.63,0,0,0,3-1.19Z"/><path class="cls-1" d="M198.5,66.17l0,0a1.61,1.61,0,0,0-2.1-.9h0a1.63,1.63,0,1,0,2.1.94Z"/><path class="cls-1" d="M180.31,73.12l0,0a1.61,1.61,0,0,0-2.1-.9h0a1.63,1.63,0,1,0,2.1.94Z"/><path class="cls-1" d="M64.89,112h0a1.62,1.62,0,0,0-2.11-.92h0a1.63,1.63,0,0,0,1.19,3,1.64,1.64,0,0,0,.92-2.11Z"/><path class="cls-1" d="M74,108.52v0a1.6,1.6,0,0,0-2.09-.91h0a1.62,1.62,0,0,0-.92,2.11,1.63,1.63,0,1,0,3-1.19Z"/><path class="cls-1" d="M101.27,98.09h0a1.62,1.62,0,0,0-2.11-.92h0a1.63,1.63,0,1,0,2.11.92Z"/><path class="cls-1" d="M113.84,103.72l0,0a1.61,1.61,0,0,0-2.09-.9h0a1.63,1.63,0,1,0,2.1.94Z"/><path class="cls-1" d="M55.8,115.46a1.61,1.61,0,0,0-2.09-.87l-.25.1,2,2.44a1.58,1.58,0,0,0,.34-1.67Z"/><path class="cls-1" d="M128.55,87.67h0a1.62,1.62,0,0,0-2.11-.92h0a1.63,1.63,0,1,0,2.11.92Z"/><path class="cls-1" d="M189.39,69.64v0a1.6,1.6,0,0,0-2.08-.91h0a1.63,1.63,0,1,0,2.1.94Z"/><path class="cls-1" d="M119.45,91.14h0a1.6,1.6,0,0,0-2.09-.91h0a1.63,1.63,0,0,0,1.18,3,1.64,1.64,0,0,0,.93-2.11Z"/><path class="cls-1" d="M146.73,80.72a1.62,1.62,0,0,0-2-1l-.09,0a1.63,1.63,0,1,0,2.11.93Z"/><path class="cls-1" d="M155.83,77.25h0a1.64,1.64,0,0,0-2.11-.93h0a1.62,1.62,0,0,0-.92,2.11,1.63,1.63,0,1,0,3-1.19Z"/><path class="cls-1" d="M183.11,66.82h0A1.63,1.63,0,0,0,181,65.9h0a1.61,1.61,0,0,0-.92,2.1,1.63,1.63,0,1,0,3-1.18Z"/><path class="cls-1" d="M83.08,105a1.62,1.62,0,0,0-2.08-.93h0a1.63,1.63,0,1,0,2.1.92Z"/><path class="cls-1" d="M174.11,115.59a1.63,1.63,0,0,0-1.13,2,2.33,2.33,0,0,0,.11.28,1.63,1.63,0,1,0,1-2.28Z"/><path class="cls-1" d="M126.4,109.33l0,0a1.61,1.61,0,0,0-2.08-.93h0a1.63,1.63,0,1,0,2.11.92Z"/><path class="cls-1" d="M99.06,119.78a1.62,1.62,0,0,0-2-1h0a1.63,1.63,0,1,0,2.11.93Z"/><path class="cls-1" d="M135.5,105.86v0a1.63,1.63,0,0,0-2.1-.94h0a1.62,1.62,0,1,0,2.11.92Z"/><path class="cls-1" d="M148.09,111.45a1.62,1.62,0,0,0-2.09-.92h0a1.63,1.63,0,1,0,2.1.94Z"/><path class="cls-1" d="M115.45,111.94a1.63,1.63,0,1,0,1.9.85A1.63,1.63,0,0,0,115.45,111.94Z"/><path class="cls-1" d="M171.87,92a1.62,1.62,0,0,0-2.05-.94h0a1.63,1.63,0,0,0,1.18,3,1.64,1.64,0,0,0,.93-2.11Z"/><path class="cls-1" d="M153.68,98.91a1.62,1.62,0,0,0-2-1l0,0a1.63,1.63,0,0,0,1.18,3,1.64,1.64,0,0,0,.93-2.11Z"/><path class="cls-1" d="M87.22,129.51a1.62,1.62,0,0,0-2-.94h0a1.63,1.63,0,1,0,2.11.92Z"/><path class="cls-1" d="M142.73,101.52a1.63,1.63,0,0,0-1.13,2,1.53,1.53,0,0,0,.11.27,1.63,1.63,0,1,0,1-2.28Z"/><path class="cls-1" d="M88.17,122.36a1.64,1.64,0,0,0-1.13,2,1.36,1.36,0,0,0,.11.28,1.63,1.63,0,0,0,2.92-1.44A1.64,1.64,0,0,0,88.17,122.36Z"/><path class="cls-1" d="M166.92,119.91a1.62,1.62,0,0,0-2-.89h0a1.63,1.63,0,1,0,2.11.92Z"/><path class="cls-1" d="M108.22,116.28a1.63,1.63,0,0,0-2.06-.94h0a1.63,1.63,0,1,0,2.11.92Z"/><path class="cls-1" d="M80.93,126.71a1.62,1.62,0,0,0-2.05-.95h0a1.63,1.63,0,0,0,1.19,3,1.64,1.64,0,0,0,.92-2.11Z"/><path class="cls-1" d="M70,129.31a1.63,1.63,0,1,0,1.9.85A1.63,1.63,0,0,0,70,129.31Z"/><path class="cls-1" d="M178.15,94.77a1.6,1.6,0,0,0-2.05-.94h0a1.62,1.62,0,1,0,1.19,3,1.63,1.63,0,0,0,.92-2.1Z"/><path class="cls-1" d="M167.2,97.38a1.63,1.63,0,0,0-1.13,2,1.53,1.53,0,0,0,.11.27,1.63,1.63,0,1,0,1-2.28Z"/><path class="cls-1" d="M160,101.72a1.62,1.62,0,0,0-2.06-.94h0a1.63,1.63,0,1,0,2.11.92Z"/><path class="cls-1" d="M150.87,105.19a1.61,1.61,0,0,0-2-.94h0a1.62,1.62,0,0,0-.92,2.1,1.63,1.63,0,1,0,3-1.18Z"/><path class="cls-1" d="M105.4,122.56a1.61,1.61,0,0,0-2-.94h0a1.62,1.62,0,0,0-.92,2.11,1.63,1.63,0,1,0,3-1.19Z"/><path class="cls-1" d="M81.53,141.8a1.6,1.6,0,1,0,.11.27C81.61,142,81.57,141.89,81.53,141.8Z"/><path class="cls-1" d="M90.7,138.61a1.61,1.61,0,0,0-2.06-1h0a1.63,1.63,0,1,0,2.1.94Z"/><path class="cls-1" d="M99.79,135.14a1.6,1.6,0,0,0-2.06-.95h0a1.62,1.62,0,1,0,2.1.93Z"/><path class="cls-1" d="M108.81,131.37a1.67,1.67,0,1,0,.1.28A1.57,1.57,0,0,0,108.81,131.37Z"/><path class="cls-1" d="M118,128.19a1.6,1.6,0,0,0-2.06-1h0a1.62,1.62,0,1,0,2.1.93Z"/><path class="cls-1" d="M127.05,124.72a1.61,1.61,0,0,0-2-1h0a1.63,1.63,0,1,0,2.1.94Z"/><path class="cls-1" d="M136.09,121a1.63,1.63,0,1,0-2.92,1.44,1.62,1.62,0,0,0,3-1.16A1.33,1.33,0,0,0,136.09,121Z"/><path class="cls-1" d="M172.54,107.35a1.62,1.62,0,0,0-2.06-1h0a1.63,1.63,0,1,0,2.09.94Z"/><path class="cls-1" d="M181.56,103.58a1.63,1.63,0,0,0-2.92,1.43,1.62,1.62,0,0,0,3-1.15A1.33,1.33,0,0,0,181.56,103.58Z"/><path class="cls-1" d="M84.34,135.52a1.64,1.64,0,1,0,.1.27A1.25,1.25,0,0,0,84.34,135.52Z"/><path class="cls-1" d="M139.92,107.8a1.63,1.63,0,0,0-1.13,2,2.18,2.18,0,0,0,.11.27,1.63,1.63,0,1,0,1-2.28Z"/><path class="cls-1" d="M132.68,112.14a1.62,1.62,0,0,0-2.05-.94h0a1.61,1.61,0,0,0-.92,2.1,1.63,1.63,0,1,0,3-1.18Z"/><path class="cls-1" d="M123.58,115.62a1.64,1.64,0,0,0-2-1h0a1.63,1.63,0,1,0,2.11.92Z"/><path class="cls-1" d="M145.26,117.77a1.62,1.62,0,0,0-2.06-1h0a1.63,1.63,0,1,0,2.1.94Z"/><path class="cls-1" d="M154.28,114a1.67,1.67,0,1,0,.1.28A1.57,1.57,0,0,0,154.28,114Z"/><path class="cls-1" d="M163.45,110.82a1.62,1.62,0,0,0-2.06-1h0a1.63,1.63,0,1,0,2.1.94Z"/><path class="cls-1" d="M185.39,90.43a1.63,1.63,0,0,0-1.13,2,1.53,1.53,0,0,0,.11.27,1.63,1.63,0,1,0,1-2.28Z"/><path class="cls-1" d="M181,88.49a1.62,1.62,0,0,0-2.06-.94h0a1.63,1.63,0,1,0,2.11.92Z"/><path class="cls-1" d="M188.2,84.15a1.63,1.63,0,0,0-1.13,2,1.53,1.53,0,0,0,.11.27,1.63,1.63,0,1,0,1-2.28Z"/><path class="cls-1" d="M160.92,94.57a1.63,1.63,0,0,0-1.13,2,1.28,1.28,0,0,0,.11.27,1.63,1.63,0,1,0,1-2.28Z"/><path class="cls-1" d="M157.09,107.72a1.63,1.63,0,0,0-2.92,1.44,1.62,1.62,0,0,0,3-1.16A1.33,1.33,0,0,0,157.09,107.72Z"/><path class="cls-1" d="M133.35,127.53a1.61,1.61,0,0,0-2-1h0a1.63,1.63,0,1,0,2.1.94Z"/><path class="cls-1" d="M106,138a1.62,1.62,0,0,0-2-1h0a1.63,1.63,0,1,0,2.1.94Z"/><path class="cls-1" d="M115.17,134.47a1,1,0,0,0,0-.1,1.27,1.27,0,1,0,.08.09Z"/><path class="cls-1" d="M97,141.42a1.62,1.62,0,0,0-2.06-.95h0a1.62,1.62,0,1,0,2.1.93Z"/><path class="cls-1" d="M87.88,144.9a1.61,1.61,0,0,0-2-1h0a1.63,1.63,0,1,0,2.1.94Z"/><path class="cls-1" d="M160.63,117.1h0a1.61,1.61,0,1,0-1,2.07,1.62,1.62,0,0,0,1-2.07Z"/><path class="cls-1" d="M169.73,113.63a1.63,1.63,0,0,0-2.06-1h0a1.63,1.63,0,1,0,2.1.94Z"/><path class="cls-1" d="M151.58,120.56a1.63,1.63,0,0,0-2.1-.94h0a1.63,1.63,0,1,0,2.1.94Z"/><path class="cls-1" d="M142.45,124.05a1.63,1.63,0,0,0-2.06-1h0a1.63,1.63,0,1,0,2.1.94Z"/><path class="cls-1" d="M129.81,118.14a1.67,1.67,0,1,0,.1.28A1.57,1.57,0,0,0,129.81,118.14Z"/><path class="cls-1" d="M139,115a1.6,1.6,0,0,0-2.06-.95h0a1.62,1.62,0,1,0,2.09.93Z"/><path class="cls-1" d="M120.79,121.91a1.6,1.6,0,0,0-2.06-1h0a1.62,1.62,0,1,0,2.09.93Z"/><path class="cls-1" d="M111.7,125.38a1.61,1.61,0,0,0-2.06-.95h0a1.63,1.63,0,1,0,2.1.94Z"/><path class="cls-1" d="M184.45,97.59a1.62,1.62,0,0,0-2.06-1h0a1.63,1.63,0,1,0,2.09.94Z"/><path class="cls-1" d="M75.32,139.28a1.62,1.62,0,0,0-2-.89,1.34,1.34,0,0,0-.3.12L75,141a1.58,1.58,0,0,0,.36-1.7Z"/><path class="cls-1" d="M175.25,100.78a1.63,1.63,0,0,0-2.92,1.44,1.63,1.63,0,0,0,3-1.16A1.36,1.36,0,0,0,175.25,100.78Z"/><path class="cls-1" d="M166.26,104.54v0a1.62,1.62,0,0,0-2.08-.93h0a1.63,1.63,0,1,0,2.1.94Z"/><path class="cls-1" d="M124.26,131a1.63,1.63,0,0,0-2.09-.95h0a1.63,1.63,0,1,0,2.1.94Z"/><path class="cls-1" d="M178.82,110.15h0a1.61,1.61,0,0,0-2.08-.94h0a1.63,1.63,0,1,0,2.1.94Z"/><path class="cls-1" d="M114.5,119.09a1.62,1.62,0,0,0-2.08-.93h0a1.63,1.63,0,1,0,2.1.92Z"/><path class="cls-1" d="M94.42,125.18a1.63,1.63,0,0,0-1.12,2,1.25,1.25,0,0,0,.1.27,1.63,1.63,0,1,0,1-2.28Z"/><path class="cls-1" d="M102.53,128.88a1.61,1.61,0,0,0-2-1h0a1.63,1.63,0,1,0,2.1.94Z"/><path class="cls-1" d="M146.83,126a1.63,1.63,0,0,0-1.13,2,2.33,2.33,0,0,0,.11.28,1.63,1.63,0,1,0,1-2.28Z"/><path class="cls-1" d="M93.5,132.3a1.62,1.62,0,0,0-2.09-.91h0a1.63,1.63,0,1,0,2.1.94Z"/><path class="cls-1" d="M157.82,123.38a1.62,1.62,0,0,0-2.08-.93h0a1.63,1.63,0,1,0,2.11.92Z"/><path class="cls-1" d="M78.12,133a1.6,1.6,0,0,0-2.08-.93h0a1.62,1.62,0,1,0,2.11.92Z"/><path class="cls-1" d="M122.77,168a1.62,1.62,0,0,0-2.08-.93h0a1.63,1.63,0,1,0,2.11.92Z"/><path class="cls-1" d="M134,142.86a1.6,1.6,0,0,0-2.09-.91h0a1.63,1.63,0,1,0,2.1.94Z"/><path class="cls-1" d="M171.28,121.85a1.62,1.62,0,0,0-1.13,2,2.33,2.33,0,0,0,.11.28,1.63,1.63,0,1,0,1-2.28Z"/><path class="cls-1" d="M103.93,159.61l0-.06a1.61,1.61,0,0,0-2.09-.9h0a1.63,1.63,0,1,0,2.1.94Z"/><path class="cls-1" d="M119.91,174.36a1.62,1.62,0,0,0-2.08-.93h0a1.63,1.63,0,1,0,2.1.94Z"/><path class="cls-1" d="M99,165h0a1.63,1.63,0,1,0,2.1.94A1.63,1.63,0,0,0,99,165Z"/><path class="cls-1" d="M119.29,158.93a1.61,1.61,0,0,0-2.08-.93h0a1.62,1.62,0,1,0,2.1.94Z"/><path class="cls-1" d="M105.5,167.85a1.62,1.62,0,0,0-1.12,2,1.33,1.33,0,0,0,.1.28,1.63,1.63,0,1,0,1-2.28Z"/><path class="cls-1" d="M144.42,170.17a1.62,1.62,0,0,0-2.09-.92h0a1.63,1.63,0,1,0,2.1.94Z"/><path class="cls-1" d="M143.09,139.4a1.6,1.6,0,0,0-2.08-.93h0a1.63,1.63,0,1,0,2.1.94Z"/><path class="cls-1" d="M157.25,153.29a1.62,1.62,0,0,0-1.12,2,1.33,1.33,0,0,0,.1.28,1.63,1.63,0,0,0,2.92-1.43A1.61,1.61,0,0,0,157.25,153.29Z"/><path class="cls-1" d="M125.58,161.71a1.63,1.63,0,1,0-.91,2.15,1.63,1.63,0,0,0,.91-2.15Z"/><path class="cls-1" d="M138.85,160.16h0a1.63,1.63,0,1,0,2.11.92A1.63,1.63,0,0,0,138.84,160.17Z"/><path class="cls-1" d="M152.87,151.33h0a1.62,1.62,0,0,0-2.11-.92h0a1.63,1.63,0,1,0,2.11.92Z"/><path class="cls-1" d="M143.77,154.8h0a1.6,1.6,0,0,0-2.09-.91h0a1.62,1.62,0,0,0-.92,2.11,1.63,1.63,0,0,0,3-1.19Z"/><path class="cls-1" d="M132.77,157.43a1.63,1.63,0,0,0-1.13,2,1.28,1.28,0,0,0,.11.27,1.63,1.63,0,1,0,1-2.28Z"/><path class="cls-1" d="M115.81,149.82a1.61,1.61,0,0,0-2.08-.93h0a1.63,1.63,0,1,0,2.1.94Z"/><path class="cls-1" d="M153.42,166.44a1.6,1.6,0,1,0,.11.27C153.5,166.62,153.46,166.53,153.42,166.44Z"/><path class="cls-1" d="M148,156.68h0a1.63,1.63,0,1,0,2.11.92A1.61,1.61,0,0,0,148,156.68Z"/><path class="cls-1" d="M129.78,163.63h0a1.62,1.62,0,1,0,2.1.92A1.63,1.63,0,0,0,129.77,163.64Z"/><path class="cls-1" d="M119.36,136.35h0a1.63,1.63,0,1,0,2.11.92A1.62,1.62,0,0,0,119.34,136.36Z"/><path class="cls-1" d="M135.38,151.06h0a1.63,1.63,0,1,0,2.1.94A1.63,1.63,0,0,0,135.38,151.06Z"/><path class="cls-1" d="M129.07,170.85a1.61,1.61,0,0,0-2.09-.91h0a1.63,1.63,0,1,0,2.1.94Z"/><path class="cls-1" d="M138.16,167.38a1.62,1.62,0,0,0-2.09-.92h0a1.63,1.63,0,1,0,2.1.94Z"/><path class="cls-1" d="M94.17,147.7a1.61,1.61,0,0,0-2.08-.9h0a1.64,1.64,0,0,0-.92,2.11,1.63,1.63,0,1,0,3-1.19Z"/><path class="cls-1" d="M104.59,175a1.61,1.61,0,0,0-2.08-.9,1.08,1.08,0,0,0-.34.21l.79,1,.22.28,1,1.22a1.63,1.63,0,0,0,.41-1.77Z"/><path class="cls-1" d="M110.88,177.8a1.61,1.61,0,0,0-2.09-.91h0a1.62,1.62,0,1,0,2.1.94Z"/><path class="cls-1" d="M128.43,132.88h0a1.63,1.63,0,1,0,1.19,3,1.63,1.63,0,0,0-1.18-3Z"/><path class="cls-1" d="M156.35,160.43a1.61,1.61,0,0,0-2.09-.91h0a1.62,1.62,0,1,0,2.1.93Z"/><path class="cls-1" d="M161.28,132.45a1.61,1.61,0,0,0-2.08-.93h0a1.63,1.63,0,1,0,2.1.94Z"/><path class="cls-1" d="M153.58,144.11h0a1.63,1.63,0,1,0,2.1.94A1.63,1.63,0,0,0,153.58,144.11Z"/><path class="cls-1" d="M109.48,147.06a1.61,1.61,0,0,0-2.08-.93h0a1.62,1.62,0,0,0-.92,2.11,1.63,1.63,0,0,0,3-1.19Z"/><path class="cls-1" d="M118.64,143.56l0-.05a1.62,1.62,0,0,0-2.14-.85h0a1.63,1.63,0,1,0,2.11.92Z"/><path class="cls-1" d="M145.92,133.14l0,0a1.63,1.63,0,0,0-2.14-.86h0a1.63,1.63,0,1,0,2.11.92Z"/><path class="cls-1" d="M147.25,163.92a1.61,1.61,0,0,0-2.08-.93h0a1.63,1.63,0,1,0,2.1.94Z"/><path class="cls-1" d="M139.63,130.33a1.61,1.61,0,0,0-2.07-.9h0a1.61,1.61,0,0,0-.92,2.1,1.63,1.63,0,1,0,3-1.18Z"/><path class="cls-1" d="M135.34,173.63a1.62,1.62,0,0,0-2.09-.91h0a1.63,1.63,0,1,0,2.1.94Z"/><path class="cls-1" d="M136.82,136.61a1.62,1.62,0,0,0-2.08-.93h0a1.63,1.63,0,1,0,2.11.92Z"/><path class="cls-1" d="M170.38,129a1.62,1.62,0,0,0-2.09-.92h0a1.63,1.63,0,1,0,2.1.94Z"/><path class="cls-1" d="M108.11,161.48h0a1.63,1.63,0,1,0,2.1.94A1.63,1.63,0,0,0,108.11,161.48Z"/><path class="cls-1" d="M146.57,148.51a1.61,1.61,0,0,0-2.08-.93h0a1.62,1.62,0,1,0,2.1.93Z"/><path class="cls-1" d="M98.55,149.66a1.62,1.62,0,0,0-1.12,2,1.33,1.33,0,0,0,.1.28,1.63,1.63,0,1,0,1-2.28Z"/><path class="cls-1" d="M162.07,125.24l-.08,0a1.61,1.61,0,1,0,.08,0Z"/><path class="cls-1" d="M112.35,140.76a1.62,1.62,0,0,0-2.08-.94h0a1.63,1.63,0,1,0,2.11.93Z"/><path class="cls-1" d="M153.15,128.8a1.63,1.63,0,0,0-1.13,2c0,.09.07.18.11.27a1.63,1.63,0,1,0,1-2.28Z"/><path class="cls-1" d="M125.87,139.22a1.64,1.64,0,0,0-1.13,2,2.18,2.18,0,0,0,.11.27,1.63,1.63,0,1,0,1-2.28Z"/><path class="cls-1" d="M126.3,154.53h0a1.63,1.63,0,1,0,2.1.94A1.63,1.63,0,0,0,126.3,154.53Z"/><path class="cls-1" d="M160.1,147a1.63,1.63,0,0,0-1.13,2,1.53,1.53,0,0,0,.11.27,1.63,1.63,0,1,0,1-2.28Z"/><path class="cls-1" d="M116.43,165.25a1.62,1.62,0,0,0-2-1h0a1.63,1.63,0,1,0,2.11.92Z"/><path class="cls-1" d="M101.38,143.31a1.63,1.63,0,0,0-1.13,2c0,.09.07.19.11.28a1.63,1.63,0,1,0,1-2.29Z"/><path class="cls-1" d="M167.47,135a1.6,1.6,0,1,0,.11.27C167.55,135.2,167.51,135.11,167.47,135Z"/><path class="cls-1" d="M122.11,152.63a1.62,1.62,0,0,0-2.09-.91h0a1.63,1.63,0,1,0,2.1.94Z"/><path class="cls-1" d="M131.2,149.16a1.61,1.61,0,0,0-2.09-.91h0a1.63,1.63,0,1,0,2.1.94Z"/><path class="cls-1" d="M158.53,138.75l0-.06a1.61,1.61,0,0,0-2.11-.86h0a1.63,1.63,0,1,0,2.1.94Z"/><path class="cls-1" d="M83,150.31a2.19,2.19,0,0,0-.33.12l.7.85.34.41,1,1.21A1.57,1.57,0,0,0,83,150.31Z"/><path class="cls-1" d="M152.19,135.91a1.62,1.62,0,0,0-2.09-.92h0a1.63,1.63,0,1,0,2.1.94Z"/><path class="cls-1" d="M111.78,170.66a1.62,1.62,0,0,0-1.12,2,1.33,1.33,0,0,0,.1.28,1.63,1.63,0,1,0,1-2.28Z"/><path class="cls-1" d="M113,156.15a1.61,1.61,0,0,0-2.08-.93h0a1.63,1.63,0,1,0,2.09.94Z"/><path class="cls-1" d="M94.83,163.09l0-.08a1.61,1.61,0,0,0-2.12-.84,1.15,1.15,0,0,0-.33.21l2,2.48a1.63,1.63,0,0,0,.39-1.75Z"/><path class="cls-1" d="M140.13,145.46a1.63,1.63,0,1,0-2.92,1.44,1.62,1.62,0,0,0,3-1.16A1.33,1.33,0,0,0,140.13,145.46Z"/><path class="cls-1" d="M91.35,154l0-.07a1.6,1.6,0,0,0-2.11-.84h0a1.62,1.62,0,0,0-.92,2.11,1.63,1.63,0,1,0,3-1.19Z"/><path class="cls-1" d="M106.72,153.28a1.62,1.62,0,0,0-2.09-.92h0a1.63,1.63,0,1,0,2.1.94Z"/><path class="cls-1" d="M124.91,146.33a1.61,1.61,0,0,0-2.09-.91h0a1.62,1.62,0,1,0,2.1.93Z"/><path class="cls-1" d="M164.76,141.56a1.61,1.61,0,0,0-2.08-.93h0a1.62,1.62,0,1,0,2.1.93Z"/><path class="cls-1" d="M149.39,142.21a1.61,1.61,0,0,0-2.09-.91h0a1.63,1.63,0,1,0,2.1.94Z"/><path class="cls-1" d="M97.63,156.75a1.61,1.61,0,0,0-2.09-.91h0a1.63,1.63,0,1,0,2.1.94Z"/><path class="cls-1" d="M126.08,176.88a1.67,1.67,0,1,0,.1.28A1.33,1.33,0,0,0,126.08,176.88Z"/><path class="cls-1" d="M138.82,182.75a.19.19,0,0,1,0-.07,1.64,1.64,0,0,0-2.14-.85h0a1.63,1.63,0,1,0,2.1.94Z"/><path class="cls-1" d="M147.9,179.28l0-.05a1.62,1.62,0,0,0-2.13-.87h0a1.63,1.63,0,1,0,2.1.94Z"/><path class="cls-1" d="M150.72,173l0-.07a1.6,1.6,0,0,0-2.12-.84h0a1.63,1.63,0,1,0,2.1.94Z"/><path class="cls-1" d="M124.09,198.76a1.6,1.6,0,0,0-2.09-.91,1.19,1.19,0,0,0-.38.25l.9,1.1.13.14,1,1.24a1.61,1.61,0,0,0,.44-1.79Z"/><path class="cls-1" d="M114.35,186.89a1.63,1.63,0,0,0-2.1-.94,1.41,1.41,0,0,0-.36.24l2,2.48a1.63,1.63,0,0,0,.44-1.78Z"/><path class="cls-1" d="M142.29,191.84a1.62,1.62,0,0,0-2-1h0a1.62,1.62,0,1,0,2.1.92Z"/><path class="cls-1" d="M123.37,183.43a1.61,1.61,0,0,0-2.08-.93h0a1.63,1.63,0,1,0,2.1.94Z"/><path class="cls-1" d="M141.63,176.47l0-.07a1.63,1.63,0,0,0-2.13-.85h0a1.63,1.63,0,1,0,2.1.94Z"/><path class="cls-1" d="M120.63,189.7a.61.61,0,0,0,0-.12,1.63,1.63,0,0,0-2.16-.78h0a1.63,1.63,0,1,0,2.1.94Z"/><path class="cls-1" d="M117.16,180.61l-.06-.14a1.61,1.61,0,0,0-2.15-.76h0a1.63,1.63,0,1,0,2.09.94Z"/><path class="cls-1" d="M132.54,179.94h0a1.62,1.62,0,0,0-2.13-.87l-.11,0a1.63,1.63,0,1,0,2.13.87Z"/><path class="cls-1" d="M129.72,186.22l-.05-.12a1.62,1.62,0,0,0-2.15-.78h0a1.63,1.63,0,1,0,2.1.94Z"/><path class="cls-1" d="M139.49,198.13l-.06-.14a1.61,1.61,0,0,0-2.15-.76h0a1.63,1.63,0,1,0,2.1.94Z"/><path class="cls-1" d="M133.19,195.31a.54.54,0,0,0-.05-.11,1.6,1.6,0,0,0-2.14-.77h0a1.62,1.62,0,1,0,2.11.92Z"/><path class="cls-1" d="M136,189s0-.07,0-.11a1.62,1.62,0,0,0-2.17-.77h0a1.63,1.63,0,1,0,2.11.92Z"/><path class="cls-1" d="M126.85,192.53l0-.05a1.61,1.61,0,0,0-2.11-.86h0a1.62,1.62,0,0,0-.92,2.1,1.63,1.63,0,1,0,3-1.18Z"/><path class="cls-1" d="M143.09,184.75a1.63,1.63,0,0,0-1.13,2c0,.09.07.18.11.27a1.63,1.63,0,1,0,1-2.28Z"/><g id="freepik--Character--inject-2"><path class="cls-2" d="M123.48,2.32c12.93,1,6.38,35.09-8,34.05S112.3,1.46,123.48,2.32Z"/><path class="cls-2" d="M108,6.88C70.16,26.18,40,55.83,40.59,68.5c.92,18.15,18.95,62.19,30.9,81.14C75,155.2,117.77,127,114,121.06c-4.53-7.21-28.07-49.77-28.21-50.6-.48-1.75,28.19-39.4,35.75-48.62C135.42,5,128.58-3.6,108,6.88Z"/><path class="cls-2" d="M146.07,179.78a7.84,7.84,0,0,1-8.66,2.27,11.57,11.57,0,0,1-3.51,7c-3.62,3.16-10.13-1.14-10.13-1.14a14.3,14.3,0,0,1-4.86,6.93c-3.77,2.67-10.94-.72-10.94-.72a12.61,12.61,0,0,1-8.13,3.34c-8.07,0-14.54-10.53-18.72-17.2s-9.86-29.35-11.33-33.49l42.33-27.18s27.2,24.41,31,32.92C146.3,159.59,149.88,175,146.07,179.78Z"/><path class="cls-3" d="M137.92,181.31c-1.6-8.42-5.58-15.93-9.15-23.63,0-.18-.33,0-.26.12,3.63,7.63,5.69,15.88,9,23.63a.21.21,0,0,0,.41-.12Z"/><path class="cls-3" d="M124.18,187.48a21.56,21.56,0,0,0-2.34-5.26c-1-1.84-2-3.65-3-5.46q-3-5.41-6.38-10.66c-.11-.16-.37,0-.27.12,2,3.6,4,7.23,5.88,10.91.93,1.85,1.86,3.7,2.77,5.56a26.89,26.89,0,0,0,2.81,5.13.31.31,0,0,0,.42.09A.32.32,0,0,0,124.18,187.48Z"/><path class="cls-3" d="M107.84,194a15.58,15.58,0,0,0-2.37-4.71q-1.44-2.45-2.87-4.89c-1.88-3.28-3.77-6.55-5.56-9.88a.16.16,0,0,0-.2-.07.15.15,0,0,0-.07.19c1.76,3.41,3.51,6.83,5.35,10.22l2.72,5a14.44,14.44,0,0,0,2.85,4.35.11.11,0,0,0,.16,0,.1.1,0,0,0,0-.16Z"/><rect class="cls-4" x="76.48" y="119.23" width="27.31" height="23.01" rx="1.56" transform="translate(-53.73 63.51) rotate(-30.37)"/><rect class="cls-5" x="78.44" y="120.92" width="23.39" height="19.7" transform="translate(-53.75 63.51) rotate(-30.37)"/><rect class="cls-4" x="87.56" y="140.89" width="10" height="1.04" transform="translate(-58.78 66.17) rotate(-30.36)"/><rect class="cls-4" x="98.79" y="136.01" width="4.04" height="1.04" transform="translate(-55.2 69.73) rotate(-30.38)"/><rect class="cls-4" x="74.77" y="123.81" width="4.03" height="1.03" transform="translate(-52.68 56.56) rotate(-30.67)"/><rect class="cls-4" x="79.26" y="120.46" width="6.51" height="1.03" transform="translate(-50.17 59.01) rotate(-30.67)"/><path class="cls-6" d="M80.46,128.67,81.84,131l-1.09.63-1.38-2.35Zm1.19,2.3-1.23-2.1-.86.49,1.25,2.12Z"/><rect class="cls-6" x="80.34" y="129.52" width="0.84" height="1.75" transform="translate(-54.83 58.7) rotate(-30.36)"/><rect class="cls-6" x="79.52" y="128.75" width="0.68" height="0.25" transform="translate(-54.19 58.04) rotate(-30.36)"/><path class="cls-7" d="M83.82,136.5l1.11-.14H85a.13.13,0,0,1,0,.12l-1,.12.23.39a.13.13,0,0,1,0,.12.1.1,0,0,1-.14,0l-.3-.52h0Z"/><path class="cls-7" d="M83.7,136.08a.17.17,0,0,1,0-.19.13.13,0,0,1,.18,0,.14.14,0,0,1,0,.17A.17.17,0,0,1,83.7,136.08Zm.62-.35a.15.15,0,0,1,0-.2.14.14,0,0,1,.17,0,.14.14,0,0,1,0,.18.13.13,0,0,1-.18,0Z"/><path class="cls-7" d="M83.42,135.18a.46.46,0,0,1,.19-.26.65.65,0,0,1,.34,0,.42.42,0,0,1,.26.21.47.47,0,0,1,0,.33.08.08,0,0,1-.12-.12.25.25,0,0,0,0-.17A.2.2,0,0,0,84,135a.28.28,0,0,0-.18,0,.16.16,0,0,0-.1.14.28.28,0,0,0,0,.18h0a.15.15,0,0,1-.13,0H83.3l.14.24a.09.09,0,0,1,0,.13h0a.12.12,0,0,1-.14,0l-.25-.43a.09.09,0,0,1,0-.13h.38Z"/><path class="cls-7" d="M83.33,134.78a1,1,0,0,1-.42.11.42.42,0,0,1-.33-.2.4.4,0,0,1,0-.37,1,1,0,0,1,.31-.31.87.87,0,0,1,.41-.11.4.4,0,0,1,.33.18.42.42,0,0,1,0,.38A.67.67,0,0,1,83.33,134.78Zm-.35-.6a.84.84,0,0,0-.23.23.21.21,0,0,0,0,.19.28.28,0,0,1,.18.09.53.53,0,0,0,.3-.09.45.45,0,0,0,.23-.22.34.34,0,0,0,0-.2.28.28,0,0,0-.18,0A.76.76,0,0,0,83,134.18Z"/><path class="cls-7" d="M82.91,133.18l.13.21h.14l-.64.11h0L83,133h0Zm0,.09-.16.18H83Z"/><path class="cls-7" d="M82.07,132.64l.51-.3m.09,0h0l-.39.23h.26l-.08.23.36-.23h0l-.52.3h0l.14-.32h-.35s0,.19,0,.09Z"/><rect class="cls-7" x="82.05" y="139.16" width="1.26" height="0.28" transform="translate(-59.49 61.66) rotate(-30.67)"/><rect class="cls-7" x="85.94" y="139.76" width="1.04" height="0.28" transform="translate(-58.88 62.93) rotate(-30.38)"/><rect class="cls-7" x="86.38" y="140.07" width="0.81" height="0.28" transform="translate(-58.97 63.09) rotate(-30.36)"/><rect class="cls-7" x="83.29" y="140.02" width="0.58" height="0.28" transform="matrix(0.86, -0.51, 0.51, 0.86, -59.8, 62.23)"/><path class="cls-6" d="M96.08,127.57a.92.92,0,0,1-1.26-.31,1,1,0,0,1,.25-1.21h0l.19-.14a2,2,0,0,1,.74-.25,1.3,1.3,0,0,1,.78,0,1.22,1.22,0,0,1,.45.39.21.21,0,0,1,0,.28.19.19,0,0,1-.27,0,.08.08,0,0,1,0,0,.75.75,0,0,0-.25-.25.77.77,0,0,0-.37,0h0a.64.64,0,0,1,.26.28.9.9,0,0,1-.44,1.19Zm-.23-.36a.48.48,0,0,0,.22-.64s0,0,0,0a.54.54,0,0,0-.7-.17.5.5,0,0,0-.17.68A.49.49,0,0,0,95.85,127.21Z"/><path class="cls-6" d="M95.21,125.29a1.59,1.59,0,0,1-.93.23.89.89,0,0,1-.7-.39.91.91,0,0,1,0-.82,1.82,1.82,0,0,1,.65-.67,2,2,0,0,1,.92-.26.86.86,0,0,1,.7.4,1,1,0,0,1,0,.84A2.05,2.05,0,0,1,95.21,125.29ZM94.45,124a1.38,1.38,0,0,0-.48.48.45.45,0,0,0,0,.42.38.38,0,0,0,.37.2,1.07,1.07,0,0,0,.67-.17,1.31,1.31,0,0,0,.48-.51.45.45,0,0,0,0-.42.71.71,0,0,0-.37-.19,1.33,1.33,0,0,0-.67.19Z"/><path class="cls-8" d="M97.37,128.44a3.75,3.75,0,0,1,1.52.54,3.86,3.86,0,0,1-.28,1.57c-.28.65-1.07,1.09-1.55.65s.2-1.27.2-1.27-1,.23-1.21-.48S96.75,128.39,97.37,128.44Z"/><rect class="cls-4" x="94.28" y="123.49" width="0.16" height="9.58" transform="translate(-51.91 65.31) rotate(-30.37)"/><path class="cls-4" d="M85.46,133.6A4.86,4.86,0,1,0,87.21,127a4.84,4.84,0,0,0-1.75,6.64Zm7-4.15a3.37,3.37,0,1,1-4.61-1.21h0a3.35,3.35,0,0,1,4.62,1l.1.17Z"/><path class="cls-9" d="M85.46,133.6A4.86,4.86,0,1,0,87.21,127a4.84,4.84,0,0,0-1.75,6.64Zm7-4.15a3.37,3.37,0,1,1-4.61-1.21h0a3.35,3.35,0,0,1,4.62,1l.1.17Z"/><path class="cls-4" d="M85.46,133.6l1.28-.75A3.37,3.37,0,1,1,91.35,134a3.25,3.25,0,0,1-1.54.46V136a4.57,4.57,0,0,0,2.21-.67,4.84,4.84,0,1,0-6.63-1.75Z"/><g id="freepik--qdp2mstif--inject-2"><path class="cls-6" d="M87.86,129.52l.93.24a.29.29,0,0,1,.23.33s0,0,0,.06a2.7,2.7,0,0,1-.12.47l.75.19c0-.14.08-.29.12-.43l.11-.44a.2.2,0,0,1,.11-.11l1.24-.45a.33.33,0,0,1,.44.17h0a.3.3,0,0,1-.14.4l-.05,0-.86.35h-.09a2.89,2.89,0,0,1-.18.65l.78.18a.35.35,0,0,1,.15.12c.16.28.32.56.49.84a.34.34,0,0,1,0,.49h-.12a.39.39,0,0,1-.44-.24l-.31-.53h0l-1.76-.37h0a.25.25,0,0,0,.21.18l.62.14a.3.3,0,0,1,.23.35.28.28,0,0,1-.34.21l0,0-1-.28h-.1l-.42-.7a.32.32,0,0,1,0-.3,1.13,1.13,0,0,1,.15-.68c.16-.23,0-.14-.1-.16l-.51-.14a.26.26,0,0,1-.22-.3.09.09,0,0,1,0,0A.27.27,0,0,1,87.86,129.52Z"/><path class="cls-6" d="M87.33,130.31a.49.49,0,0,1,.68.18.51.51,0,0,1-.19.68h0a.49.49,0,0,1-.66-.18A.5.5,0,0,1,87.33,130.31Z"/></g><polygon class="cls-4" points="115.62 121.99 110.27 112.87 96.9 119.11 103.61 130.6 115.62 121.99"/><polygon class="cls-9" points="96.9 119.13 98.79 118.23 105.47 129.27 103.61 130.6 96.9 119.13"/><polygon class="cls-4" points="64.7 139.55 70.05 148.68 83.42 142.43 76.7 130.94 64.7 139.55"/><polygon class="cls-9" points="76.7 130.96 83.42 142.43 81.74 143.22 75.05 132.15 76.7 130.96"/><path class="cls-3" d="M91.67,79.13C90.53,77.06,89.37,75,88.16,73s-2.77-4.13-4.23-6.18h-.11c1.09,2.11,2,4.27,3.2,6.32s2.38,4.21,3.51,6.37c2.23,4.21,4.65,8.31,6.86,12.54,0,.14.3,0,.24-.12A132.62,132.62,0,0,0,91.67,79.13Z"/><path class="cls-3" d="M114.72,32c-.4.32-.79.67-1.19,1q2.28-3,4.3-6.16s0-.1-.09,0c-1.86,2.14-3.67,4.32-5.41,6.56-.82,1.07-1.75,2.11-2.47,3.2s-1.75,2.49-2.67,3.66c-.12.14.09.34.2.2.91-1.13,1.91-2.16,2.86-3.25s1.59-1.95,2.37-2.95a8.28,8.28,0,0,0,.91-.68c.49-.4,1-.82,1.4-1.26.9-.88,1.76-1.76,2.63-2.71h0C116.63,30.42,115.69,31.23,114.72,32Z"/></g></svg>